<svg xmlns="http://www.w3.org/2000/svg" width="460" height="328" style="shape-rendering:geometricPrecision;text-rendering:geometricPrecision;image-rendering:optimizeQuality;fill-rule:evenodd;clip-rule:evenodd"><path style="opacity:.012" fill="#1d2612" d="M438.5 8.5c-7.892-1.09-15.059.577-21.5 5-.399-.228-.565-.562-.5-1 3.906-3.117 8.406-5.117 13.5-6 2 1.333 4 1.333 6 0 .995.566 1.828 1.233 2.5 2z"/><path style="opacity:.008" fill="#0e1409" d="M442.5 10.5c-1.653-.16-2.986-.826-4-2 1.822-.929 3.155-.262 4 2z"/><path style="opacity:.999" fill="#87bf56" d="M438.5 8.5c1.014 1.174 2.347 1.84 4 2h1a6.544 6.544 0 0 0 3 3h1c1.242 4.155 3.242 7.822 6 11v1c-.306 2.885.027 5.552 1 8 .438-.065.772.101 1 .5a18.476 18.476 0 0 0-2 3.5c-.901.79-1.568 1.79-2 3-.054 2.132-1.054 3.465-3 4-1.406.473-2.073 1.473-2 3l-7 3.5c-.752.67-1.086 1.504-1 2.5-3.334.48-5.667 2.147-7 5-3.219.57-5.552 2.236-7 5-.667 0-1 .333-1 1-3.908.777-6.908 2.777-9 6h-1c-1.841.902-3.174 2.236-4 4h-1c-2.481 1.22-4.481 2.886-6 5-2.969.966-5.302 2.632-7 5 .172.992-.162 1.658-1 2 0-.667-.333-1-1-1-2.481 1.22-4.481 2.886-6 5-.667 0-1 .333-1 1-2.698.345-4.698 1.678-6 4 .091 2.198-.575 2.531-2 1a21.622 21.622 0 0 0-5 4v1a32.128 32.128 0 0 0-7 3 4602.245 4602.245 0 0 1-8 7 26.523 26.523 0 0 1-6 3.5c-.752.671-1.086 1.504-1 2.5-3.219.569-5.552 2.236-7 5h-1a26.523 26.523 0 0 1-6 3.5c-.752.671-1.086 1.504-1 2.5-3.219.569-5.552 2.236-7 5-2.939.956-5.272 2.623-7 5-5.608 2.947-10.608 6.614-15 11-.992-.172-1.658.162-2 1-2.326.645-3.993 1.978-5 4a97.692 97.692 0 0 0-14 9c-.798.457-1.131 1.124-1 2-1.21.432-2.21 1.099-3 2h-1a6.547 6.547 0 0 0-3 3v1c-2.826.498-5.16 1.831-7 4 .172.992-.162 1.658-1 2-.333-1.333-.667-1.333-1 0-2.767.37-4.767 1.704-6 4 .172.992-.162 1.658-1 2 0-.667-.333-1-1-1a21.614 21.614 0 0 0-5 4v1c-3.334.481-5.667 2.147-7 5-3.219.569-5.552 2.236-7 5h-1a26.523 26.523 0 0 1-6 3.5c-.752.671-1.086 1.504-1 2.5 0 .667-.333 1-1 1-.333-1.333-.667-1.333-1 0-2.295.636-3.961 1.969-5 4h-1a26.523 26.523 0 0 1-6 3.5c-.752.671-1.086 1.504-1 2.5-3.204.883-5.871 2.55-8 5a235.224 235.224 0 0 0-13 8.5c-.752.671-1.086 1.504-1 2.5a24.766 24.766 0 0 0-8 5c-.667 0-1 .333-1 1a162.514 162.514 0 0 0-20 15c-2.909.946-5.242 2.613-7 5 .862 2.267 2.529 3.267 5 3v1c3.526 2.837 7.526 4.837 12 6 0 .667.333 1 1 1 1.533 1.745 3.533 2.745 6 3 0 .667.333 1 1 1 1.533 1.745 3.533 2.745 6 3 .321 1.548 1.321 2.215 3 2 1.291-.237 2.291.096 3 1-1.333.333-1.333.667 0 1 1.533 1.745 3.533 2.745 6 3 1.546 2.431 3.879 3.764 7 4v1a892.751 892.751 0 0 0 6 4c2.198-.091 2.531.575 1 2 .412 2.387 1.412 4.387 3 6v5c-.667 0-1 .333-1 1a20.69 20.69 0 0 0-1 5 32.255 32.255 0 0 1-10 9h-1a54.968 54.968 0 0 1-12-1c-3.602-.872-7.602-1.538-12-2-.896 1.006-1.562 1.006-2 0-2.015-1.424-4.348-2.09-7-2-1 1.333-2 1.333-3 0-4.273-.875-8.773-2.208-13.5-4-.383.556-.883.889-1.5 1-2.121.175-4.121-.159-6-1-1.419-.951-3.085-1.284-5-1h-1c-1.828-1.615-3.828-1.948-6-1 0-.667-.333-1-1-1a14.828 14.828 0 0 1-6.5-2c-.399.228-.565.562-.5 1-.896 1.006-1.562 1.006-2 0a26.335 26.335 0 0 0-5-2h-1a89.927 89.927 0 0 0-15-2c-1.792.134-3.458-.199-5-1 0-.667-.333-1-1-1a76.923 76.923 0 0 0-10-1c0-.667-.333-1-1-1a44.87 44.87 0 0 0-10-1c-3.013.393-5.68-.274-8-2a21.434 21.434 0 0 0-7-1c-3.408-1.403-7.075-2.07-11-2h-1c-.709-.904-1.709-1.237-3-1-1 1.333-2 1.333-3 0-3.044-1.511-6.378-2.178-10-2a36.287 36.287 0 0 0-4.5-2c-.399.228-.565.562-.5 1-2.062-.372-3.729-.705-5-1a26.332 26.332 0 0 0-5-2c-.667 0-1 .333-1 1h-1c0-.667-.333-1-1-1a19.222 19.222 0 0 0-6-1c-.79-.901-1.79-1.568-3-2-1.278-.282-2.278-.949-3-2a54.822 54.822 0 0 0-4-9 54.937 54.937 0 0 1 1-12c.603-1.135.936-2.135 1-3 1.431-1.28 2.098-2.947 2-5 .214-3.223 1.214-6.556 3-10 1.767-2.292 2.767-4.958 3-8-.237-1.291.096-2.291 1-3 1.431-1.28 2.098-2.947 2-5a5.728 5.728 0 0 1 1-3c1.238-1.714 1.905-3.714 2-6 .667 0 1-.333 1-1a126.564 126.564 0 0 0 4-12c1.574-1.602 2.24-3.602 2-6 .667 0 1-.333 1-1 .734-1.208 1.067-2.541 1-4 .838-.342 1.172-1.008 1-2l2-7c.836-4.197 2.17-8.53 4-13 1.713-1.135 2.38-2.802 2-5-.135-2.054.532-3.721 2-5 .904-.709 1.237-1.709 1-3a20.676 20.676 0 0 0 1-5c1.676-.683 2.343-2.017 2-4a5.728 5.728 0 0 1 1-3c1.37-1.75 2.37-3.75 3-6-1.333-1-1.333-2 0-3 2.318-1.685 3.318-4.019 3-7v-1c1.767-2.292 2.767-4.958 3-8-.237-1.291.096-2.291 1-3 1.238-1.714 1.905-3.714 2-6a71.194 71.194 0 0 1 3-9c2.356-2.057 3.356-4.724 3-8 1.52-2.39 2.52-5.057 3-8 .231-3.088 1.564-5.421 4-7 4.335-2.253 9.002-3.586 14-4 0 .667.333 1 1 1h3c.709.904 1.709 1.237 3 1 .992-.172 1.658.162 2 1 .356 1.69 1.356 2.69 3 3a53.153 53.153 0 0 1 4 15c-1.333.333-1.333.667 0 1 1.333 1 1.333 2 0 3-.667 0-1 .333-1 1v22c-.236 3.109.097 6.109 1 9-.667 0-1 .333-1 1v11c.418.722 1.084 1.222 2 1.5-.228.399-.562.565-1 .5-1.333 1.667-1.333 3.333 0 5 .06.543.393.876 1 1a225.05 225.05 0 0 0 15-8h1a1085.331 1085.331 0 0 1 31-13c.667 0 1-.333 1-1 2.053.098 3.72-.569 5-2h1a64.509 64.509 0 0 0 10-5h1a164.683 164.683 0 0 0 22-10c1.333-.333 1.333-.667 0-1 .848-1.125 1.848-1.125 3 0 5.711-2.112 11.044-4.779 16-8 3.149.085 5.816-.915 8-3h1c2.319-.492 4.319-1.493 6-3h1c3.487-.908 6.487-2.574 9-5h1c2.203-.104 4.203-.77 6-2l2-1c2.47-.153 4.47-1.153 6-3h1c2.98-.823 5.647-2.157 8-4h1a18.67 18.67 0 0 0 7-3l2-1c2.826-.498 5.16-1.831 7-4 3.149.085 5.816-.915 8-3l2-1c0 .667.333 1 1 1 1.716-1.525 3.716-2.525 6-3 .667 0 1-.333 1-1 2.826-.498 5.16-1.831 7-4 3.331.482 5.997-.518 8-3h1a22.586 22.586 0 0 0 8-4h1a144.673 144.673 0 0 0 19-7.5 28.936 28.936 0 0 0 5-3.5h1a144.673 144.673 0 0 0 19-7.5 28.936 28.936 0 0 0 5-3.5h1a144.673 144.673 0 0 0 19-7.5 28.936 28.936 0 0 0 5-3.5h1c-.065.438.101.772.5 1a600.895 600.895 0 0 0 18.5-9h1a301.462 301.462 0 0 0 4-3h1c-.065.438.101.772.5 1 6.441-4.423 13.608-6.09 21.5-5z"/><path style="opacity:.004" fill="#2f3231" d="M443.5 10.5c2 0 3 1 3 3a6.544 6.544 0 0 1-3-3z"/><path style="opacity:.063" fill="#182211" d="M415.5 12.5a301.462 301.462 0 0 1-4 3c0-.667-.333-1-1-1 1.348-1.1 2.848-2.1 4.5-3 .399.228.565.562.5 1z"/><path style="opacity:.106" fill="#192111" d="M410.5 14.5v1a600.895 600.895 0 0 1-18.5 9c-.399-.228-.565-.562-.5-1a28.936 28.936 0 0 1 5-3.5 126.631 126.631 0 0 1 14-5.5z"/><path style="opacity:.051" fill="#f6faf3" d="M447.5 13.5a125.263 125.263 0 0 1 7 10.5c-.228.399-.562.565-1 .5-2.758-3.178-4.758-6.845-6-11z"/><path style="opacity:.039" fill="#313721" d="M453.5 25.5c.767.672 1.434 1.505 2 2.5-.574 1.92-.907 3.753-1 5.5-.973-2.448-1.306-5.115-1-8z"/><path style="opacity:.043" fill="#171f10" d="M390.5 23.5a28.936 28.936 0 0 1-5 3.5 144.673 144.673 0 0 1-19 7.5 258.583 258.583 0 0 1 23.5-12c.399.228.565.562.5 1z"/><path style="opacity:.012" fill="#192312" d="M365.5 34.5a28.936 28.936 0 0 1-5 3.5 144.673 144.673 0 0 1-19 7.5 258.583 258.583 0 0 1 23.5-12c.399.228.565.562.5 1z"/><path style="opacity:.029" fill="#060b05" d="M453.5 37.5c.438-.065.772.101 1 .5-.578 1.417-1.578 2.25-3 2.5.432-1.21 1.099-2.21 2-3z"/><path style="opacity:.047" fill="#11150b" d="M448.5 44.5c.991 1.623.324 2.623-2 3-.073-1.527.594-2.527 2-3z"/><path style="opacity:.035" fill="#1a2313" d="M340.5 45.5a28.936 28.936 0 0 1-5 3.5 144.673 144.673 0 0 1-19 7.5c2.176-2.015 4.676-3.682 7.5-5l1 1a216.92 216.92 0 0 1 15-8c.399.228.565.562.5 1z"/><path style="opacity:.012" fill="#151b0d" d="M446.5 47.5a27.211 27.211 0 0 1-8 6c-.086-.996.248-1.83 1-2.5l7-3.5z"/><path style="opacity:.071" fill="#151c0e" d="M438.5 53.5a26.695 26.695 0 0 1-7 5c1.333-2.853 3.666-4.52 7-5z"/><path style="opacity:.063" fill="#182011" d="M315.5 56.5a22.586 22.586 0 0 1-8 4c2.176-2.015 4.676-3.682 7.5-5 .399.228.565.562.5 1z"/><path style="opacity:.039" fill="#161d0f" d="M431.5 58.5c-1.767 2.39-4.1 4.057-7 5 1.448-2.764 3.781-4.43 7-5z"/><path style="opacity:.051" fill="#141a0d" d="M306.5 60.5c-2.003 2.482-4.669 3.482-8 3a83.535 83.535 0 0 0 7.5-4c.399.228.565.562.5 1z"/><path style="opacity:.051" fill="#141b0e" d="M298.5 63.5c-1.84 2.169-4.174 3.502-7 4 1.836-2.088 4.169-3.421 7-4z"/><path style="opacity:.078" fill="#172010" d="M290.5 68.5c-2.284.475-4.284 1.475-6 3-.667 0-1-.333-1-1a59.772 59.772 0 0 1 6.5-4c.464.594.631 1.261.5 2z"/><path style="opacity:.039" fill="#1b2512" d="M423.5 64.5a68.473 68.473 0 0 1-9 7v-1c2.092-3.223 5.092-5.223 9-6z"/><path style="opacity:.071" fill="#151c0e" d="M281.5 71.5c-2.184 2.085-4.851 3.085-8 3a83.535 83.535 0 0 0 7.5-4c.399.228.565.562.5 1z"/><path style="opacity:.09" fill="#182110" d="M413.5 70.5c0 .667.333 1 1 1a22.763 22.763 0 0 0-5 4v-1c.826-1.764 2.159-3.098 4-4z"/><path style="opacity:.051" fill="#101609" d="M88.5 75.5h-3a2.428 2.428 0 0 1 .5-2c.667 1.333 1.333 1.333 2 0 .464.594.631 1.261.5 2z"/><path style="opacity:.063" fill="#161d0f" d="M84.5 74.5c-4.998.414-9.665 1.747-14 4 4.025-4.013 8.692-5.347 14-4z"/><path style="opacity:.082" fill="#171e0f" d="M91.5 76.5c-1.291.237-2.291-.096-3-1 1.395-1.315 2.395-.981 3 1z"/><path style="opacity:.051" fill="#151c0f" d="M273.5 74.5c-1.84 2.169-4.174 3.502-7 4 1.836-2.088 4.169-3.421 7-4z"/><path style="opacity:.039" fill="#151b0e" d="M408.5 74.5c0 .667.333 1 1 1a36.082 36.082 0 0 1-7 4c1.519-2.114 3.519-3.78 6-5z"/><path style="opacity:.106" fill="#1b2612" d="M93.5 77.5c1.644.31 2.644 1.31 3 3-1.644-.31-2.644-1.31-3-3z"/><path style="opacity:.067" fill="#1a2513" d="M264.5 79.5a18.67 18.67 0 0 1-7 3c1.589-1.806 3.589-3.139 6-4 .607.124.94.457 1 1z"/><path style="opacity:.047" fill="#171e10" d="M402.5 79.5c-1.448 2.764-3.781 4.43-7 5 1.698-2.368 4.031-4.034 7-5z"/><path style="opacity:.09" fill="#182111" d="M256.5 82.5c-2.353 1.843-5.02 3.177-8 4 2.101-1.988 4.601-3.655 7.5-5 .399.228.565.562.5 1z"/><path style="opacity:.047" fill="#1b2512" d="M393.5 85.5c.667 0 1 .333 1 1a40.954 40.954 0 0 0-7 5v-1c1.519-2.114 3.519-3.78 6-5z"/><path style="opacity:.118" fill="#1e2a15" d="M247.5 86.5c-1.53 1.847-3.53 2.847-6 3 1.5-1.679 3.333-3.012 5.5-4 .399.228.565.562.5 1z"/><path style="opacity:.024" fill="#10180c" d="M66.5 85.5c-.48 2.943-1.48 5.61-3 8-.085-3.149.915-5.816 3-8z"/><path style="opacity:.067" fill="#131a0c" d="M239.5 90.5c-1.797 1.23-3.797 1.896-6 2 1.816-1.941 3.816-2.608 6-2z"/><path style="opacity:.047" fill="#12180c" d="M386.5 91.5h1a36.082 36.082 0 0 1-7 4c1.302-2.322 3.302-3.655 6-4z"/><path style="opacity:.004" fill="#13190d" d="M96.5 80.5c1.25.077 2.083.744 2.5 2a62.074 62.074 0 0 0 2.5 8.5 33.87 33.87 0 0 1-1 5.5v-1a53.153 53.153 0 0 0-4-15z"/><path style="opacity:.118" fill="#161e0f" d="M232.5 92.5c-2.513 2.426-5.513 4.092-9 5 2.435-2.391 5.435-4.058 9-5z"/><path style="opacity:.02" fill="#263016" d="M63.5 93.5c.356 3.276-.644 5.943-3 8 .48-2.943 1.48-5.61 3-8z"/><path style="opacity:.024" fill="#141b0e" d="M378.5 96.5c-.629 2.497-2.296 3.83-5 4a21.622 21.622 0 0 1 5-4z"/><path style="opacity:.094" fill="#181e0f" d="M222.5 97.5c-1.681 1.507-3.681 2.508-6 3 1.5-1.679 3.333-3.012 5.5-4 .399.228.565.562.5 1z"/><path style="opacity:.141" fill="#181f0f" d="M215.5 100.5c-2.184 2.085-4.851 3.085-8 3a83.484 83.484 0 0 0 7.5-4c.399.228.565.562.5 1z"/><path style="opacity:.141" fill="#161c0e" d="M207.5 103.5c-4.956 3.221-10.289 5.888-16 8 4.635-3.847 9.968-6.513 16-8z"/><path style="opacity:.059" fill="#182111" d="M373.5 101.5a57.312 57.312 0 0 1-15 10c2.647-2.311 5.314-4.644 8-7a32.128 32.128 0 0 1 7-3z"/><path style="opacity:.004" fill="#1a2211" d="M100.5 99.5c1.088 7.157 1.088 14.491 0 22h-1v-21c.667 0 1-.333 1-1z"/><path style="opacity:.016" fill="#0a0f06" d="M57.5 110.5c-.095 2.286-.762 4.286-2 6-.584-2.22.083-4.22 2-6z"/><path style="opacity:.012" fill="#141a0e" d="M358.5 111.5c.086.996-.248 1.829-1 2.5a26.523 26.523 0 0 0-6 3.5c-.086-.996.248-1.829 1-2.5a26.523 26.523 0 0 0 6-3.5z"/><path style="opacity:.075" fill="#1b2412" d="M188.5 111.5v1a164.683 164.683 0 0 1-22 10c1.753-1.723 3.753-3.223 6-4.5a238.203 238.203 0 0 0 16-6.5z"/><path style="opacity:.02" fill="#0f1409" d="M351.5 117.5a26.707 26.707 0 0 1-7 5c1.448-2.764 3.781-4.431 7-5z"/><path style="opacity:.006" fill="#151b0e" d="M165.5 122.5a64.509 64.509 0 0 1-10 5c0-.667-.333-1-1-1a71.006 71.006 0 0 0 10-5c.607.124.94.457 1 1z"/><path style="opacity:.012" fill="#151b0e" d="M100.5 121.5c.458 3.084.458 6.418 0 10-.903-2.891-1.236-5.891-1-9 .667 0 1-.333 1-1z"/><path style="opacity:.024" fill="#162311" d="M54.5 119.5c-.233 3.042-1.233 5.708-3 8 .233-3.042 1.233-5.708 3-8z"/><path style="opacity:.012" fill="#151d0f" d="M343.5 122.5c.086.996-.248 1.829-1 2.5a26.523 26.523 0 0 0-6 3.5c-.086-.996.248-1.829 1-2.5a26.523 26.523 0 0 0 6-3.5z"/><path style="opacity:.02" fill="#1a2211" d="M154.5 126.5v1c-1.28 1.431-2.947 2.098-5 2-.667 0-1 .333-1 1a1085.331 1085.331 0 0 0-31 13 598.504 598.504 0 0 1 23.5-12l1 1a35.822 35.822 0 0 1 12.5-6z"/><path style="opacity:.006" fill="#1d2a17" d="M51.5 128.5c.318 2.981-.682 5.315-3 7-.438.065-.772-.101-1-.5a59.772 59.772 0 0 1 4-6.5z"/><path style="opacity:.059" fill="#0e1308" d="M336.5 128.5a26.707 26.707 0 0 1-7 5c1.448-2.764 3.781-4.431 7-5z"/><path style="opacity:.012" fill="#12180c" d="M329.5 133.5c-1.767 2.39-4.1 4.057-7 5 1.728-2.377 4.061-4.044 7-5z"/><path style="opacity:.086" fill="#0f1409" d="M99.5 132.5a2.428 2.428 0 0 1 2 .5c-.739 2.235-.739 4.235 0 6a36.354 36.354 0 0 1-2 4.5v-11z"/><path style="opacity:.075" fill="#171e0f" d="M322.5 138.5c-4.372 4.351-9.372 8.017-15 11 4.392-4.386 9.392-8.053 15-11z"/><path style="opacity:.008" fill="#1c2f18" d="M48.5 138.5c-.63 2.25-1.63 4.25-3 6-.438.065-.772-.101-1-.5a11.357 11.357 0 0 0 1.5-3.5c.417-1.256 1.25-1.923 2.5-2z"/><path style="opacity:.031" fill="#0c1107" d="M100.5 145.5c.571 1.473.571 3.14 0 5-1.333-1.667-1.333-3.333 0-5z"/><path style="opacity:.102" fill="#1a2311" d="M116.5 143.5a225.05 225.05 0 0 1-15 8c-.607-.124-.94-.457-1-1a662.694 662.694 0 0 0 15.5-8c.399.228.565.562.5 1z"/><path style="opacity:.043" fill="#11180b" d="M44.5 147.5c.343 1.983-.324 3.317-2 4 .16-1.653.826-2.986 2-4z"/><path style="opacity:.075" fill="#151c0e" d="M305.5 150.5a2.428 2.428 0 0 1 2 .5l-7 3.5c1.007-2.022 2.674-3.355 5-4z"/><path style="opacity:.039" fill="#12190b" d="M41.5 156.5c.237 1.291-.096 2.291-1 3-.438.065-.772-.101-1-.5.566-.995 1.233-1.828 2-2.5z"/><path style="opacity:.027" fill="#161d0e" d="M300.5 154.5a56.548 56.548 0 0 1-8 7.5l-7 3.5c-.131-.876.202-1.543 1-2a97.692 97.692 0 0 1 14-9z"/><path style="opacity:.014" fill="#131a0e" d="M38.5 164.5c.38 2.198-.287 3.865-2 5-.098-2.053.569-3.72 2-5z"/><path style="opacity:.047" fill="#172010" d="M285.5 165.5c-.31 1.644-1.31 2.644-3 3v-1c.79-.901 1.79-1.568 3-2z"/><path style="opacity:.039" fill="#13190c" d="M281.5 167.5c0 .667.333 1 1 1-1.014 1.174-2.347 1.84-4 2a6.547 6.547 0 0 1 3-3z"/><path style="opacity:.075" fill="#161e0f" d="M278.5 171.5c-1.836 2.088-4.169 3.421-7 4 1.84-2.169 4.174-3.502 7-4z"/><path style="opacity:.102" fill="#1b2714" d="M269.5 177.5h1c-1.836 2.088-4.169 3.421-7 4 1.233-2.296 3.233-3.63 6-4z"/><path style="opacity:.055" fill="#161e0f" d="M261.5 182.5c.667 0 1 .333 1 1-1.681 1.508-3.681 2.508-6 3a21.614 21.614 0 0 1 5-4z"/><path style="opacity:.008" fill="#0e150a" d="m32.5 182.5-2 7h-1c-.321-3.077.679-5.41 3-7z"/><path style="opacity:.043" fill="#151c0e" d="M256.5 187.5a39.396 39.396 0 0 1-7 5c1.333-2.853 3.666-4.519 7-5z"/><path style="opacity:.018" fill="#161f11" d="M29.5 189.5v2c.067 1.459-.266 2.792-1 4h-1c-.24-2.398.426-4.398 2-6z"/><path style="opacity:.004" fill="#13190c" d="M249.5 192.5c-1.767 2.39-4.1 4.057-7 5 1.448-2.764 3.781-4.431 7-5z"/><path style="opacity:.173" fill="#3b5227" d="M27.5 195.5v1c.24 2.398-.426 4.398-2 6-.09-2.652.576-4.985 2-7z"/><path style="opacity:.051" fill="#182110" d="M241.5 197.5c.086.996-.248 1.829-1 2.5a26.523 26.523 0 0 0-6 3.5c-.086-.996.248-1.829 1-2.5a26.523 26.523 0 0 0 6-3.5z"/><path style="opacity:.004" fill="#11170c" d="M25.5 202.5a126.564 126.564 0 0 1-4 12c-.597-.235-.93-.735-1-1.5 1.228-3.927 2.895-7.427 5-10.5z"/><path style="opacity:.071" fill="#0e1309" d="M232.5 204.5h1c-1.705 1.692-3.705 3.025-6 4 1.039-2.031 2.705-3.364 5-4z"/><path style="opacity:.016" fill="#131a0d" d="M226.5 208.5c.086.996-.248 1.829-1 2.5a26.523 26.523 0 0 0-6 3.5c-.086-.996.248-1.829 1-2.5a26.523 26.523 0 0 0 6-3.5z"/><path style="opacity:.027" fill="#151c0e" d="M219.5 214.5c-2.129 2.45-4.796 4.117-8 5 2.129-2.45 4.796-4.117 8-5z"/><path style="opacity:.043" fill="#141d11" d="M20.5 215.5c-.095 2.286-.762 4.286-2 6-.438.065-.772-.101-1-.5.73-2.058 1.73-3.891 3-5.5z"/><path style="opacity:.012" fill="#151b0e" d="M211.5 219.5c-3.688 4.663-8.355 8.33-14 11-.086-.996.248-1.829 1-2.5a235.224 235.224 0 0 1 13-8.5z"/><path style="opacity:.012" fill="#11170b" d="M17.5 224.5c.098 2.053-.569 3.72-2 5-.098-2.053.569-3.72 2-5z"/><path style="opacity:.012" fill="#161d0f" d="M197.5 230.5c-1.984 2.664-4.651 4.331-8 5a24.766 24.766 0 0 1 8-5z"/><path style="opacity:.004" fill="#050a04" d="M14.5 232.5c-.233 3.042-1.233 5.708-3 8 .233-3.042 1.233-5.708 3-8z"/><path style="opacity:.004" fill="#13190c" d="M188.5 236.5a2.428 2.428 0 0 1 2 .5 415.526 415.526 0 0 1-22 14.5 162.514 162.514 0 0 1 20-15z"/><path style="opacity:.004" fill="#0f1309" d="M8.5 250.5c.098 2.053-.569 3.72-2 5-.826-2.048-.159-3.715 2-5z"/><path style="opacity:.047" fill="#171f10" d="M168.5 251.5c-1.457 2.285-3.457 4.118-6 5.5 1.82.2 3.153 1.034 4 2.5-2.471.267-4.138-.733-5-3 1.758-2.387 4.091-4.054 7-5z"/><path style="opacity:.11" fill="#1d2712" d="M179.5 266.5h-1c-4.474-1.163-8.474-3.163-12-6 .617-.111 1.117-.444 1.5-1a111.833 111.833 0 0 0 11.5 7z"/><path style="opacity:.059" fill="#27321f" d="M5.5 258.5a54.937 54.937 0 0 0-1 12h-1c-.944-2.249-1.277-4.749-1-7.5a29.06 29.06 0 0 1 3-4.5z"/><path style="opacity:.129" fill="#212b14" d="M179.5 266.5a35.377 35.377 0 0 1 6 4c-2.467-.255-4.467-1.255-6-3v-1z"/><path style="opacity:.027" fill="#17200f" d="M192.5 274.5c-2.467-.255-4.467-1.255-6-3-.065-.438.101-.772.5-1a49.937 49.937 0 0 1 5.5 4z"/><path style="opacity:.051" fill="#eff6e8" d="M3.5 270.5h1a54.822 54.822 0 0 1 4 9c.065.438-.101.772-.5 1-2.22-3.04-3.72-6.373-4.5-10z"/><path style="opacity:.106" fill="#182315" d="M192.5 274.5c1.527-.073 2.527.594 3 2-1.679.215-2.679-.452-3-2z"/><path style="opacity:.059" fill="#192211" d="M198.5 277.5c2.382.851 4.382 2.184 6 4-2.467-.255-4.467-1.255-6-3v-1z"/><path style="opacity:.012" fill="#22291b" d="M11.5 281.5c1.21.432 2.21 1.099 3 2-1.679.215-2.679-.452-3-2z"/><path style="opacity:.004" fill="#0e1309" d="M14.5 283.5c2.065.017 4.065.35 6 1-.597.639-1.43.972-2.5 1-1.7.113-2.866-.553-3.5-2z"/><path style="opacity:.043" fill="#1d2913" d="M204.5 281.5c2.6.968 4.934 2.301 7 4-3.121-.236-5.454-1.569-7-4z"/><path style="opacity:.039" fill="#151b0e" d="M23.5 284.5a26.332 26.332 0 0 1 5 2c-1.189.548-2.355.881-3.5 1a19.588 19.588 0 0 1-3.5-2h1c.667 0 1-.333 1-1z"/><path style="opacity:.086" fill="#151b0e" d="M38.5 288.5c-1.915.284-3.581-.049-5-1-.065-.438.101-.772.5-1a36.287 36.287 0 0 1 4.5 2z"/><path style="opacity:.02" fill="#141a0d" d="M217.5 290.5a892.751 892.751 0 0 1-6-4c.617-.111 1.117-.444 1.5-1 2.2 1.151 3.7 2.818 4.5 5z"/><path style="opacity:.016" fill="#171809" d="M38.5 288.5c3.622-.178 6.956.489 10 2-3.66.341-6.993-.325-10-2z"/><path style="opacity:.049" fill="#101609" d="M51.5 290.5c1.291-.237 2.291.096 3 1-.716.283-1.55.616-2.5 1a2.427 2.427 0 0 1-.5-2z"/><path style="opacity:.035" fill="#182112" d="M55.5 291.5c3.925-.07 7.592.597 11 2-.617.111-1.117.444-1.5 1a76.8 76.8 0 0 1-9.5-3z"/><path style="opacity:.008" fill="#0c1106" d="M66.5 293.5a21.434 21.434 0 0 1 7 1c-1.48.648-2.98.981-4.5 1-.995-.566-1.828-1.233-2.5-2z"/><path style="opacity:.071" fill="#1b2513" d="M218.5 292.5c1.256-.039 2.256.461 3 1.5a54.392 54.392 0 0 0 0 4.5c-1.588-1.613-2.588-3.613-3-6z"/><path style="opacity:.047" fill="#151e0f" d="M81.5 296.5a44.87 44.87 0 0 1 10 1v1c-3.622.178-6.956-.489-10-2z"/><path style="opacity:.008" fill="#0b1006" d="M91.5 298.5h1c3.36.116 6.693.449 10 1v1c-3.958.249-7.624-.418-11-2z"/><path style="opacity:.008" fill="#050803" d="M102.5 300.5h1c-.185.67-.519.67-1 0z"/><path style="opacity:.004" fill="#141b0d" d="M108.5 301.5a89.927 89.927 0 0 1 15 2c.333 1.333.667 1.333 1 0a26.335 26.335 0 0 1 5 2c-7.357-.072-14.357-1.406-21-4z"/><path style="opacity:.008" fill="#030702" d="M221.5 303.5c1.333.667 1.333.667 0 0z"/><path style="opacity:.055" fill="#161d0e" d="M138.5 306.5c-2.453 1.145-4.787.812-7-1-.065-.438.101-.772.5-1a14.828 14.828 0 0 0 6.5 2z"/><path style="opacity:.006" fill="#0b1006" d="M220.5 304.5h1c.826 2.048.159 3.715-2 5a20.69 20.69 0 0 1 1-5z"/><path style="opacity:.008" fill="#11170b" d="M145.5 308.5c-.716.283-1.549.616-2.5 1a19.602 19.602 0 0 1-3.5-2c2.172-.948 4.172-.615 6 1z"/><path style="opacity:.102" fill="#151d0e" d="M146.5 308.5c1.915-.284 3.581.049 5 1-.716.283-1.549.616-2.5 1-.995-.566-1.828-1.233-2.5-2z"/><path style="opacity:.041" fill="#151b0e" d="M172.5 313.5c-.716.283-1.549.616-2.5 1a131.994 131.994 0 0 1-12.5-4c.617-.111 1.117-.444 1.5-1 4.727 1.792 9.227 3.125 13.5 4z"/><path style="opacity:.051" fill="#181f11" d="M175.5 313.5c2.652-.09 4.985.576 7 2-2.174-.42-4.174-.42-6 0-.798-.457-1.131-1.124-1-2z"/><path style="opacity:.021" fill="#161c0f" d="M184.5 315.5c4.398.462 8.398 1.128 12 2-3.273.364-6.44.364-9.5 0-.995-.566-1.828-1.233-2.5-2z"/><path style="opacity:.035" fill="#141a0d" d="M196.5 317.5a54.968 54.968 0 0 0 12 1c-1.804.662-3.804.995-6 1-2.452-.039-4.452-.706-6-2z"/><path style="opacity:.004" fill="#182011" d="M219.5 309.5c-1.589 4.758-4.756 8.091-9.5 10-.399-.228-.565-.562-.5-1a32.255 32.255 0 0 0 10-9z"/></svg>