<svg xmlns="http://www.w3.org/2000/svg" width="512" height="512" style="shape-rendering:geometricPrecision;text-rendering:geometricPrecision;image-rendering:optimizeQuality;fill-rule:evenodd;clip-rule:evenodd"><path style="opacity:.986" fill="#000100" d="M439.5 11.5c8.467-.687 14.633 2.646 18.5 10 9.225 31.4 18.058 62.9 26.5 94.5-.833 10.167-6.333 15.667-16.5 16.5a3433.021 3433.021 0 0 0-39.5-10c-14.603 49.397-39.603 92.563-75 129.5a231.266 231.266 0 0 1 17 26.5c5.638.83 11.304 1.33 17 1.5 1.833.5 3 1.667 3.5 3.5.667 64 .667 128 0 192-.5 1.833-1.667 3-3.5 3.5a514.75 514.75 0 0 0-32 1.5 74.242 74.242 0 0 0-5 6.5c48.332.5 96.666.667 145 .5v16h-480v-16c11.005.167 22.005 0 33-.5C8.11 433.042-2.722 373.542 16 308.5c21.615-61.448 63.115-103.115 124.5-125-6.048-9.683-6.548-19.683-1.5-30l7.5-7.5a1282.88 1282.88 0 0 0-16.5-29.5c-4.841-12.944-3.508-25.277 4-37a30.37 30.37 0 0 1 11.5-7.5c36-.667 72-.667 108 0 7.409 2.408 12.576 7.242 15.5 14.5 4.199 10.103 4.199 20.103 0 30a651.042 651.042 0 0 0-16.5 30c9.699 6.923 13.199 16.256 10.5 28-.936 3.707-2.769 6.874-5.5 9.5 16.332 5.16 31.665 12.326 46 21.5 38.541-18.086 66.041-46.752 82.5-86l3.5-10.5a364.88 364.88 0 0 0-32-17c-7.363-6.942-8.53-14.775-3.5-23.5a1427.562 1427.562 0 0 1 85.5-57z"/><path style="opacity:1" fill="#fcc038" d="M463.5 101.5c.065.438-.101.772-.5 1-11.146-4.33-22.646-6.83-34.5-7.5-4.579 1.743-7.579 4.91-9 9.5-1.673.843-2.84 2.176-3.5 4a470.764 470.764 0 0 1-15.5 43c-17.432 32.639-39.765 61.806-67 87.5a203.94 203.94 0 0 0-15 12 1716.308 1716.308 0 0 1-47 30c-2.514 1.252-5.18 1.752-8 1.5-.167-15.004 0-30.004.5-45 17.483-6.495 34.983-12.995 52.5-19.5 46.442-24.439 76.609-61.939 90.5-112.5.93-3.35.097-6.183-2.5-8.5l-35-17.5c-1.211-.774-1.211-1.607 0-2.5l73-48.5a1521.731 1521.731 0 0 1 21 73z"/><path style="opacity:1" fill="#2c9538" d="M152.5 87.5a32.462 32.462 0 0 0 .5 8 456.087 456.087 0 0 1 14 25c5.935 7.27 13.435 12.103 22.5 14.5 16.663.5 33.33.667 50 .5a35.775 35.775 0 0 0-4 7c-24 1.333-48 1.333-72 0a939.207 939.207 0 0 1-19.5-36c-1.785-7.306.048-13.472 5.5-18.5a4.932 4.932 0 0 1 3-.5z"/><path style="opacity:1" fill="#43bb58" d="M152.5 87.5c32.335-.167 64.668 0 97 .5 5.452 5.028 7.285 11.194 5.5 18.5l-15.5 29c-16.67.167-33.337 0-50-.5-9.065-2.397-16.565-7.23-22.5-14.5a456.087 456.087 0 0 0-14-25 32.462 32.462 0 0 1-.5-8z"/><path style="opacity:1" fill="#eda206" d="M463.5 101.5c1.905 4.397 3.239 9.063 4 14a990.144 990.144 0 0 1-42-11.5c-2.098-.678-4.098-.511-6 .5 1.421-4.59 4.421-7.757 9-9.5 11.854.67 23.354 3.17 34.5 7.5.399-.228.565-.562.5-1z"/><path style="opacity:1" fill="#fdd35c" d="M247.5 167.5c-28.002.167-56.002 0-84-.5a31.045 31.045 0 0 1-9-5.5c.418-.722 1.084-1.222 2-1.5 28.667-.667 57.333-.667 86 0 3.289 1.41 4.956 3.91 5 7.5z"/><path style="opacity:1" fill="#fdc038" d="M154.5 161.5a31.045 31.045 0 0 0 9 5.5c27.998.5 55.998.667 84 .5-.044 3.59-1.711 6.09-5 7.5-28.667.667-57.333.667-86 0-3.284-1.396-4.951-3.896-5-7.5-.033-2.602.967-4.602 3-6z"/><path style="opacity:1" fill="#eda207" d="M400.5 151.5c-19.719 46.213-49.386 84.713-89 115.5a1304.29 1304.29 0 0 0-41 26c-2.15 1.411-4.484 2.245-7 2.5v-13c2.82.252 5.486-.248 8-1.5a1716.308 1716.308 0 0 0 47-30 203.94 203.94 0 0 1 15-12c27.235-25.694 49.568-54.861 67-87.5z"/><path style="opacity:.998" d="M459.5 175.5c13.337-.167 26.671 0 40 .5 1.833.5 3 1.667 3.5 3.5.667 98.667.667 197.333 0 296-.5 1.833-1.667 3-3.5 3.5a400.05 400.05 0 0 1-40 0c-1.833-.5-3-1.667-3.5-3.5-.667-98.667-.667-197.333 0-296 .69-1.85 1.856-3.184 3.5-4z"/><path style="opacity:1" fill="#2c9638" d="M214.5 192.5c-23.063.265-44.396 6.432-64 18.5-50.4 32.812-79.234 79.312-86.5 139.5-3.432 51.531 11.068 97.197 43.5 137-12.338.167-24.671 0-37-.5-38.036-43.125-52.87-93.292-44.5-150.5C38.51 276.949 72.01 233.783 126.5 207c28.186-12.753 57.519-17.587 88-14.5z"/><path style="opacity:1" fill="#ffc239" d="M479.5 191.5c-.167 87.001 0 174.001.5 261 1.347 3.844 3.847 6.511 7.5 8v3h-16v-272h8z"/><path style="opacity:1" fill="#ffd45c" d="M479.5 191.5h8v269c-3.653-1.489-6.153-4.156-7.5-8-.5-86.999-.667-173.999-.5-261z"/><path style="opacity:1" fill="#43bb58" d="M214.5 192.5c24.407 2.019 47.407 8.853 69 20.5a393.751 393.751 0 0 1-25 9c-5.212 2.247-8.712 6.08-10.5 11.5l-1 18c-37.572-18.066-73.738-15.566-108.5 7.5-39.31 31.845-51.477 72.011-36.5 120.5 15.407 38.308 43.574 60.808 84.5 67.5 15.297 1.339 30.297-.161 45-4.5-.166 10.339 0 20.672.5 31 .273 1.829 1.107 3.329 2.5 4.5a111.002 111.002 0 0 0 20.5 1.5c7.242.112 14.409-.388 21.5-1.5 1.393-1.171 2.227-2.671 2.5-4.5l1-64 7-10c.027 25.729.694 51.396 2 77a6.978 6.978 0 0 0 3.5 2.5 342.33 342.33 0 0 0 37 0c1.829-.273 3.329-1.107 4.5-2.5a2338.811 2338.811 0 0 0 1-136c-.935-2.602-2.768-4.102-5.5-4.5-8.994-.5-17.994-.666-27-.5a72.26 72.26 0 0 0-2-19 1169.578 1169.578 0 0 1 30-22.5 473.984 473.984 0 0 0 19-17.5c.978.311 1.645.978 2 2-3.391.938-5.891 2.938-7.5 6l-1 185a180.773 180.773 0 0 1-14.5 17.5c-73.666.5-147.333.667-221 .5-32.432-39.803-46.932-85.469-43.5-137 7.266-60.188 36.1-106.688 86.5-139.5 19.604-12.068 40.937-18.235 64-18.5z"/><path style="opacity:.997" d="M403.5 223.5c13.337-.167 26.671 0 40 .5 1.833.5 3 1.667 3.5 3.5.667 82.667.667 165.333 0 248-.5 1.833-1.667 3-3.5 3.5a400.05 400.05 0 0 1-40 0c-1.833-.5-3-1.667-3.5-3.5-.667-82.667-.667-165.333 0-248 .69-1.85 1.856-3.184 3.5-4z"/><path style="opacity:1" fill="#ffc239" d="M423.5 239.5c-.167 71.001 0 142.001.5 213 1.347 3.844 3.847 6.511 7.5 8v3h-16v-224h8z"/><path style="opacity:1" fill="#ffd45c" d="M423.5 239.5h8v221c-3.653-1.489-6.153-4.156-7.5-8-.5-70.999-.667-141.999-.5-213z"/><path style="opacity:1" fill="#cbf6c6" d="M255.5 308.5c-.166 6.342 0 12.675.5 19 2.304 7.613 7.137 9.779 14.5 6.5a83.533 83.533 0 0 1 15-8.5c3.556 18.168 1.723 35.835-5.5 53 .457-5.274-1.71-8.774-6.5-10.5a342.33 342.33 0 0 0-37 0c-2.167.833-3.667 2.333-4.5 4.5-.5-24.5-13-37-37.5-37.5-10.42-5.504-13.253-13.671-8.5-24.5 6.834-7.871 14.668-9.037 23.5-3.5 4.024 3.213 6.024 7.38 6 12.5h16c-1.192-15.36-9.025-25.693-23.5-31a40.914 40.914 0 0 1-.5-9h-16a21.127 21.127 0 0 1-1 9c-22.393 10.343-28.226 26.676-17.5 49 8.441 10.718 19.608 15.884 33.5 15.5 9.731 6.298 11.564 14.465 5.5 24.5-8.438 7.856-16.771 7.856-25 0-2.082-2.987-3.249-6.321-3.5-10h-16c1.181 15.177 8.848 25.51 23 31a9.86 9.86 0 0 1 1 6c-45.367-21.72-64.867-57.72-58.5-108a248.458 248.458 0 0 1 4.5-15c21.877-21.896 48.21-30.062 79-24.5 10.931 2.418 21.098 6.585 30.5 12.5l1 29c1.305 4.297 3.805 7.631 7.5 10z"/><path style="opacity:1" fill="#2c9538" d="M349.5 276.5a473.984 473.984 0 0 1-19 17.5 1169.578 1169.578 0 0 0-30 22.5 132.555 132.555 0 0 0-8-18.5 309.826 309.826 0 0 0 48.5-34.5c3.85 3.707 6.683 8.04 8.5 13z"/><path style="opacity:1" fill="#a9e2a1" d="M137.5 281.5a248.458 248.458 0 0 0-4.5 15c-6.367 50.28 13.133 86.28 58.5 108v3h9c9.933 3.359 20.266 4.692 31 4a49.87 49.87 0 0 1-1 14c-42.602 13.41-77.436 2.41-104.5-33-20.857-36.144-19.191-71.144 5-105a54.53 54.53 0 0 1 6.5-6z"/><path style="opacity:1" fill="#ffc239" d="M367.5 295.5c-.167 52.334 0 104.668.5 157 1.611 3.775 4.111 6.775 7.5 9-4.896 1.946-10.229 2.613-16 2v-168h8z"/><path style="opacity:1" fill="#ffd45c" d="M367.5 295.5h8v166c-3.389-2.225-5.889-5.225-7.5-9-.5-52.332-.667-104.666-.5-157z"/><path style="opacity:1" fill="#a9e1a1" d="M285.5 325.5a83.533 83.533 0 0 0-15 8.5c-7.363 3.279-12.196 1.113-14.5-6.5-.5-6.325-.666-12.658-.5-19 8.027 4.432 15.694 3.765 23-2 3.714 5.808 6.048 12.141 7 19z"/><path style="opacity:1" fill="#ffc239" d="M311.5 351.5c-.167 33.668 0 67.335.5 101 1.611 3.775 4.111 6.775 7.5 9-4.896 1.946-10.229 2.613-16 2v-112h8z"/><path style="opacity:1" fill="#ffd45c" d="M311.5 351.5h8v110c-3.389-2.225-5.889-5.225-7.5-9a5098.15 5098.15 0 0 1-.5-101z"/><path style="opacity:1" fill="#c9f5c4" d="M231.5 411.5c-10.734.692-21.067-.641-31-4h7a40.914 40.914 0 0 1 .5-9c12.452-3.886 20.119-12.22 23-25 .5 12.662.667 25.329.5 38z"/><path style="opacity:1" fill="#ffc239" d="M255.5 383.5c-.167 23.002 0 46.002.5 69 1.611 3.775 4.111 6.775 7.5 9-4.896 1.946-10.229 2.613-16 2v-80h8z"/><path style="opacity:1" fill="#ffd45c" d="M255.5 383.5h8v78c-3.389-2.225-5.889-5.225-7.5-9a2379.52 2379.52 0 0 1-.5-69z"/></svg>