<svg width="156" height="141" viewBox="0 0 156 141" fill="none" xmlns="http://www.w3.org/2000/svg">
<g clip-path="url(#clip0_120_127)">
<path opacity="0.012" fill-rule="evenodd" clip-rule="evenodd" d="M149.475 59.3799C147.678 58.081 145.699 57.5541 143.539 57.7992C143.471 57.6911 143.474 57.5873 143.547 57.4882C144.914 57.2327 146.281 57.3293 147.648 57.7779C147.965 58.3667 148.456 58.6281 149.122 58.5619C149.292 58.8309 149.41 59.1036 149.475 59.3799Z" fill="#1D2612"/>
<path opacity="0.01" fill-rule="evenodd" clip-rule="evenodd" d="M150.196 60.3939C149.811 60.1386 149.57 59.8008 149.475 59.3799C150.044 59.3897 150.284 59.7278 150.196 60.3939Z" fill="#0E1409"/>
<path opacity="0.999" fill-rule="evenodd" clip-rule="evenodd" d="M147.475 59.3799C147.57 59.8008 147.811 60.1386 148.196 60.3938L148.442 60.5245C148.428 60.9287 148.549 61.3259 148.787 61.6535L149.032 61.7842C148.795 62.9672 148.807 64.1294 149.069 65.2706L148.939 65.5162C148.487 66.185 148.22 66.8838 148.139 67.6123C148.255 67.6536 148.316 67.738 148.319 67.8658C147.982 68.0302 147.664 68.2309 147.371 68.4644C147.046 68.5408 146.752 68.6993 146.487 68.9401C146.196 69.4569 145.776 69.6537 145.228 69.5309C144.821 69.4634 144.526 69.6219 144.344 70.0066L142.167 69.9519C141.895 70.0183 141.704 70.1795 141.595 70.4355C140.713 70.1178 139.922 70.2225 139.222 70.7493C138.357 70.4688 137.566 70.5733 136.849 71.0631C136.685 70.976 136.56 71.0143 136.473 71.1782C135.411 70.8585 134.413 70.9579 133.478 71.4764L133.232 71.3457C132.662 71.3268 132.16 71.4803 131.727 71.8058L131.481 71.6752C130.712 71.6507 130.003 71.7987 129.354 72.1196C128.498 71.9691 127.707 72.0735 126.981 72.4335C126.893 72.6996 126.724 72.8196 126.474 72.7942C126.561 72.6303 126.522 72.505 126.359 72.4178C125.59 72.3934 124.881 72.5414 124.231 72.8623C124.067 72.7752 123.942 72.8135 123.855 72.9773C123.147 72.7096 122.481 72.7758 121.858 73.1761C121.593 73.728 121.386 73.7228 121.236 73.1605C120.639 73.1828 120.049 73.2938 119.485 73.49L119.355 73.7356C118.66 73.5929 117.951 73.5333 117.243 73.5581C116.283 73.7841 115.323 74.0089 114.363 74.2326C113.725 74.3425 113.076 74.3681 112.431 74.3086C112.159 74.3752 111.968 74.5362 111.859 74.7921C110.994 74.5114 110.203 74.6161 109.486 75.106L109.24 74.9753C108.603 75.0852 107.953 75.1107 107.309 75.0513C107.037 75.1179 106.846 75.2789 106.737 75.5348C105.872 75.254 105.081 75.3588 104.364 75.8486C103.517 75.6995 102.726 75.8043 101.991 76.1625C100.228 76.1538 98.5203 76.4014 96.8683 76.9051C96.647 76.7333 96.4398 76.7283 96.2463 76.8895C95.5905 76.7441 95.0068 76.8538 94.4952 77.219C92.9487 77.2148 91.4046 77.3426 89.8798 77.6009C89.6241 77.609 89.4551 77.7293 89.3729 77.9616C89.0191 77.9097 88.6863 77.9429 88.3745 78.061L88.1288 77.9304C87.7246 77.9169 87.3274 78.0383 86.9998 78.2755L86.8692 78.5212C86.1098 78.2743 85.3622 78.2968 84.6268 78.5893C84.5394 78.8555 84.3704 78.9755 84.1198 78.95C84.2122 78.579 84.1301 78.5354 83.8741 78.8194C83.146 78.5487 82.4803 78.6152 81.8774 79.0182C81.7901 79.2843 81.621 79.4043 81.3704 79.3789C81.4576 79.215 81.4193 79.0897 81.2554 79.0025C80.6586 79.0248 80.0685 79.1358 79.5044 79.332L79.3737 79.5777C78.4918 79.2602 77.701 79.3647 77.0007 79.8915C76.1355 79.6107 75.3446 79.7154 74.6277 80.2053L74.382 80.0747C73.7443 80.1845 73.095 80.2101 72.4506 80.1506C72.1782 80.2172 71.9873 80.3782 71.8783 80.6342C71.7912 80.798 71.6659 80.8363 71.502 80.7492C71.5943 80.3782 71.5123 80.3346 71.2563 80.6185C70.6094 80.4749 70.0259 80.5848 69.5053 80.948L69.2596 80.8173C68.6219 80.9272 67.9726 80.9527 67.3282 80.8933C67.0558 80.9599 66.8649 81.1209 66.7559 81.3768C65.8534 81.1752 64.9804 81.2363 64.1372 81.56C62.6985 81.6425 61.2629 81.7725 59.8328 81.9498C59.5604 82.0164 59.3695 82.1774 59.2605 82.4333C58.3839 82.326 57.4949 82.3882 56.6418 82.6165C56.4779 82.5294 56.3526 82.5677 56.2655 82.7315C53.9502 82.9119 51.6523 83.2703 49.3921 83.8037C48.5538 83.656 47.7628 83.7607 47.019 84.1175C46.9346 84.7871 47.2135 85.2506 47.8555 85.5078L47.7248 85.7535C48.2204 86.9112 48.9418 87.9251 49.8891 88.7954C49.8019 88.9593 49.8402 89.0846 50.0041 89.1717C50.1527 89.8007 50.5134 90.3077 51.0862 90.6927C50.9991 90.8566 51.0374 90.9819 51.2012 91.069C51.3499 91.698 51.7106 92.205 52.2834 92.59C52.16 93.0123 52.3185 93.3068 52.7591 93.4733C53.1072 93.5838 53.3094 93.7962 53.3655 94.111C52.9945 94.0186 52.9508 94.1007 53.2348 94.3566C53.3835 94.9856 53.7442 95.4926 54.3169 95.8776C54.3791 96.6768 54.7782 97.3092 55.5141 97.7749L55.3834 98.0206C55.6982 98.6107 56.0154 99.1996 56.3349 99.7872C56.8868 100.052 56.8816 100.259 56.3193 100.409C56.1086 101.05 56.093 101.672 56.2724 102.275L55.6191 103.504C55.4553 103.417 55.3299 103.455 55.2428 103.619C54.899 103.946 54.5971 104.315 54.3438 104.716C53.21 105.27 51.9722 105.578 50.7112 105.621L50.4655 105.49C49.4627 104.991 48.5179 104.383 47.648 103.677C46.877 102.992 45.9813 102.306 44.9611 101.618C44.6095 101.748 44.4459 101.661 44.4698 101.356C44.1608 100.743 43.6746 100.275 43.0113 99.9504C42.5915 100.147 42.3458 100.017 42.2743 99.5584C41.3388 98.7852 40.4074 97.8698 39.4802 96.8119C39.3135 96.8985 39.1471 96.915 38.981 96.8616C38.4371 96.6275 37.9893 96.2841 37.6376 95.832C37.4132 95.413 37.0474 95.1135 36.5398 94.9331L36.2942 94.8024C36.0561 94.1668 35.6082 93.8237 34.9507 93.7728C35.0379 93.6089 34.9996 93.4836 34.8357 93.3965C34.2927 93.0591 33.8354 92.6002 33.5001 92.0559C33.3723 92.0597 33.2879 92.1201 33.2466 92.2362C32.895 92.3663 32.7314 92.2793 32.7552 91.9749C32.4728 91.5613 32.1488 91.1778 31.7881 90.8303L31.5425 90.6996C30.4721 89.7878 29.3267 88.9679 28.1186 88.2485C27.6608 88.0472 27.295 87.7478 27.0208 87.3495C27.108 87.1856 27.0697 87.0603 26.9058 86.9732C26.1651 86.4056 25.388 85.8871 24.5797 85.421C24.6668 85.2571 24.6285 85.1318 24.4646 85.0446C23.7498 84.4417 22.9695 83.9211 22.1385 83.4924C21.3469 83.1953 20.7788 82.683 20.4343 81.9558C19.9725 81.4838 19.4355 81.0917 18.8452 80.7956C18.1913 80.0056 17.3775 79.3626 16.4041 78.867L16.1584 78.7364C16.1023 78.4216 15.9001 78.2092 15.552 78.0987C15.1322 78.2956 14.8865 78.1649 14.815 77.7068C14.2645 76.9378 13.5326 76.3384 12.6195 75.9089C12.3628 75.5304 12.0807 75.1698 11.7752 74.8296C11.6474 74.8334 11.563 74.8938 11.5217 75.0099C11.0637 74.6491 10.6977 74.3495 10.424 74.111C10.1416 73.6974 9.81751 73.3138 9.45687 72.9663C9.29301 72.8792 9.16768 72.9175 9.08054 73.0814L8.83486 72.9507C8.922 72.7868 8.8837 72.6615 8.71983 72.5744C8.32951 72.162 7.87602 71.8145 7.37641 71.5448C7.30004 71.2202 7.1415 70.9257 6.90067 70.6615C6.62354 70.4252 6.465 70.1307 6.42494 69.7781C6.57122 68.8745 6.63586 67.9596 6.6181 67.0444C7.11755 66.0416 7.7257 65.0968 8.43162 64.2269C8.72806 64.0268 8.94053 63.8246 9.06927 63.6205C9.58807 63.493 9.96974 63.1706 10.2139 62.6534C10.6876 61.8895 11.3687 61.2013 12.2575 60.5886C12.991 60.2563 13.585 59.732 14.0397 59.0151C14.1502 58.6669 14.3627 58.4648 14.6774 58.4087C15.1962 58.2812 15.5779 57.9588 15.822 57.4416C15.9734 57.1836 16.1944 56.9735 16.4596 56.8352C16.9877 56.5759 17.4129 56.1717 17.7349 55.6224C17.8988 55.7096 18.0241 55.6713 18.1113 55.5074C19.0014 54.7419 19.8526 53.9324 20.6618 53.0819C21.2578 52.8939 21.6828 52.4896 21.9371 51.8691C22.101 51.9562 22.2263 51.9179 22.3134 51.7541C22.6516 51.5532 22.9076 51.2692 23.0817 50.902C23.3323 50.9275 23.5014 50.8075 23.5887 50.5413L24.9947 49.0828C25.7484 48.161 26.6423 47.2707 27.6759 46.4116C28.245 46.3566 28.6267 46.0342 28.8205 45.4445C29.0557 44.9223 29.4374 44.5999 29.9651 44.4774C30.2799 44.4214 30.4923 44.2192 30.6028 43.871C30.9466 43.5436 31.2485 43.1749 31.5017 42.7733C32.0027 42.8245 32.3409 42.5839 32.5157 42.0519C32.6671 41.7939 32.8881 41.5838 33.1533 41.4455C33.7186 41.1946 34.2256 40.8338 34.6743 40.3634C34.4775 39.9435 34.6081 39.6979 35.0663 39.6263C35.8559 39.5152 36.4065 39.0725 36.7179 38.2985L36.8485 38.0529C37.5821 37.7206 38.1761 37.1963 38.6308 36.4794C38.7413 36.1312 38.9537 35.9291 39.2684 35.873C39.7965 35.6136 40.2217 35.2094 40.5437 34.6602C41.1402 34.012 41.7793 33.4042 42.4567 32.8411C43.3042 32.6435 43.8984 32.1189 44.2389 31.2676C44.9246 30.879 45.5188 30.3544 46.0212 29.6941C46.4814 28.9656 47.1137 28.5666 47.9185 28.4969C49.2779 28.5098 50.5986 28.7921 51.8806 29.3434C51.7935 29.5072 51.8318 29.6326 51.9957 29.7197L52.7327 30.1117C52.7888 30.4264 52.9909 30.6389 53.3391 30.7493C53.6053 30.8367 53.7252 31.0057 53.6998 31.2563C53.5664 31.718 53.6815 32.0943 54.0449 32.3853C53.9269 33.8282 53.5977 35.2459 53.0678 36.5931C52.6968 36.5008 52.6531 36.5828 52.9371 36.8388C53.134 37.2586 53.0033 37.5043 52.5452 37.5758C52.3813 37.4887 52.256 37.527 52.1688 37.6909L49.2945 43.0958C48.8303 43.8288 48.5201 44.6094 48.3643 45.4376C48.2004 45.3505 48.0751 45.3888 47.9879 45.5526L46.5507 48.2551C46.5591 48.4871 46.6574 48.697 46.8461 48.8849C46.738 48.9532 46.6342 48.9503 46.5351 48.8771C45.9898 49.1125 45.7721 49.5218 45.8818 50.1055C45.8256 50.2468 45.8639 50.3721 45.9969 50.4819C47.5732 50.5396 49.1511 50.5377 50.7273 50.4762L50.973 50.6069C54.0821 50.8442 57.1873 51.1298 60.2875 51.4633C60.4514 51.5504 60.5767 51.5121 60.6639 51.3483C61.1555 51.6406 61.6522 51.6945 62.1536 51.5102L62.3993 51.6408C63.4317 51.7568 64.4723 51.783 65.5093 51.719L65.755 51.8496C67.9789 52.153 70.2221 52.2926 72.4665 52.2672C72.8375 52.3596 72.8812 52.2775 72.5972 52.0215C72.9525 51.8559 73.1982 51.9866 73.3342 52.4135C75.0132 52.6408 76.6719 52.6823 78.3103 52.5385C79.0729 52.9708 79.8588 53.0736 80.6677 52.8467L80.9134 52.9773C81.5474 53.1595 82.1696 53.1748 82.7795 53.0242L83.0251 53.1549C84.0004 53.3874 84.9552 53.37 85.8895 53.1024L86.1352 53.233C86.69 53.4953 87.2684 53.593 87.8706 53.5256L88.4926 53.5412C89.1194 53.8263 89.7414 53.842 90.3586 53.5881L90.6043 53.7187C91.444 53.9059 92.2735 53.9266 93.0924 53.7812L93.3381 53.9119C94.0223 54.1155 94.7411 54.176 95.4498 54.0894L96.0718 54.1051C96.8312 54.3519 97.5787 54.3294 98.3142 54.0369C99.0767 54.4692 99.8626 54.572 100.672 54.3451L101.294 54.3607C101.206 54.5246 101.245 54.6499 101.409 54.7371C102.029 54.5866 102.651 54.6022 103.275 54.7839C103.439 54.8711 103.564 54.8328 103.651 54.6689C104.41 54.9158 105.158 54.8932 105.893 54.6008C106.649 55.1544 107.434 55.257 108.251 54.909L108.496 55.0396C109.313 55.2261 110.159 55.2474 110.985 55.1021L111.23 55.2328C113.095 55.5789 114.983 55.7927 116.878 55.8726C117.446 55.8633 118.011 55.7941 118.564 55.666L118.809 55.7966C120.675 56.1427 122.562 56.3565 124.457 56.4365C125.025 56.4272 125.59 56.3579 126.143 56.2298L126.389 56.3605C128.254 56.7066 130.141 56.9204 132.036 57.0003C132.604 56.9911 133.169 56.9218 133.722 56.7937L133.968 56.9244C133.895 57.0235 133.892 57.1272 133.96 57.2354C135.866 57.3367 137.773 57.4053 139.681 57.4413L139.927 57.572C140.385 57.5043 140.844 57.4328 141.301 57.3576L141.547 57.4882C141.474 57.5873 141.471 57.6911 141.539 57.7992C143.699 57.5541 145.678 58.081 147.475 59.3799Z" fill="#87BF56"/>
<path opacity="0.01" fill-rule="evenodd" clip-rule="evenodd" d="M150.442 60.5245C150.933 60.7858 151.048 61.1622 150.787 61.6535C150.55 61.326 150.428 60.9287 150.442 60.5245Z" fill="#2F3231"/>
<path opacity="0.063" fill-rule="evenodd" clip-rule="evenodd" d="M143.301 57.3576C142.844 57.4328 142.385 57.5043 141.927 57.572C142.014 57.4081 141.975 57.2828 141.812 57.1957C142.286 57.1015 142.786 57.0518 143.309 57.0466C143.377 57.1547 143.374 57.2585 143.301 57.3576Z" fill="#182211"/>
<path opacity="0.106" fill-rule="evenodd" clip-rule="evenodd" d="M141.812 57.1956L141.681 57.4413C139.773 57.4053 137.866 57.3366 135.96 57.2353C135.892 57.1272 135.895 57.0235 135.968 56.9243C136.521 56.7962 137.086 56.727 137.653 56.7177C139.048 56.7945 140.436 56.9541 141.812 57.1956Z" fill="#192111"/>
<path opacity="0.051" fill-rule="evenodd" clip-rule="evenodd" d="M151.032 61.7842C151.207 62.9423 151.323 64.1086 151.38 65.2784C151.272 65.3466 151.168 65.3438 151.069 65.2706C150.807 64.1295 150.795 62.9673 151.032 61.7842Z" fill="#F6FAF3"/>
<path opacity="0.039" fill-rule="evenodd" clip-rule="evenodd" d="M150.939 65.5163C151.039 65.7816 151.094 66.0734 151.103 66.3918C150.711 66.7885 150.39 67.1954 150.139 67.6124C150.22 66.8839 150.487 66.1851 150.939 65.5163Z" fill="#313721"/>
<path opacity="0.043" fill-rule="evenodd" clip-rule="evenodd" d="M135.722 56.7937C135.169 56.9218 134.604 56.9911 134.036 57.0003C132.141 56.9204 130.254 56.7066 128.389 56.3605C130.836 56.2763 133.286 56.3171 135.73 56.4827C135.798 56.5909 135.795 56.6946 135.722 56.7937Z" fill="#171F10"/>
<path opacity="0.012" fill-rule="evenodd" clip-rule="evenodd" d="M128.143 56.2299C127.59 56.358 127.025 56.4272 126.457 56.4365C124.562 56.3566 122.675 56.1427 120.809 55.7967C123.257 55.7124 125.707 55.7532 128.151 55.9189C128.219 56.027 128.216 56.1308 128.143 56.2299Z" fill="#192312"/>
<path opacity="0.029" fill-rule="evenodd" clip-rule="evenodd" d="M149.371 68.4644C149.487 68.5056 149.547 68.5901 149.551 68.7179C149.224 68.9905 148.869 69.0645 148.487 68.9401C148.752 68.6993 149.046 68.5408 149.371 68.4644Z" fill="#060B05"/>
<path opacity="0.047" fill-rule="evenodd" clip-rule="evenodd" d="M147.228 69.5309C147.259 70.0592 146.965 70.2177 146.344 70.0067C146.526 69.622 146.821 69.4634 147.228 69.5309Z" fill="#11150B"/>
<path opacity="0.035" fill-rule="evenodd" clip-rule="evenodd" d="M120.564 55.666C120.011 55.7941 119.446 55.8634 118.878 55.8726C116.983 55.7927 115.095 55.5789 113.23 55.2328C114.028 55.0221 114.86 54.9392 115.726 54.9843L115.841 55.3607C117.417 55.297 118.995 55.2951 120.572 55.355C120.64 55.4632 120.637 55.5669 120.564 55.666Z" fill="#1A2313"/>
<path opacity="0.012" fill-rule="evenodd" clip-rule="evenodd" d="M146.345 70.0067C145.462 70.3182 144.53 70.4636 143.595 70.4355C143.704 70.1796 143.895 70.0183 144.167 69.952L146.345 70.0067Z" fill="#151B0D"/>
<path opacity="0.071" fill-rule="evenodd" clip-rule="evenodd" d="M143.595 70.4354C142.826 70.6677 142.025 70.7736 141.222 70.7493C141.922 70.2225 142.713 70.1178 143.595 70.4354Z" fill="#151C0E"/>
<path opacity="0.063" fill-rule="evenodd" clip-rule="evenodd" d="M112.985 55.1022C112.159 55.2474 111.313 55.2262 110.496 55.0397C111.294 54.8289 112.126 54.746 112.992 54.7912C113.061 54.8993 113.058 55.0031 112.985 55.1022Z" fill="#182011"/>
<path opacity="0.039" fill-rule="evenodd" clip-rule="evenodd" d="M141.222 70.7493C140.476 71.1056 139.685 71.2103 138.849 71.0631C139.566 70.5732 140.357 70.4688 141.222 70.7493Z" fill="#161D0F"/>
<path opacity="0.051" fill-rule="evenodd" clip-rule="evenodd" d="M110.251 54.909C109.434 55.257 108.649 55.1544 107.893 54.6008C108.681 54.64 109.471 54.639 110.259 54.5979C110.327 54.7061 110.324 54.8098 110.251 54.909Z" fill="#141A0D"/>
<path opacity="0.051" fill-rule="evenodd" clip-rule="evenodd" d="M107.893 54.6009C107.158 54.8933 106.41 54.9159 105.651 54.669C106.375 54.3959 107.122 54.3732 107.893 54.6009Z" fill="#141B0E"/>
<path opacity="0.078" fill-rule="evenodd" clip-rule="evenodd" d="M105.275 54.784C104.651 54.6023 104.029 54.5866 103.409 54.7371C103.245 54.65 103.206 54.5246 103.294 54.3608C103.997 54.2712 104.705 54.2266 105.413 54.2273C105.45 54.4339 105.403 54.6195 105.275 54.784Z" fill="#172010"/>
<path opacity="0.039" fill-rule="evenodd" clip-rule="evenodd" d="M138.473 71.1782C137.448 71.4461 136.402 71.628 135.347 71.7221L135.478 71.4764C136.413 70.9579 137.411 70.8585 138.473 71.1782Z" fill="#1B2512"/>
<path opacity="0.071" fill-rule="evenodd" clip-rule="evenodd" d="M102.672 54.3451C101.863 54.572 101.077 54.4692 100.314 54.0369C101.102 54.0761 101.892 54.0752 102.679 54.0341C102.748 54.1422 102.745 54.246 102.672 54.3451Z" fill="#151C0E"/>
<path opacity="0.09" fill-rule="evenodd" clip-rule="evenodd" d="M135.232 71.3457C135.145 71.5096 135.183 71.6349 135.347 71.7221C134.751 71.7488 134.161 71.8597 133.596 72.0515L133.727 71.8058C134.16 71.4804 134.662 71.3268 135.232 71.3457Z" fill="#182110"/>
<path opacity="0.051" fill-rule="evenodd" clip-rule="evenodd" d="M54.7327 30.1117L53.9957 29.7197C54.0245 29.6248 54.0739 29.5375 54.1403 29.4639C54.2067 29.3903 54.2885 29.3321 54.3798 29.2937C54.3695 29.7083 54.5331 29.7953 54.8712 29.555C54.9076 29.7615 54.8614 29.9472 54.7327 30.1117Z" fill="#101609"/>
<path opacity="0.063" fill-rule="evenodd" clip-rule="evenodd" d="M53.8806 29.3434C52.5986 28.7921 51.2779 28.5098 49.9185 28.497C51.4317 28.0369 52.7526 28.3189 53.8806 29.3434Z" fill="#161D0F"/>
<path opacity="0.082" fill-rule="evenodd" clip-rule="evenodd" d="M55.3391 30.7494C54.991 30.6389 54.7888 30.4264 54.7327 30.1117C55.2473 29.9709 55.4493 30.1836 55.3391 30.7494Z" fill="#171E0F"/>
<path opacity="0.051" fill-rule="evenodd" clip-rule="evenodd" d="M100.314 54.0369C99.5787 54.3294 98.8312 54.3519 98.0718 54.105C98.7957 53.8319 99.543 53.8093 100.314 54.0369Z" fill="#151C0F"/>
<path opacity="0.039" fill-rule="evenodd" clip-rule="evenodd" d="M133.481 71.6752C133.394 71.839 133.432 71.9643 133.596 72.0515C132.853 72.1579 132.101 72.1808 131.354 72.1196C132.003 71.7987 132.712 71.6507 133.481 71.6752Z" fill="#151B0E"/>
<path opacity="0.106" fill-rule="evenodd" clip-rule="evenodd" d="M55.6998 31.2563C56.0632 31.5473 56.1783 31.9236 56.0449 32.3853C55.6815 32.0944 55.5665 31.7181 55.6998 31.2563Z" fill="#1B2612"/>
<path opacity="0.067" fill-rule="evenodd" clip-rule="evenodd" d="M97.4498 54.0895C96.7412 54.176 96.0223 54.1156 95.3381 53.9119C95.9644 53.6758 96.63 53.6096 97.3348 53.7131C97.4677 53.8229 97.506 53.9482 97.4498 54.0895Z" fill="#1A2513"/>
<path opacity="0.047" fill-rule="evenodd" clip-rule="evenodd" d="M131.354 72.1197C130.637 72.6095 129.846 72.714 128.981 72.4335C129.707 72.0736 130.498 71.9691 131.354 72.1197Z" fill="#171E10"/>
<path opacity="0.09" fill-rule="evenodd" clip-rule="evenodd" d="M95.0924 53.7813C94.2735 53.9266 93.444 53.9059 92.6044 53.7188C93.3803 53.5048 94.2123 53.4219 95.1002 53.4703C95.1685 53.5784 95.1656 53.6822 95.0924 53.7813Z" fill="#182111"/>
<path opacity="0.047" fill-rule="evenodd" clip-rule="evenodd" d="M128.359 72.4178C128.522 72.505 128.561 72.6303 128.474 72.7942C127.674 72.8152 126.878 72.9204 126.101 73.108L126.231 72.8623C126.881 72.5414 127.59 72.3934 128.359 72.4178Z" fill="#1B2512"/>
<path opacity="0.118" fill-rule="evenodd" clip-rule="evenodd" d="M92.3587 53.5881C91.7415 53.8419 91.1195 53.8263 90.4926 53.5412C91.0805 53.3247 91.705 53.2367 92.3665 53.2771C92.4347 53.3852 92.4319 53.489 92.3587 53.5881Z" fill="#1E2A15"/>
<path opacity="0.024" fill-rule="evenodd" clip-rule="evenodd" d="M48.0212 29.6941C47.5188 30.3545 46.9247 30.879 46.239 31.2676C46.6295 30.4829 47.2236 29.9583 48.0212 29.6941Z" fill="#10180C"/>
<path opacity="0.067" fill-rule="evenodd" clip-rule="evenodd" d="M89.8706 53.5256C89.2684 53.593 88.69 53.4953 88.1352 53.233C88.835 52.9934 89.4135 53.0909 89.8706 53.5256Z" fill="#131A0C"/>
<path opacity="0.047" fill-rule="evenodd" clip-rule="evenodd" d="M125.855 72.9774L126.101 73.1081C125.358 73.2145 124.606 73.2373 123.858 73.1762C124.481 72.7758 125.147 72.7097 125.855 72.9774Z" fill="#12180C"/>
<path opacity="0.01" fill-rule="evenodd" clip-rule="evenodd" d="M56.0449 32.3854C56.3419 32.5676 56.4594 32.8403 56.3978 33.2034C56.175 33.9955 56.0091 34.8025 55.9014 35.6183C55.6142 36.051 55.2916 36.4593 54.9371 36.8389L55.0678 36.5932C55.5976 35.246 55.9269 33.8282 56.0449 32.3854Z" fill="#13190D"/>
<path opacity="0.118" fill-rule="evenodd" clip-rule="evenodd" d="M87.8895 53.1024C86.9552 53.3701 86.0005 53.3874 85.0251 53.1549C85.9358 52.8856 86.8906 52.868 87.8895 53.1024Z" fill="#161E0F"/>
<path opacity="0.02" fill-rule="evenodd" clip-rule="evenodd" d="M46.2389 31.2676C45.8984 32.1189 45.3042 32.6435 44.4567 32.8411C44.9591 32.1807 45.5532 31.6562 46.2389 31.2676Z" fill="#263016"/>
<path opacity="0.024" fill-rule="evenodd" clip-rule="evenodd" d="M123.236 73.1606C122.755 73.6919 122.172 73.8016 121.485 73.49C122.049 73.2939 122.639 73.1829 123.236 73.1606Z" fill="#141B0E"/>
<path opacity="0.094" fill-rule="evenodd" clip-rule="evenodd" d="M84.7795 53.0242C84.1696 53.1748 83.5474 53.1595 82.9134 52.9773C83.5013 52.7608 84.1258 52.6728 84.7873 52.7132C84.8555 52.8214 84.8527 52.9251 84.7795 53.0242Z" fill="#181E0F"/>
<path opacity="0.141" fill-rule="evenodd" clip-rule="evenodd" d="M82.6677 52.8467C81.8588 53.0736 81.0729 52.9708 80.3103 52.5385C81.0983 52.5777 81.8877 52.5768 82.6755 52.5357C82.7438 52.6438 82.7409 52.7476 82.6677 52.8467Z" fill="#181F0F"/>
<path opacity="0.141" fill-rule="evenodd" clip-rule="evenodd" d="M80.3103 52.5386C78.6719 52.6824 77.0132 52.6408 75.3342 52.4136C76.9756 52.074 78.6341 52.1158 80.3103 52.5386Z" fill="#161C0E"/>
<path opacity="0.059" fill-rule="evenodd" clip-rule="evenodd" d="M121.355 73.7357C119.727 74.1636 118.043 74.3314 116.363 74.2327C117.315 74.0108 118.275 73.786 119.243 73.5581C119.951 73.5334 120.66 73.593 121.355 73.7357Z" fill="#182111"/>
<path opacity="0.01" fill-rule="evenodd" clip-rule="evenodd" d="M54.5452 37.5758C53.8774 39.4763 52.9192 41.2781 51.6708 42.9808L51.4251 42.8502L54.1688 37.6909C54.3327 37.778 54.458 37.7397 54.5452 37.5758Z" fill="#1A2211"/>
<path opacity="0.016" fill-rule="evenodd" clip-rule="evenodd" d="M42.5437 34.6602C42.2217 35.2094 41.7965 35.6136 41.2685 35.873C41.415 35.2513 41.8402 34.8471 42.5437 34.6602Z" fill="#0A0F06"/>
<path opacity="0.012" fill-rule="evenodd" clip-rule="evenodd" d="M116.363 74.2327C116.254 74.4886 116.063 74.6497 115.791 74.7163C115.146 74.6568 114.497 74.6823 113.859 74.7922C113.968 74.5363 114.159 74.3753 114.431 74.3087C115.076 74.3681 115.725 74.3426 116.363 74.2327Z" fill="#141A0E"/>
<path opacity="0.075" fill-rule="evenodd" clip-rule="evenodd" d="M74.5972 52.0216L74.4666 52.2673C72.2222 52.2926 69.979 52.1531 67.7551 51.8497C68.4109 51.6554 69.0982 51.5482 69.8171 51.5281C71.404 51.7503 72.9984 51.9149 74.5972 52.0216Z" fill="#1B2412"/>
<path opacity="0.02" fill-rule="evenodd" clip-rule="evenodd" d="M113.859 74.7921C113.09 75.0243 112.289 75.1303 111.486 75.106C112.203 74.6161 112.994 74.5114 113.859 74.7921Z" fill="#0F1409"/>
<path opacity="0.01" fill-rule="evenodd" clip-rule="evenodd" d="M67.5094 51.719C66.4724 51.783 65.4318 51.7569 64.3993 51.6409C64.4865 51.477 64.4482 51.3517 64.2843 51.2645C65.3173 51.3723 66.3572 51.3984 67.3944 51.3427C67.5273 51.4524 67.5656 51.5778 67.5094 51.719Z" fill="#151B0E"/>
<path opacity="0.012" fill-rule="evenodd" clip-rule="evenodd" d="M51.6708 42.9808C51.3804 43.7983 50.9448 44.6174 50.3643 45.4376C50.5202 44.6094 50.8303 43.8288 51.2945 43.0958C51.4584 43.183 51.5837 43.1447 51.6708 42.9808Z" fill="#151B0E"/>
<path opacity="0.024" fill-rule="evenodd" clip-rule="evenodd" d="M40.6308 36.4794C40.1761 37.1963 39.5821 37.7206 38.8486 38.0528C39.3033 37.3359 39.8973 36.8116 40.6308 36.4794Z" fill="#162311"/>
<path opacity="0.012" fill-rule="evenodd" clip-rule="evenodd" d="M111.24 74.9754C111.131 75.2313 110.941 75.3923 110.668 75.4589C110.024 75.3995 109.374 75.425 108.737 75.5349C108.846 75.279 109.037 75.1179 109.309 75.0513C109.953 75.1108 110.603 75.0853 111.24 74.9754Z" fill="#151D0F"/>
<path opacity="0.02" fill-rule="evenodd" clip-rule="evenodd" d="M64.2843 51.2645L64.1536 51.5102C63.6522 51.6945 63.1555 51.6406 62.6639 51.3483C62.5 51.2611 62.3747 51.2994 62.2876 51.4633C59.1873 51.1297 56.0821 50.8442 52.973 50.6069C55.4207 50.5936 57.8684 50.6344 60.3143 50.7291L60.4293 51.1054C61.7124 50.9069 63.0219 50.9609 64.2843 51.2645Z" fill="#1A2211"/>
<path opacity="0.01" fill-rule="evenodd" clip-rule="evenodd" d="M38.7179 38.2986C38.4065 39.0725 37.8559 39.5153 37.0663 39.6264C36.9502 39.5852 36.8898 39.5007 36.8859 39.3729C37.4731 38.9762 38.085 38.6173 38.7179 38.2986Z" fill="#1D2A17"/>
<path opacity="0.059" fill-rule="evenodd" clip-rule="evenodd" d="M108.737 75.5348C107.968 75.767 107.166 75.8729 106.364 75.8486C107.081 75.3588 107.872 75.254 108.737 75.5348Z" fill="#0E1308"/>
<path opacity="0.012" fill-rule="evenodd" clip-rule="evenodd" d="M106.364 75.8487C105.617 76.205 104.826 76.3097 103.991 76.1625C104.726 75.8043 105.517 75.6995 106.364 75.8487Z" fill="#12180C"/>
<path opacity="0.086" fill-rule="evenodd" clip-rule="evenodd" d="M49.9879 45.5526C50.0828 45.5815 50.1701 45.6309 50.2437 45.6972C50.3174 45.7636 50.3755 45.8454 50.414 45.9368C49.9404 46.3893 49.6791 46.8807 49.63 47.4109C49.2898 47.7164 48.9292 47.9984 48.5507 48.2551L49.9879 45.5526Z" fill="#0F1409"/>
<path opacity="0.075" fill-rule="evenodd" clip-rule="evenodd" d="M103.991 76.1624C102.348 76.6602 100.641 76.9076 98.8683 76.9051C100.52 76.4014 102.228 76.1538 103.991 76.1624Z" fill="#171E0F"/>
<path opacity="0.01" fill-rule="evenodd" clip-rule="evenodd" d="M36.6743 40.3634C36.2256 40.8339 35.7186 41.1946 35.1533 41.4456C35.0372 41.4043 34.9769 41.3199 34.973 41.1921C35.2837 41.0188 35.5629 40.7944 35.7988 40.5282C36.0654 40.2741 36.3571 40.219 36.6743 40.3634Z" fill="#1C2F18"/>
<path opacity="0.031" fill-rule="evenodd" clip-rule="evenodd" d="M48.5351 48.8772C48.4829 49.3137 48.2651 49.7232 47.8818 50.1056C47.7721 49.5219 47.9898 49.1126 48.5351 48.8772Z" fill="#0C1107"/>
<path opacity="0.102" fill-rule="evenodd" clip-rule="evenodd" d="M52.7273 50.4763C51.1511 50.5377 49.5732 50.5396 47.9969 50.4819C47.8639 50.3721 47.8256 50.2468 47.8818 50.1056C49.4993 50.1468 51.1172 50.1667 52.7351 50.1653C52.8033 50.2734 52.8005 50.3772 52.7273 50.4763Z" fill="#1A2311"/>
<path opacity="0.043" fill-rule="evenodd" clip-rule="evenodd" d="M34.5157 42.052C34.3409 42.584 34.0027 42.8245 33.5017 42.7734C33.757 42.3882 34.0948 42.1477 34.5157 42.052Z" fill="#11180B"/>
<path opacity="0.075" fill-rule="evenodd" clip-rule="evenodd" d="M98.2463 76.8895C98.3411 76.9183 98.4285 76.9677 98.5021 77.0341C98.5757 77.1005 98.6338 77.1823 98.6723 77.2736L96.4953 77.2189C97.0069 76.8538 97.5906 76.7441 98.2463 76.8895Z" fill="#151C0E"/>
<path opacity="0.039" fill-rule="evenodd" clip-rule="evenodd" d="M32.6028 43.871C32.4924 44.2192 32.2799 44.4214 31.9652 44.4774C31.8491 44.4362 31.7887 44.3518 31.7848 44.2239C32.0539 44.0534 32.3266 43.9359 32.6028 43.871Z" fill="#12190B"/>
<path opacity="0.027" fill-rule="evenodd" clip-rule="evenodd" d="M96.4953 77.219C95.5417 77.5796 94.5553 77.8467 93.55 78.0164L91.3729 77.9617C91.4552 77.7294 91.6241 77.609 91.8799 77.601C93.4047 77.3426 94.9488 77.2148 96.4953 77.219Z" fill="#161D0E"/>
<path opacity="0.014" fill-rule="evenodd" clip-rule="evenodd" d="M30.8205 45.4445C30.6267 46.0342 30.245 46.3566 29.6759 46.4116C29.92 45.8945 30.3017 45.572 30.8205 45.4445Z" fill="#131A0E"/>
<path opacity="0.047" fill-rule="evenodd" clip-rule="evenodd" d="M91.3729 77.9617C91.0819 78.3251 90.7056 78.4401 90.2439 78.3067L90.3746 78.0611C90.6864 77.9429 91.0192 77.9097 91.3729 77.9617Z" fill="#172010"/>
<path opacity="0.039" fill-rule="evenodd" clip-rule="evenodd" d="M90.1288 77.9304C90.0417 78.0943 90.08 78.2196 90.2439 78.3067C89.8413 78.4627 89.4268 78.4522 88.9998 78.2755C89.3274 78.0383 89.7246 77.9169 90.1288 77.9304Z" fill="#13190C"/>
<path opacity="0.075" fill-rule="evenodd" clip-rule="evenodd" d="M88.8692 78.5211C88.1453 78.7942 87.398 78.8169 86.6268 78.5893C87.3622 78.2968 88.1098 78.2743 88.8692 78.5211Z" fill="#161E0F"/>
<path opacity="0.102" fill-rule="evenodd" clip-rule="evenodd" d="M85.8742 78.8193L86.1198 78.95C85.396 79.2231 84.6486 79.2458 83.8775 79.0181C84.4804 78.6151 85.146 78.5487 85.8742 78.8193Z" fill="#1B2714"/>
<path opacity="0.055" fill-rule="evenodd" clip-rule="evenodd" d="M83.2554 79.0025C83.4193 79.0897 83.4576 79.215 83.3705 79.3788C82.7605 79.5297 82.1384 79.5141 81.5044 79.332C82.0685 79.1358 82.6586 79.0248 83.2554 79.0025Z" fill="#161E0F"/>
<path opacity="0.01" fill-rule="evenodd" clip-rule="evenodd" d="M26.9947 49.0828L25.5888 50.5413L25.3431 50.4106C25.6662 49.6127 26.2167 49.1702 26.9947 49.0828Z" fill="#0E150A"/>
<path opacity="0.043" fill-rule="evenodd" clip-rule="evenodd" d="M81.3738 79.5777C80.5966 79.7686 79.8008 79.8738 79.0007 79.8915C79.701 79.3647 80.4918 79.2602 81.3738 79.5777Z" fill="#151C0E"/>
<path opacity="0.018" fill-rule="evenodd" clip-rule="evenodd" d="M25.3431 50.4107L25.0818 50.9021C24.9076 51.2693 24.6517 51.5533 24.3135 51.7542L24.0678 51.6235C24.3222 51.003 24.7471 50.5987 25.3431 50.4107Z" fill="#161F11"/>
<path opacity="0.01" fill-rule="evenodd" clip-rule="evenodd" d="M79.0008 79.8915C78.2544 80.2478 77.4634 80.3525 76.6277 80.2053C77.3446 79.7155 78.1356 79.6107 79.0008 79.8915Z" fill="#13190C"/>
<path opacity="0.173" fill-rule="evenodd" clip-rule="evenodd" d="M24.0678 51.6234L23.9371 51.8691C23.6828 52.4896 23.2579 52.894 22.6619 53.0819C22.9862 52.4186 23.4547 51.9324 24.0678 51.6234Z" fill="#3B5227"/>
<path opacity="0.051" fill-rule="evenodd" clip-rule="evenodd" d="M76.382 80.0746C76.273 80.3306 76.0821 80.4916 75.8097 80.5582C75.1654 80.4987 74.516 80.5243 73.8783 80.6341C73.9873 80.3782 74.1782 80.2172 74.4506 80.1506C75.095 80.21 75.7443 80.1845 76.382 80.0746Z" fill="#182110"/>
<path opacity="0.01" fill-rule="evenodd" clip-rule="evenodd" d="M22.6619 53.0819C21.8526 53.9324 21.0014 54.7419 20.1113 55.5074C19.9953 55.3717 19.9789 55.2053 20.0616 55.0082C20.8764 54.2039 21.7432 53.5618 22.6619 53.0819Z" fill="#11170C"/>
<path opacity="0.071" fill-rule="evenodd" clip-rule="evenodd" d="M73.2564 80.6186L73.502 80.7493C72.8621 80.9422 72.1966 81.0084 71.5053 80.9481C72.026 80.5848 72.6094 80.475 73.2564 80.6186Z" fill="#0E1309"/>
<path opacity="0.016" fill-rule="evenodd" clip-rule="evenodd" d="M71.2596 80.8173C71.1506 81.0732 70.9597 81.2342 70.6873 81.3008C70.043 81.2414 69.3936 81.2669 68.7559 81.3768C68.8649 81.1209 69.0558 80.9599 69.3283 80.8933C69.9726 80.9527 70.622 80.9272 71.2596 80.8173Z" fill="#131A0D"/>
<path opacity="0.027" fill-rule="evenodd" clip-rule="evenodd" d="M68.756 81.3769C67.9128 81.7006 67.0398 81.7617 66.1373 81.5601C66.9804 81.2363 67.8534 81.1752 68.756 81.3769Z" fill="#151C0E"/>
<path opacity="0.043" fill-rule="evenodd" clip-rule="evenodd" d="M19.735 55.6224C19.413 56.1716 18.9878 56.5759 18.4597 56.8352C18.3436 56.7939 18.2832 56.7095 18.2793 56.5817C18.7276 56.1715 19.2127 55.8518 19.735 55.6224Z" fill="#141D11"/>
<path opacity="0.012" fill-rule="evenodd" clip-rule="evenodd" d="M66.1372 81.56C64.6219 82.2238 62.9962 82.5149 61.2605 82.4333C61.3695 82.1774 61.5604 82.0164 61.8328 81.9498C63.2629 81.7725 64.6985 81.6425 66.1372 81.56Z" fill="#151B0E"/>
<path opacity="0.012" fill-rule="evenodd" clip-rule="evenodd" d="M17.822 57.4416C17.5779 57.9588 17.1962 58.2812 16.6774 58.4087C16.9216 57.8915 17.3032 57.5691 17.822 57.4416Z" fill="#11170B"/>
<path opacity="0.012" fill-rule="evenodd" clip-rule="evenodd" d="M61.2605 82.4334C60.4251 82.8287 59.552 82.8898 58.6418 82.6166C59.4949 82.3883 60.384 82.3261 61.2605 82.4334Z" fill="#161D0F"/>
<path opacity="0.01" fill-rule="evenodd" clip-rule="evenodd" d="M16.0398 59.0151C15.5851 59.732 14.9911 60.2564 14.2575 60.5886C14.7122 59.8717 15.3062 59.3474 16.0398 59.0151Z" fill="#050A04"/>
<path opacity="0.01" fill-rule="evenodd" clip-rule="evenodd" d="M58.2655 82.7316C58.3603 82.7605 58.4477 82.8098 58.5213 82.8762C58.5949 82.9426 58.653 83.0244 58.6915 83.1158C56.2662 83.4222 53.8319 83.6516 51.3921 83.8038C53.6523 83.2704 55.9502 82.912 58.2655 82.7316Z" fill="#13190C"/>
<path opacity="0.01" fill-rule="evenodd" clip-rule="evenodd" d="M12.2139 62.6534C11.9698 63.1706 11.5881 63.493 11.0693 63.6205C11.134 63.0094 11.5156 62.687 12.2139 62.6534Z" fill="#0F1309"/>
<path opacity="0.047" fill-rule="evenodd" clip-rule="evenodd" d="M51.3921 83.8037C50.7356 84.1748 50.0047 84.3638 49.1994 84.3711C49.6204 84.658 49.8389 85.037 49.8555 85.5079C49.2135 85.2506 48.9346 84.7871 49.019 84.1176C49.7628 83.7608 50.5538 83.6561 51.3921 83.8037Z" fill="#171F10"/>
<path opacity="0.11" fill-rule="evenodd" clip-rule="evenodd" d="M52.1347 88.9261L51.8891 88.7954C50.9418 87.9251 50.2204 86.9112 49.7248 85.7535C49.8909 85.8068 50.0573 85.7904 50.224 85.7038C50.7956 86.8153 51.4337 87.8913 52.1347 88.9261Z" fill="#1D2712"/>
<path opacity="0.059" fill-rule="evenodd" clip-rule="evenodd" d="M10.4317 64.2269C9.72574 65.0968 9.11758 66.0416 8.61814 67.0444L8.37246 66.9138C8.43438 66.2379 8.6792 65.5802 9.10668 64.9405C9.5252 64.662 9.96878 64.4231 10.4317 64.2269Z" fill="#27321F"/>
<path opacity="0.129" fill-rule="evenodd" clip-rule="evenodd" d="M52.1348 88.926C52.5113 89.481 52.8301 90.0729 53.0862 90.6927C52.5135 90.3077 52.1527 89.8007 52.0041 89.1717L52.1348 88.926Z" fill="#212B14"/>
<path opacity="0.027" fill-rule="evenodd" clip-rule="evenodd" d="M54.2834 92.59C53.7106 92.205 53.3499 91.698 53.2013 91.069C53.2425 90.9529 53.3269 90.8925 53.4548 90.8887C53.7693 91.4363 54.0462 92.0047 54.2834 92.59Z" fill="#17200F"/>
<path opacity="0.051" fill-rule="evenodd" clip-rule="evenodd" d="M8.37244 66.9138L8.61812 67.0445C8.63588 67.9597 8.57123 68.8746 8.42495 69.7782C8.3837 69.8943 8.29928 69.9547 8.17146 69.9586C8.02324 68.9216 8.09019 67.9068 8.37244 66.9138Z" fill="#EFF6E8"/>
<path opacity="0.106" fill-rule="evenodd" clip-rule="evenodd" d="M54.2834 92.5901C54.668 92.7716 54.8266 93.0662 54.7591 93.4734C54.3185 93.3068 54.16 93.0123 54.2834 92.5901Z" fill="#182315"/>
<path opacity="0.059" fill-rule="evenodd" clip-rule="evenodd" d="M55.3655 94.111C55.8395 94.6313 56.1567 95.2201 56.3169 95.8776C55.7442 95.4926 55.3835 94.9856 55.2348 94.3566L55.3655 94.111Z" fill="#192211"/>
<path opacity="0.012" fill-rule="evenodd" clip-rule="evenodd" d="M8.9007 70.6615C9.14153 70.9257 9.30006 71.2202 9.37643 71.5448C8.93584 71.3783 8.77731 71.0838 8.9007 70.6615Z" fill="#22291B"/>
<path opacity="0.01" fill-rule="evenodd" clip-rule="evenodd" d="M9.3764 71.5448C9.88151 71.8188 10.3294 72.1619 10.7198 72.5744C10.4897 72.6534 10.2415 72.6264 9.97498 72.4934C9.54256 72.2991 9.34311 71.9831 9.3764 71.5448Z" fill="#0E1309"/>
<path opacity="0.043" fill-rule="evenodd" clip-rule="evenodd" d="M56.317 95.8777C56.8293 96.4552 57.2285 97.0876 57.5141 97.775C56.7782 97.3092 56.3792 96.6769 56.317 95.8777Z" fill="#1D2913"/>
<path opacity="0.039" fill-rule="evenodd" clip-rule="evenodd" d="M11.4569 72.9664C11.8175 73.3139 12.1416 73.6974 12.424 74.111C12.0603 74.0903 11.7303 74.0198 11.4334 73.8994C11.2018 73.6046 11.0012 73.2867 10.8349 72.9508L11.0805 73.0814C11.2444 73.1686 11.3697 73.1303 11.4569 72.9664Z" fill="#151B0E"/>
<path opacity="0.086" fill-rule="evenodd" clip-rule="evenodd" d="M14.6195 75.9089C14.1119 75.7284 13.7461 75.429 13.5218 75.0099C13.563 74.8938 13.6474 74.8335 13.7753 74.8296C14.0808 75.1698 14.3629 75.5304 14.6195 75.9089Z" fill="#151B0E"/>
<path opacity="0.02" fill-rule="evenodd" clip-rule="evenodd" d="M58.3349 99.7872C58.0154 99.1996 57.6982 98.6107 57.3834 98.0206C57.5495 98.0739 57.7159 98.0574 57.8826 97.9709C58.2727 98.5411 58.4235 99.1466 58.3349 99.7872Z" fill="#141A0D"/>
<path opacity="0.016" fill-rule="evenodd" clip-rule="evenodd" d="M14.6195 75.9089C15.5326 76.3384 16.2646 76.9379 16.815 77.7068C15.8712 77.3124 15.1394 76.7133 14.6195 75.9089Z" fill="#171809"/>
<path opacity="0.049" fill-rule="evenodd" clip-rule="evenodd" d="M17.552 78.0988C17.9002 78.2092 18.1023 78.4217 18.1584 78.7364C17.9455 78.7124 17.6971 78.6853 17.4136 78.6555C17.3944 78.5582 17.3968 78.4579 17.4208 78.3617C17.4447 78.2655 17.4895 78.1757 17.552 78.0988Z" fill="#101609"/>
<path opacity="0.035" fill-rule="evenodd" clip-rule="evenodd" d="M18.4041 78.8671C19.3775 79.3627 20.1913 80.0057 20.8452 80.7956C20.6792 80.7423 20.5128 80.7588 20.3461 80.8453C19.6566 80.2286 19.0079 79.5678 18.4041 78.8671Z" fill="#182112"/>
<path opacity="0.01" fill-rule="evenodd" clip-rule="evenodd" d="M20.8453 80.7956C21.4356 81.0917 21.9726 81.4838 22.4344 81.9558C21.9861 81.9216 21.5741 81.8075 21.1982 81.6136C21.0277 81.3445 20.9102 81.0718 20.8453 80.7956Z" fill="#0C1106"/>
<path opacity="0.071" fill-rule="evenodd" clip-rule="evenodd" d="M58.3193 100.409C58.633 100.564 58.8133 100.817 58.8604 101.17C58.6492 101.53 58.4531 101.899 58.2724 102.275C58.093 101.671 58.1087 101.049 58.3193 100.409Z" fill="#1B2513"/>
<path opacity="0.047" fill-rule="evenodd" clip-rule="evenodd" d="M24.1385 83.4924C24.9696 83.9211 25.7499 84.4418 26.4647 85.0447L26.334 85.2903C25.4209 84.8608 24.6889 84.2614 24.1385 83.4924Z" fill="#151E0F"/>
<path opacity="0.01" fill-rule="evenodd" clip-rule="evenodd" d="M26.334 85.2903L26.5797 85.4209C27.39 85.8884 28.1653 86.4057 28.9058 86.9732L28.7752 87.2188C27.7702 86.7629 26.9567 86.12 26.334 85.2903Z" fill="#0B1006"/>
<path opacity="0.01" fill-rule="evenodd" clip-rule="evenodd" d="M28.7751 87.2189L29.0208 87.3495C28.8878 87.49 28.8058 87.4463 28.7751 87.2189Z" fill="#050803"/>
<path opacity="0.01" fill-rule="evenodd" clip-rule="evenodd" d="M30.1186 88.2485C31.3267 88.9679 32.4721 89.7879 33.5425 90.6997C33.4501 91.0707 33.5322 91.1143 33.7882 90.8304C34.1488 91.1778 34.4729 91.5614 34.7553 91.975C32.9572 90.9961 31.4117 89.7538 30.1186 88.2485Z" fill="#141B0D"/>
<path opacity="0.01" fill-rule="evenodd" clip-rule="evenodd" d="M57.6191 103.504C57.8595 103.842 57.8595 103.842 57.6191 103.504V103.504Z" fill="#030702"/>
<path opacity="0.055" fill-rule="evenodd" clip-rule="evenodd" d="M36.8357 93.3965C36.0835 93.3573 35.5536 92.9706 35.2466 92.2362C35.2879 92.1201 35.3723 92.0598 35.5001 92.0559C35.8354 92.6002 36.2927 93.0591 36.8357 93.3965Z" fill="#161D0E"/>
<path opacity="0.01" fill-rule="evenodd" clip-rule="evenodd" d="M57.2428 103.619L57.4885 103.749C57.4238 104.36 57.0422 104.683 56.3439 104.716C56.5971 104.315 56.899 103.946 57.2428 103.619Z" fill="#0B1006"/>
<path opacity="0.01" fill-rule="evenodd" clip-rule="evenodd" d="M38.2942 94.8024C38.0813 94.7784 37.8332 94.7514 37.5494 94.7215C37.3178 94.4267 37.1172 94.1088 36.9508 93.7728C37.6083 93.8237 38.0561 94.1668 38.2942 94.8024Z" fill="#11170B"/>
<path opacity="0.102" fill-rule="evenodd" clip-rule="evenodd" d="M38.5399 94.9331C39.0474 95.1136 39.4132 95.4131 39.6376 95.8321C39.4247 95.8081 39.1766 95.781 38.8928 95.7511C38.7223 95.4821 38.6048 95.2094 38.5399 94.9331Z" fill="#151D0E"/>
<path opacity="0.041" fill-rule="evenodd" clip-rule="evenodd" d="M44.2743 99.5585C44.0614 99.5345 43.8132 99.5074 43.5294 99.4775C42.6371 98.6484 41.7866 97.7753 40.981 96.8616C41.1471 96.915 41.3135 96.8985 41.4802 96.8119C42.4074 97.8698 43.3388 98.7852 44.2743 99.5585Z" fill="#151B0E"/>
<path opacity="0.051" fill-rule="evenodd" clip-rule="evenodd" d="M45.0113 99.9504C45.6746 100.275 46.1608 100.743 46.4698 101.356C45.9905 100.969 45.4992 100.708 44.9957 100.572C44.8593 100.356 44.8647 100.149 45.0113 99.9504Z" fill="#181F11"/>
<path opacity="0.021" fill-rule="evenodd" clip-rule="evenodd" d="M46.9611 101.618C47.9813 102.306 48.877 102.992 49.648 103.677C48.7963 103.339 48.0182 102.925 47.314 102.436C47.1435 102.167 47.026 101.894 46.9611 101.618Z" fill="#161C0F"/>
<path opacity="0.035" fill-rule="evenodd" clip-rule="evenodd" d="M49.648 103.677C50.5179 104.383 51.4628 104.991 52.4655 105.49C51.9358 105.417 51.401 105.238 50.8608 104.952C50.2635 104.622 49.8593 104.197 49.648 103.677Z" fill="#141A0D"/>
<path opacity="0.01" fill-rule="evenodd" clip-rule="evenodd" d="M56.3438 104.717C55.3318 105.678 54.1183 106.083 52.7033 105.932C52.6351 105.824 52.638 105.72 52.7112 105.621C53.9722 105.578 55.21 105.27 56.3438 104.717Z" fill="#182011"/>
</g>
<defs>
<clipPath id="clip0_120_127">
<rect width="128" height="91.2696" fill="white" transform="translate(42.8544) rotate(28.0042)"/>
</clipPath>
</defs>
</svg>
