<svg width="77" height="143" viewBox="0 0 77 143" fill="none" xmlns="http://www.w3.org/2000/svg">
<path opacity="0.999" fill-rule="evenodd" clip-rule="evenodd" d="M22.1835 2.39098C22.5944 2.25857 22.9097 1.9893 23.1301 1.58312L23.2386 1.32689C23.6424 1.30481 24.0274 1.1489 24.3329 0.883777L24.4414 0.627552C25.6408 0.760225 26.7974 0.645725 27.911 0.283938L28.1672 0.39246C28.8732 0.783948 29.5927 0.988055 30.3256 1.00441C30.3564 0.88513 30.4352 0.817563 30.5622 0.802441C30.7556 1.12377 30.9835 1.42298 31.242 1.69473C31.3466 2.01132 31.5304 2.29074 31.7936 2.53274C32.334 2.77795 32.567 3.17884 32.4929 3.73551C32.4615 4.1471 32.6454 4.42653 33.0446 4.57353L33.1817 6.74695C33.2718 7.01234 33.4492 7.18842 33.7137 7.27448C33.4749 8.18083 33.6489 8.95951 34.2352 9.61067C34.0319 10.4973 34.2056 11.2759 34.7567 11.9469C34.6843 12.1178 34.7335 12.2392 34.9044 12.3116C34.6794 13.3973 34.8663 14.383 35.4651 15.2688L35.3565 15.525C35.3879 16.0946 35.585 16.5809 35.9474 16.984L35.8388 17.2402C35.8822 18.0083 36.092 18.7016 36.4688 19.3202C36.3941 20.1858 36.5678 20.9644 36.9903 21.6564C37.2632 21.72 37.3976 21.8778 37.3942 22.1297C37.2233 22.0573 37.1019 22.1065 37.0295 22.2774C37.0728 23.0455 37.2827 23.7387 37.6595 24.3573C37.5871 24.5283 37.6363 24.6497 37.8072 24.7221C37.6028 25.4508 37.7273 26.108 38.181 26.6935C38.754 26.9088 38.7671 27.1155 38.2202 27.3145C38.2949 27.907 38.4574 28.4851 38.7025 29.0297L38.9587 29.1383C38.8777 29.8425 38.8807 30.5539 38.9677 31.2574C39.2773 32.1936 39.5857 33.13 39.8931 34.0669C40.0587 34.6924 40.1413 35.337 40.1388 35.9841C40.2291 36.2496 40.4063 36.4255 40.6708 36.5116C40.4673 37.3981 40.6412 38.1768 41.1923 38.8478L41.0838 39.104C41.2494 39.7296 41.3319 40.3741 41.3294 41.0212C41.4198 41.2867 41.5969 41.4627 41.8615 41.5487C41.6579 42.4353 41.8319 43.214 42.383 43.8849C42.309 44.7417 42.4829 45.5204 42.9044 46.2211C43.0509 47.9779 43.4479 49.657 44.0951 51.2583C43.9434 51.4938 43.9567 51.7007 44.1343 51.8793C44.0471 52.5452 44.2078 53.117 44.6166 53.5945C44.7485 55.1354 45.0117 56.6622 45.4033 58.1583C45.4338 58.4124 45.5686 58.5701 45.8072 58.6316C45.7866 58.9885 45.849 59.3171 45.9941 59.6173L45.8856 59.8736C45.9077 60.2774 46.0636 60.6624 46.3287 60.9678L46.5849 61.0763C46.4059 61.8545 46.4941 62.5972 46.8502 63.304C47.123 63.3676 47.2574 63.5255 47.2541 63.7773C46.8764 63.7179 46.8402 63.8035 47.1456 64.0335C46.9401 64.7826 47.0649 65.4399 47.5194 66.005C47.7922 66.0685 47.9266 66.2264 47.9233 66.4782C47.7524 66.4058 47.6309 66.455 47.5586 66.6259C47.6333 67.2185 47.7958 67.7965 48.0408 68.3412L48.2971 68.4497C48.0585 69.3561 48.2322 70.1347 48.8186 70.7859C48.615 71.6724 48.789 72.4511 49.34 73.1221L49.2315 73.3783C49.3971 74.0038 49.4797 74.6484 49.4772 75.2955C49.5675 75.561 49.7447 75.737 50.0092 75.823C50.1801 75.8954 50.2293 76.0169 50.1569 76.1878C49.7792 76.1284 49.743 76.214 50.0484 76.444C49.9623 77.101 50.123 77.6726 50.5307 78.1592L50.4222 78.4154C50.5877 79.041 50.6703 79.6856 50.6678 80.3326C50.7581 80.5981 50.9353 80.7741 51.1999 80.8602C51.0784 81.7769 51.2161 82.6412 51.6128 83.4526C51.8216 84.8784 52.0775 86.297 52.38 87.706C52.4703 87.9715 52.6475 88.1474 52.912 88.2335C52.8823 89.1161 53.0225 89.9962 53.325 90.8259C53.2526 90.9968 53.3018 91.1183 53.4727 91.1907C53.8561 93.4811 54.4154 95.7385 55.1456 97.943C55.0723 98.7911 55.2463 99.5697 55.6671 100.279C56.3415 100.304 56.7786 99.9858 56.9784 99.3237L57.2346 99.4322C58.3442 98.8366 59.2907 98.0287 60.0742 97.0086C60.2451 97.081 60.3666 97.0318 60.439 96.8609C61.0525 96.6575 61.5257 96.2535 61.8588 95.6491C62.0297 95.7215 62.1512 95.6723 62.2236 95.5014C62.837 95.298 63.3103 94.894 63.6434 94.2896C64.0748 94.3753 64.3543 94.1915 64.4814 93.738C64.5608 93.3815 64.7546 93.1614 65.0632 93.0778C65.0038 93.4555 65.0894 93.4917 65.3194 93.1863C65.9329 92.9829 66.4062 92.579 66.7392 91.9745C67.5299 91.8422 68.1246 91.3891 68.5238 90.615L68.78 90.7236C69.3402 90.3581 69.8989 89.9903 70.456 89.6203C70.6713 89.0472 70.878 89.0342 71.077 89.5811C71.7333 89.7346 72.3543 89.6954 72.9399 89.4636L74.2211 90.0062C74.1487 90.1771 74.1979 90.2985 74.3688 90.3709C74.7252 90.6845 75.1191 90.9528 75.5414 91.1698C76.1926 92.2505 76.6085 93.4564 76.7622 94.7087L76.6537 94.965C76.2444 96.0078 75.7218 97.0025 75.0952 97.9311C74.4809 98.7594 73.8761 99.7121 73.2805 100.789C73.441 101.128 73.3687 101.298 73.0634 101.301C72.4799 101.663 72.0561 102.189 71.7913 102.878C72.0244 103.279 71.9158 103.535 71.4658 103.646C70.7778 104.646 69.9479 105.655 68.9758 106.671C69.0767 106.83 69.1078 106.994 69.0692 107.164C68.8839 107.727 68.5813 108.203 68.1619 108.593C67.7642 108.854 67.4981 109.244 67.363 109.766L67.2545 110.022C66.6423 110.315 66.34 110.791 66.3472 111.451C66.1763 111.378 66.0548 111.428 65.9824 111.599C65.6942 112.169 65.2772 112.665 64.7646 113.047C64.7797 113.174 64.8473 113.253 64.9665 113.284C65.1271 113.622 65.0548 113.793 64.7495 113.796C64.3624 114.114 64.0088 114.47 63.6944 114.86L63.5859 115.116C62.7719 116.263 62.0559 117.476 61.4456 118.743C61.2855 119.216 61.0194 119.607 60.6468 119.915C60.4759 119.843 60.3544 119.892 60.282 120.063C59.7819 120.851 59.3338 121.671 58.9406 122.517C58.7697 122.444 58.6482 122.494 58.5758 122.664C58.0382 123.43 57.5882 124.253 57.2344 125.118C57.0081 125.933 56.5478 126.544 55.8538 126.951C55.4242 127.453 55.0809 128.022 54.8379 128.636C54.1085 129.357 53.5397 130.224 53.1317 131.238L53.0232 131.494C52.7146 131.577 52.5207 131.797 52.4414 132.154C52.6744 132.555 52.5659 132.811 52.1158 132.923C51.3983 133.539 50.8656 134.32 50.5181 135.268C50.1637 135.557 49.8293 135.869 49.5173 136.204C49.5324 136.331 49.6 136.41 49.7193 136.44C49.4002 136.928 49.134 137.319 48.9205 137.613C48.5333 137.931 48.1798 138.287 47.8654 138.677C47.793 138.848 47.8422 138.969 48.0131 139.042L47.9046 139.298C47.7337 139.226 47.6122 139.275 47.5398 139.446C47.1634 139.871 46.8572 140.353 46.6325 140.875C46.3159 140.979 46.0364 141.163 45.7944 141.426C45.5835 141.723 45.3041 141.907 44.9564 141.978C44.0434 141.912 43.1264 141.928 42.2163 142.026C41.1734 141.617 40.1787 141.094 39.2501 140.468C39.0247 140.19 38.8046 139.996 38.5899 139.886C38.4173 139.38 38.0625 139.028 37.5258 138.831C36.7233 138.426 35.9778 137.808 35.2891 136.977C34.8936 136.275 34.3191 135.73 33.5649 135.34C33.2084 135.261 32.9883 135.067 32.9047 134.758C32.7321 134.253 32.3773 133.901 31.8407 133.703C31.5704 133.575 31.3416 133.373 31.1805 133.121C30.8757 132.618 30.4356 132.23 29.8602 131.958C29.9326 131.787 29.8834 131.665 29.7125 131.593C28.8716 130.774 27.9903 129.997 27.0719 129.266C26.8322 128.689 26.392 128.301 25.7515 128.102C25.8239 127.931 25.7747 127.81 25.6038 127.738C25.374 127.418 25.0686 127.188 24.6874 127.047C24.6908 126.795 24.5564 126.638 24.2835 126.574L22.707 125.302C21.7223 124.632 20.7569 123.82 19.8101 122.866C19.7052 122.304 19.3505 121.952 18.746 121.811C18.2051 121.623 17.8503 121.271 17.6819 120.756C17.5984 120.447 17.3783 120.254 17.0218 120.174C16.6654 119.861 16.2715 119.592 15.8492 119.375C15.8561 118.872 15.5866 118.556 15.0413 118.429C14.771 118.301 14.5423 118.099 14.3812 117.847C14.0814 117.306 13.6775 116.833 13.1694 116.427C12.7685 116.66 12.5122 116.552 12.4007 116.102C12.2205 115.325 11.731 114.815 10.9327 114.573L10.6764 114.465C10.2809 113.763 9.70635 113.218 8.95219 112.828C8.59568 112.749 8.3756 112.555 8.29203 112.246C7.98721 111.743 7.54714 111.355 6.97172 111.083C6.27349 110.545 5.61186 109.962 4.99125 109.337C4.71987 108.51 4.14503 107.965 3.267 107.7C2.81957 107.051 2.24474 106.506 1.54275 106.063C0.776595 105.669 0.323478 105.074 0.183257 104.279C0.0764216 102.924 0.241346 101.583 0.677662 100.258C0.848564 100.33 0.970025 100.281 1.04241 100.11L1.36798 99.3413C1.67655 99.2577 1.87039 99.0376 1.94977 98.6811C2.01335 98.4083 2.17121 98.2739 2.42304 98.2772C2.8947 98.3694 3.25945 98.2216 3.51729 97.8341C4.96494 97.8246 6.40614 98.0277 7.79477 98.437C7.73544 98.8147 7.82102 98.8509 8.051 98.5455C8.45189 98.3125 8.70811 98.421 8.81968 98.8711C8.74729 99.042 8.79648 99.1634 8.96738 99.2358L14.6044 101.623C15.3754 102.021 16.1802 102.261 17.0189 102.344C16.9465 102.515 16.9957 102.636 17.1666 102.709L19.9851 103.902C20.2155 103.874 20.4159 103.757 20.5865 103.553C20.664 103.654 20.6703 103.758 20.6061 103.863C20.8886 104.386 21.3154 104.566 21.8872 104.406C22.0329 104.449 22.1543 104.4 22.252 104.258C22.1707 102.683 22.03 101.111 21.83 99.5464L21.9385 99.2902C21.9013 96.1723 21.9124 93.054 21.9718 89.9364C22.0441 89.7655 21.995 89.644 21.8241 89.5716C22.072 89.0562 22.082 88.5567 21.8542 88.0735L21.9627 87.8172C21.9874 86.7785 21.9219 85.7397 21.7668 84.7124L21.8754 84.4561C21.9818 82.2141 21.9234 79.9674 21.7006 77.7339C21.7599 77.3562 21.6743 77.32 21.4443 77.6254C21.2481 77.286 21.3566 77.0298 21.7699 76.8567C21.8485 75.1642 21.7439 73.5083 21.4565 71.8889C21.82 71.0913 21.8532 70.2994 21.556 69.5135L21.6645 69.2573C21.7901 68.6097 21.7506 67.9886 21.5469 67.3944L21.6555 67.1382C21.8012 66.1462 21.6999 65.1967 21.351 64.2895L21.4595 64.0333C21.672 63.4575 21.7184 62.8728 21.5982 62.2789L21.559 61.6579C21.7879 61.0084 21.7487 60.3874 21.4415 59.795L21.55 59.5388C21.6625 58.6859 21.6102 57.8578 21.3933 57.0548L21.5018 56.7986C21.6444 56.0991 21.6414 55.3777 21.4928 54.6795L21.4536 54.0585C21.6327 53.2804 21.5444 52.5377 21.1883 51.8308C21.5519 51.0332 21.5851 50.2413 21.2878 49.4554L21.2487 48.8345C21.4196 48.9069 21.541 48.8577 21.6134 48.6868C21.4089 48.0816 21.3697 47.4606 21.4959 46.8238C21.5683 46.6529 21.5191 46.5315 21.3482 46.4591C21.5272 45.681 21.439 44.9383 21.0829 44.2314C21.5679 43.4302 21.601 42.6386 21.1824 41.856L21.2909 41.5998C21.4048 40.7697 21.3515 39.9252 21.1342 39.1159L21.2427 38.8597C21.4233 36.9713 21.4701 35.0725 21.3829 33.1775C21.3238 32.6129 21.205 32.0561 21.0288 31.5165L21.1373 31.2603C21.3178 29.3719 21.3647 27.4731 21.2775 25.5781C21.2183 25.0135 21.0996 24.4567 20.9233 23.9171L21.0318 23.6609C21.2124 21.7725 21.2593 19.8737 21.1721 17.9786C21.1129 17.4141 20.9942 16.8573 20.8179 16.3177L20.9264 16.0615C21.0316 16.1256 21.1352 16.1194 21.2369 16.0419C21.1701 14.1347 21.0706 12.2288 20.9385 10.325L21.047 10.0687C20.9392 9.61768 20.8277 9.1675 20.7124 8.71828L20.821 8.46205C20.9261 8.52624 21.0297 8.51996 21.1315 8.44246C20.6972 6.31211 21.0478 4.29483 22.1835 2.39098Z" fill="#87BF56"/>
</svg>
