<svg height="512" viewBox="0 0 64 64" width="512" xmlns="http://www.w3.org/2000/svg"><circle cx="40" cy="40" fill="#fffa48" r="21"/><path d="M59.53 47.71C56.47 55.49 48.88 61 40 61c-11.6 0-21-9.4-21-21 0-8.17 4.66-15.25 11.47-18.71A20.82 20.82 0 0 0 29 29c0 11.6 9.4 21 21 21 3.43 0 6.67-.82 9.53-2.29z" fill="#fcea42"/><circle cx="40" cy="40" fill="#fdc741" r="17"/><path d="M50 50c-11.598 0-21-9.402-21-21 0-.69.038-1.37.103-2.042C25.375 30.076 23 34.759 23 40c0 9.389 7.611 17 17 17 5.823 0 10.958-2.931 14.021-7.394A21.135 21.135 0 0 1 50 50z" fill="#efad1b"/><g><path d="M43 3h12a6 6 0 0 1 6 6v8a6 6 0 0 1-6 6h-8l-4 6v-6a6 6 0 0 1-6-6V9a6 6 0 0 1 6-6z" fill="#ade8f4"/><path d="M44 11V3h-1a6 6 0 0 0-6 6v8a6 6 0 0 0 6 6v6l4-6h8a6 6 0 0 0 6-6H50a6 6 0 0 1-6-6z" fill="#48cae4"/><path d="M43.5 9H46a2 2 0 0 1 2-2h2a2 2 0 0 1 2 2h2.5a2 2 0 0 1 2 2v6a2 2 0 0 1-2 2h-11a2 2 0 0 1-2-2v-6a2 2 0 0 1 2-2z" fill="#93999a"/><circle cx="49" cy="14" fill="#ade8f4" r="2"/><path d="M47.586 12.586a2 2 0 1 0 2.828 2.828z" fill="#48cae4"/><path d="M44 11V9h-.5a2 2 0 0 0-2 2v6a2 2 0 0 0 2 2h11a2 2 0 0 0 2-2H50a6 6 0 0 1-6-6z" fill="#656b76"/></g><g><path d="M31.562 24.531A9.953 9.953 0 0 0 34 18c0-5.523-4.477-10-10-10s-10 4.477-10 10 4.477 10 10 10a9.938 9.938 0 0 0 4.335-.999L33 29z" fill="#ade8f4"/><path d="m24 24-5-3v-6l5 3z" fill="#fdc741"/><path d="m24 24 5-3v-6l-5 3z" fill="#fcea42"/><path d="m19 15 5 3 5-3-5-3z" fill="#fffa48"/><path d="M32.151 23.775A11.356 11.356 0 0 1 27 25c-6.075 0-11-4.701-11-10.5 0-1.072.17-2.106.483-3.081A9.956 9.956 0 0 0 14 18c0 5.523 4.477 10 10 10a9.938 9.938 0 0 0 4.335-.999L33 29l-1.438-4.469c.209-.242.404-.495.589-.756z" fill="#48cae4"/></g><g><path d="M23 35V23a2 2 0 0 0-2-2H5a2 2 0 0 0-2 2v20a2 2 0 0 0 2 2h16a2 2 0 0 0 2-2v-3h5z" fill="#e9f1f2"/><path d="M16 35a6 6 0 0 1-6-6v-8H5a2 2 0 0 0-2 2v20a2 2 0 0 0 2 2h16a2 2 0 0 0 2-2v-3h5l-5-5z" fill="#d0d8da"/><path d="M7 25h12v16H7z" fill="#48cae4"/><path d="M16 35a6 6 0 0 1-6-6v-4H7v16h12v-6z" fill="#00b4d8"/></g><g><g fill="#323232"><circle cx="53" cy="40" r="1"/><path d="M35 45a1.002 1.002 0 0 0 1-1v-8a1 1 0 1 0-2 0v3.764l-2.105-4.211A1 1 0 0 0 30 36v8a1 1 0 1 0 2 0v-3.764l2.105 4.211A1 1 0 0 0 35 45zM43 37a1 1 0 1 0 0-2h-4a1 1 0 0 0-1 1v8a1 1 0 1 0 2 0v-3h2a1 1 0 1 0 0-2h-2v-2zM49 45a1 1 0 0 0 1-1v-7h1a1 1 0 1 0 0-2h-4a1 1 0 1 0 0 2h1v7a1 1 0 0 0 1 1zM39.445 52.832a1 1 0 0 0 1.11 0l6-4a1.001 1.001 0 0 0-1.11-1.664L40 50.798l-5.445-3.63a.999.999 0 1 0-1.11 1.664z"/><path d="M62 17V9c0-3.859-3.14-7-7-7a1 1 0 1 0 0 2c2.757 0 5 2.243 5 5v8c0 2.757-2.243 5-5 5h-8c-.334 0-.646.167-.832.445L44 25.697V23a1 1 0 0 0-1-1c-2.757 0-5-2.243-5-5V9c0-2.757 2.243-5 5-5h8a1 1 0 1 0 0-2h-8c-3.86 0-7 3.141-7 7v8a6.98 6.98 0 0 0 2.213 5.099 18.042 18.042 0 0 0-4.499 1.047A10.973 10.973 0 0 0 35 18c0-6.065-4.935-11-11-11a10.92 10.92 0 0 0-6.063 1.827 1 1 0 0 0 1.108 1.666A8.922 8.922 0 0 1 24 9c4.962 0 9 4.037 9 9a8.96 8.96 0 0 1-2.195 5.875 1.001 1.001 0 0 0-.197.962l.766 2.379-2.651-1.135a.995.995 0 0 0-.827.018 8.945 8.945 0 0 1-3.897.883V25c.178 0 .356-.048.515-.143l5-3A.996.996 0 0 0 30 21v-6a.997.997 0 0 0-.485-.857l-5-3a1.005 1.005 0 0 0-1.029 0l-5 3A.996.996 0 0 0 18 15v5h-2.755A8.93 8.93 0 0 1 15 18a8.92 8.92 0 0 1 1.493-4.956 1 1 0 0 0-1.666-1.108A10.925 10.925 0 0 0 13 18c0 .677.084 1.342.206 2H5c-1.654 0-3 1.346-3 3v6a1 1 0 1 0 2 0v-6c0-.552.449-1 1-1h16c.551 0 1 .448 1 1v12c0 .266.105.52.293.707L25.586 39H23a1 1 0 0 0-1 1v3c0 .552-.449 1-1 1H5c-.551 0-1-.448-1-1V33a1 1 0 1 0-2 0v10c0 1.654 1.346 3 3 3h13.874C21.547 55.456 30.112 62 40 62c12.131 0 22-9.869 22-22a21.98 21.98 0 0 0-5.038-13.984 1 1 0 0 0-1.541 1.275A19.97 19.97 0 0 1 60 40c0 11.028-8.972 20-20 20a19.92 19.92 0 0 1-19.046-14H21c.691 0 1.321-.244 1.828-.639C25.129 52.665 31.984 58 40 58c4.096 0 7.949-1.337 11.141-3.866a1 1 0 0 0-1.242-1.568C47.063 54.812 43.641 56 40 56c-8.444 0-15.425-6.661-15.948-15H28a1 1 0 0 0 .707-1.707l-3.978-3.978a15.89 15.89 0 0 1 4.302-6.926l3.575 1.53a.997.997 0 0 0 1.067-.18 1 1 0 0 0 .278-1.046l-.984-3.055A16.005 16.005 0 0 1 40 24c.645 0 1.312.061 2 .151v3.98l-1.445-.964a.995.995 0 0 0-1.109 0l-6 4a1.001 1.001 0 0 0 1.11 1.664L40 29.202l5.445 3.63a1.004 1.004 0 0 0 1.387-.277c.306-.46.182-1.08-.277-1.387l-2.63-1.753 2.65-3.975C52.311 28.03 56 33.694 56 40c0 3.642-1.188 7.064-3.434 9.898a1 1 0 1 0 1.568 1.242C56.663 47.949 58 44.097 58 40a17.951 17.951 0 0 0-9.785-16H55c3.86 0 7-3.141 7-7zM25.927 28.819A17.875 17.875 0 0 0 24 31.795V28.98a10.882 10.882 0 0 0 1.927-.161zM25 22.234v-3.667l3-1.8v3.667zm-1-9.068L27.056 15 24 16.834 20.944 15zM21 20h-1v-3.234l3 1.8v2.214a2.98 2.98 0 0 0-2-.78z"/><path d="M48 6a3.006 3.006 0 0 0-2.829 2H43.5c-1.654 0-3 1.346-3 3v6c0 1.654 1.346 3 3 3h11c1.654 0 3-1.346 3-3v-6c0-1.654-1.346-3-3-3h-1.671A3.006 3.006 0 0 0 50 6zm3 3a1 1 0 0 0 1 1h2.5c.551 0 1 .448 1 1v6c0 .552-.449 1-1 1h-11c-.551 0-1-.448-1-1v-6c0-.552.449-1 1-1H46a1 1 0 0 0 1-1c0-.552.449-1 1-1h2c.551 0 1 .448 1 1z"/><path d="M46 14c0 1.654 1.346 3 3 3s3-1.346 3-3-1.346-3-3-3-3 1.346-3 3zm4 0a1.001 1.001 0 0 1-2 0 1.001 1.001 0 0 1 2 0zM19 42a1 1 0 0 0 1-1V25a1 1 0 0 0-1-1H7a1 1 0 0 0-1 1v16a1 1 0 0 0 1 1zM8 26h10v14H8z"/><path d="M15 28h-2a1 1 0 1 0 0 2h2a1 1 0 1 0 0-2zM15 32h-4a1 1 0 1 0 0 2h4a1 1 0 1 0 0-2zM15 36h-4a1 1 0 1 0 0 2h4a1 1 0 1 0 0-2z"/></g></g></svg>