<svg height="512" viewBox="0 0 64 64" width="512" xmlns="http://www.w3.org/2000/svg"><path d="M62 58v3c0 .55-.45 1-1 1h-5v-4zM56 50h6v4h-6zM52 42h10v4H52zM2 50h10v4H2zM16 42v4H6v-4z" fill="#ffc729"/><path d="M52 39c0-.55.45-1 1-1h8c.55 0 1 .45 1 1v3H52zM62 46v4H52v-4zM56 54h6v4h-6zM12 54v4H3c-.55 0-1-.45-1-1v-3zM12 46v4H2v-3c0-.55.45-1 1-1h3zM16 39.1V42H6v-3c0-.55.45-1 1-1h8c.55 0 1 .45 1 1.1z" fill="#fcd770"/><path d="M56 58v4H33c-.55 0-1-.45-1-1v-3h20zM32 54v4H12v-4h12z" fill="#a0d468"/><path d="M52 50c0 2.21 1.79 4 4 4-2.21 0-4 1.79-4 4h-8c2.21 0 4-1.79 4-4s-1.79-4-4-4zM42 50h2c-2.21 0-4 1.79-4 4s1.79 4 4 4h-8c0-2.21-1.79-4-4-4 2.21 0 4-1.79 4-4zM24 46c-2.21 0-4 1.79-4 4s1.79 4 4 4h-8c0-2.21-1.79-4-4-4 2.21 0 4-1.79 4-4h6z" fill="#b4dd7f"/><path d="M36 50h-3c-.55 0-1 .45-1 1v3h-8c2.21 0 4-1.79 4-4s-1.79-4-4-4h8c0 2.21 1.79 4 4 4z" fill="#b4dd7f"/><path d="M56 50v4c-2.21 0-4-1.79-4-4zM56 54v4h-4c0-2.21 1.79-4 4-4zM32 54c2.21 0 4 1.79 4 4h-4zM33 50h3c0 2.21-1.79 4-4 4v-3c0-.55.45-1 1-1zM36 47v3c-2.21 0-4-1.79-4-4h3c.55 0 1 .45 1 1zM16 54h-4v-4c2.21 0 4 1.79 4 4zM12 46h4c0 2.21-1.79 4-4 4z" fill="#a0d468"/><circle cx="44" cy="54" fill="#fcd770" r="4"/><circle cx="24" cy="50" fill="#fcd770" r="4"/><path d="M46 30c0 2.74 1.37 5.15 3.47 6.59-1.89.98-3.93 1.7-6.1 2.14L42 39v11h-6v-3c0-.55-.45-1-1-1H22v-7l-1.37-.27a23.24 23.24 0 0 1-6.1-2.14c.41-.27.78-.59 1.13-.93A8.014 8.014 0 0 0 18 30c0-.1 0-.21-.01-.31H18c.94.3 1.92.5 2.94.6l4.3.43L27 36l5-3 5 3 1.76-5.28 4.3-.43c1.02-.1 2-.3 2.94-.6v.2z" fill="#ff826e"/><path d="M38.76 30.72 37 36l-5-3 4-2zM32 33l-5 3-1.76-5.28L28 31z" fill="#fc6e51"/><path d="M57 12v6h-3c-.83 0-1.58-.34-2.12-.88-.1-.1-.19-.21-.28-.32-.37-.5-.6-1.12-.6-1.8a2.996 2.996 0 0 1 3-3zM13 15c0 .68-.23 1.3-.6 1.8-.09.11-.18.22-.28.32-.54.54-1.29.88-2.12.88H7v-6h3a2.996 2.996 0 0 1 3 3z" fill="#ffeaa7"/><path d="M54 4v1.63c0 .12 0 .25-.01.37-.05 2.08-.61 4.12-1.63 5.94l-.56 1.02-1.72-1.8A7.395 7.395 0 0 1 48 6s1-2 6-2zM10 4c5 0 6 2 6 2 0 1.93-.74 3.78-2.08 5.16l-1.72 1.8-.56-1.02A12.782 12.782 0 0 1 10.01 6C10 5.88 10 5.75 10 5.63z" fill="#d3a06c"/><path d="m11.64 11.94.56 1.02c-.55-.59-1.33-.96-2.2-.96H7L5 8c1.28-1.28 3.02-2 4.83-2h.18c.05 2.08.61 4.12 1.63 5.94zM52.36 11.94c1.02-1.82 1.58-3.86 1.63-5.94h.18c1.81 0 3.55.72 4.83 2l-2 4h-3c-.87 0-1.65.37-2.2.96zM54 18h3l4.16 8.31c.55 1.11.84 2.34.84 3.58V30c0 2.21-.9 4.21-2.34 5.66A8.014 8.014 0 0 1 54 38c-1.68 0-3.24-.52-4.53-1.41A7.964 7.964 0 0 1 46 30v-.31c.03-1.17.32-2.33.84-3.38l4.76-9.51c.09.11.18.22.28.32.54.54 1.29.88 2.12.88zM10 18c.83 0 1.58-.34 2.12-.88.1-.1.19-.21.28-.32l4.71 9.41c.53 1.09.84 2.27.88 3.48.01.1.01.21.01.31 0 2.21-.9 4.21-2.34 5.66-.35.34-.72.66-1.13.93A7.948 7.948 0 0 1 10 38c-2.21 0-4.21-.9-5.66-2.34A8.014 8.014 0 0 1 2 30c0-1.32.31-2.61.89-3.79L7 18z" fill="#cf9e76"/><path d="m43.81 13.97-.6 3A2.99 2.99 0 0 0 41 16h-1v-2c0-1.1-.9-2-2-2h-5a5.01 5.01 0 0 1-4-2h-1c-2.21 0-4 1.79-4 4v2h-1c-.87 0-1.66.37-2.21.97l-.67-3.36c-.08-.4-.12-.82-.12-1.23 0-1.06.26-2.08.74-2.98.49-.9 1.19-1.68 2.07-2.27L23 7c.6-1.51 1.64-2.76 2.93-3.63S28.76 2 30.39 2h3.6C39.52 2 44 6.48 44 12.01c0 .66-.07 1.32-.19 1.96z" fill="#656d78"/><path d="M35.37 27.84 36 31l-4 2-4-2 .63-3.16c.44.11.9.16 1.37.16h4c.47 0 .93-.05 1.37-.16zM41 16c.87 0 1.66.37 2.21.97.49.53.79 1.24.79 2.03 0 .83-.34 1.58-.88 2.12S41.83 22 41 22h-1v-6z" fill="#f0d0b4"/><path d="M40 16v6c0 2.84-1.98 5.22-4.63 5.84-.44.11-.9.16-1.37.16h-4c-.47 0-.93-.05-1.37-.16-2.65-.62-4.63-3-4.63-5.84v-8c0-2.21 1.79-4 4-4h1c.91 1.21 2.37 2 4 2h5c1.1 0 2 .9 2 2zM24 16v6h-1c-.83 0-1.58-.34-2.12-.88S20 19.83 20 19c0-.79.3-1.5.79-2.03.55-.6 1.34-.97 2.21-.97z" fill="#f0d0b4"/><path d="M28 20h8c0 2.21-1.79 4-4 4-1.1 0-2.1-.45-2.83-1.17A4.025 4.025 0 0 1 28 20z" fill="#ff826e"/><g><path d="M11 35v-2h2v-3c0-1.654-1.346-3-3-3-.551 0-1-.449-1-1v-1h1c.551 0 1 .449 1 1v1h2v-1a2.996 2.996 0 0 0-2-2.816V21H9v2H7v3c0 1.654 1.346 3 3 3 .551 0 1 .449 1 1v1h-1c-.551 0-1-.449-1-1v-1H7v1c0 1.302.839 2.402 2 2.816V35z"/><circle cx="28" cy="16" r="1"/><circle cx="36" cy="16" r="1"/><path d="M37 20v-1H27v1c0 2.757 2.243 5 5 5s5-2.243 5-5zm-7.829 1h5.657c-.413 1.164-1.525 2-2.829 2s-2.415-.836-2.828-2zM55 23.184V21h-2v2h-2v3c0 1.654 1.346 3 3 3 .551 0 1 .449 1 1v1h-1c-.552 0-1-.449-1-1v-1h-2v1c0 1.302.839 2.402 2 2.816V35h2v-2h2v-3c0-1.654-1.346-3-3-3-.552 0-1-.449-1-1v-1h1c.551 0 1 .449 1 1v1h2v-1a2.996 2.996 0 0 0-2-2.816z"/><path d="M63 30v-.111c0-1.39-.329-2.782-.95-4.025l-4.05-8.1v-5.527l2.217-4.434-.51-.51A7.77 7.77 0 0 0 55 5.045V3h-1c-5.46 0-6.764 2.292-6.895 2.553L47 5.764V6a8.42 8.42 0 0 0 2.355 5.857l1.163 1.213A3.953 3.953 0 0 0 50 15c0 .664.178 1.281.465 1.832l-4.515 9.031a9.036 9.036 0 0 0-.892 3.038c-.686.181-1.384.326-2.093.397l-6.162.616-.279-1.393a7.008 7.008 0 0 0 4.396-5.522H41c2.206 0 4-1.794 4-4 0-.849-.27-1.634-.724-2.283l.51-2.549A10.99 10.99 0 0 0 45 12.009C45 5.938 40.062 1 33.991 1h-3.606a8.907 8.907 0 0 0-8.19 5.335 7.292 7.292 0 0 0-3.053 7.473l.582 2.909A3.968 3.968 0 0 0 19 19c0 2.206 1.794 4 4 4h.08a7.01 7.01 0 0 0 4.396 5.522l-.279 1.393-6.162-.616a13.457 13.457 0 0 1-2.1-.398A9.513 9.513 0 0 0 18 25.765l-4.465-8.931c.287-.553.465-1.17.465-1.834 0-.703-.198-1.355-.518-1.93l1.163-1.213A8.42 8.42 0 0 0 17 6v-.236l-.105-.211C16.764 5.292 15.46 3 10 3H9v2.045a7.77 7.77 0 0 0-4.707 2.248l-.51.51L6 12.236v5.527l-4 8A9.528 9.528 0 0 0 1 30c0 3.301 1.792 6.185 4.45 7.752-.277.343-.45.773-.45 1.248v6H3c-1.103 0-2 .897-2 2v10c0 1.103.897 2 2 2h28v2c0 1.103.897 2 2 2h28c1.103 0 2-.897 2-2V39c0-1.103-.897-2-2-2h-1.356A8.983 8.983 0 0 0 63 30zm-6.618-19H54c-.027 0-.052.008-.079.008.523-1.259.859-2.59.999-3.946a5.76 5.76 0 0 1 2.844 1.175zM52 15c0-.147.018-.289.048-.427l.556-1.001A1.991 1.991 0 0 1 54 13h2v4h-2c-1.103 0-2-.897-2-2zm-2.992-8.673c.337-.341 1.388-1.132 3.992-1.297v.601c0 1.97-.49 3.922-1.417 5.659l-.784-.817a6.423 6.423 0 0 1-1.791-4.146zM29.923 33.08l-2.369 1.421-.876-2.628 1.039.104zm6.359-1.103 1.039-.104-.876 2.628-2.369-1.421zM41 21v-4c1.103 0 2 .897 2 2s-.897 2-2 2zm-20-2c0-1.103.897-2 2-2v4c-1.103 0-2-.897-2-2zm2-5v1c-.538 0-1.05.11-1.52.304l-.377-1.888a5.295 5.295 0 0 1 2.26-5.457l.45-.3.116-.289A6.92 6.92 0 0 1 30.385 3h3.606C38.958 3 43 7.042 43 12.009c0 .593-.059 1.187-.175 1.767l-.306 1.528A3.963 3.963 0 0 0 41 15v-1a2.996 2.996 0 0 0-2.58-2.958c.36-.6.58-1.293.58-2.042 0-2.206-1.794-4-4-4v2c1.103 0 2 .897 2 2s-.897 2-2 2h-2c-2.206 0-4-1.794-4-4h-2c0 .716.126 1.404.357 2.041A5.008 5.008 0 0 0 23 14zm2 8v-8c0-1.654 1.346-3 3-3h.532A5.985 5.985 0 0 0 33 13h5c.551 0 1 .449 1 1v8c0 2.757-2.243 5-5 5h-4c-2.757 0-5-2.243-5-5zm5 7h4c.194 0 .384-.014.574-.029l.295 1.476L32 31.882l-2.87-1.435.295-1.476c.191.015.381.029.575.029zm-5.503 2.655 1.949 5.844L32 34.166l5.554 3.333 1.949-5.844 3.661-.366c.637-.064 1.267-.18 1.89-.321a8.977 8.977 0 0 0 2.578 5.386 22.175 22.175 0 0 1-4.46 1.392L43 37.78V36h-2v13h-4v-2c0-1.103-.897-2-2-2H23v-9h-2v1.78l-.173-.035a22.186 22.186 0 0 1-4.459-1.392 8.972 8.972 0 0 0 2.578-5.386c.623.142 1.253.258 1.89.321zM14.816 47A2.997 2.997 0 0 1 13 48.816V47zM11 53H3v-2h8zm2-1.816A2.997 2.997 0 0 1 14.816 53H13zM16.892 53a5.006 5.006 0 0 0-1.895-3 5.006 5.006 0 0 0 1.895-3h3.134c-.635.838-1.026 1.87-1.026 3s.391 2.162 1.026 3zm.074-14.266c1.128.407 2.286.736 3.468.973l.566.113V45h-4v-5.903c0-.125-.015-.245-.034-.363zM21 50c0-1.654 1.346-3 3-3s3 1.346 3 3-1.346 3-3 3-3-1.346-3-3zm6.974-3h3.127c.168.824.556 1.56 1.075 2.182A1.999 1.999 0 0 0 31 51v2h-3.026c.635-.838 1.026-1.87 1.026-3s-.391-2.162-1.026-3zM33 52.816V51h1.816A2.997 2.997 0 0 1 33 52.816zm2-4A2.997 2.997 0 0 1 33.184 47H35zm-2 6.368A2.997 2.997 0 0 1 34.816 57H33zM36.899 57a4.994 4.994 0 0 0-1.93-3 4.994 4.994 0 0 0 1.93-3h3.127c-.635.838-1.026 1.87-1.026 3s.391 2.162 1.026 3zM41 54c0-1.654 1.346-3 3-3s3 1.346 3 3-1.346 3-3 3-3-1.346-3-3zm6.974-3h3.127a4.994 4.994 0 0 0 1.93 3 4.994 4.994 0 0 0-1.93 3h-3.127c.635-.838 1.026-1.87 1.026-3s-.391-2.162-1.026-3zM55 52.816A2.997 2.997 0 0 1 53.184 51H55zm0 2.368V57h-1.816A2.997 2.997 0 0 1 55 55.184zM57 55h4v2h-4zm0-2v-2h4v2zm-4-4v-2h8v2zm0-4v-2h8v2zm-2-6v10h-8v-9.18l.565-.113a24.18 24.18 0 0 0 5.841-1.981c.524.313 1.08.573 1.665.776A1.944 1.944 0 0 0 51 39zM11.395 13.571l.556 1.002c.031.138.049.28.049.427 0 1.103-.897 2-2 2H8v-4h2a1.99 1.99 0 0 1 1.395.571zM11 5.03c2.632.167 3.677.971 3.992 1.289a6.43 6.43 0 0 1-1.791 4.154l-.784.817A12.047 12.047 0 0 1 11 5.631zM9.08 7.062c.14 1.356.476 2.687.999 3.946-.027-.001-.052-.008-.079-.008H7.618L6.237 8.237A5.76 5.76 0 0 1 9.08 7.062zM3 30c0-1.154.273-2.31.789-3.342L7.618 19H10c.765 0 1.473-.227 2.082-.601l4.129 8.259A7.512 7.512 0 0 1 17 30c0 3.86-3.14 7-7 7s-7-3.14-7-7zm7 9c.029 0 .057-.004.086-.004l4.892-.007a.207.207 0 0 1 .022.108V41H7v-2l2.919-.004c.027 0 .054.004.081.004zm-3 4h8v2H7zm4 4v2H3v-2zm-8 8h8v2H3zm10 2v-2h18v2zm20 2h22v2H33zm24 2v-2h4v2zm4-22v2h-8v-2zm-14-9v-.111c0-1.081.255-2.164.739-3.13l4.179-8.359A3.97 3.97 0 0 0 54 19h2.382l3.879 7.758c.484.967.739 2.05.739 3.131V30c0 3.86-3.14 7-7 7s-7-3.14-7-7z"/></g></svg>