<svg height="512" viewBox="0 0 512.032 512.032" width="512" xmlns="http://www.w3.org/2000/svg"><path d="M446.68 188.504c0 152.318-123.478 275.795-275.795 275.795-57.432 0-110.76-17.559-154.916-47.598-16.003-10.887-7.685-35.773 11.662-35.228 114.667 3.226 146.945-105.29 146.945-197.863 0-74.843 60.424-135.573 135.151-136.068 77.025-.511 138.155 63.944 136.953 140.962z" fill="#a3defe"/><path d="M262.395 272.109c7.345-57.524-26.587-111.945-80.827-131.665-4.534 13.563-6.993 28.077-6.993 43.165 0 73.357-20.279 156.711-85.749 186.556a183.635 183.635 0 0 0 33.712 8.318c68.6 10.169 131.209-38.655 139.857-106.374z" fill="#7acefa"/><path d="M52.652 135.333c-1.612 39.087 10.354 78.558 35.781 110.956a213.1 213.1 0 0 1-48.691-3.118c-17.612-3.178-30.95 15.559-22.055 31.088 22.398 39.103 61.843 67.572 109.424 74.574 51.425 7.568 98.942-28.964 105.526-80.524 5.661-44.328-20.964-86.31-63.373-100.397-30.52-10.138-58.281-26.322-81.866-47.13-13.144-11.597-34.024-2.962-34.746 14.551z" fill="#a3defe"/><path d="M462.864 140.764c9.321-12.525 14.921-31.424 15.208-59.664.074-7.28-8.239-11.545-14.006-7.101-14.272 10.999-27.908 17.635-42.564 23.146-15.259 5.737-26.111 19.411-27.956 35.608l-.047.415a65.768 65.768 0 0 0 19.595 54.691c7.715 7.47 18.551 10.807 29.123 8.925 33.372-5.941 53.454-29.751 61.632-49.649 2.719-6.615-3.274-13.506-10.207-11.748-10.015 2.539-21.233 4.779-30.43 5.989-.339.044-.552-.337-.348-.612z" fill="#7acefa"/><ellipse cx="319.315" cy="182.768" fill="#fff" rx="28.919" ry="23.03"/><path d="M59.899 432.836A268.667 268.667 0 0 1 20.187 410.5c-9.778-6.651-4.678-21.876 7.232-21.53 38.782 1.097 71.183-10.038 96.355-33.079 58.233 9.407 109.237-31.309 116.301-86.632 5.548-43.436-17.887-85.169-56.724-103.725 4.899-34.753 23.901-66.116 52.733-86.678a7.5 7.5 0 0 0-8.71-12.213c-31.206 22.256-52.099 55.856-58.33 93.257-28.293-9.771-54.086-24.805-76.686-44.743-17.938-15.825-46.222-3.87-47.201 19.866A176.17 176.17 0 0 0 73.978 239.03a206.216 206.216 0 0 1-32.906-3.24c-23.906-4.31-41.946 21.155-29.894 42.196 20.84 36.383 54.429 62.49 94.066 73.788-20.926 15.594-46.898 23.045-77.403 22.201-26.882-.759-38.273 33.836-16.091 48.927a283.685 283.685 0 0 0 41.935 23.586 7.5 7.5 0 0 0 9.933-3.72 7.499 7.499 0 0 0-3.719-9.932zM24.195 270.531c-5.782-10.095 2.95-22.016 14.215-19.98a221.003 221.003 0 0 0 48.022 3.313c17.483 10.35 44.64 18.348 53.161 18.348a7.501 7.501 0 0 0 .747-14.963c-14.571-1.477-37.083-10.691-46.779-16.598a161.088 161.088 0 0 1-33.416-105.009c.461-11.184 13.825-16.706 22.29-9.237 41.011 36.181 78.998 46.209 89.861 50.64 38.559 16.472 57.529 54.068 52.9 90.313-6.142 48.093-51.38 83.376-102.342 73.155-41.718-7.715-77.467-32.984-98.659-69.982zm305.709-112.823a6.273 6.273 0 0 1 6.265-6.266 6.273 6.273 0 0 1 6.266 6.266 7.5 7.5 0 0 0 7.5 7.5c4.143 0 7.5-3.357 7.5-7.5 0-11.726-9.54-21.266-21.266-21.266s-21.265 9.54-21.265 21.266c0 4.143 3.357 7.5 7.5 7.5s7.5-3.358 7.5-7.5zM491.8 128.117a295.643 295.643 0 0 1-15.06 3.393c5.718-13.193 8.623-29.821 8.832-50.333.137-13.585-15.392-21.354-26.084-13.118-13.515 10.414-25.563 16.281-40.736 22.109-39.837-46.588-102.563-61.61-157.667-41.343a7.5 7.5 0 0 0-4.45 9.628 7.498 7.498 0 0 0 9.628 4.45c48.622-17.884 103.484-5.037 139.112 34.746-10.655 8.256-17.71 20.467-19.278 34.244l-.05.426c-2.556 22.439 5.604 45.217 21.831 60.929a41.046 41.046 0 0 0 30.799 11.477c-10.222 171.812-178.864 291.07-345.593 240.619a7.5 7.5 0 0 0-4.345 14.358c177.586 53.737 356.742-74.793 365.124-258.012 29.801-9.022 48.781-31.889 56.924-51.702 5.058-12.304-6.088-25.149-18.987-21.871zm5.113 16.167c-7.534 18.331-26.205 39.81-56.01 45.116-8.166 1.454-16.61-1.138-22.592-6.929-12.903-12.495-19.394-30.609-17.362-48.444l.05-.426c1.355-11.902 8.549-22.139 19.116-27.626 6.475-3.388 25.536-8.319 48.529-26.037.835-.646 1.939.07 1.928 1.085-.255 25.119-4.744 43.195-13.725 55.263-4.149 5.573.416 13.413 7.345 12.524 9.276-1.221 20.683-3.465 31.293-6.155.183-.043.728-.184 1.221.386.486.561.276 1.073.207 1.243z"/></svg>