<svg id="Layer_1" data-name="Layer 1" xmlns="http://www.w3.org/2000/svg" width="1000" height="215" viewBox="0 0 1000 215"><defs><style>.cls-1{fill:#a0f;}.cls-2{fill:#fff;}</style></defs><title>Nomics_Logomark_Horz-Purple</title><path d="M347.46,161.35H323V53.66h24.43V69.44c8.84-11.65,22.19-18,37.6-18,24.63,0,39.1,16.53,39.1,42.08v67.77H399.72V98.14c0-16.35-8.64-25-22-25-18.22,0-30.27,16.35-30.27,41Z"/><path d="M440.14,107.58c0-33.63,21.62-56.17,53.77-56.17S547.68,74,547.68,107.58c0,33.44-21.62,56-53.77,56S440.14,141,440.14,107.58Zm82.53,0C522.67,86.92,510.83,73,493.9,73s-28.77,13.91-28.77,34.56C465.13,128.06,477,142,493.9,142s28.81-13.92,28.81-34.39Z"/><path d="M589,161.35H564.58V53.66H589V69.44c7.71-11.83,19-18,32-18,14.29,0,26.88,7.52,32.71,21.24,8.84-13.9,22.94-21.24,37.6-21.24,20.68,0,35.15,14.66,35.15,39.64v70.31H702V96.92c0-15.6-6.77-23.86-19.17-23.86-16.36,0-25.57,14.84-25.57,41.15v47.15H632.83V96.92c0-16.18-7.15-23.86-18.61-23.86-15.79,0-25.19,15.17-25.19,41.15Z"/><path d="M749,53.66h24.43V161.35H749Z"/><path d="M790.36,107.39c0-33.44,22.19-56,53.58-56,24.06,0,41.5,12.78,48.88,34l-22.74,9.4C867,80.72,858,73,844.5,73c-17.67,0-29.14,13.52-29.14,34.39,0,21,11.47,34.56,29.35,34.56,13.35,0,22.37-7.7,25.38-21.79l22.56,9.4c-7.9,22.17-24.82,34-48.31,34C812.55,163.56,790.36,141,790.36,107.39Z"/><path d="M906,132.94l22.19-10.11c1.51,11.83,13.73,20.29,27.83,20.29,10.9,0,19.36-5.06,19.36-11.83,0-18.21-64.86-10.52-64.86-47.34,0-20.29,17.86-31.93,42.3-31.93,24.06,0,41.93,11.46,46.25,26.67L975.76,88.8C975,80,965.64,72.45,952.25,72.45c-9.78,0-17.3,4.13-17.3,10,0,17.47,65,9.4,65,47.9,0,19.54-17.3,33.25-44.54,33.25C928.54,163.56,910.12,151.54,906,132.94Z"/><path class="cls-1" d="M98,47.66A49,49,0,0,0,0,49V166a49,49,0,0,0,83.7,34.67L117,167.34h0A49,49,0,0,0,215,166V49a49,49,0,0,0-83.7-34.67L98,47.66"/><ellipse class="cls-2" cx="108.28" cy="107.51" rx="49.02" ry="49.04"/></svg>