<svg xmlns="http://www.w3.org/2000/svg" width="512" height="512" style="shape-rendering:geometricPrecision;text-rendering:geometricPrecision;image-rendering:optimizeQuality;fill-rule:evenodd;clip-rule:evenodd"><path style="opacity:.967" fill="#010000" d="M186.5-.5h14c13.028 5.582 18.862 15.582 17.5 30A34843.83 34843.83 0 0 0 370.5 120l44 1c16.827 3.991 26.494 14.491 29 31.5 27.632.711 44.799 14.378 51.5 41 .667 92.667.667 185.333 0 278-4.569 21.4-17.402 34.734-38.5 40h-299c-2.35-1.713-3.35-4.047-3-7 .044-3.59 1.711-6.09 5-7.5l294-1c14.406-4.306 23.239-13.806 26.5-28.5.667-90.333.667-180.667 0-271-2.981-14.313-11.481-23.48-25.5-27.5a481.165 481.165 0 0 0-31-.5c-122.334-.167-244.667 0-367 .5-14.123 3.954-22.457 13.121-25 27.5-.667 44.999-1 90.165-1 135.5-.154 46.87.346 93.703 1.5 140.5 3.894 10.618 11.061 18.118 21.5 22.5a1527.923 1527.923 0 0 0 76 2c3.289 1.41 4.956 3.91 5 7.5.35 2.953-.65 5.287-3 7h-77c-21.098-5.266-33.931-18.6-38.5-40-.667-92.667-.667-185.333 0-278 5.286-23.951 20.12-37.451 44.5-40.5 90.999-.5 181.999-.667 273-.5 1.369-10.734 6.369-19.401 15-26a28582.54 28582.54 0 0 0-140.5-84c-11.721 7.328-22.721 6.328-33-3-8.478-13.449-6.978-25.615 4.5-36.5l7-3.5z"/><path style="opacity:1" fill="#897c89" d="M190.5 14.5c7.998-.5 11.831 3.167 11.5 11-2.451 5.59-6.617 7.422-12.5 5.5-6.829-5.997-6.496-11.497 1-16.5z"/><path style="opacity:1" fill="#b0aab3" d="M365.5 136.5c10.339-.166 20.672 0 31 .5 4.642 4.117 6.975 9.284 7 15.5h-54c1.653-8.986 6.986-14.319 16-16z"/><path style="opacity:1" fill="#867a87" d="M365.5 136.5c15.161-1.161 30.494-1.328 46-.5 8.797 2.297 14.463 7.797 17 16.5a783.16 783.16 0 0 1-79 0h54c-.025-6.216-2.358-11.383-7-15.5a481.165 481.165 0 0 0-31-.5z"/><path style="opacity:1" fill="#fb830c" d="M423.5 168.5v45c-44.001-.167-88.001 0-132 .5-1.964 1.451-3.297 3.284-4 5.5a116.8 116.8 0 0 1-21 1c-.401-3.57-2.401-5.736-6-6.5a8460.02 8460.02 0 0 0-184 0c-8.927 3.26-14.76 9.427-17.5 18.5-.667 22-.667 44 0 66 1.952 11.119 8.452 17.785 19.5 20 114.832 1 229.832 1.333 345 1 .328 11.845-.005 23.512-1 35-19.497-10.408-39.497-11.575-60-3.5-1.727 2.904-2.393 6.07-2 9.5a64.68 64.68 0 0 0-15 11c-3.959-1.708-7.459-1.042-10.5 2-13.452 21.148-14.952 43.148-4.5 66h-132c.167-16.337 0-32.67-.5-49-5.163-5.562-9.829-5.229-14 1a396.321 396.321 0 0 0 .5 48c-8.734.635-17.067-.032-25-2 .167-15.337 0-30.67-.5-46-4.252-6.153-8.919-6.486-14-1-.5 15.997-.667 31.997-.5 48-8.15.993-16.483 1.326-25 1 .167-16.337 0-32.67-.5-49-5.163-5.562-9.829-5.229-14 1a396.321 396.321 0 0 0 .5 48c-8.517.326-16.85-.007-25-1 .167-16.003 0-32.003-.5-48-4.745-5.243-9.412-5.243-14 0-.5 15.663-.667 31.33-.5 47-10.95 1.978-22.284 2.644-34 2v-243c2.543-14.379 10.877-23.546 25-27.5 122.333-.5 244.666-.667 367-.5z"/><path style="opacity:1" fill="#ee6500" d="M423.5 168.5c10.339-.166 20.672 0 31 .5 14.019 4.02 22.519 13.187 25.5 27.5.667 90.333.667 180.667 0 271-3.261 14.694-12.094 24.194-26.5 28.5l-294 1c-3.289 1.41-4.956 3.91-5 7.5h-20c-.044-3.59-1.711-6.09-5-7.5a1527.923 1527.923 0 0 1-76-2c-10.439-4.382-17.606-11.882-21.5-22.5A5025.682 5025.682 0 0 1 30.5 332c0-45.335.333-90.501 1-135.5v243c11.716.644 23.05-.022 34-2 4.39 7.671 9.39 8.004 15 1 8.15.993 16.483 1.326 25 1 4.54 5.241 9.207 5.241 14 0 8.517.326 16.85-.007 25-1 5.511 6.702 10.511 6.369 15-1 7.933 1.968 16.266 2.635 25 2 4.493 5.257 9.16 5.257 14 0h132c19.431 30.981 46.764 41.148 82 30.5 32.428-16.024 45.262-41.857 38.5-77.5-4.937-16.259-14.437-28.926-28.5-38 .995-11.488 1.328-23.155 1-35-115.168.333-230.168 0-345-1 118.667.167 237.334 0 356-.5 10.053-2.72 15.887-9.22 17.5-19.5.667-22 .667-44 0-66-4.517-13.683-14.017-20.016-28.5-19v-45z"/><path style="opacity:1" fill="#050404" d="M266.5 220.5v1c-.34 3.175-2.007 5.341-5 6.5l-182 1c-2.579 1.076-4.246 2.909-5 5.5a663.68 663.68 0 0 0-.5 63 29.465 29.465 0 0 0 2.5 4.5 1112.617 1112.617 0 0 0 81 1.5v-14a840.27 840.27 0 0 1 .5-41c3.705-4.482 8.038-5.149 13-2 1.009 1.525 1.509 3.192 1.5 5v52c87.415.495 174.749-.005 262-1.5a29.517 29.517 0 0 0 2.5-4.5c.667-21 .667-42 0-63a11.532 11.532 0 0 0-3.5-4.5 3250.638 3250.638 0 0 0-139-1.5c-4.333-.333-6.667-2.667-7-7v-2c.703-2.216 2.036-4.049 4-5.5 43.999-.5 87.999-.667 132-.5 14.483-1.016 23.983 5.317 28.5 19 .667 22 .667 44 0 66-1.613 10.28-7.447 16.78-17.5 19.5-118.666.5-237.333.667-356 .5-11.048-2.215-17.548-8.881-19.5-20-.667-22-.667-44 0-66 2.74-9.073 8.573-15.24 17.5-18.5a8460.02 8460.02 0 0 1 184 0c3.599.764 5.599 2.93 6 6.5z"/><path style="opacity:1" fill="#eda763" d="M287.5 219.5v2h-21v-1a116.8 116.8 0 0 0 21-1z"/><path style="opacity:1" fill="#efeff2" d="M266.5 221.5h21c.333 4.333 2.667 6.667 7 7 42.497.999 85.163 1.332 128 1 .167 15.337 0 30.67-.5 46-1.388 7.055-5.555 11.555-12.5 13.5-78.666.5-157.333.667-236 .5a361.608 361.608 0 0 0-1-38c.009-1.808-.491-3.475-1.5-5-4.962-3.149-9.295-2.482-13 2a840.27 840.27 0 0 0-.5 41h-83v-55c.754-2.591 2.421-4.424 5-5.5l182-1c2.993-1.159 4.66-3.325 5-6.5z"/><path style="opacity:1" fill="#dedce1" d="M294.5 228.5c46.418-.49 92.751.01 139 1.5a11.532 11.532 0 0 1 3.5 4.5c.667 21 .667 42 0 63a29.517 29.517 0 0 1-2.5 4.5 11493.671 11493.671 0 0 1-262 1.5v-52a361.608 361.608 0 0 1 1 38c78.667.167 157.334 0 236-.5 6.945-1.945 11.112-6.445 12.5-13.5.5-15.33.667-30.663.5-46-42.837.332-85.503-.001-128-1z"/><path style="opacity:1" fill="#dddadf" d="M74.5 234.5v55h83v14c-27.089.482-54.089-.018-81-1.5a29.465 29.465 0 0 1-2.5-4.5 663.68 663.68 0 0 1 .5-63z"/><path style="opacity:1" fill="#050301" d="M422.5 354.5c14.063 9.074 23.563 21.741 28.5 38 6.762 35.643-6.072 61.476-38.5 77.5-35.236 10.648-62.569.481-82-30.5-10.452-22.852-8.952-44.852 4.5-66 3.041-3.042 6.541-3.708 10.5-2 1.872 1.545 2.872 3.545 3 6a9675.59 9675.59 0 0 1-7.5 17c-4.366 15.183-2.366 29.516 6 43 3.709 5.21 8.209 9.543 13.5 13 13.097 9.318 27.43 11.485 43 6.5 24.747-9.638 36.247-27.805 34.5-54.5-1.01-7.558-3.844-14.224-8.5-20-16.005-21.506-36.671-27.506-62-18-2.813-.571-5.146-1.904-7-4-.393-3.43.273-6.596 2-9.5 20.503-8.075 40.503-6.908 60 3.5z"/><path style="opacity:1" fill="#dcd9de" d="M360.5 360.5c1.854 2.096 4.187 3.429 7 4 25.329-9.506 45.995-3.506 62 18 3.509 34.969-11.491 57.469-45 67.5-7.971 1.787-15.971 1.954-24 .5-5.291-3.457-9.791-7.79-13.5-13-8.366-13.484-10.366-27.817-6-43a9675.59 9675.59 0 0 0 7.5-17c-.128-2.455-1.128-4.455-3-6a64.68 64.68 0 0 1 15-11z"/><path style="opacity:1" fill="#040304" d="M381.5 381.5c16.579-1.964 28.079 4.703 34.5 20 2.339 24.659-8.828 36.825-33.5 36.5-16.595-5.6-23.762-17.1-21.5-34.5 3.25-10.747 10.083-18.081 20.5-22z"/><path style="opacity:1" fill="#aea8b2" d="M429.5 382.5c4.656 5.776 7.49 12.442 8.5 20 1.747 26.695-9.753 44.862-34.5 54.5-15.57 4.985-29.903 2.818-43-6.5 8.029 1.454 16.029 1.287 24-.5 33.509-10.031 48.509-32.531 45-67.5z"/><path style="opacity:1" fill="#020100" d="M80.5 438.5c-5.61 7.004-10.61 6.671-15-1-.167-15.67 0-31.337.5-47 4.588-5.243 9.255-5.243 14 0 .5 15.997.667 31.997.5 48z"/><path style="opacity:1" fill="#0c0501" d="M119.5 439.5c-4.793 5.241-9.46 5.241-14 0a396.321 396.321 0 0 1-.5-48c4.171-6.229 8.837-6.562 14-1 .5 16.33.667 32.663.5 49z"/><path style="opacity:1" fill="#040100" d="M159.5 437.5c-4.489 7.369-9.489 7.702-15 1-.167-16.003 0-32.003.5-48 5.081-5.486 9.748-5.153 14 1 .5 15.33.667 30.663.5 46z"/><path style="opacity:1" fill="#090300" d="M198.5 439.5c-4.84 5.257-9.507 5.257-14 0a396.321 396.321 0 0 1-.5-48c4.171-6.229 8.837-6.562 14-1 .5 16.33.667 32.663.5 49z"/><path style="opacity:1" fill="#aea8b2" d="M395.5 398.5c-1.703 10.37-7.703 16.37-18 18-4.387-8.811-2.054-15.311 7-19.5 3.902-.888 7.569-.388 11 1.5z"/><path style="opacity:1" fill="#8c7e8c" d="M395.5 398.5c5.647 3.872 7.48 9.205 5.5 16-4.686 8.784-11.519 10.95-20.5 6.5-1.641-1.129-2.641-2.629-3-4.5 10.297-1.63 16.297-7.63 18-18z"/></svg>