<?xml version="1.0" encoding="UTF-8"?>
<!DOCTYPE svg PUBLIC "-//W3C//DTD SVG 1.1//EN" "http://www.w3.org/Graphics/SVG/1.1/DTD/svg11.dtd">
<svg xmlns="http://www.w3.org/2000/svg" version="1.1" width="128px" height="128px" style="shape-rendering:geometricPrecision; text-rendering:geometricPrecision; image-rendering:optimizeQuality; fill-rule:evenodd; clip-rule:evenodd" xmlns:xlink="http://www.w3.org/1999/xlink">
<g><path style="opacity:0.791" fill="#010407" d="M 117.5,8.5 C 120.272,8.21997 122.772,8.88664 125,10.5C 125.667,14.5 125.667,18.5 125,22.5C 118.665,53.1793 112.332,83.8459 106,114.5C 103.019,118.696 99.1856,119.529 94.5,117C 85.5605,110.617 76.7271,104.117 68,97.5C 62.094,101.874 56.2607,106.374 50.5,111C 46.373,112.292 43.2063,111.125 41,107.5C 37.6526,96.4414 34.1526,85.4414 30.5,74.5C 20.8969,70.5819 11.3969,66.5819 2,62.5C 1.33333,59.8333 1.33333,57.1667 2,54.5C 2.90252,53.2986 4.06919,52.4652 5.5,52C 43.0167,37.5577 80.35,23.0577 117.5,8.5 Z"/></g>
<g><path style="opacity:1" fill="#0085c7" d="M 116.5,13.5 C 118.948,13.0101 120.615,13.8434 121.5,16C 114.752,48.491 108.085,80.991 101.5,113.5C 100.127,113.657 98.7932,113.49 97.5,113C 90.3202,107.909 83.3202,102.576 76.5,97C 73.6544,94.8273 70.4878,93.3273 67,92.5C 64.9676,92.8584 63.1343,93.6917 61.5,95C 56.9389,99.604 51.9389,103.271 46.5,106C 42.142,94.76 38.3086,83.26 35,71.5C 24.9872,67.4453 15.1539,63.1119 5.5,58.5C 5.97665,57.5224 6.64332,56.6891 7.5,56C 44.2384,42.5793 80.5717,28.4126 116.5,13.5 Z"/></g>
<g><path style="opacity:1" fill="#040c12" d="M 94.5,31.5 C 98.1378,30.7366 99.6378,32.0699 99,35.5C 84.1845,48.9253 69.5178,62.592 55,76.5C 53.9347,81.467 52.9347,86.467 52,91.5C 50.9505,92.5171 49.7839,92.6838 48.5,92C 44.298,83.6541 42.1313,74.8208 42,65.5C 58.5472,54.6354 75.3805,44.1354 92.5,34C 93.3805,33.2917 94.0472,32.4584 94.5,31.5 Z"/></g>
<g><path style="opacity:1" fill="#007fbe" d="M 82.5,43.5 C 83.525,43.8966 83.6917,44.5632 83,45.5C 72.8823,54.1503 63.049,63.1503 53.5,72.5C 51.3325,75.4693 49.9992,78.8026 49.5,82.5C 46.821,77.8206 45.321,72.8206 45,67.5C 57.819,59.8499 70.319,51.8499 82.5,43.5 Z"/></g>
<g><path style="opacity:1" fill="#0a151d" d="M 103.5,63.5 C 107.089,64.3721 107.423,66.0387 104.5,68.5C 103.548,66.9547 103.215,65.288 103.5,63.5 Z"/></g>
<g><path style="opacity:1" fill="#060f16" d="M 100.5,75.5 C 101.5,75.5 102.5,75.5 103.5,75.5C 102.095,84.5993 100.262,93.5993 98,102.5C 97.586,102.957 97.086,103.291 96.5,103.5C 96.1667,102.5 95.8333,101.5 95.5,100.5C 97.49,92.2256 99.1567,83.8922 100.5,75.5 Z"/></g>
</svg>
