<?xml version="1.0" encoding="UTF-8"?>
<!DOCTYPE svg PUBLIC "-//W3C//DTD SVG 1.1//EN" "http://www.w3.org/Graphics/SVG/1.1/DTD/svg11.dtd">
<svg xmlns="http://www.w3.org/2000/svg" version="1.1" width="128px" height="128px" style="shape-rendering:geometricPrecision; text-rendering:geometricPrecision; image-rendering:optimizeQuality; fill-rule:evenodd; clip-rule:evenodd" xmlns:xlink="http://www.w3.org/1999/xlink">
<g><path style="opacity:0.941" fill="#c3dffb" d="M 52.5,0.5 C 82.8112,-2.7028 105.645,8.63053 121,34.5C 133.713,66.8061 126.88,93.9727 100.5,116C 82.7725,126.825 63.7725,129.492 43.5,124C 12.0384,110.593 -2.12823,86.7598 1,52.5C 7.74005,24.5758 24.9067,7.24242 52.5,0.5 Z"/></g>
<g><path style="opacity:1" fill="#020202" d="M 30.5,31.5 C 55.8464,29.6894 69.0131,41.356 70,66.5C 65.7968,86.1862 53.6302,95.6862 33.5,95C 14.133,89.4364 5.29971,76.6031 7,56.5C 10.6162,44.0544 18.4496,35.7211 30.5,31.5 Z"/></g>
<g><path style="opacity:1" fill="#030405" d="M 86.5,32.5 C 96.391,34.5649 102.058,40.7316 103.5,51C 106.594,65.06 104.261,78.06 96.5,90C 91.1147,94.8221 85.9481,94.6554 81,89.5C 73.8502,77.8239 71.5169,65.1573 74,51.5C 75.2469,43.1144 79.4136,36.7811 86.5,32.5 Z"/></g>
<g><path style="opacity:1" fill="#0d0f10" d="M 111.5,36.5 C 113.39,36.2965 114.89,36.9632 116,38.5C 120.957,55.2971 120.624,71.9638 115,88.5C 114.439,89.0219 113.772,89.3552 113,89.5C 111.078,87.2112 109.745,84.5445 109,81.5C 106.33,66.2353 107.163,51.2353 111.5,36.5 Z"/></g>
</svg>
