<?xml version="1.0" encoding="UTF-8"?>
<!DOCTYPE svg PUBLIC "-//W3C//DTD SVG 1.1//EN" "http://www.w3.org/Graphics/SVG/1.1/DTD/svg11.dtd">
<svg xmlns="http://www.w3.org/2000/svg" version="1.1" width="128px" height="128px" style="shape-rendering:geometricPrecision; text-rendering:geometricPrecision; image-rendering:optimizeQuality; fill-rule:evenodd; clip-rule:evenodd" xmlns:xlink="http://www.w3.org/1999/xlink">
<g><path style="opacity:0.929" fill="#030301" d="M 1.5,1.5 C 9.25298,1.10389 16.9196,1.60389 24.5,3C 30.1288,6.63459 33.2954,11.8013 34,18.5C 36.2583,16.5704 38.7583,15.0704 41.5,14C 48.1583,13.5004 54.825,13.3337 61.5,13.5C 62.1995,22.9536 58.1995,29.4536 49.5,33C 44.1771,33.4994 38.8437,33.666 33.5,33.5C 33.3354,36.5184 33.502,39.5184 34,42.5C 36.2583,40.5704 38.7583,39.0704 41.5,38C 47.1667,37.6667 52.8333,37.3333 58.5,37C 60.0175,35.3149 61.6841,33.8149 63.5,32.5C 68.1667,36.8333 72.8333,41.1667 77.5,45.5C 84.1667,39.5 90.5,33.1667 96.5,26.5C 94.0164,23.5157 91.3497,20.6824 88.5,18C 100.37,14.9259 112.37,12.4259 124.5,10.5C 122.529,21.8575 120.362,33.1909 118,44.5C 117.282,45.4506 116.449,45.6172 115.5,45C 113.317,42.6496 110.984,40.483 108.5,38.5C 102.014,44.4852 95.6811,50.6519 89.5,57C 101.167,57.3333 112.833,57.6667 124.5,58C 125.635,62.7477 125.802,67.581 125,72.5C 123.301,73.4061 121.467,73.7394 119.5,73.5C 119.34,75.1992 119.506,76.8659 120,78.5C 122.043,80.208 123.71,82.208 125,84.5C 125.667,96.5 125.667,108.5 125,120.5C 123.833,122.333 122.333,123.833 120.5,125C 105.167,125.667 89.8333,125.667 74.5,125C 72.6667,123.833 71.1667,122.333 70,120.5C 69.3333,108.5 69.3333,96.5 70,84.5C 71.2899,82.208 72.9565,80.208 75,78.5C 75.4935,76.8659 75.6602,75.1992 75.5,73.5C 73.5328,73.7394 71.6995,73.4061 70,72.5C 69.6667,68.5 69.3333,64.5 69,60.5C 67.2599,58.0465 65.0933,56.5465 62.5,56C 57.8333,60.6667 53.1667,65.3333 48.5,70C 59.7492,78.4033 63.9158,89.5699 61,103.5C 54.4911,120.844 41.9911,128.011 23.5,125C 6.15561,118.491 -1.01105,105.991 2,87.5C 6.13875,73.8509 15.3054,66.5176 29.5,65.5C 29.5,58.8333 29.5,52.1667 29.5,45.5C 24.1563,45.666 18.8229,45.4994 13.5,45C 4.80049,41.4536 0.80049,34.9536 1.5,25.5C 8.17499,25.3337 14.8417,25.5004 21.5,26C 24.2417,27.0704 26.7417,28.5704 29,30.5C 29.498,27.5184 29.6646,24.5184 29.5,21.5C 24.1563,21.666 18.8229,21.4994 13.5,21C 4.80049,17.4536 0.80049,10.9536 1.5,1.5 Z M 33.5,57.5 C 38.2717,57.3671 38.4384,58.7004 34,61.5C 33.51,60.2068 33.3433,58.8734 33.5,57.5 Z"/></g>
<g><path style="opacity:1" fill="#afd77b" d="M 5.5,5.5 C 16.6392,2.74081 24.6392,6.40748 29.5,16.5C 17.8245,20.3239 9.82451,16.6572 5.5,5.5 Z"/></g>
<g><path style="opacity:1" fill="#ef7a67" d="M 112.5,16.5 C 114.5,16.5 116.5,16.5 118.5,16.5C 117.956,23.3884 116.456,30.0551 114,36.5C 112.333,34.8333 110.667,33.1667 109,31.5C 100.5,40 92,48.5 83.5,57C 79.5,57.6667 75.5,57.6667 71.5,57C 68.9841,54.3167 66.3174,51.8167 63.5,49.5C 56.8333,55.8333 50.1667,62.1667 43.5,68.5C 41.2269,67.3491 38.8935,66.3491 36.5,65.5C 38.6499,62.8494 40.9832,60.3494 43.5,58C 54.5,56.3333 60.8333,50 62.5,39C 63.1667,38.3333 63.8333,38.3333 64.5,39C 68.6816,43.3487 73.0149,47.5154 77.5,51.5C 86.3191,43.1811 94.9858,34.6811 103.5,26C 101.833,24.3333 100.167,22.6667 98.5,21C 103.1,19.055 107.766,17.555 112.5,16.5 Z"/></g>
<g><path style="opacity:1" fill="#afd87c" d="M 43.5,17.5 C 48.1785,17.3342 52.8452,17.5008 57.5,18C 52.9007,28.7925 44.9007,32.2925 33.5,28.5C 35.4935,23.5112 38.8269,19.8445 43.5,17.5 Z"/></g>
<g><path style="opacity:1" fill="#afd77b" d="M 5.5,29.5 C 16.6392,26.7408 24.6392,30.4075 29.5,40.5C 17.8245,44.3239 9.82451,40.6572 5.5,29.5 Z"/></g>
<g><path style="opacity:1" fill="#9bce65" d="M 43.5,41.5 C 48.2137,41.1734 52.8804,41.5067 57.5,42.5C 52.6192,52.9326 44.6192,56.2659 33.5,52.5C 35.4935,47.5112 38.8269,43.8445 43.5,41.5 Z"/></g>
<g><path style="opacity:1" fill="#a9b2bc" d="M 73.5,61.5 C 89.5,61.5 105.5,61.5 121.5,61.5C 121.5,64.1667 121.5,66.8333 121.5,69.5C 105.5,69.5 89.5,69.5 73.5,69.5C 73.5,66.8333 73.5,64.1667 73.5,61.5 Z"/></g>
<g><path style="opacity:1" fill="#edb926" d="M 25.5,69.5 C 41.3013,67.9765 51.8013,74.6431 57,89.5C 59.0217,105.292 52.5217,115.792 37.5,121C 21.708,123.022 11.208,116.522 6,101.5C 4.10077,85.6201 10.6008,74.9535 25.5,69.5 Z"/></g>
<g><path style="opacity:1" fill="#100d04" d="M 46.5,108.5 C 45.4599,106.281 45.9599,104.281 48,102.5C 51.1692,85.3332 44.0026,77.1665 26.5,78C 24.2537,79.0395 22.087,80.2062 20,81.5C 19.6174,80.944 19.1174,80.6107 18.5,80.5C 18.33,79.1779 18.6634,78.0113 19.5,77C 33.5607,70.7203 44.3941,74.2203 52,87.5C 54.2654,94.4458 53.5988,101.113 50,107.5C 48.9887,108.337 47.8221,108.67 46.5,108.5 Z"/></g>
<g><path style="opacity:1" fill="#e3e6ea" d="M 79.5,73.5 C 91.5,73.5 103.5,73.5 115.5,73.5C 115.337,75.8568 115.503,78.1902 116,80.5C 118.043,82.208 119.71,84.208 121,86.5C 121.954,97.598 121.62,108.598 120,119.5C 119.586,119.957 119.086,120.291 118.5,120.5C 117.682,117.893 117.182,115.226 117,112.5C 114.56,110.891 113.393,108.557 113.5,105.5C 115.456,101.643 116.79,97.4766 117.5,93C 117.695,90.6477 117.028,88.6477 115.5,87C 105.266,85.3828 94.9325,85.0495 84.5,86C 83.6667,86.8333 82.8333,87.6667 82,88.5C 82.2786,93.1989 80.9452,97.1989 78,100.5C 77.3333,103.5 77.3333,106.5 78,109.5C 80.9239,112.878 82.0906,116.878 81.5,121.5C 77.8184,122.275 75.3184,120.941 74,117.5C 73.3333,107.167 73.3333,96.8333 74,86.5C 75.2899,84.208 76.9565,82.208 79,80.5C 79.4966,78.1902 79.6633,75.8568 79.5,73.5 Z"/></g>
<g><path style="opacity:1" fill="#f6d16d" d="M 46.5,108.5 C 46.1667,109.5 45.5,110.167 44.5,110.5C 42.2806,109.46 40.2806,109.96 38.5,112C 21.3332,115.169 13.1665,108.003 14,90.5C 15.0395,88.2537 16.2062,86.087 17.5,84C 16.944,83.6174 16.6107,83.1174 16.5,82.5C 16.8333,81.5 17.5,80.8333 18.5,80.5C 19.1174,80.6107 19.6174,80.944 20,81.5C 22.087,80.2062 24.2537,79.0395 26.5,78C 44.0026,77.1665 51.1692,85.3332 48,102.5C 45.9599,104.281 45.4599,106.281 46.5,108.5 Z"/></g>
<g><path style="opacity:1" fill="#080703" d="M 29.5,81.5 C 30.8333,81.5 32.1667,81.5 33.5,81.5C 33.2411,84.4797 34.5744,86.313 37.5,87C 39.6312,88.8881 39.6312,90.3881 37.5,91.5C 34.4291,89.82 31.0958,89.1533 27.5,89.5C 27.33,90.8221 27.6634,91.9887 28.5,93C 37.591,92.3351 41.2576,96.5018 39.5,105.5C 37.5,105.5 35.5,105.5 33.5,105.5C 33.5,106.833 33.5,108.167 33.5,109.5C 32.1667,109.5 30.8333,109.5 29.5,109.5C 29.5,108.167 29.5,106.833 29.5,105.5C 26.3314,105.338 24.3314,103.672 23.5,100.5C 24.1667,100.167 24.8333,99.8333 25.5,99.5C 28.5709,101.18 31.9042,101.847 35.5,101.5C 35.67,100.178 35.3366,99.0113 34.5,98C 25.4342,98.7374 21.7676,94.5707 23.5,85.5C 25.5,85.5 27.5,85.5 29.5,85.5C 29.5,84.1667 29.5,82.8333 29.5,81.5 Z"/></g>
<g><path style="opacity:1" fill="#110d04" d="M 16.5,82.5 C 16.6107,83.1174 16.944,83.6174 17.5,84C 16.2062,86.087 15.0395,88.2537 14,90.5C 13.1665,108.003 21.3332,115.169 38.5,112C 40.2806,109.96 42.2806,109.46 44.5,110.5C 44.67,111.822 44.3366,112.989 43.5,114C 30.4229,120.528 19.9229,117.694 12,105.5C 8.45637,97.9789 8.7897,90.6456 13,83.5C 14.0113,82.6634 15.1779,82.33 16.5,82.5 Z"/></g>
<g><path style="opacity:1" fill="#fad56f" d="M 86.5,89.5 C 87.5,89.5 88.5,89.5 89.5,89.5C 89.5,90.8333 89.5,92.1667 89.5,93.5C 90.8333,93.5 92.1667,93.5 93.5,93.5C 93.5,92.1667 93.5,90.8333 93.5,89.5C 94.8333,89.5 96.1667,89.5 97.5,89.5C 97.5,90.8333 97.5,92.1667 97.5,93.5C 98.8333,93.5 100.167,93.5 101.5,93.5C 101.5,92.1667 101.5,90.8333 101.5,89.5C 102.833,89.5 104.167,89.5 105.5,89.5C 105.5,90.8333 105.5,92.1667 105.5,93.5C 106.833,93.5 108.167,93.5 109.5,93.5C 109.5,92.1667 109.5,90.8333 109.5,89.5C 110.822,89.33 111.989,89.6634 113,90.5C 113.758,92.7695 113.591,94.9361 112.5,97C 103.833,97.6667 95.1667,97.6667 86.5,97C 85.2215,94.5024 85.2215,92.0024 86.5,89.5 Z"/></g>
<g><path style="opacity:1" fill="#fdc528" d="M 82.5,101.5 C 83.5,101.5 84.5,101.5 85.5,101.5C 85.5,102.833 85.5,104.167 85.5,105.5C 86.8333,105.5 88.1667,105.5 89.5,105.5C 89.5,104.167 89.5,102.833 89.5,101.5C 90.8333,101.5 92.1667,101.5 93.5,101.5C 93.5,102.833 93.5,104.167 93.5,105.5C 94.8333,105.5 96.1667,105.5 97.5,105.5C 97.5,104.167 97.5,102.833 97.5,101.5C 98.8333,101.5 100.167,101.5 101.5,101.5C 101.5,102.833 101.5,104.167 101.5,105.5C 102.833,105.5 104.167,105.5 105.5,105.5C 105.5,104.167 105.5,102.833 105.5,101.5C 106.822,101.33 107.989,101.663 109,102.5C 109.758,104.769 109.591,106.936 108.5,109C 99.8333,109.667 91.1667,109.667 82.5,109C 81.2215,106.502 81.2215,104.002 82.5,101.5 Z"/></g>
<g><path style="opacity:1" fill="#fad56f" d="M 86.5,113.5 C 87.5,113.5 88.5,113.5 89.5,113.5C 89.5,114.833 89.5,116.167 89.5,117.5C 90.8333,117.5 92.1667,117.5 93.5,117.5C 93.5,116.167 93.5,114.833 93.5,113.5C 94.8333,113.5 96.1667,113.5 97.5,113.5C 97.5,114.833 97.5,116.167 97.5,117.5C 98.8333,117.5 100.167,117.5 101.5,117.5C 101.5,116.167 101.5,114.833 101.5,113.5C 102.833,113.5 104.167,113.5 105.5,113.5C 105.5,114.833 105.5,116.167 105.5,117.5C 106.833,117.5 108.167,117.5 109.5,117.5C 109.5,116.167 109.5,114.833 109.5,113.5C 110.822,113.33 111.989,113.663 113,114.5C 113.758,116.769 113.591,118.936 112.5,121C 103.833,121.667 95.1667,121.667 86.5,121C 85.2215,118.502 85.2215,116.002 86.5,113.5 Z"/></g>
</svg>
