<?xml version="1.0" encoding="UTF-8"?>
<!DOCTYPE svg PUBLIC "-//W3C//DTD SVG 1.1//EN" "http://www.w3.org/Graphics/SVG/1.1/DTD/svg11.dtd">
<svg xmlns="http://www.w3.org/2000/svg" version="1.1" width="128px" height="128px" style="shape-rendering:geometricPrecision; text-rendering:geometricPrecision; image-rendering:optimizeQuality; fill-rule:evenodd; clip-rule:evenodd" xmlns:xlink="http://www.w3.org/1999/xlink">
<g><path style="opacity:0.98" fill="#020201" d="M 24.5,1.5 C 46.5025,1.33337 68.5025,1.50004 90.5,2C 95.4724,5.91919 96.8057,10.9192 94.5,17C 97.8333,17.3333 101.167,17.6667 104.5,18C 106.333,19.1667 107.833,20.6667 109,22.5C 109.5,39.4967 109.667,56.4967 109.5,73.5C 112.167,73.5 114.833,73.5 117.5,73.5C 117.831,65.4723 117.498,57.4723 116.5,49.5C 115.522,49.0233 114.689,48.3567 114,47.5C 112.333,37.5 116,34.8333 125,39.5C 125.667,42.1667 125.667,44.8333 125,47.5C 124.311,48.3567 123.478,49.0233 122.5,49.5C 121.167,57.5 121.167,65.5 122.5,73.5C 123.478,73.9767 124.311,74.6433 125,75.5C 125.667,80.8333 125.667,86.1667 125,91.5C 124.5,92 124,92.5 123.5,93C 120.183,93.4983 116.85,93.665 113.5,93.5C 113.666,103.506 113.5,113.506 113,123.5C 112.5,124 112,124.5 111.5,125C 75.5,125.667 39.5,125.667 3.5,125C 3,124.5 2.5,124 2,123.5C 1.33333,110.167 1.33333,96.8333 2,83.5C 2.68909,82.6433 3.52242,81.9767 4.5,81.5C 5.33305,61.8418 5.83305,42.1751 6,22.5C 7.16667,20.6667 8.66667,19.1667 10.5,18C 13.8333,17.6667 17.1667,17.3333 20.5,17C 18.2237,10.7711 19.557,5.60443 24.5,1.5 Z"/></g>
<g><path style="opacity:1" fill="#f9d56e" d="M 26.5,5.5 C 46.8361,5.33338 67.1694,5.50004 87.5,6C 91.7383,8.17156 92.5716,11.3382 90,15.5C 89.2496,16.1258 88.4162,16.6258 87.5,17C 67.1667,17.6667 46.8333,17.6667 26.5,17C 22.5419,13.0923 22.5419,9.25893 26.5,5.5 Z"/></g>
<g><path style="opacity:1" fill="#000000" d="M 27.5,9.5 C 28.8333,9.5 30.1667,9.5 31.5,9.5C 31.5,10.8333 31.5,12.1667 31.5,13.5C 30.1667,13.5 28.8333,13.5 27.5,13.5C 27.5,12.1667 27.5,10.8333 27.5,9.5 Z"/></g>
<g><path style="opacity:1" fill="#000000" d="M 35.5,9.5 C 50.1667,9.5 64.8333,9.5 79.5,9.5C 79.5,10.8333 79.5,12.1667 79.5,13.5C 64.8333,13.5 50.1667,13.5 35.5,13.5C 35.5,12.1667 35.5,10.8333 35.5,9.5 Z"/></g>
<g><path style="opacity:1" fill="#000000" d="M 83.5,9.5 C 84.8333,9.5 86.1667,9.5 87.5,9.5C 87.5,10.8333 87.5,12.1667 87.5,13.5C 86.1667,13.5 84.8333,13.5 83.5,13.5C 83.5,12.1667 83.5,10.8333 83.5,9.5 Z"/></g>
<g><path style="opacity:1" fill="#68d5f3" d="M 12.5,21.5 C 42.9211,21.0156 73.2544,21.5156 103.5,23C 104,23.5 104.5,24 105,24.5C 105.5,43.4971 105.667,62.4971 105.5,81.5C 73.5,81.5 41.5,81.5 9.5,81.5C 9.33338,62.4971 9.50005,43.4971 10,24.5C 11.045,23.6266 11.8783,22.6266 12.5,21.5 Z"/></g>
<g><path style="opacity:1" fill="#000000" d="M 15.5,25.5 C 43.502,25.3334 71.502,25.5 99.5,26C 100,26.5 100.5,27 101,27.5C 101.667,43.5 101.667,59.5 101,75.5C 100.5,76 100,76.5 99.5,77C 71.5,77.6667 43.5,77.6667 15.5,77C 15,76.5 14.5,76 14,75.5C 13.3333,59.5 13.3333,43.5 14,27.5C 14.7172,26.9558 15.2172,26.2891 15.5,25.5 Z"/></g>
<g><path style="opacity:1" fill="#fb6e50" d="M 17.5,29.5 C 25.5,29.5 33.5,29.5 41.5,29.5C 41.5,30.8333 41.5,32.1667 41.5,33.5C 33.5,33.5 25.5,33.5 17.5,33.5C 17.5,32.1667 17.5,30.8333 17.5,29.5 Z"/></g>
<g><path style="opacity:1" fill="#fd816d" d="M 45.5,29.5 C 53.5,29.5 61.5,29.5 69.5,29.5C 69.5,41.5 69.5,53.5 69.5,65.5C 61.5,65.5 53.5,65.5 45.5,65.5C 45.5,53.5 45.5,41.5 45.5,29.5 Z"/></g>
<g><path style="opacity:1" fill="#fb6e50" d="M 73.5,29.5 C 81.5,29.5 89.5,29.5 97.5,29.5C 97.5,30.8333 97.5,32.1667 97.5,33.5C 89.5,33.5 81.5,33.5 73.5,33.5C 73.5,32.1667 73.5,30.8333 73.5,29.5 Z"/></g>
<g><path style="opacity:1" fill="#fd816d" d="M 17.5,37.5 C 25.5,37.5 33.5,37.5 41.5,37.5C 41.5,49.5 41.5,61.5 41.5,73.5C 33.5,73.5 25.5,73.5 17.5,73.5C 17.5,61.5 17.5,49.5 17.5,37.5 Z"/></g>
<g><path style="opacity:1" fill="#0e0605" d="M 49.5,37.5 C 54.8333,37.5 60.1667,37.5 65.5,37.5C 63.6467,45.8763 60.1467,53.543 55,60.5C 53.8419,60.0019 53.0085,59.1685 52.5,58C 54.9479,52.7192 57.6145,47.5526 60.5,42.5C 56.8927,41.5108 53.226,41.1774 49.5,41.5C 49.5,40.1667 49.5,38.8333 49.5,37.5 Z"/></g>
<g><path style="opacity:1" fill="#fd816d" d="M 73.5,37.5 C 81.5,37.5 89.5,37.5 97.5,37.5C 97.5,49.5 97.5,61.5 97.5,73.5C 89.5,73.5 81.5,73.5 73.5,73.5C 73.5,61.5 73.5,49.5 73.5,37.5 Z"/></g>
<g><path style="opacity:1" fill="#ee7966" d="M 118.5,41.5 C 121.861,42.2032 122.194,43.5365 119.5,45.5C 117.358,44.5629 117.024,43.2296 118.5,41.5 Z"/></g>
<g><path style="opacity:1" fill="#0e0605" d="M 21.5,45.5 C 26.8333,45.5 32.1667,45.5 37.5,45.5C 35.6467,53.8763 32.1467,61.543 27,68.5C 25.8419,68.0019 25.0085,67.1685 24.5,66C 26.9479,60.7192 29.6145,55.5526 32.5,50.5C 28.8927,49.5108 25.226,49.1774 21.5,49.5C 21.5,48.1667 21.5,46.8333 21.5,45.5 Z"/></g>
<g><path style="opacity:1" fill="#0e0605" d="M 77.5,45.5 C 82.8333,45.5 88.1667,45.5 93.5,45.5C 91.6467,53.8763 88.1467,61.543 83,68.5C 81.8419,68.0019 81.0085,67.1685 80.5,66C 82.9479,60.7192 85.6145,55.5526 88.5,50.5C 84.8927,49.5108 81.226,49.1774 77.5,49.5C 77.5,48.1667 77.5,46.8333 77.5,45.5 Z"/></g>
<g><path style="opacity:1" fill="#fb6e50" d="M 45.5,69.5 C 53.5,69.5 61.5,69.5 69.5,69.5C 69.5,70.8333 69.5,72.1667 69.5,73.5C 61.5,73.5 53.5,73.5 45.5,73.5C 45.5,72.1667 45.5,70.8333 45.5,69.5 Z"/></g>
<g><path style="opacity:1" fill="#c9ced6" d="M 109.5,77.5 C 113.437,77.2065 117.27,77.5399 121,78.5C 121.667,81.8333 121.667,85.1667 121,88.5C 118.619,89.435 116.119,89.7683 113.5,89.5C 112.528,85.2639 111.195,81.2639 109.5,77.5 Z"/></g>
<g><path style="opacity:1" fill="#a9b1bc" d="M 6.5,85.5 C 40.5016,85.3333 74.5016,85.5 108.5,86C 109.654,97.4238 109.82,108.924 109,120.5C 107.989,121.337 106.822,121.67 105.5,121.5C 105.5,110.833 105.5,100.167 105.5,89.5C 73.5,89.5 41.5,89.5 9.5,89.5C 9.5,100.167 9.5,110.833 9.5,121.5C 8.17793,121.67 7.01127,121.337 6,120.5C 5.18944,108.757 5.3561,97.0907 6.5,85.5 Z"/></g>
<g><path style="opacity:1" fill="#e1e4e8" d="M 13.5,93.5 C 15.604,93.2011 17.604,93.5344 19.5,94.5C 15.3872,105 17.7205,113.834 26.5,121C 22.1794,121.499 17.8461,121.666 13.5,121.5C 13.5,112.167 13.5,102.833 13.5,93.5 Z"/></g>
<g><path style="opacity:1" fill="#f6d26d" d="M 24.5,93.5 C 27.8499,93.335 31.1832,93.5017 34.5,94C 30.6073,97.5877 30.6073,101.254 34.5,105C 37.4262,105.218 40.2595,105.718 43,106.5C 43.6172,107.449 43.4506,108.282 42.5,109C 41.3333,109.167 40.1667,109.333 39,109.5C 36.5103,108.664 34.0103,107.998 31.5,107.5C 31.5,109.5 31.5,111.5 31.5,113.5C 33.5,113.5 35.5,113.5 37.5,113.5C 37.5,114.833 37.5,116.167 37.5,117.5C 38.8333,117.5 40.1667,117.5 41.5,117.5C 41.238,116.022 41.5713,114.689 42.5,113.5C 46.6528,111.861 48.1528,108.861 47,104.5C 43.2474,102.438 39.414,100.772 35.5,99.5C 36.5271,97.976 38.0271,97.3094 40,97.5C 42.4897,98.3357 44.9897,99.0024 47.5,99.5C 47.5,97.5 47.5,95.5 47.5,93.5C 52.3521,92.2772 55.5188,93.9438 57,98.5C 58.1667,114.667 50.6667,122.167 34.5,121C 21.9671,115.112 18.6338,105.945 24.5,93.5 Z"/></g>
<g><path style="opacity:1" fill="#f4d06c" d="M 59.5,93.5 C 65.8421,93.3338 72.1754,93.5005 78.5,94C 79.6148,96.8943 78.4481,98.061 75,97.5C 72.5103,96.6643 70.0103,95.9976 67.5,95.5C 67.5,97.5 67.5,99.5 67.5,101.5C 69.5,101.5 71.5,101.5 73.5,101.5C 73.5,102.833 73.5,104.167 73.5,105.5C 74.8333,105.5 76.1667,105.5 77.5,105.5C 77.2934,102.255 78.7934,100.255 82,99.5C 83.128,97.6547 83.628,95.6547 83.5,93.5C 86.8333,93.5 90.1667,93.5 93.5,93.5C 90.5946,105.625 82.928,110.792 70.5,109C 62.7996,106.735 59.1329,101.569 59.5,93.5 Z"/></g>
<g><path style="opacity:1" fill="#e2e5e9" d="M 97.5,93.5 C 98.8333,93.5 100.167,93.5 101.5,93.5C 101.5,102.833 101.5,112.167 101.5,121.5C 85.1633,121.667 68.8299,121.5 52.5,121C 56.8321,117.828 59.8321,113.662 61.5,108.5C 73.732,116.088 84.5654,114.421 94,103.5C 95.7818,100.368 96.9484,97.0347 97.5,93.5 Z"/></g>
</svg>
