<?xml version="1.0" encoding="UTF-8"?>
<!DOCTYPE svg PUBLIC "-//W3C//DTD SVG 1.1//EN" "http://www.w3.org/Graphics/SVG/1.1/DTD/svg11.dtd">
<svg xmlns="http://www.w3.org/2000/svg" version="1.1" width="128px" height="128px" style="shape-rendering:geometricPrecision; text-rendering:geometricPrecision; image-rendering:optimizeQuality; fill-rule:evenodd; clip-rule:evenodd" xmlns:xlink="http://www.w3.org/1999/xlink">
<g><path style="opacity:0.81" fill="#efb647" d="M 61.5,-0.5 C 62.8333,-0.5 64.1667,-0.5 65.5,-0.5C 66.9205,2.58485 68.2539,5.75151 69.5,9C 73.4862,9.49885 77.4862,9.66551 81.5,9.5C 81.7852,11.288 81.4519,12.9547 80.5,14.5C 77.9906,15.9213 75.6572,17.5879 73.5,19.5C 76.2938,23.4117 77.6272,27.745 77.5,32.5C 72.3567,31.2617 67.69,28.9284 63.5,25.5C 59.31,28.9284 54.6433,31.2617 49.5,32.5C 49.3728,27.745 50.7062,23.4117 53.5,19.5C 51.3428,17.5879 49.0094,15.9213 46.5,14.5C 45.5481,12.9547 45.2148,11.288 45.5,9.5C 49.5138,9.66551 53.5138,9.49885 57.5,9C 58.7461,5.75151 60.0795,2.58485 61.5,-0.5 Z M 62.5,9.5 C 64.7409,10.2998 65.7409,11.9664 65.5,14.5C 66.8734,14.3433 68.2068,14.51 69.5,15C 68.4216,15.6739 67.7549,16.6739 67.5,18C 68.0786,19.4459 68.0786,20.6126 67.5,21.5C 66.3887,20.3887 65.0554,19.722 63.5,19.5C 61.845,20.3877 60.1783,20.8877 58.5,21C 60.0317,18.67 59.6983,16.67 57.5,15C 58.7932,14.51 60.1266,14.3433 61.5,14.5C 61.6287,12.7839 61.962,11.1172 62.5,9.5 Z"/></g>
<g><path style="opacity:0.799" fill="#efb647" d="M 27.5,9.5 C 31.3488,9.50196 34.0155,11.3353 35.5,15C 37.8098,15.4966 40.1432,15.6633 42.5,15.5C 41.7654,19.2837 40.7654,22.9504 39.5,26.5C 39.6299,28.3749 39.9633,30.2082 40.5,32C 40.3333,33.5 39.5,34.3333 38,34.5C 34.9298,33.9242 32.2631,32.5909 30,30.5C 27.1176,32.7021 23.9509,33.8688 20.5,34C 19.315,31.2236 19.315,28.3903 20.5,25.5C 18.9089,22.3248 17.9089,18.9915 17.5,15.5C 22.7314,16.4117 26.0648,14.4117 27.5,9.5 Z M 29.5,16.5 C 30.6464,18.475 32.313,19.975 34.5,21C 33.8971,22.8254 33.2304,24.6587 32.5,26.5C 30.1657,25.518 27.8324,25.3513 25.5,26C 26.8602,24.0624 26.5268,22.3957 24.5,21C 27.2865,20.7122 28.9532,19.2122 29.5,16.5 Z"/></g>
<g><path style="opacity:0.799" fill="#efb647" d="M 95.5,9.5 C 98.7962,9.69553 101.129,11.3622 102.5,14.5C 104.743,15.4742 107.076,15.8076 109.5,15.5C 109.091,18.9915 108.091,22.3248 106.5,25.5C 107.44,28.1316 107.607,30.7983 107,33.5C 103.391,34.0621 100.058,33.0621 97,30.5C 94.2973,33.0662 91.1307,34.2328 87.5,34C 87.3418,30.2798 87.1751,26.4464 87,22.5C 85.0972,20.559 84.2639,18.2257 84.5,15.5C 90.0844,16.8633 93.751,14.8633 95.5,9.5 Z M 96.5,16.5 C 97.8366,17.3149 98.8366,18.4815 99.5,20C 100.5,20.3333 101.5,20.6667 102.5,21C 100.647,22.7309 99.9805,24.5642 100.5,26.5C 98.5,25.1667 96.5,25.1667 94.5,26.5C 93.7696,24.6587 93.1029,22.8254 92.5,21C 94.751,20.2525 96.0844,18.7525 96.5,16.5 Z"/></g>
<g><path style="opacity:0.885" fill="#28171d" d="M 70.5,50.5 C 68.5165,53.7994 67.5165,57.4661 67.5,61.5C 65.2009,67.5309 64.3675,73.8643 65,80.5C 66.0113,81.3366 67.1779,81.67 68.5,81.5C 68.933,84.1656 69.433,86.8323 70,89.5C 73.0105,92.0115 75.8439,94.6782 78.5,97.5C 79.8415,95.9951 81.5082,95.3285 83.5,95.5C 83.5,104.5 83.5,113.5 83.5,122.5C 87.97,123.486 92.6367,123.819 97.5,123.5C 97.7947,121.265 97.4614,119.265 96.5,117.5C 94.5518,114.379 92.3852,111.379 90,108.5C 89.6752,101.476 89.1752,94.4755 88.5,87.5C 86.4727,87.6621 84.4727,87.4955 82.5,87C 80.3333,84.8333 78.1667,82.6667 76,80.5C 73.1708,71.234 71.6708,61.9007 71.5,52.5C 72.5,52.5 73.5,52.5 74.5,52.5C 76.2402,61.612 78.4069,70.612 81,79.5C 83.7453,82.2376 86.912,82.9043 90.5,81.5C 87.5381,76.3729 83.7048,72.0396 79,68.5C 77.7377,63.6926 79.2377,60.026 83.5,57.5C 82.4599,55.4771 81.4599,53.4771 80.5,51.5C 81.0096,49.9121 82.0096,48.7455 83.5,48C 81.6231,45.7686 80.7898,43.2686 81,40.5C 91.0895,39.348 101.256,39.1814 111.5,40C 118.59,45.047 119.257,50.7137 113.5,57C 119.365,59.9937 120.865,64.4937 118,70.5C 113.936,73.7771 110.436,77.6104 107.5,82C 111.167,82.3333 114.833,82.6667 118.5,83C 121.369,86.0379 124.369,88.8712 127.5,91.5C 127.5,101.5 127.5,111.5 127.5,121.5C 125.833,123.833 123.833,125.833 121.5,127.5C 107.833,127.5 94.1667,127.5 80.5,127.5C 80.0133,126.527 79.5133,125.527 79,124.5C 78.6667,117.5 78.3333,110.5 78,103.5C 74,99.5 70,95.5 66,91.5C 65.0266,89.6079 64.3599,87.6079 64,85.5C 60.1576,92.3532 55.1576,98.3532 49,103.5C 48.6667,110.5 48.3333,117.5 48,124.5C 47.4867,125.527 46.9867,126.527 46.5,127.5C 32.8333,127.5 19.1667,127.5 5.5,127.5C 3.16667,125.833 1.16667,123.833 -0.5,121.5C -0.5,111.5 -0.5,101.5 -0.5,91.5C 2.63064,88.8712 5.63064,86.0379 8.5,83C 12.1667,82.6667 15.8333,82.3333 19.5,82C 16.5643,77.6104 13.0643,73.7771 9,70.5C 6.13467,64.4937 7.63467,59.9937 13.5,57C 7.74318,50.7137 8.40985,45.047 15.5,40C 25.7438,39.1814 35.9105,39.348 46,40.5C 46.2102,43.2686 45.3769,45.7686 43.5,48C 44.9904,48.7455 45.9904,49.9121 46.5,51.5C 45.5401,53.4771 44.5401,55.4771 43.5,57.5C 50.4895,63.3841 50.1562,68.7174 42.5,73.5C 40.9748,76.563 38.9748,79.2297 36.5,81.5C 41.1637,83.1687 44.6637,81.8354 47,77.5C 50.4891,65.2104 53.8224,52.8771 57,40.5C 61.7367,39.5308 66.57,39.1975 71.5,39.5C 71.6773,43.2343 71.3439,46.9009 70.5,50.5 Z"/></g>
<g><path style="opacity:1" fill="#e9af81" d="M 60.5,43.5 C 62.5,43.5 64.5,43.5 66.5,43.5C 66.5,45.5 66.5,47.5 66.5,49.5C 64.1667,49.5 61.8333,49.5 59.5,49.5C 59.8333,47.5 60.1667,45.5 60.5,43.5 Z"/></g>
<g><path style="opacity:1" fill="#b35d1f" d="M 86.5,44.5 C 93.6549,43.3448 100.988,43.1782 108.5,44C 112.399,46.109 113.232,48.9423 111,52.5C 109.281,50.4429 107.281,48.7763 105,47.5C 102.064,49.3762 99.5644,51.7095 97.5,54.5C 94.1667,55.8333 90.8333,55.8333 87.5,54.5C 87.1667,53.8333 86.8333,53.1667 86.5,52.5C 89.9847,50.0284 89.9847,47.3617 86.5,44.5 Z"/></g>
<g><path style="opacity:1" fill="#68676e" d="M 18.5,43.5 C 25.8409,43.3337 33.1742,43.5003 40.5,44C 39.373,45.7533 38.373,47.5866 37.5,49.5C 38.2634,50.7193 39.2634,51.7193 40.5,52.5C 40.1667,53.1667 39.8333,53.8333 39.5,54.5C 36.5541,55.6548 33.5541,55.8214 30.5,55C 27.9518,52.1149 25.1185,49.6149 22,47.5C 19.7194,48.7763 17.7194,50.4429 16,52.5C 14.5596,51.0696 14.2263,49.403 15,47.5C 16.3756,46.2949 17.5423,44.9616 18.5,43.5 Z"/></g>
<g><path style="opacity:1" fill="#f6f4f7" d="M 58.5,54.5 C 59.8333,54.5 61.1667,54.5 62.5,54.5C 60.6528,63.8899 58.4862,73.2232 56,82.5C 51.7952,85.8498 48.6286,89.8498 46.5,94.5C 45.209,94.2627 44.209,94.596 43.5,95.5C 43.5,104.5 43.5,113.5 43.5,122.5C 33.1667,122.5 22.8333,122.5 12.5,122.5C 12.8266,113.318 12.4933,104.318 11.5,95.5C 10.5,95.5 9.5,95.5 8.5,95.5C 7.51114,100.975 7.1778,106.642 7.5,112.5C 6.5,112.5 5.5,112.5 4.5,112.5C 4.5,106.167 4.5,99.8333 4.5,93.5C 6.62976,91.8729 8.62976,90.0396 10.5,88C 15.7341,86.1445 18.4007,87.9778 18.5,93.5C 20.0453,94.4519 21.712,94.7852 23.5,94.5C 22.7781,101.159 22.6114,107.825 23,114.5C 26.3333,119.833 29.6667,119.833 33,114.5C 33.0475,107.844 32.8809,101.178 32.5,94.5C 34.1667,94.5 35.8333,94.5 37.5,94.5C 37.9926,92.1944 38.3259,89.861 38.5,87.5C 40.5273,87.6621 42.5273,87.4955 44.5,87C 46.6667,84.8333 48.8333,82.6667 51,80.5C 53.2131,71.6305 55.7131,62.9638 58.5,54.5 Z"/></g>
<g><path style="opacity:1" fill="#fbd6a7" d="M 37.5,63.5 C 39.3487,75.8226 34.3487,80.6559 22.5,78C 20.2663,76.3621 18.933,74.1955 18.5,71.5C 18.3343,67.1539 18.501,62.8206 19,58.5C 20,57.5 21,56.5 22,55.5C 24.5,58 27,60.5 29.5,63C 32.146,63.4974 34.8127,63.6641 37.5,63.5 Z"/></g>
<g><path style="opacity:1" fill="#b6b5b8" d="M 70.5,50.5 C 70.8333,51.1667 71.1667,51.8333 71.5,52.5C 71.6708,61.9007 73.1708,71.234 76,80.5C 78.1667,82.6667 80.3333,84.8333 82.5,87C 84.4727,87.4955 86.4727,87.6621 88.5,87.5C 89.1752,94.4755 89.6752,101.476 90,108.5C 92.3852,111.379 94.5518,114.379 96.5,117.5C 96.5,119.167 96.5,120.833 96.5,122.5C 92.1667,122.5 87.8333,122.5 83.5,122.5C 83.5,113.5 83.5,104.5 83.5,95.5C 79.898,91.3954 76.0647,87.3954 72,83.5C 69.5338,76.311 68.0338,68.9777 67.5,61.5C 67.5165,57.4661 68.5165,53.7994 70.5,50.5 Z"/></g>
<g><path style="opacity:1" fill="#fbd5a6" d="M 108.5,71.5 C 106.615,78.1121 102.282,80.6121 95.5,79C 93,77.8333 91.1667,76 90,73.5C 89.5017,70.1832 89.335,66.8499 89.5,63.5C 92.1873,63.6641 94.854,63.4974 97.5,63C 100,60.5 102.5,58 105,55.5C 106,56.5 107,57.5 108,58.5C 108.499,62.8206 108.666,67.1539 108.5,71.5 Z"/></g>
<g><path style="opacity:1" fill="#d0ced0" d="M 58.5,54.5 C 60.2646,53.5386 62.2646,53.2053 64.5,53.5C 62.7873,65.3489 60.2873,77.0156 57,88.5C 54.872,91.6301 52.372,94.4634 49.5,97C 47.6891,96.293 45.6891,95.793 43.5,95.5C 44.209,94.596 45.209,94.2627 46.5,94.5C 48.6286,89.8498 51.7952,85.8498 56,82.5C 58.4862,73.2232 60.6528,63.8899 62.5,54.5C 61.1667,54.5 59.8333,54.5 58.5,54.5 Z"/></g>
<g><path style="opacity:1" fill="#d9905d" d="M 37.5,63.5 C 34.8127,63.6641 32.146,63.4974 29.5,63C 27,60.5 24.5,58 22,55.5C 21,56.5 20,57.5 19,58.5C 18.501,62.8206 18.3343,67.1539 18.5,71.5C 17.3503,66.6842 17.1837,61.6842 18,56.5C 19.3333,55.1667 20.6667,53.8333 22,52.5C 24.1667,54.6667 26.3333,56.8333 28.5,59C 31.4816,59.498 34.4816,59.6646 37.5,59.5C 37.5,60.8333 37.5,62.1667 37.5,63.5 Z"/></g>
<g><path style="opacity:1" fill="#da905d" d="M 108.5,71.5 C 108.666,67.1539 108.499,62.8206 108,58.5C 107,57.5 106,56.5 105,55.5C 102.5,58 100,60.5 97.5,63C 94.854,63.4974 92.1873,63.6641 89.5,63.5C 89.5,62.1667 89.5,60.8333 89.5,59.5C 92.5184,59.6646 95.5184,59.498 98.5,59C 100.667,56.8333 102.833,54.6667 105,52.5C 106.333,53.8333 107.667,55.1667 109,56.5C 109.816,61.6842 109.65,66.6842 108.5,71.5 Z"/></g>
<g><path style="opacity:1" fill="#aa7758" d="M 12.5,62.5 C 13.6935,62.9704 14.3601,63.9704 14.5,65.5C 13.8893,69.2721 12.8893,69.2721 11.5,65.5C 12.1272,64.5832 12.4606,63.5832 12.5,62.5 Z"/></g>
<g><path style="opacity:1" fill="#e5a274" d="M 41.5,62.5 C 43.9238,64.2276 44.0904,66.2276 42,68.5C 41.5045,66.5273 41.3379,64.5273 41.5,62.5 Z"/></g>
<g><path style="opacity:1" fill="#e5a374" d="M 84.5,62.5 C 85.6225,64.2884 85.7891,66.2884 85,68.5C 83.2002,66.6349 83.0336,64.6349 84.5,62.5 Z"/></g>
<g><path style="opacity:1" fill="#ab7759" d="M 112.5,62.5 C 115.873,63.9315 116.207,65.9315 113.5,68.5C 112.534,66.604 112.201,64.604 112.5,62.5 Z"/></g>
<g><path style="opacity:0.995" fill="#79777c" d="M 67.5,61.5 C 68.0338,68.9777 69.5338,76.311 72,83.5C 76.0647,87.3954 79.898,91.3954 83.5,95.5C 81.5082,95.3285 79.8415,95.9951 78.5,97.5C 75.8439,94.6782 73.0105,92.0115 70,89.5C 69.433,86.8323 68.933,84.1656 68.5,81.5C 67.1779,81.67 66.0113,81.3366 65,80.5C 64.3675,73.8643 65.2009,67.5309 67.5,61.5 Z"/></g>
<g><path style="opacity:1" fill="#e89c68" d="M 24.5,83.5 C 31.418,82.6559 32.5847,84.3226 28,88.5C 26.1978,87.2107 25.0312,85.5441 24.5,83.5 Z"/></g>
<g><path style="opacity:1" fill="#e99d68" d="M 95.5,83.5 C 102.418,82.6559 103.585,84.3226 99,88.5C 97.1978,87.2107 96.0312,85.5441 95.5,83.5 Z"/></g>
<g><path style="opacity:1" fill="#83a7b5" d="M 104.5,87.5 C 106.048,87.8212 106.715,88.8212 106.5,90.5C 105.448,90.6495 104.448,90.4828 103.5,90C 104.252,89.3292 104.586,88.4959 104.5,87.5 Z"/></g>
<g><path style="opacity:1" fill="#b9b8bb" d="M 122.5,93.5 C 122.83,99.8682 122.496,106.202 121.5,112.5C 120.504,106.537 120.171,100.537 120.5,94.5C 118.585,94.2155 116.919,94.5489 115.5,95.5C 114.507,104.318 114.173,113.318 114.5,122.5C 110.167,122.5 105.833,122.5 101.5,122.5C 101.5,120.833 101.5,119.167 101.5,117.5C 103.515,114.162 106.015,111.162 109,108.5C 109.333,101.833 109.667,95.1667 110,88.5C 112.064,87.4086 114.231,87.2419 116.5,88C 118.37,90.0396 120.37,91.8729 122.5,93.5 Z"/></g>
<g><path style="opacity:1" fill="#81a4b1" d="M 20.5,87.5 C 23.962,89.1927 23.962,90.1927 20.5,90.5C 20.5,89.5 20.5,88.5 20.5,87.5 Z"/></g>
<g><path style="opacity:1" fill="#95c3d2" d="M 33.5,87.5 C 35.6559,87.8718 35.6559,88.8718 33.5,90.5C 32.4376,89.5754 32.4376,88.5754 33.5,87.5 Z"/></g>
<g><path style="opacity:1" fill="#94c1d0" d="M 91.5,88.5 C 92.7434,87.2625 93.7434,87.5959 94.5,89.5C 94.1667,89.8333 93.8333,90.1667 93.5,90.5C 92.8182,89.7573 92.1515,89.0906 91.5,88.5 Z"/></g>
<g><path style="opacity:1" fill="#837a7e" d="M 4.5,93.5 C 4.5,99.8333 4.5,106.167 4.5,112.5C 5.5,112.5 6.5,112.5 7.5,112.5C 7.1778,106.642 7.51114,100.975 8.5,95.5C 8.5,101.5 8.5,107.5 8.5,113.5C 6.83333,113.5 5.16667,113.5 3.5,113.5C 3.17596,106.646 3.50929,99.979 4.5,93.5 Z"/></g>
<g><path style="opacity:1" fill="#aea7ab" d="M 103.5,94.5 C 104.765,95.5145 105.431,97.0145 105.5,99C 105.333,100.5 105.167,102 105,103.5C 103.608,100.722 103.108,97.7216 103.5,94.5 Z"/></g>
<g><path style="opacity:1" fill="#6e696e" d="M 122.5,93.5 C 123.491,99.979 123.824,106.646 123.5,113.5C 121.856,113.714 120.356,113.38 119,112.5C 118.501,106.843 118.334,101.176 118.5,95.5C 117.5,95.5 116.5,95.5 115.5,95.5C 116.919,94.5489 118.585,94.2155 120.5,94.5C 120.171,100.537 120.504,106.537 121.5,112.5C 122.496,106.202 122.83,99.8682 122.5,93.5 Z"/></g>
<g><path style="opacity:1" fill="#8fccdf" d="M 98.5,93.5 C 100.039,96.8646 100.706,100.531 100.5,104.5C 100.622,107.691 100.122,110.691 99,113.5C 97.8909,111.2 97.3909,108.7 97.5,106C 97.8084,101.824 98.1417,97.6578 98.5,93.5 Z"/></g>
<g><path style="opacity:1" fill="#94cfe2" d="M 27.5,93.5 C 28.8744,97.5877 29.5411,101.921 29.5,106.5C 28.5,117.167 27.5,117.167 26.5,106.5C 26.7864,102.156 27.1198,97.8228 27.5,93.5 Z"/></g>
<g><path style="opacity:1" fill="#856351" d="M 122.5,118.5 C 121.791,117.596 120.791,117.263 119.5,117.5C 119.232,119.099 119.566,120.432 120.5,121.5C 120.44,122.043 120.107,122.376 119.5,122.5C 118.534,120.604 118.201,118.604 118.5,116.5C 120.288,116.215 121.955,116.548 123.5,117.5C 123.376,118.107 123.043,118.44 122.5,118.5 Z"/></g>
<g><path style="opacity:1" fill="#f4b381" d="M 6.5,121.5 C 5.09368,121.027 4.42702,120.027 4.5,118.5C 5.20895,117.596 6.20895,117.263 7.5,117.5C 7.76781,119.099 7.43448,120.432 6.5,121.5 Z"/></g>
<g><path style="opacity:1" fill="#f1b17f" d="M 122.5,118.5 C 122.573,120.027 121.906,121.027 120.5,121.5C 119.566,120.432 119.232,119.099 119.5,117.5C 120.791,117.263 121.791,117.596 122.5,118.5 Z"/></g>
<g><path style="opacity:1" fill="#8b6551" d="M 6.5,121.5 C 7.43448,120.432 7.76781,119.099 7.5,117.5C 6.20895,117.263 5.20895,117.596 4.5,118.5C 3.95691,118.44 3.62358,118.107 3.5,117.5C 5.04533,116.548 6.71199,116.215 8.5,116.5C 8.7989,118.604 8.46557,120.604 7.5,122.5C 6.89333,122.376 6.55999,122.043 6.5,121.5 Z"/></g>
<g><path style="opacity:1" fill="#92898e" d="M 11.5,95.5 C 12.4933,104.318 12.8266,113.318 12.5,122.5C 22.8333,122.5 33.1667,122.5 43.5,122.5C 33.0131,123.494 22.3464,123.828 11.5,123.5C 11.5,114.167 11.5,104.833 11.5,95.5 Z"/></g>
<g><path style="opacity:1" fill="#756c71" d="M 96.5,117.5 C 97.4614,119.265 97.7947,121.265 97.5,123.5C 92.6367,123.819 87.97,123.486 83.5,122.5C 87.8333,122.5 92.1667,122.5 96.5,122.5C 96.5,120.833 96.5,119.167 96.5,117.5 Z"/></g>
<g><path style="opacity:1" fill="#6e656a" d="M 115.5,95.5 C 115.5,104.833 115.5,114.167 115.5,123.5C 110.5,123.5 105.5,123.5 100.5,123.5C 100.205,121.265 100.539,119.265 101.5,117.5C 101.5,119.167 101.5,120.833 101.5,122.5C 105.833,122.5 110.167,122.5 114.5,122.5C 114.173,113.318 114.507,104.318 115.5,95.5 Z"/></g>
</svg>
