<svg xmlns="http://www.w3.org/2000/svg" width="64" height="64" ><path style="opacity:1" fill="#121111" d="M6.5-.5h6v1C5.572.927 2.405 4.594 3 11.5c1.45 1.964 3.284 3.297 5.5 4 16.003.167 32.004 0 48-.5 4.36-2.954 5.026-6.454 2-10.5-.558-1.29-1.558-2.123-3-2.5a832.106 832.106 0 0 1-41-1.5v-1h42c8.505 7.673 7.505 14.007-3 19 3.366.74 6.7 1.407 10 2v4c-1.713 1.135-2.38 2.802-2 5-.934-1.068-1.268-2.401-1-4h-58v26h-1c-.64-8.766-1.307-17.432-2-26v-5c3.3-.593 6.634-1.26 10-2-10.505-4.993-11.505-11.327-3-19zm9 18a13.117 13.117 0 0 1 7 1l-3.5 1c-1.681-.108-2.848-.775-3.5-2zm13 0a9.864 9.864 0 0 1 6 1l-3 1c-1.53-.14-2.53-.806-3-2zm12 0a13.117 13.117 0 0 1 7 1l-3.5 1c-1.681-.108-2.848-.775-3.5-2z"/><path style="opacity:1" fill="#de7d83" d="M44.5 3.5c-1.617 1.09-2.45 2.756-2.5 5-2.549-6.164-4.049-6.164-4.5 0 .544 6.578 1.378 6.578 2.5 0 .996 2.16 2.496 3.827 4.5 5 .57-2.938 1.237-5.271 2-7-.922 4.025.578 6.359 4.5 7 4.784-.93 6.284-3.596 4.5-8 .709-.904 1.709-1.237 3-1 3.026 4.046 2.36 7.546-2 10.5-15.996.5-31.997.667-48 .5-.172-.992.162-1.658 1-2 1.791.134 3.458-.2 5-1l2 1c2.254-2.452 4.42-2.452 6.5 0 .425-3.728-.575-7.062-3-10a12.648 12.648 0 0 0-2.5 4c-.978-.311-1.645-.978-2-2l2-1a4.453 4.453 0 0 0-2-1.5c9.842-.825 19.509-.658 29 .5z"/><path style="opacity:1" fill="#d1767c" d="M12.5.5h2a832.106 832.106 0 0 0 41 1.5c1.442.377 2.442 1.21 3 2.5-1.291-.237-2.291.096-3 1-3.286-2.767-6.286-2.434-9 1-.763 1.729-1.43 4.062-2 7v-10c-9.491-1.158-19.158-1.325-29-.5a4.453 4.453 0 0 1 2 1.5l-2 1c.355 1.022 1.022 1.689 2 2a19.242 19.242 0 0 0-1 6l-2-1a2.428 2.428 0 0 0-.5-2c-4.552 1.946-6.052.612-4.5-4 1.838-.689 3.505-1.022 5-1-3.892-3.014-6.558-2.014-8 3a11.957 11.957 0 0 0 3 5c-.838.342-1.172 1.008-1 2-2.216-.703-4.05-2.036-5.5-4C2.405 4.594 5.572.927 12.5.5z"/><path style="opacity:1" fill="#201414" d="M26.5 3.5c2.165-.384 3.831.283 5 2l-4 1c1.807.895 3.14 2.228 4 4-.596 2.746-2.263 3.58-5 2.5a3.646 3.646 0 0 1-1-1.5c1.187-.054 2.52-.387 4-1-3.525-1.373-4.525-3.706-3-7z"/><path style="opacity:1" fill="#1b1212" d="M16.5 13.5c.017-2.065.35-4.065 1-6a12.648 12.648 0 0 1 2.5-4c2.425 2.938 3.425 6.272 3 10-2.08-2.452-4.246-2.452-6.5 0z"/><path style="opacity:1" fill="#251718" d="M44.5 3.5v10c-2.004-1.173-3.504-2.84-4.5-5-1.122 6.578-1.956 6.578-2.5 0 .451-6.164 1.951-6.164 4.5 0 .05-2.244.883-3.91 2.5-5z"/><path style="opacity:1" fill="#1c1112" d="M14.5 12.5c-1.542.8-3.209 1.134-5 1a11.957 11.957 0 0 1-3-5c1.442-5.014 4.108-6.014 8-3-1.495-.022-3.162.311-5 1-1.552 4.612-.052 5.946 4.5 4 .464.594.631 1.261.5 2z"/><path style="opacity:1" fill="#170f0f" d="M33.5 3.5c1.277 1.194 1.944 2.86 2 5l-1 5a25.87 25.87 0 0 1-1-10z"/><path style="opacity:1" fill="#1f1415" d="M55.5 5.5c1.784 4.404.284 7.07-4.5 8-3.922-.641-5.422-2.975-4.5-7 2.714-3.434 5.714-3.767 9-1z"/><path style="opacity:1" fill="#d87a80" d="M49.5 5.5c3.985.13 5.318 1.963 4 5.5-4.772.81-6.105-1.023-4-5.5z"/><path style="opacity:1" fill="#a0cd8f" d="M1.5 21.5a900.87 900.87 0 0 1 60 1l-30 1c-10.356-.001-20.356-.668-30-2z"/><path style="opacity:1" fill="#365fb3" d="M8.5 26.5v1c-.283.79-.783 1.456-1.5 2-.5 5.323-.666 10.656-.5 16h13l-11 2v10h9c-4.14 1.063-8.472 1.73-13 2 .16-1.7-.006-3.366-.5-5a18.436 18.436 0 0 0-.5 6h21c-7.148.992-14.48 1.325-22 1 .302-2.56-.032-4.893-1-7v-3h1c.993-8.15 1.326-16.483 1-25h5z"/><path style="opacity:1" fill="#3b67c3" d="M8.5 27.5v-1h29c0 .667-.333 1-1 1a50.441 50.441 0 0 0-10 .5L25 29.5c-.817 5.516-.65 10.85.5 16l11 2c-10.842-2.155-14.842 2.178-12 13h-21a18.436 18.436 0 0 1 .5-6c.494 1.634.66 3.3.5 5 4.528-.27 8.86-.937 13-2 .98-3.125 1.313-6.458 1-10h-10l11-2c1.15-5.15 1.317-10.484.5-16L18.5 28a50.441 50.441 0 0 0-10-.5z"/><path style="opacity:1" fill="#3862ba" d="M37.5 26.5h22a146.538 146.538 0 0 0 0 33.5c-6.992.5-13.992.666-21 .5.525-4.64-.142-8.973-2-13l-11-2h13c.166-5.344 0-10.677-.5-16-.717-.544-1.217-1.21-1.5-2 .667 0 1-.333 1-1z"/><path style="opacity:1" fill="#2c4e91" d="M61.5 29.5v3c-.994 9.486-1.327 19.152-1 29-7.52.325-14.852-.008-22-1 7.008.166 14.008 0 21-.5a146.538 146.538 0 0 1 0-33.5h-56c.326 8.517-.007 16.85-1 25v-26h58c-.268 1.599.066 2.932 1 4z"/><path style="opacity:1" fill="#08070a" d="M61.5 32.5v31h-60c-1.275-3.104-1.275-6.104 0-9 .968 2.107 1.302 4.44 1 7 7.52.325 14.852-.008 22-1-2.842-10.822 1.158-15.155 12-13 1.858 4.027 2.525 8.36 2 13 7.148.992 14.48 1.325 22 1-.327-9.848.006-19.514 1-29z"/><path style="opacity:1" fill="#121517" d="M36.5 27.5c.283.79.783 1.456 1.5 2 .5 5.323.666 10.656.5 16h-13c-1.15-5.15-1.317-10.484-.5-16l1.5-1.5a50.441 50.441 0 0 1 10-.5z"/><path style="opacity:1" fill="#88cdeb" d="M34.5 33.5c1.837.14 2.17.806 1 2-.797-.457-1.13-1.124-1-2z"/><path style="opacity:1" fill="#88ccea" d="M30.5 33.5c1.837.14 2.17.806 1 2-.797-.457-1.13-1.124-1-2z"/><path style="opacity:1" fill="#89ceeb" d="M26.5 33.5c1.837.14 2.17.806 1 2-.797-.457-1.13-1.124-1-2z"/><path style="opacity:1" fill="#88cdeb" d="M30.5 29.5c1.837.14 2.17.806 1 2-.797-.457-1.13-1.124-1-2z"/><path style="opacity:1" fill="#84c6e3" d="M26.5 29.5c1.837.14 2.17.806 1 2-.797-.457-1.13-1.124-1-2z"/><path style="opacity:1" fill="#111315" d="M44.5 27.5c3.35-.165 6.683.002 10 .5l1.5 1.5c.5 5.323.666 10.656.5 16h-14c-.166-5.344 0-10.677.5-16 .717-.544 1.217-1.21 1.5-2z"/><path style="opacity:1" fill="#87ccea" d="M52.5 33.5c1.837.14 2.17.806 1 2-.797-.457-1.13-1.124-1-2z"/><path style="opacity:1" fill="#88ccea" d="M48.5 33.5c1.837.14 2.17.806 1 2-.797-.457-1.13-1.124-1-2z"/><path style="opacity:1" fill="#88cdeb" d="M44.5 33.5c1.837.14 2.17.806 1 2-.797-.457-1.13-1.124-1-2z"/><path style="opacity:1" fill="#7ab8d5" d="M52.5 29.5c1.837.14 2.17.806 1 2-.797-.457-1.13-1.124-1-2z"/><path style="opacity:1" fill="#88cdeb" d="M48.5 29.5c1.837.14 2.17.806 1 2-.797-.457-1.13-1.124-1-2z"/><path style="opacity:1" fill="#81c2e0" d="M44.5 29.5c1.837.14 2.17.806 1 2-.797-.457-1.13-1.124-1-2z"/><path style="opacity:1" fill="#8bd1eb" d="M26.5 37.5c1.837.14 2.17.806 1 2-.797-.457-1.13-1.124-1-2z"/><path style="opacity:1" fill="#8ad0eb" d="M30.5 37.5c1.837.14 2.17.806 1 2-.797-.457-1.13-1.124-1-2zM34.5 37.5c1.837.14 2.17.806 1 2-.797-.457-1.13-1.124-1-2z"/><path style="opacity:1" fill="#88ccea" d="M44.5 37.5c1.837.14 2.17.806 1 2-.797-.457-1.13-1.124-1-2z"/><path style="opacity:1" fill="#8ad0eb" d="M48.5 37.5c1.837.14 2.17.806 1 2-.797-.457-1.13-1.124-1-2z"/><path style="opacity:1" fill="#89ceeb" d="M52.5 37.5c1.837.14 2.17.806 1 2-.797-.457-1.13-1.124-1-2z"/><path style="opacity:1" fill="#141618" d="M8.5 27.5c3.35-.165 6.683.002 10 .5l1.5 1.5c.817 5.516.65 10.85-.5 16h-13c-.166-5.344 0-10.677.5-16 .717-.544 1.217-1.21 1.5-2z"/><path style="opacity:1" fill="#89cdea" d="M16.5 37.5c1.837.14 2.17.806 1 2-.797-.457-1.13-1.124-1-2z"/><path style="opacity:1" fill="#88cde9" d="M12.5 37.5c1.837.14 2.17.806 1 2-.797-.457-1.13-1.124-1-2z"/><path style="opacity:1" fill="#85c9e5" d="M8.5 37.5c1.837.14 2.17.806 1 2-.798-.457-1.13-1.124-1-2z"/><path style="opacity:1" fill="#89ceeb" d="M16.5 33.5c1.837.14 2.17.806 1 2-.797-.457-1.13-1.124-1-2z"/><path style="opacity:1" fill="#89ceea" d="M12.5 33.5c1.837.14 2.17.806 1 2-.797-.457-1.13-1.124-1-2z"/><path style="opacity:1" fill="#85c9e5" d="M8.5 33.5c1.837.14 2.17.806 1 2-.798-.457-1.13-1.124-1-2z"/><path style="opacity:1" fill="#86cae8" d="M12.5 29.5c1.837.14 2.17.806 1 2-.797-.457-1.13-1.124-1-2z"/><path style="opacity:1" fill="#7fc0dd" d="M8.5 29.5c1.837.14 2.17.806 1 2-.798-.457-1.13-1.124-1-2z"/><path style="opacity:1" fill="#ebda77" d="M8.5 41.5a25.87 25.87 0 0 1 10 1l-5 1c-2.14-.056-3.806-.723-5-2z"/><path style="opacity:1" fill="#ebd977" d="M26.5 41.5a25.87 25.87 0 0 1 10 1l-5 1c-2.14-.056-3.806-.723-5-2zM44.5 41.5a25.87 25.87 0 0 1 10 1l-5 1c-2.14-.056-3.806-.723-5-2z"/><path style="opacity:1" fill="#0f131a" d="M8.5 47.5h10c.313 3.542-.02 6.875-1 10h-9v-10z"/><path style="opacity:1" fill="#89cfe6" d="M14.5 49.5c1.837.14 2.17.806 1 2-.797-.457-1.13-1.124-1-2z"/><path style="opacity:1" fill="#89cde6" d="M10.5 49.5c1.837.14 2.17.806 1 2-.797-.457-1.13-1.124-1-2z"/><path style="opacity:1" fill="#86cae6" d="M10.5 53.5c1.837.14 2.17.806 1 2-.797-.457-1.13-1.124-1-2z"/><path style="opacity:1" fill="#89cee7" d="M14.5 53.5c1.837.14 2.17.806 1 2-.797-.457-1.13-1.124-1-2z"/><path style="opacity:1" fill="#0c1117" d="M44.5 47.5h10v10h-10v-10z"/><path style="opacity:1" fill="#89cee6" d="M50.5 53.5c1.837.14 2.17.806 1 2-.797-.457-1.13-1.124-1-2zM46.5 53.5c1.837.14 2.17.806 1 2-.797-.457-1.13-1.124-1-2zM50.5 49.5c1.837.14 2.17.806 1 2-.797-.457-1.13-1.124-1-2z"/><path style="opacity:1" fill="#8bd0e6" d="M46.5 49.5c1.837.14 2.17.806 1 2-.797-.457-1.13-1.124-1-2z"/><path style="opacity:1" fill="#a3755e" d="M27.5 49.5h3c.34 2.644-.327 4.977-2 7 1.505 1.342 2.172 3.008 2 5h-4c-.263-4.1.07-8.1 1-12z"/><path style="opacity:1" fill="#a3755f" d="M32.5 49.5c1.322-.17 2.489.163 3.5 1a60.94 60.94 0 0 1 .5 11h-4c-.172-1.992.495-3.658 2-5-1.673-2.023-2.34-4.356-2-7z"/></svg>