<?xml version="1.0" encoding="UTF-8"?>
<!DOCTYPE svg PUBLIC "-//W3C//DTD SVG 1.1//EN" "http://www.w3.org/Graphics/SVG/1.1/DTD/svg11.dtd">
<svg xmlns="http://www.w3.org/2000/svg" version="1.1" width="128px" height="128px" style="shape-rendering:geometricPrecision; text-rendering:geometricPrecision; image-rendering:optimizeQuality; fill-rule:evenodd; clip-rule:evenodd" xmlns:xlink="http://www.w3.org/1999/xlink">
<g><path style="opacity:0.925" fill="#020100" d="M 108.5,-0.5 C 109.167,-0.5 109.833,-0.5 110.5,-0.5C 115.062,6.74206 120.062,13.7421 125.5,20.5C 122.914,21.48 120.247,21.8134 117.5,21.5C 117.5,28.1667 117.5,34.8333 117.5,41.5C 112.167,41.5 106.833,41.5 101.5,41.5C 101.5,34.8333 101.5,28.1667 101.5,21.5C 98.7531,21.8134 96.0865,21.48 93.5,20.5C 98.938,13.7421 103.938,6.74206 108.5,-0.5 Z"/></g>
<g><path style="opacity:0.98" fill="#040201" d="M 12.5,1.5 C 19.8409,1.33368 27.1742,1.50034 34.5,2C 36.5,2.66667 38.5,3.33333 40.5,4C 41.4799,11.0787 41.8132,18.2454 41.5,25.5C 47.1764,25.3339 52.8431,25.5006 58.5,26C 60.7619,26.6419 62.9285,27.4752 65,28.5C 65.4999,40.8288 65.6665,53.1622 65.5,65.5C 70.8437,65.666 76.1771,65.4994 81.5,65C 76.6413,58.9752 71.9746,52.8085 67.5,46.5C 70.0865,45.52 72.7531,45.1866 75.5,45.5C 75.5,38.8333 75.5,32.1667 75.5,25.5C 80.8333,25.5 86.1667,25.5 91.5,25.5C 91.5,32.1667 91.5,38.8333 91.5,45.5C 94.2469,45.1866 96.9135,45.52 99.5,46.5C 95.0254,52.8085 90.3587,58.9752 85.5,65C 98.7418,65.1764 111.908,65.6764 125,66.5C 125.826,86.0733 125.659,105.573 124.5,125C 83.8333,125.667 43.1667,125.667 2.5,125C 1.3409,105.573 1.17424,86.0733 2,66.5C 3.01127,65.6634 4.17793,65.33 5.5,65.5C 5.33338,45.1639 5.50004,24.8306 6,4.5C 8.29398,3.57833 10.4606,2.57833 12.5,1.5 Z"/></g>
<g><path style="opacity:1" fill="#dcbb61" d="M 14.5,5.5 C 20.5092,5.33385 26.5092,5.50051 32.5,6C 37.8333,7 37.8333,8 32.5,9C 26.5,9.66667 20.5,9.66667 14.5,9C 9.46456,8.00133 9.46456,6.83466 14.5,5.5 Z"/></g>
<g><path style="opacity:1" fill="#fb806c" d="M 108.5,7.5 C 109.496,7.41423 110.329,7.74756 111,8.5C 113.045,11.4233 115.212,14.2567 117.5,17C 116.207,17.49 114.873,17.6567 113.5,17.5C 113.5,24.1667 113.5,30.8333 113.5,37.5C 110.833,37.5 108.167,37.5 105.5,37.5C 105.5,30.8333 105.5,24.1667 105.5,17.5C 104.127,17.6567 102.793,17.49 101.5,17C 104.051,13.9556 106.384,10.7889 108.5,7.5 Z"/></g>
<g><path style="opacity:1" fill="#f5bf27" d="M 9.5,11.5 C 18.4697,14.1627 27.4697,14.1627 36.5,11.5C 37.6517,14.1062 37.8184,16.7728 37,19.5C 28.2366,21.8384 19.4032,22.0051 10.5,20C 9.55621,17.2809 9.22288,14.4475 9.5,11.5 Z"/></g>
<g><path style="opacity:1" fill="#f2cf6b" d="M 9.5,23.5 C 18.4634,26.1242 27.4634,26.1242 36.5,23.5C 37.3857,24.325 37.719,25.325 37.5,26.5C 32.5983,26.5767 29.9316,28.91 29.5,33.5C 23.1021,33.7573 16.7688,33.2573 10.5,32C 9.55621,29.2809 9.22288,26.4475 9.5,23.5 Z"/></g>
<g><path style="opacity:1" fill="#dcab23" d="M 38.5,29.5 C 44.5092,29.3338 50.5092,29.5005 56.5,30C 61.8333,31 61.8333,32 56.5,33C 50.5,33.6667 44.5,33.6667 38.5,33C 33.4646,32.0013 33.4646,30.8347 38.5,29.5 Z"/></g>
<g><path style="opacity:1" fill="#fb806c" d="M 79.5,29.5 C 82.1667,29.5 84.8333,29.5 87.5,29.5C 87.5,36.1667 87.5,42.8333 87.5,49.5C 88.8734,49.3433 90.2068,49.51 91.5,50C 88.9917,53.3381 86.325,56.5048 83.5,59.5C 80.675,56.5048 78.0083,53.3381 75.5,50C 76.7932,49.51 78.1266,49.3433 79.5,49.5C 79.5,42.8333 79.5,36.1667 79.5,29.5 Z"/></g>
<g><path style="opacity:1" fill="#f7c027" d="M 9.5,35.5 C 16.0116,37.2047 22.6782,37.8713 29.5,37.5C 29.5,40.1667 29.5,42.8333 29.5,45.5C 23.0908,45.8173 16.7575,45.3173 10.5,44C 9.55621,41.2809 9.22288,38.4475 9.5,35.5 Z"/></g>
<g><path style="opacity:1" fill="#f4d06c" d="M 33.5,35.5 C 42.4634,38.1242 51.4634,38.1242 60.5,35.5C 61.48,38.0865 61.8134,40.7531 61.5,43.5C 52.569,45.9529 43.569,46.1196 34.5,44C 33.5562,41.2809 33.2229,38.4475 33.5,35.5 Z"/></g>
<g><path style="opacity:1" fill="#f5d16d" d="M 9.5,47.5 C 16.0116,49.2047 22.6782,49.8713 29.5,49.5C 29.5,52.1667 29.5,54.8333 29.5,57.5C 23.1021,57.7573 16.7688,57.2573 10.5,56C 9.55621,53.2809 9.22288,50.4475 9.5,47.5 Z"/></g>
<g><path style="opacity:1" fill="#f5bf27" d="M 33.5,47.5 C 42.4697,50.1627 51.4697,50.1627 60.5,47.5C 61.6517,50.1062 61.8184,52.7728 61,55.5C 52.2366,57.8384 43.4032,58.0051 34.5,56C 33.5562,53.2809 33.2229,50.4475 33.5,47.5 Z"/></g>
<g><path style="opacity:1" fill="#fcc428" d="M 9.5,59.5 C 16.0116,61.2047 22.6782,61.8713 29.5,61.5C 29.5,62.8333 29.5,64.1667 29.5,65.5C 22.8333,65.5 16.1667,65.5 9.5,65.5C 9.5,63.5 9.5,61.5 9.5,59.5 Z"/></g>
<g><path style="opacity:1" fill="#f5d16d" d="M 33.5,59.5 C 42.4634,62.1242 51.4634,62.1242 60.5,59.5C 61.4656,61.396 61.7989,63.396 61.5,65.5C 52.1667,65.5 42.8333,65.5 33.5,65.5C 33.5,63.5 33.5,61.5 33.5,59.5 Z"/></g>
<g><path style="opacity:1" fill="#48cfac" d="M 5.5,69.5 C 44.1667,69.5 82.8333,69.5 121.5,69.5C 121.5,86.8333 121.5,104.167 121.5,121.5C 82.8333,121.5 44.1667,121.5 5.5,121.5C 5.5,104.167 5.5,86.8333 5.5,69.5 Z"/></g>
<g><path style="opacity:1" fill="#040504" d="M 9.5,73.5 C 45.5,73.5 81.5,73.5 117.5,73.5C 117.5,88.1667 117.5,102.833 117.5,117.5C 81.5,117.5 45.5,117.5 9.5,117.5C 9.5,102.833 9.5,88.1667 9.5,73.5 Z"/></g>
<g><path style="opacity:1" fill="#dcdee2" d="M 13.5,77.5 C 16.1873,77.3359 18.854,77.5026 21.5,78C 20.3333,81.8333 17.8333,84.3333 14,85.5C 13.5026,82.854 13.3359,80.1873 13.5,77.5 Z"/></g>
<g><path style="opacity:1" fill="#5ad3b0" d="M 25.5,77.5 C 33.84,77.3336 42.1733,77.5003 50.5,78C 41.7619,84.6479 39.2619,93.1479 43,103.5C 44.7379,107.241 47.2379,110.408 50.5,113C 42.1467,113.832 33.8134,113.665 25.5,112.5C 23.5,107.167 19.8333,103.5 14.5,101.5C 13.1667,97.5 13.1667,93.5 14.5,89.5C 20.2819,87.3869 23.9486,83.3869 25.5,77.5 Z"/></g>
<g><path style="opacity:1" fill="#5ad3b0" d="M 76.5,78.5 C 84.6758,77.1791 93.0091,77.1791 101.5,78.5C 103.5,83.8333 107.167,87.5 112.5,89.5C 113.833,93.5 113.833,97.5 112.5,101.5C 107.167,103.5 103.5,107.167 101.5,112.5C 93.1866,113.665 84.8533,113.832 76.5,113C 85.791,104.545 87.6244,94.7121 82,83.5C 80.2962,81.6266 78.4628,79.9599 76.5,78.5 Z"/></g>
<g><path style="opacity:1" fill="#dbdde1" d="M 106.5,77.5 C 108.833,77.5 111.167,77.5 113.5,77.5C 113.813,80.2469 113.48,82.9135 112.5,85.5C 108.582,84.2515 106.582,81.5848 106.5,77.5 Z"/></g>
<g><path style="opacity:1" fill="#f5d16d" d="M 58.5,77.5 C 74.6465,76.8124 82.1465,84.479 81,100.5C 74.7895,113.521 65.2895,116.688 52.5,110C 44.6597,102.435 43.493,93.9355 49,84.5C 51.7901,81.535 54.9567,79.2016 58.5,77.5 Z"/></g>
<g><path style="opacity:1" fill="#080603" d="M 65.5,93.5 C 67.1436,94.3164 68.3103,95.6498 69,97.5C 69.4974,100.146 69.6641,102.813 69.5,105.5C 68.1667,105.5 66.8333,105.5 65.5,105.5C 65.5,106.833 65.5,108.167 65.5,109.5C 64.1667,109.5 62.8333,109.5 61.5,109.5C 59.8049,105.736 58.4716,101.736 57.5,97.5C 58.552,97.6495 59.552,97.4828 60.5,97C 57.8461,93.6727 56.8461,89.8394 57.5,85.5C 58.8333,85.5 60.1667,85.5 61.5,85.5C 61.5,84.1667 61.5,82.8333 61.5,81.5C 62.8333,81.5 64.1667,81.5 65.5,81.5C 67.1951,85.2639 68.5284,89.2639 69.5,93.5C 68.1667,93.5 66.8333,93.5 65.5,93.5 Z"/></g>
<g><path style="opacity:1" fill="#f4d06c" d="M 65.5,93.5 C 62.5,93.8333 61.1667,92.5 61.5,89.5C 64.5,89.1667 65.8333,90.5 65.5,93.5 Z"/></g>
<g><path style="opacity:1" fill="#f4d06c" d="M 61.5,97.5 C 64.5,97.1667 65.8333,98.5 65.5,101.5C 62.5,101.833 61.1667,100.5 61.5,97.5 Z"/></g>
<g><path style="opacity:1" fill="#d9dce0" d="M 13.5,105.5 C 17.3806,106.441 20.0473,108.774 21.5,112.5C 18.9135,113.48 16.2469,113.813 13.5,113.5C 13.5,110.833 13.5,108.167 13.5,105.5 Z"/></g>
<g><path style="opacity:1" fill="#d7d9dd" d="M 111.5,105.5 C 113.369,107.635 114.036,110.302 113.5,113.5C 110.753,113.813 108.086,113.48 105.5,112.5C 106.833,109.507 108.833,107.173 111.5,105.5 Z"/></g>
</svg>
