<?xml version="1.0" encoding="UTF-8"?>
<!DOCTYPE svg PUBLIC "-//W3C//DTD SVG 1.1//EN" "http://www.w3.org/Graphics/SVG/1.1/DTD/svg11.dtd">
<svg xmlns="http://www.w3.org/2000/svg" version="1.1" width="128px" height="128px" style="shape-rendering:geometricPrecision; text-rendering:geometricPrecision; image-rendering:optimizeQuality; fill-rule:evenodd; clip-rule:evenodd" xmlns:xlink="http://www.w3.org/1999/xlink">
<g><path style="opacity:1" fill="#58140f" d="M 116.5,29.5 C 116.5,52.5 116.5,75.5 116.5,98.5C 108.016,99.493 99.3494,99.8264 90.5,99.5C 90.7947,101.735 90.4614,103.735 89.5,105.5C 87.9557,105.297 86.6223,104.63 85.5,103.5C 84.1502,104.95 82.4835,105.617 80.5,105.5C 80.5,103.5 80.5,101.5 80.5,99.5C 56.994,99.8309 33.6607,99.4975 10.5,98.5C 9.84468,77.1401 10.5113,56.1401 12.5,35.5C 12.5,52.1667 12.5,68.8333 12.5,85.5C 22.5056,85.3335 32.5056,85.5002 42.5,86C 48.1518,86.9969 53.4852,88.8302 58.5,91.5C 58.8333,92.5 59.5,93.1667 60.5,93.5C 60.56,94.0431 60.8933,94.3764 61.5,94.5C 62.8283,73.0038 62.8283,51.6704 61.5,30.5C 60.8333,29.1667 59.8333,28.1667 58.5,27.5C 53.8821,23.6935 48.5488,21.1935 42.5,20C 32.5056,19.5002 22.5056,19.3335 12.5,19.5C 12.7633,23.6002 12.4299,27.6002 11.5,31.5C 8.5,31.5 5.5,31.5 2.5,31.5C 2.5,56.5 2.5,81.5 2.5,106.5C 43.1667,107.833 83.8333,107.833 124.5,106.5C 124.5,81.5 124.5,56.5 124.5,31.5C 122.901,31.7678 121.568,31.4345 120.5,30.5C 120.5,30.1667 120.5,29.8333 120.5,29.5C 122.726,28.2437 125.059,28.2437 127.5,29.5C 127.5,56.1667 127.5,82.8333 127.5,109.5C 84.8333,109.5 42.1667,109.5 -0.5,109.5C -0.5,82.8333 -0.5,56.1667 -0.5,29.5C 3.06405,28.5773 6.73072,28.244 10.5,28.5C 10.5,24.8333 10.5,21.1667 10.5,17.5C 21.8382,17.3335 33.1716,17.5001 44.5,18C 51.6599,19.5799 57.9932,22.7466 63.5,27.5C 69.0068,22.7466 75.3401,19.5799 82.5,18C 93.8284,17.5001 105.162,17.3335 116.5,17.5C 116.5,21.5 116.5,25.5 116.5,29.5 Z"/></g>
<g><path style="opacity:1" fill="#be4f12" d="M 89.5,105.5 C 100.988,106.495 112.655,106.828 124.5,106.5C 83.8333,107.833 43.1667,107.833 2.5,106.5C 28.672,106.831 54.672,106.498 80.5,105.5C 82.4835,105.617 84.1502,104.95 85.5,103.5C 86.6223,104.63 87.9557,105.297 89.5,105.5 Z"/></g>
<g><path style="opacity:1" fill="#b66d0f" d="M 114.5,94.5 C 82.5,95.1667 82.5,95.8333 114.5,96.5C 106.35,97.4927 98.0168,97.8261 89.5,97.5C 89.5,96.1667 89.5,94.8333 89.5,93.5C 98.0168,93.1739 106.35,93.5073 114.5,94.5 Z"/></g>
<g><path style="opacity:1" fill="#b66e0e" d="M 80.5,91.5 C 80.5,93.5 80.5,95.5 80.5,97.5C 75.8215,97.6658 71.1548,97.4992 66.5,97C 67.0442,96.2828 67.7109,95.7828 68.5,95.5C 71.9619,96.4816 75.6286,96.815 79.5,96.5C 79.2155,94.5853 79.5489,92.9187 80.5,91.5 Z"/></g>
<g><path style="opacity:1" fill="#b36b0f" d="M 58.5,95.5 C 59.2891,95.7828 59.9558,96.2828 60.5,97C 44.328,97.8281 28.328,97.6614 12.5,96.5C 28.0091,96.8295 43.3424,96.4962 58.5,95.5 Z"/></g>
<g><path style="opacity:1" fill="#d23126" d="M 82.5,93.5 C 84.1667,93.5 85.8333,93.5 87.5,93.5C 87.6641,96.1873 87.4974,98.854 87,101.5C 85.8869,100.289 84.7202,100.289 83.5,101.5C 82.52,98.9135 82.1866,96.2469 82.5,93.5 Z"/></g>
<g><path style="opacity:1" fill="#feba0f" d="M 114.5,94.5 C 114.5,95.1667 114.5,95.8333 114.5,96.5C 82.5,95.8333 82.5,95.1667 114.5,94.5 Z"/></g>
<g><path style="opacity:1" fill="#f3ab0f" d="M 80.5,91.5 C 79.5489,92.9187 79.2155,94.5853 79.5,96.5C 75.6286,96.815 71.9619,96.4816 68.5,95.5C 71.9901,92.5849 75.9901,90.4182 80.5,89C 91.8284,88.5001 103.162,88.3335 114.5,88.5C 114.5,89.5 114.5,90.5 114.5,91.5C 103.167,91.5 91.8333,91.5 80.5,91.5 Z"/></g>
<g><path style="opacity:1" fill="#f4ac0f" d="M 58.5,95.5 C 43.3424,96.4962 28.0091,96.8295 12.5,96.5C 12.5,95.5 12.5,94.5 12.5,93.5C 47.1667,92.8333 47.1667,92.1667 12.5,91.5C 12.5,90.5 12.5,89.5 12.5,88.5C 23.1719,88.3335 33.8385,88.5002 44.5,89C 49.88,89.8595 54.5466,92.0262 58.5,95.5 Z"/></g>
<g><path style="opacity:1" fill="#a54113" d="M 11.5,34.5 C 12.1667,34.5 12.5,34.8333 12.5,35.5C 10.5113,56.1401 9.84468,77.1401 10.5,98.5C 9.83348,88.0053 9.50015,77.3386 9.5,66.5C 9.50121,55.4784 10.1679,44.8118 11.5,34.5 Z"/></g>
<g><path style="opacity:1" fill="#fdcb5c" d="M 68.5,27.5 C 68.5,48.8333 68.5,70.1667 68.5,91.5C 68.1667,92.5 67.5,93.1667 66.5,93.5C 65.5027,72.6733 65.1694,51.6733 65.5,30.5C 66.1667,29.1667 67.1667,28.1667 68.5,27.5 Z"/></g>
<g><path style="opacity:1" fill="#d49d48" d="M 65.5,30.5 C 65.1694,51.6733 65.5027,72.6733 66.5,93.5C 66.44,94.0431 66.1067,94.3764 65.5,94.5C 64.1717,73.0038 64.1717,51.6704 65.5,30.5 Z"/></g>
<g><path style="opacity:1" fill="#d59d48" d="M 61.5,30.5 C 62.8283,51.6704 62.8283,73.0038 61.5,94.5C 60.8933,94.3764 60.56,94.0431 60.5,93.5C 61.4973,72.6733 61.8306,51.6733 61.5,30.5 Z"/></g>
<g><path style="opacity:1" fill="#fdcb5c" d="M 58.5,27.5 C 59.8333,28.1667 60.8333,29.1667 61.5,30.5C 61.8306,51.6733 61.4973,72.6733 60.5,93.5C 59.5,93.1667 58.8333,92.5 58.5,91.5C 58.5,70.1667 58.5,48.8333 58.5,27.5 Z"/></g>
<g><path style="opacity:1" fill="#e36413" d="M 11.5,31.5 C 11.5,32.5 11.5,33.5 11.5,34.5C 10.1679,44.8118 9.50121,55.4784 9.5,66.5C 9.50015,77.3386 9.83348,88.0053 10.5,98.5C 33.6607,99.4975 56.994,99.8309 80.5,99.5C 80.5,101.5 80.5,103.5 80.5,105.5C 54.672,106.498 28.672,106.831 2.5,106.5C 2.5,81.5 2.5,56.5 2.5,31.5C 5.5,31.5 8.5,31.5 11.5,31.5 Z"/></g>
<g><path style="opacity:1" fill="#e36413" d="M 120.5,30.5 C 121.568,31.4345 122.901,31.7678 124.5,31.5C 124.5,56.5 124.5,81.5 124.5,106.5C 112.655,106.828 100.988,106.495 89.5,105.5C 90.4614,103.735 90.7947,101.735 90.5,99.5C 99.3494,99.8264 108.016,99.493 116.5,98.5C 117.497,76.0061 117.831,53.3395 117.5,30.5C 118.5,30.5 119.5,30.5 120.5,30.5 Z"/></g>
<g><path style="opacity:1" fill="#a64314" d="M 116.5,29.5 C 117.833,29.5 119.167,29.5 120.5,29.5C 120.5,29.8333 120.5,30.1667 120.5,30.5C 119.5,30.5 118.5,30.5 117.5,30.5C 117.831,53.3395 117.497,76.0061 116.5,98.5C 116.5,75.5 116.5,52.5 116.5,29.5 Z"/></g>
<g><path style="opacity:1" fill="#fbe0a5" d="M 68.5,91.5 C 68.5,70.1667 68.5,48.8333 68.5,27.5C 72.3714,23.7278 77.0381,21.2278 82.5,20C 93.1615,19.5002 103.828,19.3335 114.5,19.5C 114.5,41.5 114.5,63.5 114.5,85.5C 103.828,85.3335 93.1615,85.5002 82.5,86C 77.5892,87.3562 72.9225,89.1896 68.5,91.5 Z"/></g>
<g><path style="opacity:1" fill="#783d2e" d="M 73.5,71.5 C 80.5,71.5 87.5,71.5 94.5,71.5C 94.5,72.5 94.5,73.5 94.5,74.5C 87.5,74.5 80.5,74.5 73.5,74.5C 73.5,73.5 73.5,72.5 73.5,71.5 Z"/></g>
<g><path style="opacity:1" fill="#5a1a15" d="M 105.5,61.5 C 95.5541,63.4753 85.2208,64.1419 74.5,63.5C 84.4459,61.5247 94.7792,60.8581 105.5,61.5 Z"/></g>
<g><path style="opacity:1" fill="#ad7f5d" d="M 105.5,61.5 C 94.7792,60.8581 84.4459,61.5247 74.5,63.5C 73.596,62.791 73.2627,61.791 73.5,60.5C 84.3464,60.1722 95.0131,60.5056 105.5,61.5 Z"/></g>
<g><path style="opacity:1" fill="#510d0b" d="M 74.5,50.5 C 84.8548,50.1681 95.1881,50.5014 105.5,51.5C 100.333,51.8333 95.1667,52.1667 90,52.5C 84.4543,52.4946 79.2876,51.8279 74.5,50.5 Z"/></g>
<g><path style="opacity:1" fill="#bf946e" d="M 74.5,39.5 C 84.4459,41.4753 94.7792,42.1419 105.5,41.5C 95.0131,42.4944 84.3464,42.8278 73.5,42.5C 73.2627,41.209 73.596,40.209 74.5,39.5 Z"/></g>
<g><path style="opacity:1" fill="#510d0b" d="M 74.5,39.5 C 85.2208,38.8581 95.5541,39.5247 105.5,41.5C 94.7792,42.1419 84.4459,41.4753 74.5,39.5 Z"/></g>
<g><path style="opacity:1" fill="#74392b" d="M 73.5,28.5 C 84.1667,28.5 94.8333,28.5 105.5,28.5C 105.5,29.5 105.5,30.5 105.5,31.5C 94.8333,31.5 84.1667,31.5 73.5,31.5C 73.5,30.5 73.5,29.5 73.5,28.5 Z"/></g>
<g><path style="opacity:1" fill="#f8dda3" d="M 58.5,27.5 C 58.5,48.8333 58.5,70.1667 58.5,91.5C 53.4852,88.8302 48.1518,86.9969 42.5,86C 32.5056,85.5002 22.5056,85.3335 12.5,85.5C 12.5,68.8333 12.5,52.1667 12.5,35.5C 12.5,34.8333 12.1667,34.5 11.5,34.5C 11.5,33.5 11.5,32.5 11.5,31.5C 12.4299,27.6002 12.7633,23.6002 12.5,19.5C 22.5056,19.3335 32.5056,19.5002 42.5,20C 48.5488,21.1935 53.8821,23.6935 58.5,27.5 Z"/></g>
<g><path style="opacity:1" fill="#211508" d="M 40.5,32.5 C 42.1667,32.5 43.8333,32.5 45.5,32.5C 47.2863,40.8313 49.1197,49.1646 51,57.5C 51.9632,63.465 52.4632,69.465 52.5,75.5C 42.1667,76.8333 31.8333,76.8333 21.5,75.5C 23.7594,62.3932 26.2594,49.3932 29,36.5C 32.8998,35.0753 36.7332,33.7419 40.5,32.5 Z"/></g>
<g><path style="opacity:1" fill="#c5a601" d="M 46.5,67.5 C 47.9187,66.5489 49.5853,66.2155 51.5,66.5C 51.5,69.5 51.5,72.5 51.5,75.5C 41.8333,75.5 32.1667,75.5 22.5,75.5C 22.1568,73.5168 22.8235,72.1834 24.5,71.5C 24.1961,72.1499 23.8627,72.8165 23.5,73.5C 32.4754,74.4982 41.4754,74.8315 50.5,74.5C 50.5,72.1667 50.5,69.8333 50.5,67.5C 49.1667,67.5 47.8333,67.5 46.5,67.5 Z"/></g>
<g><path style="opacity:1" fill="#f5d500" d="M 46.5,67.5 C 47.8333,67.5 49.1667,67.5 50.5,67.5C 50.5,69.8333 50.5,72.1667 50.5,74.5C 41.4754,74.8315 32.4754,74.4982 23.5,73.5C 23.8627,72.8165 24.1961,72.1499 24.5,71.5C 31.8112,70.0377 39.1446,68.7044 46.5,67.5 Z"/></g>
<g><path style="opacity:1" fill="#e48901" d="M 45.5,58.5 C 46.8333,58.5 48.1667,58.5 49.5,58.5C 49.6633,60.8568 49.4966,63.1902 49,65.5C 49.2185,61.3617 47.5518,60.0284 44,61.5C 43.6667,63.1667 43.3333,64.8333 43,66.5C 42.8832,63.3713 41.3832,62.2046 38.5,63C 37.7734,64.3988 37.2734,65.8988 37,67.5C 36.729,63.8695 35.0623,62.8695 32,64.5C 31.8337,68.5114 31.0004,69.0114 29.5,66C 26.2096,65.4106 24.7096,66.9106 25,70.5C 24.2419,68.2305 24.4086,66.0639 25.5,64C 32.4852,62.8455 39.1518,61.0122 45.5,58.5 Z"/></g>
<g><path style="opacity:1" fill="#dec300" d="M 44.5,51.5 C 45.8333,51.5 47.1667,51.5 48.5,51.5C 48.5,53.5 48.5,55.5 48.5,57.5C 46.3153,57.1119 44.482,56.1119 43,54.5C 42.228,54.6448 41.5613,54.9781 41,55.5C 40.6667,56.8333 40.3333,58.1667 40,59.5C 37.3795,55.3674 35.3795,55.7007 34,60.5C 33.1207,57.6537 31.4541,56.987 29,58.5C 28.51,59.7932 28.3433,61.1266 28.5,62.5C 27.5,62.5 26.5,62.5 25.5,62.5C 25.2606,60.5328 25.5939,58.6995 26.5,57C 32.7272,55.4504 38.7272,53.617 44.5,51.5 Z"/></g>
<g><path style="opacity:1" fill="#d17e00" d="M 30.5,47.5 C 35.891,46.755 41.2244,45.755 46.5,44.5C 46.6621,46.5273 46.4955,48.5273 46,50.5C 45.7811,49.062 45.2811,47.7287 44.5,46.5C 43.8333,48.1667 43.1667,49.8333 42.5,51.5C 41.0133,46.3428 40.3466,46.6761 40.5,52.5C 39.5,52.5 38.5,52.5 37.5,52.5C 36.9969,47.5 36.6636,47.8333 36.5,53.5C 35.5,53.5 34.5,53.5 33.5,53.5C 33.6567,52.1266 33.49,50.7932 33,49.5C 32.4367,55.3405 31.27,55.6739 29.5,50.5C 28.7022,52.0777 28.2022,53.7444 28,55.5C 27.5034,53.1902 27.3367,50.8568 27.5,48.5C 28.791,48.7373 29.791,48.404 30.5,47.5 Z"/></g>
<g><path style="opacity:1" fill="#ccae01" d="M 30.5,47.5 C 28.2554,46.1722 27.9221,44.3388 29.5,42C 34.7635,40.1847 40.0968,38.6847 45.5,37.5C 45.7989,39.604 45.4656,41.604 44.5,43.5C 43.7189,42.2713 43.2189,40.938 43,39.5C 42.3772,43.9316 41.3772,44.2649 40,40.5C 39.3772,44.9316 38.3772,45.2649 37,41.5C 36.3772,45.9316 35.3772,46.2649 34,42.5C 33,47.8333 32,47.8333 31,42.5C 30.5065,44.1341 30.3398,45.8008 30.5,47.5 Z"/></g>
<g><path style="opacity:1" fill="#e68b00" d="M 41.5,33.5 C 43.0481,33.8212 43.7148,34.8212 43.5,36.5C 39.2075,37.6564 34.8741,38.6564 30.5,39.5C 30.5,38.5 30.5,37.5 30.5,36.5C 34.3968,35.9448 38.0635,34.9448 41.5,33.5 Z"/></g>
</svg>
