<svg xmlns="http://www.w3.org/2000/svg" width="64" height="64" ><path style="opacity:1" fill="#e4ba37" d="M43.5 7.5c-.342.838-1.008 1.172-2 1a32.888 32.888 0 0 0-10-4 32.888 32.888 0 0 0-10 4v-2a35.16 35.16 0 0 1 10-5 63.386 63.386 0 0 1 12 6z"/><path style="opacity:1" fill="#dbb338" d="M38.5 9.5c-4.667 1.333-9.333 1.333-14 0 4.741-3.893 9.408-3.893 14 0z"/><path style="opacity:1" fill="#d2ad38" d="M21.5 6.5v2a126.202 126.202 0 0 1-13 8c0-.667-.333-1-1-1a75.729 75.729 0 0 1 14-9z"/><path style="opacity:1" fill="#ceaa3a" d="M24.5 9.5c4.667 1.333 9.333 1.333 14 0a36.178 36.178 0 0 0 7 4c-9.139-.309-18.472.025-28 1a39.397 39.397 0 0 1 7-5z"/><path style="opacity:1" fill="#d0ac38" d="M43.5 7.5a75.162 75.162 0 0 1 12 8c-.667 0-1 .333-1 1a126.202 126.202 0 0 1-13-8c.992.172 1.658-.162 2-1z"/><path style="opacity:1" fill="#c4a23b" d="M45.5 13.5c1 .333 1.667 1 2 2h-32c.342-.838 1.008-1.172 2-1 9.528-.975 18.861-1.309 28-1z"/><path style="opacity:1" fill="#b3973c" d="M7.5 15.5c.667 0 1 .333 1 1-.734 1.208-1.067 2.541-1 4l-2 4a32.437 32.437 0 0 1 .5-8c.383-.556.883-.89 1.5-1z"/><path style="opacity:1" fill="#b89b3c" d="M15.5 15.5h32c3.232.272 5.232 1.938 6 5-2.885.306-5.552-.027-8-1 1.238-.31 1.238-.81 0-1.5a24.939 24.939 0 0 0-7-.5h-11v3a5.728 5.728 0 0 0-3 1c.04-3.7-.96-4.366-3-2-1-1.333-2-1.333-3 0-.333-1-1-1.667-2-2-1.599.268-2.932-.066-4-1a5.728 5.728 0 0 1 3-1z"/><path style="opacity:1" fill="#b3973c" d="M55.5 15.5c.617.11 1.117.444 1.5 1 .497 2.646.664 5.313.5 8l-2-4c.067-1.459-.266-2.792-1-4 0-.667.333-1 1-1z"/><path style="opacity:1" fill="#ac923d" d="M12.5 16.5c1.068.934 2.401 1.268 4 1-.8 1.542-1.134 3.209-1 5a39.175 39.175 0 0 1-4.5-2c-.278.916-.778 1.582-1.5 2-.475-2.813.525-4.813 3-6z"/><path style="opacity:1" fill="#a78e40" d="M21.5 19.5c.616.702.616 1.702 0 3 0 .667-.333 1-1 1l-2-4c1-1.333 2-1.333 3 0z"/><path style="opacity:1" fill="#a58d3f" d="M35.5 17.5h3c-.11.617-.444 1.117-1 1.5 1.237.232 2.237.732 3 1.5-3.184 1.914-6.851 2.58-11 2v-3c2.582.475 4.582-.192 6-2z"/><path style="opacity:1" fill="#908254" d="M21.5 22.5c.543.06.876.393 1 1-.756 1.273-1.423 1.273-2 0 .667 0 1-.333 1-1z"/><path style="opacity:1" fill="#9c863f" d="M45.5 19.5c2.448.973 5.115 1.306 8 1v4h-10c-.423-2.281.244-3.948 2-5z"/><path style="opacity:1" fill="#958140" d="M15.5 22.5v4h-6v-4c.722-.418 1.222-1.084 1.5-2 1.47.767 2.97 1.433 4.5 2z"/><path style="opacity:1" fill="#927f40" d="M27.5 20.5v8h-3v-7a5.728 5.728 0 0 1 3-1z"/><path style="opacity:1" fill="#927f42" d="M40.5 20.5c.961 1.765 1.295 3.765 1 6h-12c.93-.815 1.93-1.648 3-2.5-1.238-.232-2.238-.732-3-1.5 4.149.58 7.816-.086 11-2z"/><path style="opacity:1" fill="#8b7b45" d="M7.5 20.5v6l-2 2v-4l2-4z"/><path style="opacity:1" fill="#837443" d="M29.5 26.5h12v1c-3.9.93-7.9 1.263-12 1v-2z"/><path style="opacity:1" fill="#8b7b45" d="m55.5 20.5 2 4v4l-2-2v-6z"/><path style="opacity:1" fill="#877742" d="M43.5 24.5h10v4h-10v-4z"/><path style="opacity:1" fill="#7b6e43" d="M9.5 26.5h6v4h-6v-4z"/><path style="opacity:1" fill="#7c6f44" d="M22.5 30.5h-5c-.163-2.357.003-4.69.5-7 1.51 2.362 3.01 4.695 4.5 7z"/><path style="opacity:1" fill="#706645" d="M41.5 27.5c-.155 3.353.512 3.686 2 1h10v5a242.506 242.506 0 0 0-44 0v-3h13c1-.333 1.667-1 2-2h3c.667 2.667 1.333 2.667 2 0 4.1.263 8.1-.07 12-1z"/><path style="opacity:1" fill="#6f6749" d="M7.5 26.5v8h-2v-6l2-2zM55.5 26.5l2 2v6h-2v-8z"/><path style="opacity:1" fill="#625b45" d="M53.5 33.5v1c-5.877.117-11.544.117-17 0-4-1.333-8-1.333-12 0l-2 1c-.333-1-1-1.667-2-2h-3c-1.983-.343-3.317.324-4 2-1.208-.734-2.541-1.067-4-1v-1a242.506 242.506 0 0 1 44 0zm-36 0c-.683 1.676-2.017 2.343-4 2 .683-1.676 2.017-2.343 4-2zm19 1c-4 1.333-8 1.333-12 0 4-1.333 8-1.333 12 0z"/><path style="opacity:1" fill="#565448" d="M24.5 34.5c4 1.333 8 1.333 12 0 5.456.117 11.123.117 17 0v3h-1c-10.11-.447-20.443-.447-31 0-.172-.992.162-1.658 1-2l2-1z"/><path style="opacity:1" fill="#575755" d="M5.5 34.5h2v8l-2-5v-3z"/><path style="opacity:1" fill="#504f47" d="M17.5 33.5h3c-.734 1.208-1.067 2.541-1 4l-2 2c-.71-2.342-2.044-2.675-4-1-1.459.067-2.792-.266-4-1v-3c1.459-.067 2.792.266 4 1 1.983.343 3.317-.324 4-2z"/><path style="opacity:1" fill="#4b4b45" d="M52.5 37.5c-.709.904-1.709 1.237-3 1-4-1.333-8-1.333-12 0h-2c-2.667-1.333-5.333-1.333-8 0-2.12-.175-4.12.159-6 1v-2c10.557-.447 20.89-.447 31 0z"/><path style="opacity:1" fill="#575755" d="M55.5 34.5h2v3l-2 5v-8z"/><path style="opacity:1" fill="#4a4c50" d="M52.5 37.5h1v3c-10.514-.328-20.847.006-31 1h-1v-2c1.88-.841 3.88-1.175 6-1 2.667 1.333 5.333 1.333 8 0h2c4 1.333 8 1.333 12 0 1.291.237 2.291-.096 3-1z"/><path style="opacity:1" fill="#3e424a" d="M9.5 37.5c1.208.734 2.541 1.067 4 1 1.068.934 2.401 1.268 4 1l2-2v5l-2 1c-1.068-.934-2.401-1.268-4-1-1.459.067-2.792-.266-4-1v-4zm8 2c-1.599.268-2.932-.066-4-1 1.956-1.675 3.29-1.342 4 1z"/><path style="opacity:1" fill="#3a3f4b" d="M22.5 41.5c10.153-.994 20.486-1.328 31-1 .268 1.599-.066 2.932-1 4-1.734 1.062-3.4 1.062-5 0 .11-.617.444-1.117 1-1.5a72.444 72.444 0 0 0-12-.5h-2c-2.885-.306-5.552.027-8 1l-4-2z"/><path style="opacity:1" fill="#2f364a" d="m5.5 37.5 2 5c-.067 1.459.266 2.792 1 4 0 .667-.333 1-1 1-.617-.11-1.117-.444-1.5-1a40.936 40.936 0 0 1-.5-9zM57.5 37.5a40.936 40.936 0 0 1-.5 9c-.383.556-.883.89-1.5 1-.667 0-1-.333-1-1 .734-1.208 1.067-2.541 1-4l2-5z"/><path style="opacity:1" fill="#2c354b" d="M9.5 41.5c1.208.734 2.541 1.067 4 1 1.038 2.02 2.372 2.353 4 1l2-1v3c-.768.763-1.268 1.763-1.5 3-.67-.752-1.504-1.086-2.5-1-3.705-.371-5.705-2.371-6-6zm4 1c1.599-.268 2.932.066 4 1-1.628 1.353-2.962 1.02-4-1z"/><path style="opacity:1" fill="#2d364c" d="M21.5 41.5h1l4 2c1.122.656 2.455.99 4 1 1.833-.085 3.166-.752 4-2h2c.11.617.444 1.117 1 1.5 3.317.498 6.65.665 10 .5 1.6 1.062 3.266 1.062 5 0-1.16 1.75-2.826 2.75-5 3a5.728 5.728 0 0 1-3-1h-7l-2 1c-2.667-1.333-5.333-1.333-8 0-2.203-.435-4.203-.435-6 0v-6zm13 1c-.834 1.248-2.167 1.915-4 2-1.545-.01-2.878-.344-4-1 2.448-.973 5.115-1.306 8-1z"/><path style="opacity:1" fill="#252f4d" d="M19.5 45.5a2.428 2.428 0 0 0 .5 2c.69 1.238 1.19 1.238 1.5 0 1.797-.435 3.797-.435 6 0 2.667 1.333 5.333 1.333 8 0l2-1c.634 1.447 1.8 2.113 3.5 2 1.7.113 2.866-.553 3.5-2 .891.61 1.891.943 3 1a75.46 75.46 0 0 1-15.5 9c-6.134-1.998-11.634-4.998-16.5-9 .996-.086 1.83.248 2.5 1 .232-1.237.732-2.237 1.5-3zm18 1h7c-.634 1.447-1.8 2.113-3.5 2-1.7.113-2.866-.553-3.5-2zm-2 1c-2.667 1.333-5.333 1.333-8 0 2.667-1.333 5.333-1.333 8 0z"/><path style="opacity:1" fill="#242f4c" d="M8.5 46.5a125.72 125.72 0 0 0 23 12 125.72 125.72 0 0 0 23-12c0 .667.333 1 1 1-7.313 5.663-15.313 10.33-24 14-8.687-3.67-16.687-8.337-24-14 .667 0 1-.333 1-1zm29 0h7c-.634 1.447-1.8 2.113-3.5 2-1.7.113-2.866-.553-3.5-2zm-2 1c-2.667 1.333-5.333 1.333-8 0 2.667-1.333 5.333-1.333 8 0z"/></svg>