<svg xmlns="http://www.w3.org/2000/svg" width="64" height="64">
<path style="opacity:1" fill="#12120c" d="M60.5 16.5c-.667 0-1 .333-1 1-3.29-3.772-7.29-4.772-12-3-.952 1.545-1.285 3.212-1 5h-3c1.046 2.382 1.046 4.715 0 7l-2-2v-6h3c-1.763-3.686-2.93-7.686-3.5-12-2.04-.923-4.208-1.256-6.5-1v-3h-6v3c-2.293-.256-4.46.077-6.5 1a3227.26 3227.26 0 0 0-3.5 12h3v6l-2 2c-1.046-2.285-1.046-4.618 0-7h-3c.062-5.484-2.605-7.317-8-5.5a16.568 16.568 0 0 0-4 2.5c0-.667-.333-1-1-1 1.475-1.91 3.475-3.076 6-3.5 3.409.235 6.742.068 10-.5.17-1.322-.163-2.489-1-3.5L24 2.5c1.011.837 2.178 1.17 3.5 1v-3h8v3c1.322.17 2.489-.163 3.5-1L44.5 8c-.837 1.011-1.17 2.178-1 3.5 3.258.568 6.591.735 10 .5 3.047.516 5.38 2.016 7 4.5z"/><path style="opacity:1" fill="#abd379" d="M41.5 24.5c-.958.453-1.792 1.12-2.5 2-1.388-1.054-2.888-1.22-4.5-.5-.726 1.397-1.892 2.23-3.5 2.5-2.718-2.255-5.885-3.588-9.5-4v-6h-3a3227.26 3227.26 0 0 1 3.5-12c2.04-.923 4.207-1.256 6.5-1v-3h6v3c2.292-.256 4.46.077 6.5 1 .57 4.314 1.737 8.314 3.5 12h-3v6z"/><path style="opacity:1" fill="#171a12" d="M26.5 8.5c3.497.495 4.497 2.328 3 5.5-5.21.546-6.21-1.287-3-5.5z"/><path style="opacity:1" fill="#b9bbbd" d="M26.5 10.5c1.837.14 2.17.806 1 2-.797-.457-1.13-1.124-1-2z"/><path style="opacity:1" fill="#eccc69" d="M19.5 26.5c-4.737 6.203-9.904 6.536-15.5 1-2.035-3.781-1.868-7.448.5-11a16.568 16.568 0 0 1 4-2.5c5.395-1.817 8.062.016 8 5.5h3c-1.046 2.382-1.046 4.715 0 7z"/><path style="opacity:1" fill="#161910" d="M36.5 8.5c1.528.017 2.028.684 1.5 2a211.782 211.782 0 0 1-12.5 12c-1.021-.502-1.188-1.168-.5-2a193.775 193.775 0 0 0 11.5-12z"/><path style="opacity:1" fill="#e9c968" d="M59.5 17.5c2.192 9.976-1.808 14.476-12 13.5a25.15 25.15 0 0 1-4-4.5c1.046-2.285 1.046-4.618 0-7h3c-.285-1.788.048-3.455 1-5 4.71-1.772 8.71-.772 12 3z"/><path style="opacity:1" fill="#18150c" d="M50.5 15.5c1.588 1.141 2.92 2.641 4 4.5-1.45-.263-2.784-.096-4 .5 1.667 1 3 2.333 4 4a25.86 25.86 0 0 0-3 5l-3-4 4-1c-2.244-.503-3.578-1.837-4-4 1.047-1.556 1.714-3.223 2-5z"/><path style="opacity:1" fill="#0f0e0a" d="M3.5 15.5c.667 0 1 .333 1 1-2.368 3.552-2.535 7.219-.5 11 5.596 5.536 10.763 5.203 15.5-1l2-2c3.615.412 6.782 1.745 9.5 4 1.608-.27 2.774-1.103 3.5-2.5 1.612-.72 3.112-.554 4.5.5.708-.88 1.542-1.547 2.5-2l2 2a25.15 25.15 0 0 0 4 4.5c10.192.976 14.192-3.524 12-13.5 0-.667.333-1 1-1 3.709 11.926-.624 17.26-13 16-1.468 8.472-6.468 12.472-15 12 .409 8.071 4.742 12.071 13 12l1 6a256.882 256.882 0 0 1-32-1c1.488-4.05 4.488-5.883 9-5.5 1.536-3.036 3.87-5.203 7-6.5-8.594-.271-13.261-4.605-14-13 5.215-.798 9.715.536 13.5 4 .498-3.317.665-6.65.5-10h-3v-3c-1.96.638-3.793.638-5.5 0-5.71 7.009-12.043 7.676-19 2-3.422-4.905-3.256-9.572.5-14zm32 12c1.96.638 3.793.638 5.5 0l4.5 4.5c-4.86-.224-9.027 1.276-12.5 4.5a18.436 18.436 0 0 1-.5-6h3v-3z"/><path style="opacity:1" fill="#171b12" d="M33.5 16.5c4.192-.097 5.525 1.736 4 5.5-4.79.845-6.123-.989-4-5.5z"/><path style="opacity:1" fill="#b3b5b8" d="M34.5 18.5c1.837.14 2.17.806 1 2-.797-.457-1.13-1.124-1-2z"/><path style="opacity:1" fill="#1c190f" d="M10.5 15.5c1.557.966 2.89 2.3 4 4l-4 1c4.986 2.315 5.319 5.315 1 9a14.755 14.755 0 0 0-3-4.5c1.45.263 2.784.096 4-.5-1.935-.568-3.268-1.735-4-3.5 1.356-1.567 2.023-3.4 2-5.5z"/><path style="opacity:1" fill="#96c761" d="M37.5 34.5c8.443.197 8.776 2.697 1 7.5-2.079.808-4.079.641-6-.5a26.538 26.538 0 0 1 5-7z"/><path style="opacity:1" fill="#a9d077" d="M18.5 38.5c5.825-.755 9.825 1.578 12 7-6.365 1.815-10.365-.518-12-7z"/><path style="opacity:1" fill="#c59670" d="M28.5 52.5c2.25-.319 4.25.181 6 1.5l-4 1c-1.211.893-1.211 1.726 0 2.5 4.54-1.189 8.873-.522 13 2a85.002 85.002 0 0 1-26 0 26.706 26.706 0 0 1 7-1.5 33.668 33.668 0 0 1 4-5.5z"/></svg>