<?xml version="1.0" encoding="UTF-8"?>
<!DOCTYPE svg PUBLIC "-//W3C//DTD SVG 1.1//EN" "http://www.w3.org/Graphics/SVG/1.1/DTD/svg11.dtd">
<svg xmlns="http://www.w3.org/2000/svg" version="1.1" viewBox="0, 0, 50,50"  xmlns:xlink="http://www.w3.org/1999/xlink">
<g><path style="opacity:0.912" fill="#040402" d="M 55.5,1.5 C 60.8437,1.33398 66.1771,1.50065 71.5,2C 72.1097,3.94724 72.9431,5.78057 74,7.5C 75.987,5.91226 78.1537,5.07893 80.5,5C 84.0158,8.34862 87.3492,11.8486 90.5,15.5C 89.627,17.4134 88.627,19.2467 87.5,21C 88.9494,22.117 90.6161,22.7837 92.5,23C 93.1258,23.7504 93.6258,24.5838 94,25.5C 108.448,20.0922 118.781,24.4255 125,38.5C 127.897,55.7559 120.73,65.4226 103.5,67.5C 100.094,67.7044 96.9276,67.0377 94,65.5C 92.6358,83.0239 83.1358,91.0239 65.5,89.5C 65.5,93.5 65.5,97.5 65.5,101.5C 66.8734,101.343 68.2068,101.51 69.5,102C 71.7098,106.224 75.0431,108.89 79.5,110C 80.1667,111 80.8333,112 81.5,113C 84.8333,113.333 88.1667,113.667 91.5,114C 92.8876,117.717 93.8876,121.55 94.5,125.5C 72.1642,125.667 49.8308,125.5 27.5,125C 29.5,121.333 31.5,117.667 33.5,114C 37.8711,113.828 42.2044,113.328 46.5,112.5C 49.6184,109.093 52.6184,105.593 55.5,102C 57.4727,101.505 59.4727,101.338 61.5,101.5C 61.5,100.167 61.5,98.8333 61.5,97.5C 49.7515,99.757 40.9182,95.757 35,85.5C 33.7338,81.6049 33.2338,77.6049 33.5,73.5C 39.1764,73.3339 44.8431,73.5006 50.5,74C 54.7924,75.3957 58.2924,77.8957 61,81.5C 61.4996,74.8417 61.6663,68.175 61.5,61.5C 59.4727,61.6621 57.4727,61.4955 55.5,61C 54.8903,59.0528 54.0569,57.2194 53,55.5C 49.7782,59.0116 46.7782,59.0116 44,55.5C 35.3459,68.1333 24.1792,70.9666 10.5,64C 0.69422,54.9568 -1.13911,44.4568 5,32.5C 12.6089,23.3813 21.9423,21.048 33,25.5C 33.3742,24.5838 33.8742,23.7504 34.5,23C 36.3839,22.7837 38.0506,22.117 39.5,21C 37.9123,19.013 37.0789,16.8463 37,14.5C 40.3486,10.9842 43.8486,7.65082 47.5,4.5C 49.4134,5.37298 51.2467,6.37298 53,7.5C 54.1348,5.63013 54.9681,3.63013 55.5,1.5 Z M 73.5,55.5 C 76.9037,58.8628 80.0704,58.8628 83,55.5C 85.5,59.3333 88.6667,62.5 92.5,65C 82.083,63.3401 73.2496,66.1735 66,73.5C 65.5012,69.5138 65.3345,65.5138 65.5,61.5C 70.7936,62.8618 73.4603,60.8618 73.5,55.5 Z"/></g>
<g><path style="opacity:1" fill="#aed67b" d="M 58.5,5.5 C 61.8333,5.5 65.1667,5.5 68.5,5.5C 68.6591,9.33105 70.6591,11.6644 74.5,12.5C 75.8689,10.876 77.5355,10.376 79.5,11C 81,12.5 82.5,14 84,15.5C 84.624,17.4645 84.124,19.1311 82.5,20.5C 83.1851,24.6176 85.5184,26.6176 89.5,26.5C 89.5,29.8333 89.5,33.1667 89.5,36.5C 85.5184,36.3824 83.1851,38.3824 82.5,42.5C 84.124,43.8689 84.624,45.5355 84,47.5C 82.5,49 81,50.5 79.5,52C 77.5355,52.624 75.8689,52.124 74.5,50.5C 70.3824,51.1851 68.3824,53.5184 68.5,57.5C 65.1667,57.5 61.8333,57.5 58.5,57.5C 58.6176,53.5184 56.6176,51.1851 52.5,50.5C 51.1311,52.124 49.4645,52.624 47.5,52C 46,50.5 44.5,49 43,47.5C 42.376,45.5355 42.876,43.8689 44.5,42.5C 43.6644,38.6591 41.331,36.6591 37.5,36.5C 37.5,33.1667 37.5,29.8333 37.5,26.5C 41.331,26.3409 43.6644,24.3409 44.5,20.5C 42.876,19.1311 42.376,17.4645 43,15.5C 44.5,14 46,12.5 47.5,11C 49.4645,10.376 51.1311,10.876 52.5,12.5C 56.3409,11.6644 58.3409,9.33105 58.5,5.5 Z"/></g>
<g><path style="opacity:1" fill="#010100" d="M 75.5,16.5 C 76.6266,17.1217 77.6266,17.955 78.5,19C 69.3333,28.1667 60.1667,37.3333 51,46.5C 50.1667,45.6667 49.3333,44.8333 48.5,44C 57.7023,34.965 66.7023,25.7984 75.5,16.5 Z"/></g>
<g><path style="opacity:1" fill="#0e100b" d="M 52.5,17.5 C 60.8068,17.2804 63.1402,20.7804 59.5,28C 53.7867,31.0594 50.4533,29.3927 49.5,23C 49.8627,20.8077 50.8627,18.9744 52.5,17.5 Z"/></g>
<g><path style="opacity:1" fill="#d7d9dd" d="M 54.5,21.5 C 57.8606,22.2032 58.1939,23.5365 55.5,25.5C 53.3576,24.5629 53.0243,23.2296 54.5,21.5 Z"/></g>
<g><path style="opacity:1" fill="#f5d16d" d="M 18.5,27.5 C 23.449,26.9589 28.1156,27.7922 32.5,30C 33.4505,33.0567 33.7839,36.2234 33.5,39.5C 35.5,39.8333 37.5,40.1667 39.5,40.5C 39.2761,42.7867 38.6094,44.9534 37.5,47C 38.2887,48.6255 39.2887,50.1255 40.5,51.5C 33.996,63.5005 24.6627,66.3338 12.5,60C 4.65967,52.4355 3.493,43.9355 9,34.5C 11.7901,31.535 14.9567,29.2016 18.5,27.5 Z"/></g>
<g><path style="opacity:1" fill="#f4d06c" d="M 98.5,27.5 C 114.646,26.8124 122.146,34.479 121,50.5C 114.79,63.5215 105.29,66.6881 92.5,60C 89.6395,57.7806 87.6395,54.9473 86.5,51.5C 87.7113,50.1255 88.7113,48.6255 89.5,47C 85.8808,41.658 87.2142,39.158 93.5,39.5C 93.3354,36.4816 93.502,33.4816 94,30.5C 95.6516,29.6006 97.1516,28.6006 98.5,27.5 Z"/></g>
<g><path style="opacity:1" fill="#0d0b05" d="M 21.5,31.5 C 22.8333,31.5 24.1667,31.5 25.5,31.5C 25.2148,33.288 25.5481,34.9547 26.5,36.5C 29.254,38.1741 29.5873,39.8408 27.5,41.5C 25.9446,41.278 24.6113,40.6113 23.5,39.5C 22.5,39.8333 21.8333,40.5 21.5,41.5C 23.1526,43.1214 25.1526,44.2881 27.5,45C 28.5728,46.3129 29.2395,47.8129 29.5,49.5C 27.3938,52.5415 26.0605,55.8748 25.5,59.5C 24.1667,59.5 22.8333,59.5 21.5,59.5C 21.7852,57.712 21.4519,56.0453 20.5,54.5C 17.746,52.8259 17.4127,51.1592 19.5,49.5C 21.0554,49.722 22.3887,50.3887 23.5,51.5C 24.5,51.1667 25.1667,50.5 25.5,49.5C 24.286,47.9309 22.6193,47.0976 20.5,47C 18.8481,45.53 17.8481,43.6967 17.5,41.5C 19.6062,38.4585 20.9395,35.1252 21.5,31.5 Z"/></g>
<g><path style="opacity:1" fill="#0d0b05" d="M 101.5,31.5 C 102.833,31.5 104.167,31.5 105.5,31.5C 105.215,33.288 105.548,34.9547 106.5,36.5C 109.254,38.1741 109.587,39.8408 107.5,41.5C 105.945,41.278 104.611,40.6113 103.5,39.5C 102.5,39.8333 101.833,40.5 101.5,41.5C 103.153,43.1214 105.153,44.2881 107.5,45C 108.573,46.3129 109.24,47.8129 109.5,49.5C 107.394,52.5415 106.06,55.8748 105.5,59.5C 104.167,59.5 102.833,59.5 101.5,59.5C 101.785,57.712 101.452,56.0453 100.5,54.5C 97.746,52.8259 97.4127,51.1592 99.5,49.5C 101.055,49.722 102.389,50.3887 103.5,51.5C 104.5,51.1667 105.167,50.5 105.5,49.5C 104.286,47.9309 102.619,47.0976 100.5,47C 98.8481,45.53 97.8481,43.6967 97.5,41.5C 99.6062,38.4585 100.94,35.1252 101.5,31.5 Z"/></g>
<g><path style="opacity:1" fill="#0e100b" d="M 68.5,33.5 C 76.8068,33.2804 79.1402,36.7804 75.5,44C 69.7867,47.0594 66.4533,45.3927 65.5,39C 65.8627,36.8077 66.8627,34.9744 68.5,33.5 Z"/></g>
<g><path style="opacity:1" fill="#d7d9dd" d="M 70.5,37.5 C 73.8606,38.2032 74.1939,39.5365 71.5,41.5C 69.3576,40.5629 69.0243,39.2296 70.5,37.5 Z"/></g>
<g><path style="opacity:1" fill="#99cb63" d="M 78.5,69.5 C 82.1667,69.5 85.8333,69.5 89.5,69.5C 86.2992,81.7812 78.2992,87.1146 65.5,85.5C 66.9255,77.7467 71.2588,72.4134 78.5,69.5 Z"/></g>
<g><path style="opacity:1" fill="#add47a" d="M 37.5,77.5 C 50.2992,75.8854 58.2992,81.2188 61.5,93.5C 48.7008,95.1146 40.7008,89.7812 37.5,77.5 Z"/></g>
<g><path style="opacity:1" fill="#ca9a73" d="M 57.5,105.5 C 62.2258,104.617 66.2258,105.784 69.5,109C 64.8036,108.516 61.1369,110.183 58.5,114C 59.3333,114.833 60.1667,115.667 61,116.5C 63.3959,113.987 66.3959,112.987 70,113.5C 72.1667,113.667 74.3333,113.833 76.5,114C 77.1667,115 77.8333,116 78.5,117C 81.8168,117.498 85.1501,117.665 88.5,117.5C 88.5,118.833 88.5,120.167 88.5,121.5C 70.4969,121.667 52.4969,121.5 34.5,121C 35.1667,120 35.8333,119 36.5,118C 40.5,117.667 44.5,117.333 48.5,117C 51.7385,113.272 54.7385,109.439 57.5,105.5 Z"/></g>
</svg>
