<?xml version="1.0" encoding="UTF-8"?>
<!DOCTYPE svg PUBLIC "-//W3C//DTD SVG 1.1//EN" "http://www.w3.org/Graphics/SVG/1.1/DTD/svg11.dtd">
<svg xmlns="http://www.w3.org/2000/svg" version="1.1" width="128px" height="128px" style="shape-rendering:geometricPrecision; text-rendering:geometricPrecision; image-rendering:optimizeQuality; fill-rule:evenodd; clip-rule:evenodd" xmlns:xlink="http://www.w3.org/1999/xlink">
<g><path style="opacity:0.837" fill="#0a0a08" d="M 108.5,33.5 C 107.504,33.5858 106.671,33.2524 106,32.5C 105.667,29.8333 105.333,27.1667 105,24.5C 104.25,23.8742 103.416,23.3742 102.5,23C 76.3301,22.1699 50.3301,22.3365 24.5,23.5C 23.5084,23.3284 22.8417,23.6618 22.5,24.5C 21.3405,35.9927 21.1739,47.6593 22,59.5C 32.708,70.5425 43.708,81.2092 55,91.5C 57.4674,89.5187 60.3007,88.5187 63.5,88.5C 66.9965,89.1065 70.3298,89.9398 73.5,91C 84,80.5 94.5,70 105,59.5C 105.333,52.5 105.667,45.5 106,38.5C 106.708,37.6195 107.542,36.9528 108.5,36.5C 110.013,38.5161 110.847,40.8494 111,43.5C 114.038,46.2026 116.705,49.2026 119,52.5C 119.667,75.5 119.667,98.5 119,121.5C 118.215,123.286 117.049,124.786 115.5,126C 106.833,126.667 98.1667,126.667 89.5,126C 88.944,125.617 88.6107,125.117 88.5,124.5C 96.2357,122.745 104.236,121.911 112.5,122C 114.405,121.174 114.739,120.007 113.5,118.5C 97.1154,108.974 80.4487,99.9744 63.5,91.5C 46.7432,100.047 30.0765,108.88 13.5,118C 12.0745,119.714 12.4078,121.047 14.5,122C 37.8333,122.333 61.1667,122.667 84.5,123C 85.056,123.383 85.3893,123.883 85.5,124.5C 73.5186,125.832 61.1852,126.499 48.5,126.5C 36.1667,126.333 23.8333,126.167 11.5,126C 9.95118,124.786 8.78451,123.286 8,121.5C 7.83333,115 7.66667,108.5 7.5,102C 7.50337,95.1307 8.17004,88.6307 9.5,82.5C 10.1174,82.6107 10.6174,82.944 11,83.5C 11.4998,93.828 11.6665,104.161 11.5,114.5C 24.6712,108.038 37.6712,101.038 50.5,93.5C 38.1454,80.8126 25.8121,68.1459 13.5,55.5C 13.44,54.9569 13.1067,54.6236 12.5,54.5C 11.5025,62.1378 11.1692,69.8045 11.5,77.5C 10.8333,78.1667 10.1667,78.8333 9.5,79.5C 8.88258,79.3893 8.38258,79.056 8,78.5C 7.33333,69.8333 7.33333,61.1667 8,52.5C 10.6298,48.8683 13.6298,45.535 17,42.5C 17.3333,35.8333 17.6667,29.1667 18,22.5C 19.1667,21.3333 20.3333,20.1667 21.5,19C 28.1667,18.6667 34.8333,18.3333 41.5,18C 47.4423,13.0607 53.1089,7.72739 58.5,2C 61.8333,1.33333 65.1667,1.33333 68.5,2C 73.8333,7.33333 79.1667,12.6667 84.5,18C 91.5,18.3333 98.5,18.6667 105.5,19C 110.259,23.3532 111.259,28.1865 108.5,33.5 Z"/></g>
<g><path style="opacity:1" fill="#83adf4" d="M 77.5,17.5 C 68.1667,18.8333 58.8333,18.8333 49.5,17.5C 53.3007,12.3567 57.9674,8.35675 63.5,5.5C 69.0716,8.40202 73.7383,12.402 77.5,17.5 Z"/></g>
<g><path style="opacity:1" fill="#536faf" d="M 49.5,17.5 C 58.8333,18.8333 68.1667,18.8333 77.5,17.5C 78.2891,17.7828 78.9558,18.2828 79.5,19C 68.8333,19.6667 58.1667,19.6667 47.5,19C 48.0442,18.2828 48.7109,17.7828 49.5,17.5 Z"/></g>
<g><path style="opacity:1" fill="#f3f5f6" d="M 24.5,23.5 C 49.7412,23.1721 74.9079,23.5054 100,24.5C 100.667,36.1667 100.667,47.8333 100,59.5C 91.8641,68.6369 83.3641,77.4702 74.5,86C 72.8333,86.6667 71.1667,86.6667 69.5,86C 65.4223,82.8659 61.4223,82.8659 57.5,86C 55.8333,86.6667 54.1667,86.6667 52.5,86C 42.6396,76.1396 32.8063,66.3063 23,56.5C 22.5002,45.8385 22.3335,35.1719 22.5,24.5C 22.8417,23.6618 23.5084,23.3284 24.5,23.5 Z"/></g>
<g><path style="opacity:0.992" fill="#cad2d6" d="M 24.5,23.5 C 50.3301,22.3365 76.3301,22.1699 102.5,23C 103.416,23.3742 104.25,23.8742 105,24.5C 105.333,27.1667 105.667,29.8333 106,32.5C 106.671,33.2524 107.504,33.5858 108.5,33.5C 108.5,34.5 108.5,35.5 108.5,36.5C 107.542,36.9528 106.708,37.6195 106,38.5C 105.667,45.5 105.333,52.5 105,59.5C 94.5,70 84,80.5 73.5,91C 70.3298,89.9398 66.9965,89.1065 63.5,88.5C 60.3007,88.5187 57.4674,89.5187 55,91.5C 43.708,81.2092 32.708,70.5425 22,59.5C 21.1739,47.6593 21.3405,35.9927 22.5,24.5C 22.3335,35.1719 22.5002,45.8385 23,56.5C 32.8063,66.3063 42.6396,76.1396 52.5,86C 54.1667,86.6667 55.8333,86.6667 57.5,86C 61.4223,82.8659 65.4223,82.8659 69.5,86C 71.1667,86.6667 72.8333,86.6667 74.5,86C 83.3641,77.4702 91.8641,68.6369 100,59.5C 100.667,47.8333 100.667,36.1667 100,24.5C 74.9079,23.5054 49.7412,23.1721 24.5,23.5 Z"/></g>
<g><path style="opacity:1" fill="#151515" d="M 57.5,33.5 C 68.3198,31.9242 76.1531,35.9242 81,45.5C 81.9369,50.4033 81.2702,55.0699 79,59.5C 75.2544,63.3927 71.5877,63.3927 68,59.5C 62.1478,63.0265 57.8145,61.6932 55,55.5C 53.2817,49.8433 54.7817,45.3433 59.5,42C 61.8991,41.289 64.2324,41.4557 66.5,42.5C 67.5321,40.9604 68.8654,40.4604 70.5,41C 71.4749,46.7412 71.8082,52.5746 71.5,58.5C 76.565,58.426 78.8983,55.7593 78.5,50.5C 76.1936,40.3633 69.8603,35.8633 59.5,37C 46.6618,44.3585 45.3285,53.3585 55.5,64C 58.2065,65.9076 61.2065,66.741 64.5,66.5C 64.5,67.5 64.5,68.5 64.5,69.5C 55.1781,69.6808 49.0114,65.3474 46,56.5C 44.0017,45.8297 47.8351,38.163 57.5,33.5 Z"/></g>
<g><path style="opacity:1" fill="#e4e6e7" d="M 60.5,45.5 C 66.501,45.4565 68.6677,48.4565 67,54.5C 64.1567,59.6848 61.1567,59.6848 58,54.5C 56.9271,50.9003 57.7605,47.9003 60.5,45.5 Z"/></g>
<g><path style="opacity:1" fill="#7498d1" d="M 15.5,49.5 C 16.6491,49.7911 17.3158,50.6244 17.5,52C 16.9991,54.8358 15.9991,54.6691 14.5,51.5C 14.8627,50.8165 15.1961,50.1499 15.5,49.5 Z"/></g>
<g><path style="opacity:1" fill="#7397cf" d="M 109.5,49.5 C 113.34,50.5678 113.507,52.2345 110,54.5C 109.506,52.8659 109.34,51.1992 109.5,49.5 Z"/></g>
<g><path style="opacity:1" fill="#9a9b9c" d="M 13.5,55.5 C 12.8333,62.8333 12.1667,70.1667 11.5,77.5C 11.1692,69.8045 11.5025,62.1378 12.5,54.5C 13.1067,54.6236 13.44,54.9569 13.5,55.5 Z"/></g>
<g><path style="opacity:0.999" fill="#f2f4f5" d="M 13.5,55.5 C 25.8121,68.1459 38.1454,80.8126 50.5,93.5C 37.6712,101.038 24.6712,108.038 11.5,114.5C 11.6665,104.161 11.4998,93.828 11,83.5C 10.6174,82.944 10.1174,82.6107 9.5,82.5C 9.5,81.5 9.5,80.5 9.5,79.5C 10.1667,78.8333 10.8333,78.1667 11.5,77.5C 12.1667,70.1667 12.8333,62.8333 13.5,55.5 Z"/></g>
<g><path style="opacity:1" fill="#dbe5e9" d="M 113.5,55.5 C 114.497,74.9929 114.83,94.6596 114.5,114.5C 111.996,113.416 109.663,112.083 107.5,110.5C 108.831,102.695 109.498,94.5284 109.5,86C 109.5,77.6597 109.166,69.493 108.5,61.5C 110.167,59.5 111.833,57.5 113.5,55.5 Z"/></g>
<g><path style="opacity:1" fill="#707578" d="M 113.5,55.5 C 113.56,54.9569 113.893,54.6236 114.5,54.5C 115.828,74.6627 115.828,94.6627 114.5,114.5C 114.83,94.6596 114.497,74.9929 113.5,55.5 Z"/></g>
<g><path style="opacity:1" fill="#f4f6f7" d="M 108.5,61.5 C 109.166,69.493 109.5,77.6597 109.5,86C 109.498,94.5284 108.831,102.695 107.5,110.5C 96.9272,105.258 86.5938,99.5916 76.5,93.5C 86.8543,82.479 97.521,71.8123 108.5,61.5 Z"/></g>
<g><path style="opacity:0.999" fill="#f8cf01" d="M 88.5,124.5 C 87.5,124.5 86.5,124.5 85.5,124.5C 85.3893,123.883 85.056,123.383 84.5,123C 61.1667,122.667 37.8333,122.333 14.5,122C 12.4078,121.047 12.0745,119.714 13.5,118C 30.0765,108.88 46.7432,100.047 63.5,91.5C 80.4487,99.9744 97.1154,108.974 113.5,118.5C 114.739,120.007 114.405,121.174 112.5,122C 104.236,121.911 96.2357,122.745 88.5,124.5 Z"/></g>
</svg>
