<?xml version="1.0" encoding="UTF-8"?>
<!DOCTYPE svg PUBLIC "-//W3C//DTD SVG 1.1//EN" "http://www.w3.org/Graphics/SVG/1.1/DTD/svg11.dtd">
<svg xmlns="http://www.w3.org/2000/svg" version="1.1" width="128px" height="128px" style="shape-rendering:geometricPrecision; text-rendering:geometricPrecision; image-rendering:optimizeQuality; fill-rule:evenodd; clip-rule:evenodd" xmlns:xlink="http://www.w3.org/1999/xlink">
<g><path style="opacity:0.782" fill="#090d0e" d="M 127.5,33.5 C 127.5,35.1667 127.5,36.8333 127.5,38.5C 124.162,44.1677 119.496,48.501 113.5,51.5C 110.34,79.6682 96.0066,99.8349 70.5,112C 54.6015,118.146 38.4348,118.98 22,114.5C 20.9701,114.164 20.4701,113.497 20.5,112.5C 20.9623,111.12 21.9623,110.453 23.5,110.5C 63.0908,118.29 90.5908,103.624 106,66.5C 107.478,61.2573 108.312,55.924 108.5,50.5C 99.9049,48.8843 95.5716,43.551 95.5,34.5C 95.7208,30.7246 97.0541,27.3913 99.5,24.5C 95.6846,19.5281 90.6846,16.3614 84.5,15C 77.305,14.7375 70.305,14.5708 63.5,14.5C 63.5,13.5 63.5,12.5 63.5,11.5C 79.0898,6.77262 92.5898,10.106 104,21.5C 107.216,19.8067 110.383,17.9733 113.5,16C 118.439,14.9368 121.106,16.9368 121.5,22C 121.225,24.9312 120.559,27.7645 119.5,30.5C 122.406,31.0806 125.073,32.0806 127.5,33.5 Z"/></g>
<g><path style="opacity:0.998" fill="#a1dcfb" d="M 63.5,14.5 C 70.305,14.5708 77.305,14.7375 84.5,15C 90.6846,16.3614 95.6846,19.5281 99.5,24.5C 97.0541,27.3913 95.7208,30.7246 95.5,34.5C 95.5716,43.551 99.9049,48.8843 108.5,50.5C 108.312,55.924 107.478,61.2573 106,66.5C 90.5908,103.624 63.0908,118.29 23.5,110.5C 21.9623,110.453 20.9623,111.12 20.5,112.5C 19.1667,111.833 17.8333,111.167 16.5,110.5C 16.4894,108.983 15.8228,107.816 14.5,107C 11.0879,105.545 7.9212,103.712 5,101.5C 4.50649,99.8659 4.33982,98.1992 4.5,96.5C 9.9505,96.6354 15.2838,95.9687 20.5,94.5C 28.8859,94.0348 37.2192,93.2015 45.5,92C 61.5791,84.4459 67.7457,71.9459 64,54.5C 62.7723,50.9413 61.1056,47.608 59,44.5C 54.9289,41.25 51.0956,37.9167 47.5,34.5C 49.8844,28.402 53.7177,23.402 59,19.5C 59.49,18.2068 59.6567,16.8734 59.5,15.5C 60.8333,15.1667 62.1667,14.8333 63.5,14.5 Z"/></g>
<g><path style="opacity:0.807" fill="#090c0e" d="M 59.5,15.5 C 59.6567,16.8734 59.49,18.2068 59,19.5C 53.7177,23.402 49.8844,28.402 47.5,34.5C 45.9119,36.5273 45.4119,38.8606 46,41.5C 60.4933,50.8649 63.4933,63.1982 55,78.5C 48.148,85.8977 39.648,89.3977 29.5,89C 26.7368,91.3742 23.7368,93.2075 20.5,94.5C 15.2838,95.9687 9.9505,96.6354 4.5,96.5C 4.33982,98.1992 4.50649,99.8659 5,101.5C 7.9212,103.712 11.0879,105.545 14.5,107C 15.8228,107.816 16.4894,108.983 16.5,110.5C 9.78608,110.313 4.11942,107.646 -0.5,102.5C -0.5,100.5 -0.5,98.5 -0.5,96.5C 0.646381,94.525 2.31305,93.025 4.5,92C 11.3242,92.3121 17.6575,90.8121 23.5,87.5C 14.5705,83.4731 7.40384,77.4731 2,69.5C 0.772804,65.4087 1.60614,61.9087 4.5,59C 8.46422,57.7332 12.4642,57.2332 16.5,57.5C 11.3006,48.6835 9.80056,39.3502 12,29.5C 14.9087,26.6061 18.4087,25.7728 22.5,27C 27.8299,31.8198 33.8299,35.6531 40.5,38.5C 43.2716,29.5532 48.2716,22.0532 55.5,16C 56.7932,15.51 58.1266,15.3433 59.5,15.5 Z"/></g>
<g><path style="opacity:1" fill="#75c6f1" d="M 114.5,20.5 C 115.725,21.1522 116.392,22.3189 116.5,24C 115.844,28.4555 114.511,32.6222 112.5,36.5C 124.098,33.5957 125.432,36.0957 116.5,44C 108.929,49.8219 103.429,48.3219 100,39.5C 98.2817,33.8433 99.7817,29.3433 104.5,26C 108.346,24.9141 111.68,23.0807 114.5,20.5 Z"/></g>
<g><path style="opacity:1" fill="#9fd9f8" d="M 16.5,30.5 C 17.8734,30.3433 19.2068,30.51 20.5,31C 27.9232,38.0484 36.5899,43.0484 46.5,46C 54.7763,51.7429 57.6097,59.5762 55,69.5C 50.3773,81.7326 41.5439,86.566 28.5,84C 18.7733,81.5517 11.2733,76.0517 6,67.5C 5.27969,65.8876 5.44636,64.3876 6.5,63C 11.8333,62.3333 17.1667,62.3333 22.5,63C 26.6079,66.2025 31.2745,67.7025 36.5,67.5C 36.67,66.1779 36.3366,65.0113 35.5,64C 30.3708,63.6846 25.8708,61.8513 22,58.5C 16.0636,49.8881 14.2303,40.5548 16.5,30.5 Z"/></g>
<g><path style="opacity:1" fill="#13171a" d="M 81.5,40.5 C 80.5,40.5 79.5,40.5 78.5,40.5C 78.0072,36.6618 79.6738,34.6618 83.5,34.5C 87.4997,34.6629 88.9997,36.6629 88,40.5C 87.2825,41.4506 86.4491,41.6172 85.5,41C 84.2886,36.5877 82.9553,36.421 81.5,40.5 Z"/></g>
<g><path style="opacity:1" fill="#77c8f2" d="M 47.5,34.5 C 51.0956,37.9167 54.9289,41.25 59,44.5C 61.1056,47.608 62.7723,50.9413 64,54.5C 67.7457,71.9459 61.5791,84.4459 45.5,92C 37.2192,93.2015 28.8859,94.0348 20.5,94.5C 23.7368,93.2075 26.7368,91.3742 29.5,89C 39.648,89.3977 48.148,85.8977 55,78.5C 63.4933,63.1982 60.4933,50.8649 46,41.5C 45.4119,38.8606 45.9119,36.5273 47.5,34.5 Z"/></g>
<g><path style="opacity:1" fill="#f7fafb" d="M 78.5,40.5 C 79.5,40.5 80.5,40.5 81.5,40.5C 87.1567,42.6259 87.8233,45.7926 83.5,50C 77.881,52.8501 74.2143,51.3501 72.5,45.5C 72.6618,41.6738 74.6618,40.0072 78.5,40.5 Z"/></g>
</svg>
