<?xml version="1.0" encoding="UTF-8"?>
<!DOCTYPE svg PUBLIC "-//W3C//DTD SVG 1.1//EN" "http://www.w3.org/Graphics/SVG/1.1/DTD/svg11.dtd">
<svg xmlns="http://www.w3.org/2000/svg" version="1.1" width="128px" height="128px" style="shape-rendering:geometricPrecision; text-rendering:geometricPrecision; image-rendering:optimizeQuality; fill-rule:evenodd; clip-rule:evenodd" xmlns:xlink="http://www.w3.org/1999/xlink">
<g><path style="opacity:0.906" fill="#0a0600" d="M 56.5,-0.5 C 58.1667,-0.5 59.8333,-0.5 61.5,-0.5C 65.595,4.66029 69.595,4.66029 73.5,-0.5C 76.8333,-0.5 80.1667,-0.5 83.5,-0.5C 87.405,4.66029 91.405,4.66029 95.5,-0.5C 97.1667,-0.5 98.8333,-0.5 100.5,-0.5C 102.11,2.18882 102.943,5.18882 103,8.5C 110.371,12.7803 112.204,18.7803 108.5,26.5C 114.593,26.7643 117.76,29.7643 118,35.5C 117.439,36.0219 116.772,36.3552 116,36.5C 113.844,35.0149 111.677,33.5149 109.5,32C 107.553,31.0087 105.553,30.6753 103.5,31C 116.113,43.3957 124.113,58.2291 127.5,75.5C 127.5,81.8333 127.5,88.1667 127.5,94.5C 124.707,104.791 118.041,111.291 107.5,114C 93.875,115.551 80.2083,115.884 66.5,115C 65.944,114.617 65.6107,114.117 65.5,113.5C 65.4142,112.504 65.7476,111.671 66.5,111C 78.5,110.667 90.5,110.333 102.5,110C 105.292,109.458 107.958,108.624 110.5,107.5C 117.561,104.075 121.728,98.4088 123,90.5C 123.344,64.6886 113.177,44.1886 92.5,29C 90.2568,28.2034 88.9234,28.3701 88.5,29.5C 89.7927,31.2959 91.2927,32.9625 93,34.5C 93.3008,37.0915 92.1341,37.9248 89.5,37C 86.9841,34.3167 84.3174,31.8167 81.5,29.5C 80.52,32.0865 80.1866,34.7531 80.5,37.5C 79.1667,37.5 77.8333,37.5 76.5,37.5C 76.8134,34.7531 76.48,32.0865 75.5,29.5C 72.6826,31.8167 70.0159,34.3167 67.5,37C 66.2068,37.49 64.8734,37.6567 63.5,37.5C 63.3505,36.448 63.5172,35.448 64,34.5C 65.6851,32.9825 67.1851,31.3159 68.5,29.5C 67.277,28.3861 65.9437,28.2195 64.5,29C 57.8753,33.2907 52.2086,38.624 47.5,45C 46.552,45.4828 45.552,45.6495 44.5,45.5C 44.4814,42.3407 45.6481,39.674 48,37.5C 48.8289,32.467 48.6623,27.467 47.5,22.5C 40.598,24.7378 33.598,25.0711 26.5,23.5C 26.44,22.9569 26.1067,22.6236 25.5,22.5C 24.1863,27.6523 24.1863,32.6523 25.5,37.5C 30.561,38.0284 35.061,40.0284 39,43.5C 39.1693,55.3405 39.6693,67.0072 40.5,78.5C 47.0261,77.9216 52.8594,79.5882 58,83.5C 59.4495,93.3949 59.9495,103.395 59.5,113.5C 59.8373,117.994 57.8373,120.828 53.5,122C 46.4342,124.114 39.4342,123.947 32.5,121.5C 29.9161,124.28 26.9161,126.28 23.5,127.5C 18.1667,127.5 12.8333,127.5 7.5,127.5C 4.56635,126.361 1.89969,124.694 -0.5,122.5C -0.5,116.5 -0.5,110.5 -0.5,104.5C 1.64301,102.926 3.97634,101.592 6.5,100.5C 7.33301,81.8423 7.83301,63.1756 8,44.5C 10.8669,40.0286 15.0336,37.6953 20.5,37.5C 20.3336,29.4931 20.5003,21.4931 21,13.5C 25.3944,9.22599 30.7277,7.22599 37,7.5C 52.0428,7.84946 57.7095,15.5161 54,30.5C 56.5,28.6667 59,26.8333 61.5,25C 54.947,17.3146 53.2803,8.81457 56.5,-0.5 Z M 100.5,14.5 C 103.05,14.8844 104.383,16.3844 104.5,19C 103.41,23.3773 100.743,24.8773 96.5,23.5C 98.6582,20.8515 99.9916,17.8515 100.5,14.5 Z"/></g>
<g><path style="opacity:1" fill="#f2d100" d="M 93.5,7.5 C 92.5628,12.81 90.7295,17.81 88,22.5C 87.3292,23.2524 86.4959,23.5858 85.5,23.5C 87.5107,20.131 88.5107,16.4643 88.5,12.5C 87.1779,12.33 86.0113,12.6634 85,13.5C 80.6667,29.5 76.3333,29.5 72,13.5C 70.1197,12.0705 68.6197,12.4038 67.5,14.5C 68.8333,17.5 70.1667,20.5 71.5,23.5C 70.277,24.6139 68.9437,24.7805 67.5,24C 61.647,18.7724 59.147,12.2724 60,4.5C 61.9857,6.7415 64.4857,7.7415 67.5,7.5C 71.4879,7.00412 75.1545,5.67079 78.5,3.5C 80.6264,4.39837 82.6264,5.56503 84.5,7C 87.4816,7.49796 90.4816,7.66463 93.5,7.5 Z"/></g>
<g><path style="opacity:1" fill="#f0b707" d="M 85.5,23.5 C 86.4959,23.5858 87.3292,23.2524 88,22.5C 90.7295,17.81 92.5628,12.81 93.5,7.5C 94.3149,6.16337 95.4815,5.16337 97,4.5C 97.8233,11.6925 95.6567,17.8592 90.5,23C 88.7561,24.4544 87.0894,24.6211 85.5,23.5 Z"/></g>
<g><path style="opacity:1" fill="#f5d300" d="M 29.5,12.5 C 34.1785,12.3342 38.8452,12.5008 43.5,13C 50.1755,16.0243 49.8421,18.3576 42.5,20C 38.1667,20.6667 33.8333,20.6667 29.5,20C 24.4364,17.6427 24.4364,15.1427 29.5,12.5 Z"/></g>
<g><path style="opacity:1" fill="#693e00" d="M 26.5,23.5 C 25.5139,27.97 25.1805,32.6367 25.5,37.5C 24.1863,32.6523 24.1863,27.6523 25.5,22.5C 26.1067,22.6236 26.44,22.9569 26.5,23.5 Z"/></g>
<g><path style="opacity:0.999" fill="#ed8f00" d="M 44.5,45.5 C 43.5604,47.6125 42.3937,49.6125 41,51.5C 40.5002,60.4938 40.3336,69.4938 40.5,78.5C 39.6693,67.0072 39.1693,55.3405 39,43.5C 35.061,40.0284 30.561,38.0284 25.5,37.5C 25.1805,32.6367 25.5139,27.97 26.5,23.5C 33.598,25.0711 40.598,24.7378 47.5,22.5C 48.6623,27.467 48.8289,32.467 48,37.5C 45.6481,39.674 44.4814,42.3407 44.5,45.5 Z"/></g>
<g><path style="opacity:1" fill="#fcd900" d="M 88.5,29.5 C 96.7321,33.8967 103.232,40.23 108,48.5C 114.855,59.5598 118.355,71.5598 118.5,84.5C 117.209,84.2627 116.209,84.596 115.5,85.5C 114.675,89.9277 113.009,94.0944 110.5,98C 106.479,100.34 102.146,101.674 97.5,102C 95.9372,104.476 96.6038,105.976 99.5,106.5C 105.396,105.799 110.396,103.466 114.5,99.5C 115.043,99.56 115.376,99.8933 115.5,100.5C 113.395,102.592 111.728,104.925 110.5,107.5C 107.958,108.624 105.292,109.458 102.5,110C 90.5,110.333 78.5,110.667 66.5,111C 65.7476,111.671 65.4142,112.504 65.5,113.5C 63.5,113.5 61.5,113.5 59.5,113.5C 59.9495,103.395 59.4495,93.3949 58,83.5C 52.8594,79.5882 47.0261,77.9216 40.5,78.5C 40.3336,69.4938 40.5002,60.4938 41,51.5C 42.3937,49.6125 43.5604,47.6125 44.5,45.5C 45.552,45.6495 46.552,45.4828 47.5,45C 52.2086,38.624 57.8753,33.2907 64.5,29C 65.9437,28.2195 67.277,28.3861 68.5,29.5C 67.1851,31.3159 65.6851,32.9825 64,34.5C 63.5172,35.448 63.3505,36.448 63.5,37.5C 64.8734,37.6567 66.2068,37.49 67.5,37C 70.0159,34.3167 72.6826,31.8167 75.5,29.5C 76.48,32.0865 76.8134,34.7531 76.5,37.5C 77.8333,37.5 79.1667,37.5 80.5,37.5C 80.1866,34.7531 80.52,32.0865 81.5,29.5C 84.3174,31.8167 86.9841,34.3167 89.5,37C 92.1341,37.9248 93.3008,37.0915 93,34.5C 91.2927,32.9625 89.7927,31.2959 88.5,29.5 Z"/></g>
<g><path style="opacity:1" fill="#ecb507" d="M 110.5,107.5 C 111.728,104.925 113.395,102.592 115.5,100.5C 115.376,99.8933 115.043,99.56 114.5,99.5C 117.375,95.3416 118.708,90.6749 118.5,85.5C 117.5,85.5 116.5,85.5 115.5,85.5C 116.209,84.596 117.209,84.2627 118.5,84.5C 118.355,71.5598 114.855,59.5598 108,48.5C 103.232,40.23 96.7321,33.8967 88.5,29.5C 88.9234,28.3701 90.2568,28.2034 92.5,29C 113.177,44.1886 123.344,64.6886 123,90.5C 121.728,98.4088 117.561,104.075 110.5,107.5 Z"/></g>
<g><path style="opacity:1" fill="#f4d300" d="M 16.5,42.5 C 21.5111,42.3341 26.5111,42.5007 31.5,43C 36.8838,45.938 36.5504,48.2713 30.5,50C 26.1667,50.6667 21.8333,50.6667 17.5,50C 11.2988,48.1281 10.9654,45.6281 16.5,42.5 Z"/></g>
<g><path style="opacity:1" fill="#0f0c01" d="M 77.5,46.5 C 79.8577,49.629 83.0243,51.9623 87,53.5C 88.2525,56.0135 88.7525,58.6802 88.5,61.5C 87.5,61.5 86.5,61.5 85.5,61.5C 85.6757,57.8079 84.0091,55.8079 80.5,55.5C 80.1866,58.2469 80.52,60.9135 81.5,63.5C 88.4276,66.02 90.2609,70.6867 87,77.5C 85.4478,78.9661 83.6145,79.9661 81.5,80.5C 80.9955,83.3418 79.3289,84.6751 76.5,84.5C 76.5,83.1667 76.5,81.8333 76.5,80.5C 70.6999,79.6994 67.6999,76.366 67.5,70.5C 68.8734,70.3433 70.2068,70.51 71.5,71C 72.0293,73.4286 73.3626,75.2619 75.5,76.5C 76.4841,73.5719 76.8174,70.5719 76.5,67.5C 71.4482,66.9509 68.4482,64.1175 67.5,59C 68.4073,53.9254 71.4073,51.0921 76.5,50.5C 76.4326,49.0413 76.7659,47.7079 77.5,46.5 Z"/></g>
<g><path style="opacity:1" fill="#fa9501" d="M 12.5,52.5 C 19.8028,55.1624 27.1361,55.1624 34.5,52.5C 35.8333,61.5 35.8333,70.5 34.5,79.5C 31.9058,80.5922 29.7391,82.2589 28,84.5C 27.8303,90.5275 27.3303,96.5275 26.5,102.5C 22.0954,100.253 17.4288,99.2535 12.5,99.5C 12.5,83.8333 12.5,68.1667 12.5,52.5 Z"/></g>
<g><path style="opacity:1" fill="#e7c800" d="M 74.5,54.5 C 75.7647,55.5145 76.4313,57.0145 76.5,59C 75.7402,64.651 74.4069,64.651 72.5,59C 72.5186,57.167 73.1852,55.667 74.5,54.5 Z"/></g>
<g><path style="opacity:1" fill="#eccb00" d="M 80.5,67.5 C 83.0496,67.8844 84.3829,69.3844 84.5,72C 84.5053,74.1628 83.5053,75.6628 81.5,76.5C 80.5159,73.5719 80.1826,70.5719 80.5,67.5 Z"/></g>
<g><path style="opacity:1" fill="#ead835" d="M 37.5,82.5 C 43.072,81.9896 48.4053,82.8229 53.5,85C 54.8333,86.3333 54.8333,87.6667 53.5,89C 48.3975,91.3433 43.0642,92.01 37.5,91C 29.6849,88.213 29.6849,85.3797 37.5,82.5 Z"/></g>
<g><path style="opacity:1" fill="#161203" d="M 115.5,85.5 C 116.5,85.5 117.5,85.5 118.5,85.5C 118.708,90.6749 117.375,95.3416 114.5,99.5C 110.396,103.466 105.396,105.799 99.5,106.5C 96.6038,105.976 95.9372,104.476 97.5,102C 102.146,101.674 106.479,100.34 110.5,98C 113.009,94.0944 114.675,89.9277 115.5,85.5 Z"/></g>
<g><path style="opacity:1" fill="#fdda00" d="M 53.5,93.5 C 54.4916,100.648 54.825,107.981 54.5,115.5C 53.158,116.793 51.4913,117.626 49.5,118C 44.8333,118.667 40.1667,118.667 35.5,118C 34.0692,117.535 32.9025,116.701 32,115.5C 31.1687,108.144 31.3354,100.811 32.5,93.5C 39.5254,96.1629 46.5254,96.1629 53.5,93.5 Z"/></g>
<g><path style="opacity:1" fill="#716100" d="M 53.5,93.5 C 53.56,92.9569 53.8933,92.6236 54.5,92.5C 55.8199,100.323 55.8199,107.99 54.5,115.5C 54.825,107.981 54.4916,100.648 53.5,93.5 Z"/></g>
<g><path style="opacity:1" fill="#efdd36" d="M 7.5,104.5 C 13.5771,104.196 19.5771,104.696 25.5,106C 26.3567,106.689 27.0233,107.522 27.5,108.5C 25.9969,110.422 23.9969,111.588 21.5,112C 17.1667,112.667 12.8333,112.667 8.5,112C 2.26915,110.079 1.93581,107.579 7.5,104.5 Z"/></g>
<g><path style="opacity:1" fill="#e9c900" d="M 3.5,114.5 C 11.1671,117.111 18.8337,117.111 26.5,114.5C 28.2791,118.096 27.2791,120.596 23.5,122C 16.5,124.552 9.99999,123.718 4,119.5C 3.50649,117.866 3.33982,116.199 3.5,114.5 Z"/></g>
</svg>
