<?xml version="1.0" encoding="UTF-8"?>
<!DOCTYPE svg PUBLIC "-//W3C//DTD SVG 1.1//EN" "http://www.w3.org/Graphics/SVG/1.1/DTD/svg11.dtd">
<svg xmlns="http://www.w3.org/2000/svg" version="1.1" width="256px" height="256px" style="shape-rendering:geometricPrecision; text-rendering:geometricPrecision; image-rendering:optimizeQuality; fill-rule:evenodd; clip-rule:evenodd" xmlns:xlink="http://www.w3.org/1999/xlink">
<g><path style="opacity:0.895" fill="#070605" d="M 168.5,100.5 C 167.053,99.8658 166.387,98.6991 166.5,97C 168.468,88.9465 168.968,80.7798 168,72.5C 162.833,65.3333 157.667,58.1667 152.5,51C 135.833,50.3333 119.167,50.3333 102.5,51C 97.3333,58.1667 92.1667,65.3333 87,72.5C 83.9787,90.2759 89.1454,105.109 102.5,117C 119.167,117.667 135.833,117.667 152.5,117C 154.522,113.466 157.522,111.966 161.5,112.5C 161.5,113.833 161.5,115.167 161.5,116.5C 182.169,116.333 202.836,116.5 223.5,117C 228.036,117.544 231.536,119.71 234,123.5C 235.649,163.774 235.983,204.107 235,244.5C 233.932,249.235 231.099,252.402 226.5,254C 159.833,254.667 93.1667,254.667 26.5,254C 22.3333,252.5 19.5,249.667 18,245.5C 17.3333,237.167 17.3333,228.833 18,220.5C 18.6708,219.748 19.5041,219.414 20.5,219.5C 21.4584,219.953 22.2917,220.619 23,221.5C 23.3333,229.5 23.6667,237.5 24,245.5C 25.214,247.049 26.714,248.215 28.5,249C 93.8333,249.667 159.167,249.667 224.5,249C 226.667,248.167 228.167,246.667 229,244.5C 229.667,205.167 229.667,165.833 229,126.5C 228.167,125 227,123.833 225.5,123C 159.5,122.333 93.5,122.333 27.5,123C 25.6667,123.5 24.5,124.667 24,126.5C 23.6667,152.167 23.3333,177.833 23,203.5C 22.0053,204.066 21.172,204.733 20.5,205.5C 19.5041,205.586 18.6708,205.252 18,204.5C 17.0265,177.438 17.3598,150.438 19,123.5C 21.4627,119.684 24.9627,117.517 29.5,117C 50.8333,116.667 72.1667,116.333 93.5,116C 87.5771,109.987 83.9104,102.821 82.5,94.5C 68.3697,94.215 62.5364,87.215 65,73.5C 68.0692,67.0416 73.2359,63.7083 80.5,63.5C 80.3335,53.8276 80.5002,44.1609 81,34.5C 82.0631,22.1024 88.7298,14.7691 101,12.5C 102.749,12.7483 103.582,13.7483 103.5,15.5C 98.7139,17.8281 94.2139,20.8281 90,24.5C 86.7875,31.0906 85.6209,38.0906 86.5,45.5C 114.502,45.6666 142.502,45.5 170.5,45C 184.769,30.9928 183.602,18.4928 167,7.5C 163.957,12.8768 159.457,16.3768 153.5,18C 142.167,18.6667 130.833,18.6667 119.5,18C 118.934,17.0053 118.267,16.172 117.5,15.5C 117.953,14.5416 118.619,13.7083 119.5,13C 131.167,12.6667 142.833,12.3333 154.5,12C 158.817,9.68487 161.65,6.18487 163,1.5C 163.725,0.94149 164.558,0.608156 165.5,0.5C 182.002,7.16975 188.168,19.1697 184,36.5C 181.973,41.2155 178.973,45.2155 175,48.5C 174.501,53.4889 174.334,58.4889 174.5,63.5C 188.824,65.8202 193.658,73.8202 189,87.5C 184.84,92.9966 179.34,95.3299 172.5,94.5C 172.625,97.6082 171.292,99.6082 168.5,100.5 Z"/></g>
<g><path style="opacity:0.833" fill="#000000" d="M 9.5,7.5 C 13.7943,7.19753 16.961,8.86419 19,12.5C 19.6667,16.8333 19.6667,21.1667 19,25.5C 16.0453,29.2765 12.212,30.4432 7.5,29C 5.66667,28.5 4.5,27.3333 4,25.5C 3.33333,20.8333 3.33333,16.1667 4,11.5C 5.49981,9.5313 7.33314,8.19796 9.5,7.5 Z M 10.5,13.5 C 11.4959,13.4142 12.3292,13.7476 13,14.5C 13.498,17.4816 13.6646,20.4816 13.5,23.5C 11.549,23.7733 10.049,23.1066 9,21.5C 8.28154,18.5929 8.78154,15.9262 10.5,13.5 Z"/></g>
<g><path style="opacity:0.809" fill="#000000" d="M 37.5,7.5 C 39.9115,7.13673 41.4115,8.13673 42,10.5C 42.499,14.8206 42.6657,19.1539 42.5,23.5C 46.0003,23.4954 47.5003,25.1621 47,28.5C 41.6667,29.8333 36.3333,29.8333 31,28.5C 30.6577,24.6803 32.491,23.0136 36.5,23.5C 36.6641,20.8127 36.4974,18.146 36,15.5C 33.2003,17.1179 31.7003,16.2845 31.5,13C 31.8333,12.1667 32.1667,11.3333 32.5,10.5C 34.3964,9.72549 36.063,8.72549 37.5,7.5 Z"/></g>
<g><path style="opacity:0.821" fill="#000000" d="M 215.5,7.5 C 216.822,7.33003 217.989,7.66337 219,8.5C 219.499,13.4889 219.666,18.4889 219.5,23.5C 223.509,23.0136 225.342,24.6803 225,28.5C 219.667,29.8333 214.333,29.8333 209,28.5C 208.5,25.1621 210,23.4954 213.5,23.5C 213.5,21.1667 213.5,18.8333 213.5,16.5C 211.088,16.756 209.421,15.756 208.5,13.5C 210.266,10.7915 212.599,8.7915 215.5,7.5 Z"/></g>
<g><path style="opacity:0.831" fill="#000000" d="M 241.5,7.5 C 245.426,7.04656 248.592,8.37989 251,11.5C 251.667,16.1667 251.667,20.8333 251,25.5C 250.5,27.3333 249.333,28.5 247.5,29C 242.788,30.4432 238.955,29.2765 236,25.5C 235.333,21.1667 235.333,16.8333 236,12.5C 237.107,9.88698 238.94,8.22031 241.5,7.5 Z M 242.5,13.5 C 245.138,14.2415 246.471,16.0749 246.5,19C 246.493,22.3378 244.826,23.8378 241.5,23.5C 241.253,20.0613 241.586,16.728 242.5,13.5 Z"/></g>
<g><path style="opacity:1" fill="#edbe1f" d="M 103.5,15.5 C 104.833,15.5 106.167,15.5 107.5,15.5C 109.551,18.1471 111.551,18.1471 113.5,15.5C 114.833,15.5 116.167,15.5 117.5,15.5C 118.267,16.172 118.934,17.0053 119.5,18C 130.833,18.6667 142.167,18.6667 153.5,18C 159.457,16.3768 163.957,12.8768 167,7.5C 183.602,18.4928 184.769,30.9928 170.5,45C 142.502,45.5 114.502,45.6666 86.5,45.5C 85.6209,38.0906 86.7875,31.0906 90,24.5C 94.2139,20.8281 98.7139,17.8281 103.5,15.5 Z"/></g>
<g><path style="opacity:0.765" fill="#090601" d="M 113.5,15.5 C 111.551,18.1471 109.551,18.1471 107.5,15.5C 109.759,11.6042 111.759,11.6042 113.5,15.5 Z"/></g>
<g><path style="opacity:0.809" fill="#000000" d="M 9.5,34.5 C 10.9305,34.4208 12.2638,34.7542 13.5,35.5C 14.4941,40.456 14.8275,45.456 14.5,50.5C 18.4459,50.4877 20.1126,52.4877 19.5,56.5C 14.1667,56.5 8.83333,56.5 3.5,56.5C 2.42508,52.062 4.09175,50.062 8.5,50.5C 8.66409,47.8127 8.49742,45.146 8,42.5C 4.15936,43.9948 2.82602,42.6615 4,38.5C 5.81213,37.0229 7.64547,35.6896 9.5,34.5 Z"/></g>
<g><path style="opacity:0.81" fill="#000000" d="M 36.5,34.5 C 41.4596,34.0602 44.9596,36.0602 47,40.5C 47.6667,44.1667 47.6667,47.8333 47,51.5C 44.4586,56.0685 40.6253,57.5685 35.5,56C 32.8981,55.065 31.3981,53.2317 31,50.5C 29.0165,43.6603 30.8498,38.3269 36.5,34.5 Z M 38.5,40.5 C 40.876,41.512 41.876,43.3454 41.5,46C 41.9052,49.9438 40.4052,51.1105 37,49.5C 36.068,46.1769 36.568,43.1769 38.5,40.5 Z"/></g>
<g><path style="opacity:0.807" fill="#000000" d="M 214.5,34.5 C 219.421,34.0429 222.921,36.0429 225,40.5C 225.667,44.1667 225.667,47.8333 225,51.5C 222.459,56.0685 218.625,57.5685 213.5,56C 211.333,55.1667 209.833,53.6667 209,51.5C 208.333,47.8333 208.333,44.1667 209,40.5C 210.021,37.6499 211.854,35.6499 214.5,34.5 Z M 216.5,40.5 C 218.876,41.512 219.876,43.3454 219.5,46C 219.905,49.9438 218.405,51.1105 215,49.5C 214.068,46.1769 214.568,43.1769 216.5,40.5 Z"/></g>
<g><path style="opacity:0.821" fill="#000000" d="M 242.5,34.5 C 243.822,34.33 244.989,34.6634 246,35.5C 246.499,40.4889 246.666,45.4889 246.5,50.5C 250.908,50.062 252.575,52.062 251.5,56.5C 246.167,56.5 240.833,56.5 235.5,56.5C 234.887,52.4877 236.554,50.4877 240.5,50.5C 240.664,47.8127 240.497,45.146 240,42.5C 237.842,43.677 236.342,43.0103 235.5,40.5C 235.608,39.5581 235.941,38.7247 236.5,38C 238.727,37.059 240.727,35.8923 242.5,34.5 Z"/></g>
<g><path style="opacity:1" fill="#e7b81e" d="M 86.5,50.5 C 89.8499,50.335 93.1832,50.5017 96.5,51C 93.3333,55.5 90.1667,60 87,64.5C 86.5008,59.8452 86.3342,55.1785 86.5,50.5 Z"/></g>
<g><path style="opacity:1" fill="#fbb39c" d="M 168.5,100.5 C 167.833,101.833 167.167,103.167 166.5,104.5C 162.716,104.525 161.716,106.192 163.5,109.5C 162.833,110.5 162.167,111.5 161.5,112.5C 157.522,111.966 154.522,113.466 152.5,117C 135.833,117.667 119.167,117.667 102.5,117C 89.1454,105.109 83.9787,90.2759 87,72.5C 92.1667,65.3333 97.3333,58.1667 102.5,51C 119.167,50.3333 135.833,50.3333 152.5,51C 157.667,58.1667 162.833,65.3333 168,72.5C 168.968,80.7798 168.468,88.9465 166.5,97C 166.387,98.6991 167.053,99.8658 168.5,100.5 Z"/></g>
<g><path style="opacity:1" fill="#e6b81e" d="M 158.5,51.5 C 161.625,50.5206 164.958,50.1872 168.5,50.5C 168.666,55.1785 168.499,59.8452 168,64.5C 164.97,59.9845 161.803,55.6512 158.5,51.5 Z"/></g>
<g><path style="opacity:0.834" fill="#000000" d="M 9.5,61.5 C 13.7943,61.1975 16.961,62.8642 19,66.5C 19.6667,70.8333 19.6667,75.1667 19,79.5C 16.0453,83.2765 12.212,84.4432 7.5,83C 5.66667,82.5 4.5,81.3333 4,79.5C 3.33333,74.8333 3.33333,70.1667 4,65.5C 5.49981,63.5313 7.33314,62.198 9.5,61.5 Z M 10.5,67.5 C 11.4959,67.4142 12.3292,67.7476 13,68.5C 13.498,71.4816 13.6646,74.4816 13.5,77.5C 11.549,77.7733 10.049,77.1066 9,75.5C 8.28154,72.5929 8.78154,69.9262 10.5,67.5 Z"/></g>
<g><path style="opacity:0.809" fill="#000000" d="M 37.5,61.5 C 39.9115,61.1367 41.4115,62.1367 42,64.5C 42.499,68.8206 42.6657,73.1539 42.5,77.5C 46.0003,77.4954 47.5003,79.1621 47,82.5C 41.6667,83.8333 36.3333,83.8333 31,82.5C 30.6577,78.6803 32.491,77.0136 36.5,77.5C 36.6641,74.8127 36.4974,72.146 36,69.5C 33.2003,71.1179 31.7003,70.2845 31.5,67C 31.8333,66.1667 32.1667,65.3333 32.5,64.5C 34.3964,63.7255 36.063,62.7255 37.5,61.5 Z"/></g>
<g><path style="opacity:0.82" fill="#000000" d="M 215.5,61.5 C 216.822,61.33 217.989,61.6634 219,62.5C 219.499,67.4889 219.666,72.4889 219.5,77.5C 223.509,77.0136 225.342,78.6803 225,82.5C 219.667,83.8333 214.333,83.8333 209,82.5C 208.5,79.1621 210,77.4954 213.5,77.5C 213.5,75.1667 213.5,72.8333 213.5,70.5C 211.088,70.756 209.421,69.756 208.5,67.5C 210.266,64.7915 212.599,62.7915 215.5,61.5 Z"/></g>
<g><path style="opacity:0.834" fill="#000000" d="M 241.5,61.5 C 245.31,61.379 248.477,62.7124 251,65.5C 251.667,70.1667 251.667,74.8333 251,79.5C 250.5,81.3333 249.333,82.5 247.5,83C 242.788,84.4432 238.955,83.2765 236,79.5C 235.333,75.1667 235.333,70.8333 236,66.5C 237.107,63.887 238.94,62.2203 241.5,61.5 Z M 242.5,67.5 C 245.138,68.2415 246.471,70.0749 246.5,73C 246.493,76.3378 244.826,77.8378 241.5,77.5C 241.253,74.0613 241.586,70.728 242.5,67.5 Z"/></g>
<g><path style="opacity:1" fill="#1a1412" d="M 105.5,67.5 C 106.822,67.33 107.989,67.6634 109,68.5C 109.667,70.8333 109.667,73.1667 109,75.5C 107.667,76.8333 106.333,76.8333 105,75.5C 104.278,72.7395 104.445,70.0728 105.5,67.5 Z"/></g>
<g><path style="opacity:1" fill="#1a1412" d="M 146.5,67.5 C 147.822,67.33 148.989,67.6634 150,68.5C 150.667,70.8333 150.667,73.1667 150,75.5C 148.667,76.8333 147.333,76.8333 146,75.5C 145.278,72.7395 145.445,70.0728 146.5,67.5 Z"/></g>
<g><path style="opacity:1" fill="#f8b19b" d="M 75.5,69.5 C 77.5,69.5 79.5,69.5 81.5,69.5C 81.5,76.1667 81.5,82.8333 81.5,89.5C 72.7178,88.8854 68.8845,84.2187 70,75.5C 71.3597,72.9774 73.193,70.9774 75.5,69.5 Z"/></g>
<g><path style="opacity:1" fill="#f7b09a" d="M 173.5,69.5 C 183.87,69.7022 187.37,74.7022 184,84.5C 181.45,88.1917 177.95,89.8584 173.5,89.5C 173.5,82.8333 173.5,76.1667 173.5,69.5 Z"/></g>
<g><path style="opacity:1" fill="#040302" d="M 125.5,70.5 C 126.833,70.5 128.167,70.5 129.5,70.5C 129.666,77.175 129.5,83.8417 129,90.5C 128,91.8333 127,91.8333 126,90.5C 125.5,83.8417 125.334,77.175 125.5,70.5 Z"/></g>
<g><path style="opacity:0.812" fill="#000000" d="M 9.5,88.5 C 10.9305,88.4208 12.2638,88.7542 13.5,89.5C 14.4941,94.456 14.8275,99.456 14.5,104.5C 18.4459,104.488 20.1126,106.488 19.5,110.5C 14.1667,110.5 8.83333,110.5 3.5,110.5C 2.88744,106.488 4.55411,104.488 8.5,104.5C 8.66409,101.813 8.49742,99.146 8,96.5C 4.15936,97.9948 2.82602,96.6615 4,92.5C 5.81213,91.0229 7.64547,89.6896 9.5,88.5 Z"/></g>
<g><path style="opacity:0.81" fill="#000000" d="M 36.5,88.5 C 41.4596,88.0602 44.9596,90.0602 47,94.5C 47.6667,98.1667 47.6667,101.833 47,105.5C 44.4586,110.069 40.6253,111.569 35.5,110C 32.8981,109.065 31.3981,107.232 31,104.5C 29.0165,97.6603 30.8498,92.3269 36.5,88.5 Z M 38.5,94.5 C 40.876,95.512 41.876,97.3454 41.5,100C 41.9052,103.944 40.4052,105.11 37,103.5C 36.068,100.177 36.568,97.1769 38.5,94.5 Z"/></g>
<g><path style="opacity:0.81" fill="#000000" d="M 214.5,88.5 C 219.421,88.0429 222.921,90.0429 225,94.5C 225.667,98.1667 225.667,101.833 225,105.5C 222.459,110.069 218.625,111.569 213.5,110C 211.333,109.167 209.833,107.667 209,105.5C 206.959,98.3512 208.792,92.6845 214.5,88.5 Z M 216.5,94.5 C 218.876,95.512 219.876,97.3454 219.5,100C 219.905,103.944 218.405,105.11 215,103.5C 214.068,100.177 214.568,97.1769 216.5,94.5 Z"/></g>
<g><path style="opacity:0.824" fill="#000000" d="M 242.5,88.5 C 243.822,88.33 244.989,88.6634 246,89.5C 246.499,94.4889 246.666,99.4889 246.5,104.5C 250.446,104.488 252.113,106.488 251.5,110.5C 246.167,110.5 240.833,110.5 235.5,110.5C 234.887,106.488 236.554,104.488 240.5,104.5C 240.664,101.813 240.497,99.146 240,96.5C 237.842,97.677 236.342,97.0103 235.5,94.5C 235.608,93.5581 235.941,92.7247 236.5,92C 238.727,91.059 240.727,89.8923 242.5,88.5 Z"/></g>
<g><path style="opacity:1" fill="#0f0b09" d="M 113.5,95.5 C 114.675,95.281 115.675,95.6143 116.5,96.5C 120.002,104.249 125.668,106.415 133.5,103C 136.029,100.748 138.196,98.2475 140,95.5C 141.732,95.7336 142.566,96.7336 142.5,98.5C 137.945,107.941 130.612,111.108 120.5,108C 115.064,105.276 112.73,101.109 113.5,95.5 Z"/></g>
<g><path style="opacity:0.821" fill="#020101" d="M 166.5,104.5 C 168.273,107.676 167.273,109.343 163.5,109.5C 161.716,106.192 162.716,104.525 166.5,104.5 Z"/></g>
<g><path style="opacity:1" fill="#aeaeae" d="M 20.5,219.5 C 20.5,218.167 20.5,216.833 20.5,215.5C 23.1471,213.449 23.1471,211.449 20.5,209.5C 20.5,208.167 20.5,206.833 20.5,205.5C 21.172,204.733 22.0053,204.066 23,203.5C 23.3333,177.833 23.6667,152.167 24,126.5C 24.5,124.667 25.6667,123.5 27.5,123C 93.5,122.333 159.5,122.333 225.5,123C 227,123.833 228.167,125 229,126.5C 229.667,165.833 229.667,205.167 229,244.5C 228.167,246.667 226.667,248.167 224.5,249C 159.167,249.667 93.8333,249.667 28.5,249C 26.714,248.215 25.214,247.049 24,245.5C 23.6667,237.5 23.3333,229.5 23,221.5C 22.2917,220.619 21.4584,219.953 20.5,219.5 Z"/></g>
<g><path style="opacity:1" fill="#ebebeb" d="M 48.5,237.5 C 105.167,237.5 161.833,237.5 218.5,237.5C 218.5,201.833 218.5,166.167 218.5,130.5C 219.542,129.209 220.708,129.209 222,130.5C 222.829,167.738 222.663,204.905 221.5,242C 163.5,242.667 105.5,242.667 47.5,242C 46.0844,240.085 46.4178,238.585 48.5,237.5 Z"/></g>
<g><path style="opacity:1" fill="#0e0e0e" d="M 125.5,148.5 C 127.144,148.286 128.644,148.62 130,149.5C 130.499,153.152 130.665,156.818 130.5,160.5C 136.654,160.91 141.654,163.41 145.5,168C 140.305,177.769 143.305,182.936 154.5,183.5C 153.906,206.256 142.239,216.423 119.5,214C 100.624,204.675 95.791,190.509 105,171.5C 109.997,165.087 116.497,161.42 124.5,160.5C 124.237,156.4 124.57,152.4 125.5,148.5 Z"/></g>
<g><path style="opacity:1" fill="#ececec" d="M 120.5,165.5 C 126.732,164.939 132.732,165.772 138.5,168C 136.033,174.879 137.699,180.879 143.5,186C 145.345,187.128 147.345,187.628 149.5,187.5C 147.465,204.679 137.798,211.846 120.5,209C 105.487,201.294 101.653,189.794 109,174.5C 112.183,170.462 116.016,167.462 120.5,165.5 Z"/></g>
<g><path style="opacity:0.749" fill="#060606" d="M 20.5,209.5 C 23.1471,211.449 23.1471,213.449 20.5,215.5C 18.0737,214.647 17.2404,212.981 18,210.5C 18.6708,209.748 19.5041,209.414 20.5,209.5 Z"/></g>
<g><path style="opacity:1" fill="#d0d0d0" d="M 218.5,130.5 C 218.5,166.167 218.5,201.833 218.5,237.5C 161.833,237.5 105.167,237.5 48.5,237.5C 104.664,236.501 160.998,236.168 217.5,236.5C 217.168,200.996 217.502,165.663 218.5,130.5 Z"/></g>
<g><path style="opacity:1" fill="#e9e9e9" d="M 30.5,237.5 C 33.8499,237.335 37.1832,237.502 40.5,238C 41.8333,239.333 41.8333,240.667 40.5,242C 37.5,242.667 34.5,242.667 31.5,242C 30.6198,240.644 30.2865,239.144 30.5,237.5 Z"/></g>
</svg>
