<svg xmlns="http://www.w3.org/2000/svg" width="64" height="64" ><path style="opacity:1" fill="#eeb447" d="M47.5 4.5a21.122 21.122 0 0 0 7 4.5c-1.943 1.972-2.276 4.139-1 6.5-3.264-.272-6.597.061-10 1a41.744 41.744 0 0 0-1-9c2.49.26 4.156-.74 5-3zm0 4c2.923.663 3.59 2.33 2 5-1.232-.645-2.565-.811-4-.5 1.14-.741 1.14-1.575 0-2.5a30.958 30.958 0 0 0 2-2z"/><path style="opacity:1" fill="#efb547" d="M30.5-.5h2a20.677 20.677 0 0 1 1 5c7.474-.751 8.474 1.082 3 5.5a27.11 27.11 0 0 0 2 4.5l-1.5 1a43.35 43.35 0 0 0-5.5-3 43.35 43.35 0 0 0-5.5 3l-1.5-1a27.11 27.11 0 0 0 2-4.5c-5.474-4.418-4.474-6.251 3-5.5a20.677 20.677 0 0 1 1-5zm3 11h-4a5.577 5.577 0 0 0-1-3l3-3 3 3a5.577 5.577 0 0 0-1 3zM14.5 4.5c1.423 2.045 3.423 3.045 6 3a41.744 41.744 0 0 0-1 9c-3.403-.939-6.736-1.272-10-1 1.276-2.361.943-4.528-1-6.5 2.514-.88 4.514-2.38 6-4.5zm-1 4c1.59.128 2.923.795 4 2-1.14.925-1.14 1.759 0 2.5-1.435-.311-2.768-.145-4 .5-1.166-1.667-1.166-3.334 0-5z"/><path style="opacity:1" fill="#29171b" d="M55.5 36.5v-3c2.667-.667 2.667-1.333 0-2 0-.667-.333-1-1-1 .278-1.846-.389-3.18-2-4a89.414 89.414 0 0 1-8 5v5c-.667 0-1 .333-1 1-4.385-2.375-5.052-5.542-2-9.5.105-2.805-.228-5.639-1-8.5 4.678-.166 9.345 0 14 .5 4.174 2.142 4.841 4.976 2 8.5 2.817 3.176 2.483 5.843-1 8z"/><path style="opacity:1" fill="#23141a" d="M8.5 20.5c3.871-.315 7.538.018 11 1a60.94 60.94 0 0 0-11 .5c-2.606 1.65-2.606 3.15 0 4.5v1c-.731 4.572.269 8.572 3 12v1a8.95 8.95 0 0 1-3 4c-2.58-1.516-4.58-.849-6 2h-1l-2 9v-10a19.567 19.567 0 0 0 4-3.5 20.216 20.216 0 0 0 6-1.5 451.584 451.584 0 0 1-5-8c.29-1.544.956-2.877 2-4-2.914-3.517-2.247-6.184 2-8z"/><path style="opacity:1" fill="#b15b1f" d="M43.5 21.5a60.94 60.94 0 0 1 11 .5c1.143 3.697.31 4.197-2.5 1.5-5.348 5.902-8.181 5.235-8.5-2z"/><path style="opacity:1" fill="#636066" d="M19.5 21.5v6c-1.7.16-3.366-.006-5-.5-2.188-4.01-4.188-4.176-6-.5-2.606-1.35-2.606-2.85 0-4.5a60.94 60.94 0 0 1 11-.5z"/><path style="opacity:1" fill="#2a191e" d="M8.5 20.5c4.47-.986 9.137-1.32 14-1-.771 2.861-1.105 5.695-1 8.5 3.052 3.958 2.385 7.125-2 9.5 0-.667-.333-1-1-1v-7c-3.255.486-5.922-.514-8-3-.683.363-1.35.696-2 1v-1c1.812-3.676 3.812-3.51 6 .5 1.634.494 3.3.66 5 .5v-6c-3.462-.982-7.129-1.315-11-1z"/><path style="opacity:1" fill="#eec799" d="M18.5 36.5c-1.536 2.592-3.87 3.592-7 3-2.731-3.428-3.731-7.428-3-12 .65-.304 1.317-.637 2-1 2.078 2.486 4.745 3.486 8 3v7z"/><path style="opacity:1" fill="#f5d2a4" d="M53.5 36.5c-3 4-6 4-9 0v-5c3.088.123 5.755-.877 8-3a16.869 16.869 0 0 1 1 8z"/><path style="opacity:1" fill="#221419" d="M34.5 26.5c-.768.762-1.268 1.762-1.5 3-.232-1.238-.732-2.238-1.5-3h-3l-3.5 14c-.708.88-1.542 1.547-2.5 2a98.966 98.966 0 0 1-11-2v-1c3.13.592 5.464-.408 7-3 .667 0 1 .333 1 1a186.2 186.2 0 0 1-2 3c2.111 1.349 3.945 1.015 5.5-1a111.107 111.107 0 0 0 5.5-20h7a51.639 51.639 0 0 0-1 7z"/><path style="opacity:1" fill="#e9b382" d="M30.5 21.5c1.548.321 2.215 1.321 2 3-2.748.098-3.414-.902-2-3z"/><path style="opacity:1" fill="#d59465" d="M54.5 30.5c.295 2.235-.039 4.235-1 6a16.869 16.869 0 0 0-1-8c-2.245 2.123-4.912 3.123-8 3a89.414 89.414 0 0 0 8-5c1.611.82 2.278 2.154 2 4z"/><path style="opacity:1" fill="#996a50" d="M55.5 31.5c2.667.667 2.667 1.333 0 2v-2z"/><path style="opacity:1" fill="#918e92" d="M31.5 26.5c.768.762 1.268 1.762 1.5 3 .232-1.238.732-2.238 1.5-3h1c.507 4.36 1.173 8.693 2 13-.876-.13-1.543.203-2 1a25.49 25.49 0 0 1 5 7c-.617.11-1.117.444-1.5 1-2.876-2.346-5.042-5.013-6.5-8v-2c.306-2.885-.027-5.552-1-8v-4z"/><path style="opacity:1" fill="#efedef" d="M31.5 26.5v4a50.094 50.094 0 0 0-2.5 13 38.44 38.44 0 0 1-5.5 5c-.06-.543-.393-.876-1-1a43.123 43.123 0 0 0-1 13h-15c.318-4.532-.015-8.866-1-13h-1c-.817 2.469-1.317 5.135-1.5 8a40.936 40.936 0 0 1-.5-9c1.42-2.849 3.42-3.516 6-2-.085 1.495.581 2.495 2 3 .7 3.541 1.367 7.041 2 10.5 1.284.684 2.45.517 3.5-.5.495-1.973.662-3.973.5-6-.135-2.054.532-3.72 2-5a2.428 2.428 0 0 1 .5-2 19.606 19.606 0 0 0 3.5-2c.958-.453 1.792-1.12 2.5-2l3.5-14h3z"/><path style="opacity:1" fill="#211319" d="M35.5 26.5a137.048 137.048 0 0 1 4.5 13c1.555 2.015 3.389 2.349 5.5 1a186.2 186.2 0 0 1-2-3c0-.667.333-1 1-1 3 4 6 4 9 0 .961-1.765 1.295-3.765 1-6 .667 0 1 .333 1 1v5c-.203 1.544-.87 2.878-2 4 4.637-.005 7.97 1.995 10 6v1c-1.333.333-1.333.667 0 1v7c-.117 5.112-2.784 7.445-8 7-1.915.285-3.581-.049-5-1h7v-14h1v9h3c.313-3.542-.02-6.875-1-10-1.42-2.849-3.42-3.516-6-2-1.075-1.062-2.075-1.062-3 0 1.76 2.712 2.427 5.712 2 9l-2 3h-1c-.163-2.357.003-4.69.5-7 .906 2.62 1.406 2.454 1.5-.5-.435-3.063-1.268-3.23-2.5-.5l-1-2c-.493 1.634-.66 3.3-.5 5h-1c-.667-6.667-1.333-6.667-2 0h-1a15.42 15.42 0 0 0-1-7c-2.623-.959-4.623-2.626-6-5a177.971 177.971 0 0 1-2-13z"/><path style="opacity:1" fill="#e49b66" d="M47.5 42.5c.886-1.276 1.886-1.276 3 0-.925 1.062-1.925 1.062-3 0z"/><path style="opacity:1" fill="#2a1d22" d="M11.5 40.5a98.966 98.966 0 0 0 11 2 19.606 19.606 0 0 1-3.5 2 2.428 2.428 0 0 0-.5 2h-3c-.284 1.915.049 3.581 1 5a18.436 18.436 0 0 1-.5 6c-1.05 1.017-2.216 1.184-3.5.5-.633-3.459-1.3-6.959-2-10.5-1.419-.505-2.085-1.505-2-3a8.95 8.95 0 0 0 3-4z"/><path style="opacity:1" fill="#e19c6b" d="M12.5 41.5c3.297-.171 3.63.495 1 2-.797-.457-1.13-1.124-1-2z"/><path style="opacity:1" fill="#786d73" d="M18.5 46.5c-1.468 1.28-2.135 2.946-2 5-.951-1.419-1.284-3.085-1-5h3z"/><path style="opacity:1" fill="#b0adb1" d="M37.5 39.5c1.377 2.374 3.377 4.041 6 5a15.42 15.42 0 0 1 1 7c.069 2.584 1.236 4.584 3.5 6a8.434 8.434 0 0 1 .5 4h-7c.32-4.863-.014-9.53-1-14a25.49 25.49 0 0 0-5-7c.457-.797 1.124-1.13 2-1z"/><path style="opacity:1" fill="#585056" d="M54.5 44.5c.31 3.213-.023 6.213-1 9 .427-3.288-.24-6.288-2-9 .925-1.062 1.925-1.062 3 0z"/><path style="opacity:1" fill="#675e63" d="M47.5 51.5h-2c.667-6.667 1.333-6.667 2 0z"/><path style="opacity:1" fill="#bab9bc" d="M60.5 46.5a40.936 40.936 0 0 1-.5 9c-.183-2.865-.683-5.531-1.5-8h-1c-.985 4.134-1.318 8.468-1 13-2.582.475-4.582-.192-6-2l1-2 2-3c.977-2.787 1.31-5.787 1-9 2.58-1.516 4.58-.849 6 2z"/><path style="opacity:1" fill="#7d757a" d="M1.5 46.5h1a40.936 40.936 0 0 0 .5 9c.183-2.865.683-5.531 1.5-8v9h-3v-10z"/><path style="opacity:1" fill="#67727a" d="M50.5 56.5c-1.756-1.052-2.423-2.719-2-5-.16-1.7.007-3.366.5-5l1 2c1.232-2.73 2.065-2.563 2.5.5-.094 2.954-.594 3.12-1.5.5a24.939 24.939 0 0 0-.5 7z"/><path style="opacity:1" fill="#746c70" d="M57.5 47.5v14h-7c-1.333-1-1.333-2 0-3 1.418 1.808 3.418 2.475 6 2-.318-4.532.015-8.866 1-13z"/><path style="opacity:1" fill="#564c51" d="M60.5 46.5c.98 3.125 1.313 6.458 1 10h-3v-9c.817 2.469 1.317 5.135 1.5 8 .498-2.982.665-5.982.5-9z"/><path style="opacity:1" fill="#72929e" d="M13.5 46.5c1.306 3.187 1.306 6.52 0 10-1.053-3.315-1.053-6.648 0-10z"/><path style="opacity:1" fill="#8c6953" d="M58.5 57.5c3.457.167 3.79 1.167 1 3-.886-.825-1.219-1.825-1-3z"/><path style="opacity:1" fill="#1f1217" d="M1.5 46.5v10h3v-9h1v14c5.526.321 10.86-.012 16-1a43.123 43.123 0 0 1 1-13c.607.124.94.457 1 1v3c.484 4.327-.182 8.327-2 12h-1c-.333-1.333-.667-1.333-1 0h-12c-3.027-.486-5.693-1.82-8-4v-4l2-9z"/><path style="opacity:1" fill="#958d91" d="M5.5 47.5c.985 4.134 1.318 8.468 1 13h15c-5.14.988-10.474 1.321-16 1v-14z"/><path style="opacity:1" fill="#916a53" d="M1.5 57.5h3c-.746 3.81-1.746 3.81-3 0z"/><path style="opacity:1" fill="#25171d" d="M31.5 30.5c.973 2.448 1.306 5.115 1 8-1.333.667-1.333 1.333 0 2 1.458 2.987 3.624 5.654 6.5 8 .383-.556.883-.89 1.5-1 .986 4.47 1.32 9.137 1 14h7a8.434 8.434 0 0 0-.5-4c-2.264-1.416-3.431-3.416-3.5-6h4c-.423 2.281.244 3.948 2 5h1l-1 2c-1.333 1-1.333 2 0 3 1.419.951 3.085 1.285 5 1v1h-12c-.333-1.333-.667-1.333-1 0h-1c-1.66-3.69-2.493-7.69-2.5-12-3.496-2.652-5.996-5.986-7.5-10-1.548 4.216-4.215 7.55-8 10v-3a38.44 38.44 0 0 0 5.5-5 50.094 50.094 0 0 1 2.5-13z"/></svg>