<?xml version="1.0" encoding="UTF-8"?>
<!DOCTYPE svg PUBLIC "-//W3C//DTD SVG 1.1//EN" "http://www.w3.org/Graphics/SVG/1.1/DTD/svg11.dtd">
<svg xmlns="http://www.w3.org/2000/svg" version="1.1" width="128px" height="128px" style="shape-rendering:geometricPrecision; text-rendering:geometricPrecision; image-rendering:optimizeQuality; fill-rule:evenodd; clip-rule:evenodd" xmlns:xlink="http://www.w3.org/1999/xlink">
<g><path style="opacity:0.885" fill="#060504" d="M 32.5,-0.5 C 36.5,-0.5 40.5,-0.5 44.5,-0.5C 62.9747,6.45471 69.1414,19.4547 63,38.5C 61.0751,42.5927 58.2417,45.926 54.5,48.5C 53.5713,49.6888 53.238,51.0222 53.5,52.5C 57.5,52.5 61.5,52.5 65.5,52.5C 65.5,53.8333 65.5,55.1667 65.5,56.5C 77.9028,58.5863 80.9028,65.0863 74.5,76C 71.7935,77.9076 68.7935,78.741 65.5,78.5C 65.2817,91.4468 58.9483,99.6135 46.5,103C 48.8333,105.333 51.1667,107.667 53.5,110C 60.5,110.333 67.5,110.667 74.5,111C 75.5,112 76.5,113 77.5,114C 89.4954,114.5 101.495,114.667 113.5,114.5C 113.333,98.1633 113.5,81.8299 114,65.5C 118.476,58.9824 122.976,58.9824 127.5,65.5C 127.5,84.5 127.5,103.5 127.5,122.5C 126.197,124.142 124.864,125.809 123.5,127.5C 91.5,127.5 59.5,127.5 27.5,127.5C 27.2141,119.623 27.5475,111.79 28.5,104C 24.1299,101.322 19.9633,98.1555 16,94.5C 12.7679,89.6392 11.2679,84.3059 11.5,78.5C 6.35214,78.5929 2.35214,76.5929 -0.5,72.5C -0.5,69.1667 -0.5,65.8333 -0.5,62.5C 2.37578,58.4317 6.37578,56.4317 11.5,56.5C 11.5,55.1667 11.5,53.8333 11.5,52.5C 15.5,52.5 19.5,52.5 23.5,52.5C 22.0508,48.5276 19.5508,45.1943 16,42.5C 6.50895,22.1787 12.009,7.84542 32.5,-0.5 Z"/></g>
<g><path style="opacity:0.798" fill="#000000" d="M 127.5,8.5 C 127.5,9.5 127.5,10.5 127.5,11.5C 124.87,13.6281 122.37,15.9614 120,18.5C 117.523,17.1246 116.689,15.2912 117.5,13C 106.839,12.5002 96.1719,12.3335 85.5,12.5C 85.5,10.8333 85.5,9.16667 85.5,7.5C 96.1719,7.6665 106.839,7.49984 117.5,7C 116.418,4.69364 117.252,3.19364 120,2.5C 122.652,4.31979 125.152,6.31979 127.5,8.5 Z"/></g>
<g><path style="opacity:1" fill="#f8e3a2" d="M 31.5,4.5 C 44.916,2.28928 54.416,7.28928 60,19.5C 62.5715,31.1331 58.9048,40.1331 49,46.5C 48.5034,48.8098 48.3367,51.1432 48.5,53.5C 47.1667,53.5 45.8333,53.5 44.5,53.5C 44.5,46.5 44.5,39.5 44.5,32.5C 52.3017,32.2126 54.3017,28.7126 50.5,22C 45.6959,19.2932 42.1959,20.4598 40,25.5C 38.8869,24.2889 37.7202,24.2889 36.5,25.5C 33.505,19.8673 29.6716,19.2006 25,23.5C 23.6803,29.6804 26.1803,32.6804 32.5,32.5C 32.5,39.5 32.5,46.5 32.5,53.5C 31.1667,53.5 29.8333,53.5 28.5,53.5C 28.8076,51.076 28.4742,48.7427 27.5,46.5C 15.1386,37.611 12.6386,26.611 20,13.5C 23.1607,9.49052 26.994,6.49052 31.5,4.5 Z"/></g>
<g><path style="opacity:0.722" fill="#000000" d="M 68.5,7.5 C 73.1667,7.5 77.8333,7.5 82.5,7.5C 82.5,9.16667 82.5,10.8333 82.5,12.5C 77.8333,12.5 73.1667,12.5 68.5,12.5C 68.5,10.8333 68.5,9.16667 68.5,7.5 Z"/></g>
<g><path style="opacity:0.784" fill="#000000" d="M 102.5,18.5 C 106.08,20.4076 109.08,23.0743 111.5,26.5C 109.167,29.5 106.5,32.1667 103.5,34.5C 101.244,33.5791 100.244,31.9124 100.5,29.5C 89.8333,29.5 79.1667,29.5 68.5,29.5C 68.5,27.8333 68.5,26.1667 68.5,24.5C 79.505,24.6665 90.505,24.4998 101.5,24C 100.243,21.9235 100.576,20.0902 102.5,18.5 Z"/></g>
<g><path style="opacity:1" fill="#e0bf63" d="M 28.5,24.5 C 31.5,24.1667 32.8333,25.5 32.5,28.5C 31.1667,28.5 29.8333,28.5 28.5,28.5C 28.5,27.1667 28.5,25.8333 28.5,24.5 Z"/></g>
<g><path style="opacity:1" fill="#e7c566" d="M 45.5,24.5 C 47.9118,24.6941 48.9118,26.0274 48.5,28.5C 47.1667,28.5 45.8333,28.5 44.5,28.5C 44.4326,27.0413 44.7659,25.7079 45.5,24.5 Z"/></g>
<g><path style="opacity:1" fill="#f9e4a3" d="M 37.5,29.5 C 38.4959,29.4142 39.3292,29.7476 40,30.5C 40.4997,38.1594 40.6664,45.8261 40.5,53.5C 39.1667,53.5 37.8333,53.5 36.5,53.5C 36.1995,45.4144 36.5328,37.4144 37.5,29.5 Z"/></g>
<g><path style="opacity:0.786" fill="#000000" d="M 127.5,41.5 C 127.5,42.5 127.5,43.5 127.5,44.5C 124.87,46.6281 122.37,48.9614 120,51.5C 117.523,50.1246 116.689,48.2912 117.5,46C 101.17,45.5001 84.8367,45.3334 68.5,45.5C 68.5,43.8333 68.5,42.1667 68.5,40.5C 84.8367,40.6666 101.17,40.4999 117.5,40C 116.689,37.7088 117.523,35.8754 120,34.5C 122.37,37.0386 124.87,39.3719 127.5,41.5 Z"/></g>
<g><path style="opacity:0.744" fill="#000000" d="M 93.5,48.5 C 95.1667,48.5 96.8333,48.5 98.5,48.5C 98.5,51.1667 98.5,53.8333 98.5,56.5C 101.167,56.5 103.833,56.5 106.5,56.5C 106.5,58.1667 106.5,59.8333 106.5,61.5C 103.833,61.5 101.167,61.5 98.5,61.5C 98.5,64.5 98.5,67.5 98.5,70.5C 96.8333,70.5 95.1667,70.5 93.5,70.5C 93.5,67.5 93.5,64.5 93.5,61.5C 90.8333,61.5 88.1667,61.5 85.5,61.5C 85.5,59.8333 85.5,58.1667 85.5,56.5C 88.1667,56.5 90.8333,56.5 93.5,56.5C 93.5,53.8333 93.5,51.1667 93.5,48.5 Z M 94.5,57.5 C 95.5,57.5 96.5,57.5 97.5,57.5C 97.5,58.5 97.5,59.5 97.5,60.5C 96.5,60.5 95.5,60.5 94.5,60.5C 94.5,59.5 94.5,58.5 94.5,57.5 Z"/></g>
<g><path style="opacity:0.674" fill="#000000" d="M 109.5,52.5 C 111.167,52.5 112.833,52.5 114.5,52.5C 114.5,54.1667 114.5,55.8333 114.5,57.5C 112.833,57.5 111.167,57.5 109.5,57.5C 109.5,55.8333 109.5,54.1667 109.5,52.5 Z"/></g>
<g><path style="opacity:1" fill="#e5c7ac" d="M 15.5,57.5 C 30.8333,57.5 46.1667,57.5 61.5,57.5C 61.6664,65.84 61.4997,74.1733 61,82.5C 57.8864,94.2334 50.2197,99.5667 38,98.5C 26.1947,99.2679 18.8614,93.9345 16,82.5C 15.5003,74.1733 15.3336,65.84 15.5,57.5 Z"/></g>
<g><path style="opacity:1" fill="#dcbfa5" d="M 6.5,61.5 C 8.16667,61.5 9.83333,61.5 11.5,61.5C 11.6567,62.8734 11.49,64.2068 11,65.5C 9.12913,64.3322 7.62913,64.8322 6.5,67C 9.53408,68.1912 11.2007,70.3579 11.5,73.5C 2.96153,72.5426 1.29486,68.5426 6.5,61.5 Z"/></g>
<g><path style="opacity:1" fill="#0f0d0b" d="M 25.5,61.5 C 31.6043,61.0345 35.2709,63.7012 36.5,69.5C 33.5034,68.8588 30.8367,67.5255 28.5,65.5C 26.1633,67.5255 23.4966,68.8588 20.5,69.5C 20.5364,65.8001 22.2031,63.1335 25.5,61.5 Z"/></g>
<g><path style="opacity:1" fill="#0f0d0c" d="M 45.5,61.5 C 52.0021,60.5625 55.6687,63.2292 56.5,69.5C 53.5034,68.8588 50.8367,67.5255 48.5,65.5C 46.1633,67.5255 43.4966,68.8588 40.5,69.5C 41.1514,66.197 42.818,63.5303 45.5,61.5 Z"/></g>
<g><path style="opacity:1" fill="#ddc0a6" d="M 65.5,61.5 C 73.6052,62.5434 75.2719,66.3767 70.5,73C 68.8659,73.4935 67.1992,73.6602 65.5,73.5C 65.7993,70.3579 67.4659,68.1912 70.5,67C 69.3709,64.8322 67.8709,64.3322 66,65.5C 65.51,64.2068 65.3433,62.8734 65.5,61.5 Z"/></g>
<g><path style="opacity:1" fill="#cbd0d8" d="M 119.5,65.5 C 120.496,65.4142 121.329,65.7476 122,66.5C 122.5,82.4965 122.667,98.4965 122.5,114.5C 121.167,114.5 119.833,114.5 118.5,114.5C 118.182,98.0893 118.516,81.756 119.5,65.5 Z"/></g>
<g><path style="opacity:1" fill="#15110f" d="M 24.5,77.5 C 33.8333,77.5 43.1667,77.5 52.5,77.5C 51.5385,92.142 44.2052,96.9753 30.5,92C 25.8774,88.2544 23.8774,83.4211 24.5,77.5 Z"/></g>
<g><path style="opacity:1" fill="#86443a" d="M 28.5,82.5 C 34.979,81.5093 41.6457,81.176 48.5,81.5C 48.7373,82.791 48.404,83.791 47.5,84.5C 41.588,82.5437 35.2547,81.8771 28.5,82.5 Z"/></g>
<g><path style="opacity:0.713" fill="#000000" d="M 76.5,81.5 C 78.5,81.5 80.5,81.5 82.5,81.5C 82.5,82.8333 82.5,84.1667 82.5,85.5C 83.8333,85.5 85.1667,85.5 86.5,85.5C 86.5,87.1667 86.5,88.8333 86.5,90.5C 85.1667,90.5 83.8333,90.5 82.5,90.5C 82.5,91.8333 82.5,93.1667 82.5,94.5C 80.5,94.5 78.5,94.5 76.5,94.5C 76.5,93.1667 76.5,91.8333 76.5,90.5C 75.1667,90.5 73.8333,90.5 72.5,90.5C 72.5,88.8333 72.5,87.1667 72.5,85.5C 73.8333,85.5 75.1667,85.5 76.5,85.5C 76.5,84.1667 76.5,82.8333 76.5,81.5 Z"/></g>
<g><path style="opacity:1" fill="#f67d6a" d="M 28.5,82.5 C 35.2547,81.8771 41.588,82.5437 47.5,84.5C 40.2752,92.9918 33.9419,92.3251 28.5,82.5 Z"/></g>
<g><path style="opacity:0.766" fill="#000000" d="M 97.5,93.5 C 99.1667,93.5 100.833,93.5 102.5,93.5C 102.5,94.8333 102.5,96.1667 102.5,97.5C 103.833,97.5 105.167,97.5 106.5,97.5C 106.5,99.1667 106.5,100.833 106.5,102.5C 105.167,102.5 103.833,102.5 102.5,102.5C 102.5,104.167 102.5,105.833 102.5,107.5C 100.833,107.5 99.1667,107.5 97.5,107.5C 97.5,105.833 97.5,104.167 97.5,102.5C 96.1667,102.5 94.8333,102.5 93.5,102.5C 93.5,100.833 93.5,99.1667 93.5,97.5C 94.8333,97.5 96.1667,97.5 97.5,97.5C 97.5,96.1667 97.5,94.8333 97.5,93.5 Z"/></g>
<g><path style="opacity:1" fill="#f87e6b" d="M 53.5,115.5 C 55.8333,115.5 58.1667,115.5 60.5,115.5C 60.5,117.833 60.5,120.167 60.5,122.5C 55.8333,122.5 51.1667,122.5 46.5,122.5C 41.5937,119.102 37.0937,115.102 33,110.5C 31.945,103.435 34.7784,101.268 41.5,104C 44,106.5 46.5,109 49,111.5C 49.3334,113.047 48.8334,114.38 47.5,115.5C 49.3955,117.999 51.3955,117.999 53.5,115.5 Z"/></g>
<g><path style="opacity:0.765" fill="#000000" d="M 12.5,127.5 C 10.8333,127.5 9.16667,127.5 7.5,127.5C 7.5,124.833 7.5,122.167 7.5,119.5C 4.83333,119.5 2.16667,119.5 -0.5,119.5C -0.5,117.833 -0.5,116.167 -0.5,114.5C 2.16667,114.5 4.83333,114.5 7.5,114.5C 7.5,111.833 7.5,109.167 7.5,106.5C 9.16667,106.5 10.8333,106.5 12.5,106.5C 12.5,109.167 12.5,111.833 12.5,114.5C 15.1667,114.5 17.8333,114.5 20.5,114.5C 20.5,116.167 20.5,117.833 20.5,119.5C 17.8333,119.5 15.1667,119.5 12.5,119.5C 12.5,122.167 12.5,124.833 12.5,127.5 Z M 8.5,115.5 C 9.5,115.5 10.5,115.5 11.5,115.5C 11.5,116.5 11.5,117.5 11.5,118.5C 10.5,118.5 9.5,118.5 8.5,118.5C 8.5,117.5 8.5,116.5 8.5,115.5 Z"/></g>
<g><path style="opacity:1" fill="#d1b59d" d="M 65.5,114.5 C 67.924,114.192 70.2573,114.526 72.5,115.5C 70.0136,117.578 69.0136,120.245 69.5,123.5C 68.1667,123.5 66.8333,123.5 65.5,123.5C 65.5,120.5 65.5,117.5 65.5,114.5 Z"/></g>
<g><path style="opacity:1" fill="#fb806c" d="M 38.5,121.5 C 36.7354,122.461 34.7354,122.795 32.5,122.5C 32.3379,120.473 32.5045,118.473 33,116.5C 34.7038,118.373 36.5372,120.04 38.5,121.5 Z"/></g>
<g><path style="opacity:1" fill="#8e959e" d="M 74.5,118.5 C 90.5,118.5 106.5,118.5 122.5,118.5C 122.714,120.144 122.38,121.644 121.5,123C 105.833,123.667 90.1667,123.667 74.5,123C 73.2721,121.51 73.2721,120.01 74.5,118.5 Z"/></g>
<g><path style="opacity:1" fill="#713a30" d="M 38.5,121.5 C 39.0431,121.56 39.3764,121.893 39.5,122.5C 37.0268,123.797 34.6934,123.797 32.5,122.5C 34.7354,122.795 36.7354,122.461 38.5,121.5 Z"/></g>
<g><path style="opacity:1" fill="#7b3f34" d="M 53.5,115.5 C 55.9479,114.527 58.6146,114.194 61.5,114.5C 61.5,117.5 61.5,120.5 61.5,123.5C 56.3054,123.821 51.3054,123.487 46.5,122.5C 51.1667,122.5 55.8333,122.5 60.5,122.5C 60.5,120.167 60.5,117.833 60.5,115.5C 58.1667,115.5 55.8333,115.5 53.5,115.5 Z"/></g>
</svg>
