<?xml version="1.0" encoding="UTF-8"?>
<!DOCTYPE svg PUBLIC "-//W3C//DTD SVG 1.1//EN" "http://www.w3.org/Graphics/SVG/1.1/DTD/svg11.dtd">
<svg xmlns="http://www.w3.org/2000/svg" version="1.1" width="128px" height="128px" style="shape-rendering:geometricPrecision; text-rendering:geometricPrecision; image-rendering:optimizeQuality; fill-rule:evenodd; clip-rule:evenodd" xmlns:xlink="http://www.w3.org/1999/xlink">
<g><path style="opacity:0.756" fill="#000000" d="M 50.5,2.5 C 54.6772,1.84156 56.1772,3.50822 55,7.5C 54.028,9.30494 52.8613,10.9716 51.5,12.5C 57.4117,19.6965 56.4117,25.6965 48.5,30.5C 47.09,30.1322 46.09,29.2989 45.5,28C 46.7396,25.088 48.4063,22.4213 50.5,20C 47.8221,18.1588 46.1555,15.6588 45.5,12.5C 47.2376,9.12612 48.9043,5.79278 50.5,2.5 Z"/></g>
<g><path style="opacity:0.751" fill="#000000" d="M 63.5,2.5 C 65.9484,2.01011 67.615,2.84344 68.5,5C 67.9208,8.08812 66.5875,10.7548 64.5,13C 66.4592,15.1364 67.7926,17.6364 68.5,20.5C 66.9145,24.4087 64.5811,27.7421 61.5,30.5C 59.7336,30.5658 58.7336,29.7324 58.5,28C 59.4441,25.2776 60.7775,22.7776 62.5,20.5C 60.6369,18.1071 59.3035,15.4404 58.5,12.5C 60.1853,9.15602 61.852,5.82268 63.5,2.5 Z"/></g>
<g><path style="opacity:0.76" fill="#000000" d="M 76.5,2.5 C 78.7159,2.27459 80.3826,3.10793 81.5,5C 80.5971,8.13824 78.9304,10.8049 76.5,13C 79.1779,14.8412 80.8445,17.3412 81.5,20.5C 79.7624,23.8739 78.0957,27.2072 76.5,30.5C 73.7395,31.0853 72.0728,30.0853 71.5,27.5C 72.0585,24.7154 73.3918,22.3821 75.5,20.5C 72.0306,17.5623 70.864,13.8956 72,9.5C 74.5108,7.77808 76.0108,5.44474 76.5,2.5 Z"/></g>
<g><path style="opacity:0.895" fill="#040100" d="M 127.5,59.5 C 127.5,62.8333 127.5,66.1667 127.5,69.5C 121.981,82.4472 111.981,88.6138 97.5,88C 93.0808,90.2421 90.4141,93.7421 89.5,98.5C 96.5581,98.203 103.558,98.5363 110.5,99.5C 114.378,103.386 114.378,107.22 110.5,111C 107.443,113.723 104.11,116.056 100.5,118C 90.5,118.667 80.5,118.667 70.5,118C 69.944,117.617 69.6107,117.117 69.5,116.5C 69.4142,115.504 69.7476,114.671 70.5,114C 80.1667,113.667 89.8333,113.333 99.5,113C 102.333,110.833 105.167,108.667 108,106.5C 108.684,105.216 108.517,104.049 107.5,103C 96.9919,102.83 86.6585,102.33 76.5,101.5C 76.5,100.5 76.5,99.5 76.5,98.5C 77.5,98.5 78.5,98.5 79.5,98.5C 80.9778,98.762 82.3112,98.4287 83.5,97.5C 86.5194,85.4627 91.686,74.4627 99,64.5C 100.9,60.3678 101.733,56.0345 101.5,51.5C 83.5,51.5 65.5,51.5 47.5,51.5C 47.1667,50.8333 46.8333,50.1667 46.5,49.5C 46.6107,48.8826 46.944,48.3826 47.5,48C 65.4969,47.5001 83.4969,47.3334 101.5,47.5C 101.777,44.5525 101.444,41.7191 100.5,39C 75.8333,38.3333 51.1667,38.3333 26.5,39C 25.5562,41.7191 25.2229,44.5525 25.5,47.5C 29.1817,47.3347 32.8484,47.5014 36.5,48C 37.056,48.3826 37.3893,48.8826 37.5,49.5C 33.9707,51.4228 29.9707,52.0894 25.5,51.5C 25.3187,54.3971 25.6521,57.2305 26.5,60C 26.0217,61.3026 25.355,62.4693 24.5,63.5C 22.7538,62.7505 21.7538,61.4172 21.5,59.5C 20.4018,52.197 20.2351,44.8636 21,37.5C 21.8333,36.6667 22.6667,35.8333 23.5,35C 50.1667,34.3333 76.8333,34.3333 103.5,35C 104.333,35.8333 105.167,36.6667 106,37.5C 106.499,43.4908 106.666,49.4908 106.5,55.5C 111.844,55.334 117.177,55.5006 122.5,56C 124.323,56.9973 125.99,58.1639 127.5,59.5 Z M 105.5,60.5 C 121.733,56.5303 125.899,61.5303 118,75.5C 115.92,77.1233 113.754,78.6233 111.5,80C 105.416,81.0782 99.4161,82.0782 93.5,83C 98.4035,76.0288 102.403,68.5288 105.5,60.5 Z"/></g>
<g><path style="opacity:1" fill="#f28f00" d="M 46.5,49.5 C 43.5,49.5 40.5,49.5 37.5,49.5C 37.3893,48.8826 37.056,48.3826 36.5,48C 32.8484,47.5014 29.1817,47.3347 25.5,47.5C 25.2229,44.5525 25.5562,41.7191 26.5,39C 51.1667,38.3333 75.8333,38.3333 100.5,39C 101.444,41.7191 101.777,44.5525 101.5,47.5C 83.4969,47.3334 65.4969,47.5001 47.5,48C 46.944,48.3826 46.6107,48.8826 46.5,49.5 Z"/></g>
<g><path style="opacity:1" fill="#fc5621" d="M 37.5,49.5 C 40.5,49.5 43.5,49.5 46.5,49.5C 46.8333,50.1667 47.1667,50.8333 47.5,51.5C 63.9916,52.4965 80.6583,52.8298 97.5,52.5C 97.0595,57.3266 95.8928,61.9932 94,66.5C 86.7185,76.0626 81.8852,86.7293 79.5,98.5C 78.5,98.5 77.5,98.5 76.5,98.5C 76.5,99.5 76.5,100.5 76.5,101.5C 74.9582,100.699 73.2915,100.366 71.5,100.5C 72.0457,84.5556 64.379,78.0556 48.5,81C 45.9698,81.8911 43.6365,83.0578 41.5,84.5C 39.9519,84.1788 39.2852,83.1788 39.5,81.5C 39.7361,78.7743 38.9028,76.441 37,74.5C 33.5412,71.1936 29.7079,68.5269 25.5,66.5C 25.4431,65.391 25.1098,64.391 24.5,63.5C 25.355,62.4693 26.0217,61.3026 26.5,60C 25.6521,57.2305 25.3187,54.3971 25.5,51.5C 29.9707,52.0894 33.9707,51.4228 37.5,49.5 Z"/></g>
<g><path style="opacity:1" fill="#cc4015" d="M 47.5,51.5 C 65.5,51.5 83.5,51.5 101.5,51.5C 101.733,56.0345 100.9,60.3678 99,64.5C 91.686,74.4627 86.5194,85.4627 83.5,97.5C 82.3112,98.4287 80.9778,98.762 79.5,98.5C 81.8852,86.7293 86.7185,76.0626 94,66.5C 95.8928,61.9932 97.0595,57.3266 97.5,52.5C 80.6583,52.8298 63.9916,52.4965 47.5,51.5 Z"/></g>
<g><path style="opacity:0.918" fill="#080301" d="M 25.5,66.5 C 29.7079,68.5269 33.5412,71.1936 37,74.5C 38.9028,76.441 39.7361,78.7743 39.5,81.5C 38.448,81.6495 37.448,81.4828 36.5,81C 33.3945,74.7835 28.3945,71.6169 21.5,71.5C 24.2869,76.0898 26.2869,81.0898 27.5,86.5C 25.3786,92.4422 23.0453,98.2756 20.5,104C 20.6313,106.253 21.1313,108.419 22,110.5C 24.9475,113.728 26.7808,117.395 27.5,121.5C 27.5858,122.496 27.2524,123.329 26.5,124C 16.8013,125.882 9.30134,122.716 4,114.5C 2.37997,111.107 0.879972,107.774 -0.5,104.5C -0.5,98.5 -0.5,92.5 -0.5,86.5C 1.30927,80.7244 4.30927,75.5577 8.5,71C 13.5152,67.1635 19.1818,65.6635 25.5,66.5 Z"/></g>
<g><path style="opacity:0.996" fill="#733b20" d="M 39.5,81.5 C 39.2852,83.1788 39.9519,84.1788 41.5,84.5C 27.9422,93.6085 24.6089,105.608 31.5,120.5C 30.1667,120.833 28.8333,121.167 27.5,121.5C 26.7808,117.395 24.9475,113.728 22,110.5C 21.1313,108.419 20.6313,106.253 20.5,104C 23.0453,98.2756 25.3786,92.4422 27.5,86.5C 26.2869,81.0898 24.2869,76.0898 21.5,71.5C 28.3945,71.6169 33.3945,74.7835 36.5,81C 37.448,81.4828 38.448,81.6495 39.5,81.5 Z"/></g>
<g><path style="opacity:1" fill="#9b4f2b" d="M 14.5,72.5 C 15.4959,72.4142 16.3292,72.7476 17,73.5C 18.1532,76.47 19.8199,79.1367 22,81.5C 22.1667,83 22.3333,84.5 22.5,86C 20.5,92 18.5,98 16.5,104C 16.7121,109.589 18.7121,114.422 22.5,118.5C 17.5287,119.942 13.362,118.609 10,114.5C 0.236016,99.1289 1.73602,85.1289 14.5,72.5 Z"/></g>
<g><path style="opacity:0.966" fill="#090401" d="M 71.5,100.5 C 69.872,106.423 67.2054,111.756 63.5,116.5C 53.7269,125.424 43.0603,126.757 31.5,120.5C 24.6089,105.608 27.9422,93.6085 41.5,84.5C 43.6365,83.0578 45.9698,81.8911 48.5,81C 64.379,78.0556 72.0457,84.5556 71.5,100.5 Z"/></g>
<g><path style="opacity:1" fill="#8b522b" d="M 49.5,84.5 C 53.1817,84.3347 56.8484,84.5014 60.5,85C 62.1161,85.6152 63.4495,86.6152 64.5,88C 53.7096,89.457 47.5429,95.6237 46,106.5C 44.786,108.049 43.286,109.215 41.5,110C 38.4937,110.332 35.6604,111.166 33,112.5C 31.0624,103.645 33.5624,96.1455 40.5,90C 43.5638,88.1412 46.5638,86.3079 49.5,84.5 Z"/></g>
<g><path style="opacity:1" fill="#693f21" d="M 63.5,92.5 C 64.8333,92.5 66.1667,92.5 67.5,92.5C 68.1599,105.349 62.4932,114.182 50.5,119C 46.5,119.667 42.5,119.667 38.5,119C 37.09,118.632 36.09,117.799 35.5,116.5C 38.627,114.901 41.9603,113.734 45.5,113C 50.2503,109.333 52.7503,104.499 53,98.5C 55.793,95.0266 59.293,93.0266 63.5,92.5 Z"/></g>
<g><path style="opacity:0.987" fill="#f28e00" d="M 71.5,100.5 C 73.2915,100.366 74.9582,100.699 76.5,101.5C 86.6585,102.33 96.9919,102.83 107.5,103C 108.517,104.049 108.684,105.216 108,106.5C 105.167,108.667 102.333,110.833 99.5,113C 89.8333,113.333 80.1667,113.667 70.5,114C 69.7476,114.671 69.4142,115.504 69.5,116.5C 67.5,116.5 65.5,116.5 63.5,116.5C 67.2054,111.756 69.872,106.423 71.5,100.5 Z"/></g>
</svg>
