<svg xmlns="http://www.w3.org/2000/svg" width="64" height="64" ><path style="opacity:1" fill="#151415" d="M17.5 3.5c-.8 1.542-1.134 3.208-1 5h6c.135-2.054-.532-3.72-2-5 4.816-1.15 9.816-1.316 15-.5 1.637 3.682.97 6.85-2 9.5a13.039 13.039 0 0 0 3 4c8.372-.378 15.539 2.288 21.5 8 .483.948.65 1.948.5 3-.958-.453-1.792-1.12-2.5-2-.738 2.712-.071 5.045 2 7 .893 1.211 1.726 1.211 2.5 0-1.153-1.187-1.153-2.187 0-3a23.313 23.313 0 0 1 3 6v7c-3.39 10.715-10.723 16.715-22 18-12.85-.107-25.85-.107-39 0v-6h-3v-8h3v-5h-3v-8h3v-4h-3v-8h3v-5h-3v-8h3v-6c5.195-.32 10.195.013 15 1z"/><path style="opacity:1" fill="#2f559b" d="M17.5 3.5h3c1.468 1.28 2.135 2.946 2 5h-6c-.134-1.792.2-3.458 1-5z"/><path style="opacity:1" fill="#2f569c" d="M4.5 4.5h4v4h-4v-4z"/><path style="opacity:1" fill="#c3dce5" d="M10.5 4.5h4v4h-4v-4z"/><path style="opacity:1" fill="#d3eff8" d="M24.5 4.5h3v4h-3v-4z"/><path style="opacity:1" fill="#2a4d8c" d="M29.5 4.5h5v4h-5v-4z"/><path style="opacity:1" fill="#edf0f1" d="M8.5 10.5h3v4h-3v-4z"/><path style="opacity:1" fill="#3a65c0" d="M13.5 10.5h6v4h-6v-4z"/><path style="opacity:1" fill="#dee2e3" d="M21.5 10.5h4v4h-4v-4z"/><path style="opacity:1" fill="#3963bc" d="M27.5 10.5h4v4h-4v-4z"/><path style="opacity:1" fill="#3964be" d="M1.5 10.5h4v4h-4v-4z"/><path style="opacity:1" fill="#757a7d" d="M8.5 10.5v4h3c-1.068.934-2.401 1.268-4 1-.284-1.915.049-3.581 1-5z"/><path style="opacity:1" fill="#254176" d="M29.5 16.5c6.372.165 6.538 1.499.5 4a8.434 8.434 0 0 1-.5-4z"/><path style="opacity:1" fill="#2b4f8f" d="M4.5 16.5h4v5h-4v-5z"/><path style="opacity:1" fill="#dcf5fb" d="M24.5 17.5h3v3h-3v-3z"/><path style="opacity:1" fill="#707e84" d="M24.5 17.5c1.068-.934 2.401-1.268 4-1v5c-1.599.268-2.932-.066-4-1h3v-3h-3z"/><path style="opacity:1" fill="#bad0d7" d="M10.5 16.5h4v5h-4v-5z"/><path style="opacity:1" fill="#1d3358" d="M22.5 17.5h-6v3h6c-2.107.968-4.44 1.302-7 1v-5c2.56-.302 4.893.032 7 1z"/><path style="opacity:1" fill="#3058a1" d="M22.5 17.5v3h-6v-3h6z"/><path style="opacity:1" fill="#afb3b4" d="M36.5 18.5a25.87 25.87 0 0 1 10 1c-2.708 1.936-5.708 2.436-9 1.5-.752-.67-1.086-1.504-1-2.5z"/><path style="opacity:1" fill="#eef2f3" d="M11.5 23.5v4h-3v-4h3z"/><path style="opacity:1" fill="#c0ab5f" d="M1.5 22.5c4-.667 5.667 1 5 5h-5v-5z"/><path style="opacity:1" fill="#8d9192" d="M11.5 23.5h-3v4c-.951-1.419-1.284-3.085-1-5 1.599-.268 2.932.066 4 1z"/><path style="opacity:1" fill="#f6dd7a" d="M13.5 23.5h6v4h-6v-4z"/><path style="opacity:1" fill="#d5dadc" d="M21.5 23.5a8.434 8.434 0 0 1 4 .5 23.591 23.591 0 0 0-3 3.5c-.929-1.189-1.262-2.522-1-4z"/><path style="opacity:1" fill="#d4d8da" d="M26.5 25.5c1.36 3.322.36 5.989-3 8-.24-2.903.76-5.57 3-8z"/><path style="opacity:1" fill="#ebf3f7" d="m32.5 30.5 2-1c12.155-4.015 17.988.318 17.5 13-3.04 6.103-7.874 8.27-14.5 6.5-4.555-2.05-6.889-5.55-7-10.5.206-2.836.873-5.502 2-8z"/><path style="opacity:1" fill="#fccf63" d="M4.5 29.5h4v4h-4v-4z"/><path style="opacity:1" fill="#f8ce63" d="M16.5 29.5c1.788-.285 3.455.048 5 1-.875 2.273-2.542 3.273-5 3v-4z"/><path style="opacity:1" fill="#c7e0e6" d="M10.5 29.5h4v4h-4v-4z"/><path style="opacity:1" fill="#c4dce4" d="M58.5 27.5c1 .333 1.667 1 2 2-1.153.813-1.153 1.813 0 3-.774 1.211-1.607 1.211-2.5 0-2.071-1.955-2.738-4.288-2-7 .708.88 1.542 1.547 2.5 2z"/><path style="opacity:1" fill="#65b4e9" d="M56.5 33.5c.569 2.526-.098 4.86-2 7-.983-11.146-6.983-15.646-18-13.5-1.256.417-1.923 1.25-2 2.5l-2 1c-4.833 4.715-5.333 10.048-1.5 16 3.33 3.748 7.497 5.415 12.5 5-.11.617-.444 1.117-1 1.5-4.42.768-8.753.602-13-.5-.071-5.15-2.405-8.817-7-11-1.13-1.575-1.297-3.241-.5-5 5.616-3.162 8.45-7.995 8.5-14.5l3-1.5c5.264 3.923 10.597 3.923 16 0a18.088 18.088 0 0 1 3.5 2c-.064 4.138 1.103 7.804 3.5 11z"/><path style="opacity:1" fill="#dde1e3" d="M7.5 35.5h4v4h-4v-4z"/><path style="opacity:1" fill="#f8e07c" d="M13.5 35.5h6v4h-6v-4z"/><path style="opacity:1" fill="#c7b363" d="M1.5 35.5h5c.667 4-1 5.667-5 5v-5z"/><path style="opacity:1" fill="#13171b" d="M54.5 40.5c-1.337 6.004-5.004 9.67-11 11-5.003.415-9.17-1.252-12.5-5-3.833-5.952-3.333-11.285 1.5-16-1.127 2.498-1.794 5.164-2 8 .111 4.95 2.445 8.45 7 10.5 6.626 1.77 11.46-.397 14.5-6.5.488-12.682-5.345-17.015-17.5-13 .077-1.25.744-2.083 2-2.5 11.017-2.146 17.017 2.354 18 13.5z"/><path style="opacity:1" fill="#c85a63" d="M4.5 41.5h4v5h-4v-5z"/><path style="opacity:1" fill="#bacfd6" d="M10.5 41.5h4v5h-4v-5z"/><path style="opacity:1" fill="#74363b" d="M20.5 43.5c-1.208-.734-2.541-1.067-4-1v3h4c-1.419.951-3.085 1.285-5 1v-5c2.281-.423 3.948.244 5 2z"/><path style="opacity:1" fill="#e36570" d="M20.5 43.5v2h-4v-3c1.459-.067 2.792.266 4 1z"/><path style="opacity:1" fill="#dcdfe1" d="M22.5 43.5c3.642 1.95 5.142 4.95 4.5 9-2.571-2.476-4.071-5.476-4.5-9z"/><path style="opacity:1" fill="#bfd5db" d="M59.5 43.5c.661 3.401-.505 6.401-3.5 9-.52-3.632.647-6.632 3.5-9z"/><path style="opacity:1" fill="#c7cbcd" d="M7.5 47.5h4v5h-4v-5z"/><path style="opacity:1" fill="#de7d83" d="M13.5 48.5h6v4h-6v-4z"/><path style="opacity:1" fill="#bdc1c4" d="M21.5 48.5c3.247 2.238 3.247 3.571 0 4v-4z"/><path style="opacity:1" fill="#599ee1" d="M56.5 33.5c6.817 3.775 6.65 7.441-.5 11A958.843 958.843 0 0 0 51.5 56 94.952 94.952 0 0 1 41 54.5c-2.755-.09-5.255.576-7.5 2-2.69-.045-4.023-1.379-4-4 4.247 1.102 8.58 1.268 13 .5.556-.383.89-.883 1-1.5 5.996-1.33 9.663-4.996 11-11 1.902-2.14 2.569-4.474 2-7z"/><path style="opacity:1" fill="#dc7c82" d="M1.5 48.5h4v4h-4v-4z"/><path style="opacity:1" fill="#dd626d" d="M4.5 54.5h4v4h-4v-4z"/><path style="opacity:1" fill="#c3dce4" d="M10.5 54.5h4v4h-4v-4z"/><path style="opacity:1" fill="#db626d" d="M16.5 54.5h6v4h-6v-4z"/><path style="opacity:1" fill="#c9e3ed" d="M24.5 54.5h3v4h-3v-4z"/><path style="opacity:1" fill="#b8cfd8" d="M36.5 56.5a25.87 25.87 0 0 1 10 1l-5 1c-2.14-.056-3.806-.723-5-2z"/></svg>