<?xml version="1.0" encoding="UTF-8"?>
<!DOCTYPE svg PUBLIC "-//W3C//DTD SVG 1.1//EN" "http://www.w3.org/Graphics/SVG/1.1/DTD/svg11.dtd">
<svg xmlns="http://www.w3.org/2000/svg" version="1.1" width="128px" height="128px" style="shape-rendering:geometricPrecision; text-rendering:geometricPrecision; image-rendering:optimizeQuality; fill-rule:evenodd; clip-rule:evenodd" xmlns:xlink="http://www.w3.org/1999/xlink">
<g><path style="opacity:0.912" fill="#000000" d="M 13.5,-0.5 C 46.8333,-0.5 80.1667,-0.5 113.5,-0.5C 114.161,37.848 113.494,75.848 111.5,113.5C 111.158,112.662 110.492,112.328 109.5,112.5C 109.5,87.5 109.5,62.5 109.5,37.5C 78.8333,37.5 48.1667,37.5 17.5,37.5C 17.5,66.5 17.5,95.5 17.5,124.5C 48.3379,124.831 79.0045,124.498 109.5,123.5C 108.99,120.612 109.656,118.279 111.5,116.5C 113.414,119.684 114.08,123.351 113.5,127.5C 80.1667,127.5 46.8333,127.5 13.5,127.5C 12.8395,89.8184 13.5062,52.4851 15.5,15.5C 17.4563,21.412 18.1229,27.7453 17.5,34.5C 48.1667,34.5 78.8333,34.5 109.5,34.5C 109.5,24.1667 109.5,13.8333 109.5,3.5C 79.0045,2.50186 48.3379,2.16852 17.5,2.5C 17.5,5.5 17.5,8.5 17.5,11.5C 16.5084,11.3284 15.8417,11.6618 15.5,12.5C 13.5698,8.62733 12.9031,4.29399 13.5,-0.5 Z"/></g>
<g><path style="opacity:1" fill="#1f252b" d="M 109.5,3.5 C 109.167,3.5 108.833,3.5 108.5,3.5C 79.5,3.5 50.5,3.5 21.5,3.5C 20.5,3.5 19.5,3.5 18.5,3.5C 18.8064,6.38544 18.4731,9.0521 17.5,11.5C 17.5,8.5 17.5,5.5 17.5,2.5C 48.3379,2.16852 79.0045,2.50186 109.5,3.5 Z"/></g>
<g><path style="opacity:1" fill="#546376" d="M 21.5,3.5 C 21.5,13.5 21.5,23.5 21.5,33.5C 50.5,33.5 79.5,33.5 108.5,33.5C 108.5,23.5 108.5,13.5 108.5,3.5C 108.833,3.5 109.167,3.5 109.5,3.5C 109.5,13.8333 109.5,24.1667 109.5,34.5C 78.8333,34.5 48.1667,34.5 17.5,34.5C 18.1229,27.7453 17.4563,21.412 15.5,15.5C 15.5,14.5 15.5,13.5 15.5,12.5C 15.8417,11.6618 16.5084,11.3284 17.5,11.5C 18.4731,9.0521 18.8064,6.38544 18.5,3.5C 19.5,3.5 20.5,3.5 21.5,3.5 Z"/></g>
<g><path style="opacity:1" fill="#70839b" d="M 21.5,3.5 C 50.5,3.5 79.5,3.5 108.5,3.5C 108.5,13.5 108.5,23.5 108.5,33.5C 79.5,33.5 50.5,33.5 21.5,33.5C 21.5,23.5 21.5,13.5 21.5,3.5 Z"/></g>
<g><path style="opacity:1" fill="#050607" d="M 88.5,8.5 C 92.5,8.5 96.5,8.5 100.5,8.5C 100.5,15.1667 100.5,21.8333 100.5,28.5C 96.5,28.5 92.5,28.5 88.5,28.5C 88.5,21.8333 88.5,15.1667 88.5,8.5 Z"/></g>
<g><path style="opacity:1" fill="#71869d" d="M 92.5,12.5 C 93.8333,12.5 95.1667,12.5 96.5,12.5C 96.5,16.5 96.5,20.5 96.5,24.5C 95.1667,24.5 93.8333,24.5 92.5,24.5C 92.5,20.5 92.5,16.5 92.5,12.5 Z"/></g>
<g><path style="opacity:1" fill="#38424e" d="M 92.5,12.5 C 92.5,16.5 92.5,20.5 92.5,24.5C 93.8333,24.5 95.1667,24.5 96.5,24.5C 95.0813,25.4511 93.4147,25.7845 91.5,25.5C 91.1818,20.9677 91.5151,16.6344 92.5,12.5 Z"/></g>
<g><path style="opacity:1" fill="#090b0d" d="M 71.5,8.5 C 76.1667,8.5 80.8333,8.5 85.5,8.5C 85.5,9.83333 85.5,11.1667 85.5,12.5C 83.8333,12.5 82.1667,12.5 80.5,12.5C 80.5,17.8333 80.5,23.1667 80.5,28.5C 79.1667,28.5 77.8333,28.5 76.5,28.5C 76.5,23.1667 76.5,17.8333 76.5,12.5C 74.8333,12.5 73.1667,12.5 71.5,12.5C 71.5,11.1667 71.5,9.83333 71.5,8.5 Z"/></g>
<g><path style="opacity:1" fill="#08090c" d="M 54.5,8.5 C 59.1667,8.5 63.8333,8.5 68.5,8.5C 68.5,9.83333 68.5,11.1667 68.5,12.5C 66.8333,12.5 65.1667,12.5 63.5,12.5C 63.5,17.8333 63.5,23.1667 63.5,28.5C 62.1667,28.5 60.8333,28.5 59.5,28.5C 59.5,23.1667 59.5,17.8333 59.5,12.5C 57.8333,12.5 56.1667,12.5 54.5,12.5C 54.5,11.1667 54.5,9.83333 54.5,8.5 Z"/></g>
<g><path style="opacity:1" fill="#060709" d="M 39.5,8.5 C 43.5,8.5 47.5,8.5 51.5,8.5C 51.5,15.1667 51.5,21.8333 51.5,28.5C 47.5,28.5 43.5,28.5 39.5,28.5C 39.5,21.8333 39.5,15.1667 39.5,8.5 Z"/></g>
<g><path style="opacity:1" fill="#3e4a57" d="M 47.5,12.5 C 48.4849,16.6344 48.8182,20.9677 48.5,25.5C 46.5853,25.7845 44.9187,25.4511 43.5,24.5C 44.8333,24.5 46.1667,24.5 47.5,24.5C 47.5,20.5 47.5,16.5 47.5,12.5 Z"/></g>
<g><path style="opacity:1" fill="#70849c" d="M 47.5,12.5 C 47.5,16.5 47.5,20.5 47.5,24.5C 46.1667,24.5 44.8333,24.5 43.5,24.5C 43.5,20.5 43.5,16.5 43.5,12.5C 44.8333,12.5 46.1667,12.5 47.5,12.5 Z"/></g>
<g><path style="opacity:1" fill="#06080a" d="M 26.5,8.5 C 27.8333,8.5 29.1667,8.5 30.5,8.5C 30.5,14.1667 30.5,19.8333 30.5,25.5C 32.5,25.5 34.5,25.5 36.5,25.5C 36.5,26.5 36.5,27.5 36.5,28.5C 33.1667,28.5 29.8333,28.5 26.5,28.5C 26.5,21.8333 26.5,15.1667 26.5,8.5 Z"/></g>
<g><path style="opacity:1" fill="#76797b" d="M 109.5,112.5 C 108.502,88.0056 108.169,63.339 108.5,38.5C 79.1667,38.5 49.8333,38.5 20.5,38.5C 19.1673,52.3172 18.5007,66.4839 18.5,81C 18.5007,95.5161 19.1673,109.683 20.5,123.5C 50.1667,123.5 79.8333,123.5 109.5,123.5C 79.0045,124.498 48.3379,124.831 17.5,124.5C 17.5,95.5 17.5,66.5 17.5,37.5C 48.1667,37.5 78.8333,37.5 109.5,37.5C 109.5,62.5 109.5,87.5 109.5,112.5 Z"/></g>
<g><path style="opacity:1" fill="#e2edf5" d="M 20.5,38.5 C 20.5,66.8333 20.5,95.1667 20.5,123.5C 19.1673,109.683 18.5007,95.5161 18.5,81C 18.5007,66.4839 19.1673,52.3172 20.5,38.5 Z"/></g>
<g><path style="opacity:1" fill="#f6f6f6" d="M 20.5,38.5 C 49.8333,38.5 79.1667,38.5 108.5,38.5C 108.169,63.339 108.502,88.0056 109.5,112.5C 110.492,112.328 111.158,112.662 111.5,113.5C 111.5,114.5 111.5,115.5 111.5,116.5C 109.656,118.279 108.99,120.612 109.5,123.5C 79.8333,123.5 50.1667,123.5 20.5,123.5C 20.5,95.1667 20.5,66.8333 20.5,38.5 Z"/></g>
<g><path style="opacity:1" fill="#666666" d="M 73.5,43.5 C 74.5676,42.5655 75.901,42.2322 77.5,42.5C 77.7678,44.099 77.4345,45.4324 76.5,46.5C 76.5,45.5 76.5,44.5 76.5,43.5C 75.5,43.5 74.5,43.5 73.5,43.5 Z"/></g>
<g><path style="opacity:1" fill="#676767" d="M 54.5,43.5 C 53.5,43.5 52.5,43.5 51.5,43.5C 51.5,44.5 51.5,45.5 51.5,46.5C 50.5655,45.4324 50.2322,44.099 50.5,42.5C 52.099,42.2322 53.4324,42.5655 54.5,43.5 Z"/></g>
<g><path style="opacity:1" fill="#000000" d="M 54.5,43.5 C 54.5,44.5 54.5,45.5 54.5,46.5C 53.5,46.5 52.5,46.5 51.5,46.5C 51.5,45.5 51.5,44.5 51.5,43.5C 52.5,43.5 53.5,43.5 54.5,43.5 Z"/></g>
<g><path style="opacity:1" fill="#959595" d="M 65.5,46.5 C 65.5,45.5 65.5,44.5 65.5,43.5C 64.5,43.5 63.5,43.5 62.5,43.5C 62.5,44.5 62.5,45.5 62.5,46.5C 61.5655,45.4324 61.2322,44.099 61.5,42.5C 63.1667,42.5 64.8333,42.5 66.5,42.5C 66.7678,44.099 66.4345,45.4324 65.5,46.5 Z"/></g>
<g><path style="opacity:1" fill="#000000" d="M 65.5,46.5 C 64.5,46.5 63.5,46.5 62.5,46.5C 62.5,45.5 62.5,44.5 62.5,43.5C 63.5,43.5 64.5,43.5 65.5,43.5C 65.5,44.5 65.5,45.5 65.5,46.5 Z"/></g>
<g><path style="opacity:1" fill="#000000" d="M 73.5,43.5 C 74.5,43.5 75.5,43.5 76.5,43.5C 76.5,44.5 76.5,45.5 76.5,46.5C 75.5,46.5 74.5,46.5 73.5,46.5C 73.5,45.5 73.5,44.5 73.5,43.5 Z"/></g>
<g><path style="opacity:1" fill="#151513" d="M 49.5,51.5 C 57.8788,50.7147 61.7121,54.3814 61,62.5C 55.6667,70.5 50.3333,70.5 45,62.5C 44.3333,60.8333 44.3333,59.1667 45,57.5C 46.332,55.34 47.832,53.34 49.5,51.5 Z"/></g>
<g><path style="opacity:1" fill="#131414" d="M 70.5,51.5 C 79.8741,51.3565 83.3741,55.6898 81,64.5C 75.1857,70.2051 70.1857,69.5384 66,62.5C 65.3333,60.5 65.3333,58.5 66,56.5C 67.3657,54.6383 68.8657,52.9717 70.5,51.5 Z"/></g>
<g><path style="opacity:1" fill="#120f10" d="M 29.5,51.5 C 38.174,51.006 41.674,55.006 40,63.5C 34.9158,70.0593 29.9158,70.0593 25,63.5C 23.4742,58.2389 24.9742,54.2389 29.5,51.5 Z"/></g>
<g><path style="opacity:1" fill="#120f10" d="M 91.5,51.5 C 100.174,51.006 103.674,55.006 102,63.5C 96.9158,70.0593 91.9158,70.0593 87,63.5C 85.4742,58.2389 86.9742,54.2389 91.5,51.5 Z"/></g>
<g><path style="opacity:1" fill="#da4b6c" d="M 32.5,55.5 C 35.5409,55.3794 37.2076,56.8794 37.5,60C 36.6012,62.401 34.9345,63.901 32.5,64.5C 29.8333,61.5 29.8333,58.5 32.5,55.5 Z"/></g>
<g><path style="opacity:1" fill="#f3e483" d="M 52.5,55.5 C 55.5849,55.418 57.2515,56.918 57.5,60C 57.2515,63.082 55.5849,64.582 52.5,64.5C 51.1667,61.5 51.1667,58.5 52.5,55.5 Z"/></g>
<g><path style="opacity:1" fill="#b3e0aa" d="M 73.5,55.5 C 78.5485,56.311 79.7152,58.9777 77,63.5C 75.9887,64.3366 74.8221,64.67 73.5,64.5C 72.1667,61.5 72.1667,58.5 73.5,55.5 Z"/></g>
<g><path style="opacity:1" fill="#d94b6c" d="M 94.5,55.5 C 97.5409,55.3794 99.2076,56.8794 99.5,60C 98.6012,62.401 96.9345,63.901 94.5,64.5C 91.966,61.4222 91.966,58.4222 94.5,55.5 Z"/></g>
<g><path style="opacity:1" fill="#a43373" d="M 32.5,55.5 C 29.8333,58.5 29.8333,61.5 32.5,64.5C 27.4114,63.0665 26.4114,60.2331 29.5,56C 30.448,55.5172 31.448,55.3505 32.5,55.5 Z"/></g>
<g><path style="opacity:1" fill="#d69e46" d="M 52.5,55.5 C 51.1667,58.5 51.1667,61.5 52.5,64.5C 49.2463,63.327 48.0796,60.9937 49,57.5C 49.8159,56.1772 50.9826,55.5106 52.5,55.5 Z"/></g>
<g><path style="opacity:1" fill="#1ba5ab" d="M 73.5,55.5 C 72.1667,58.5 72.1667,61.5 73.5,64.5C 69.8539,63.5385 68.6872,61.2051 70,57.5C 70.8159,56.1772 71.9826,55.5106 73.5,55.5 Z"/></g>
<g><path style="opacity:1" fill="#a33373" d="M 94.5,55.5 C 91.966,58.4222 91.966,61.4222 94.5,64.5C 89.4114,63.0665 88.4114,60.2331 91.5,56C 92.448,55.5172 93.448,55.3505 94.5,55.5 Z"/></g>
<g><path style="opacity:1" fill="#121313" d="M 29.5,73.5 C 36.2381,72.5525 39.9048,75.3858 40.5,82C 40.35,87.4834 37.5167,90.3167 32,90.5C 25.582,89.008 23.2486,85.008 25,78.5C 26.025,76.313 27.525,74.6464 29.5,73.5 Z"/></g>
<g><path style="opacity:1" fill="#111111" d="M 50.5,73.5 C 58.0328,73.5289 61.5328,77.1956 61,84.5C 55.6667,92.5 50.3333,92.5 45,84.5C 44.1757,79.4818 46.0091,75.8152 50.5,73.5 Z"/></g>
<g><path style="opacity:1" fill="#131112" d="M 70.5,73.5 C 79.8741,73.3565 83.3741,77.6898 81,86.5C 75.0913,92.3479 70.0913,91.6812 66,84.5C 65.3333,82.5 65.3333,80.5 66,78.5C 67.7073,76.9625 69.2073,75.2959 70.5,73.5 Z"/></g>
<g><path style="opacity:1" fill="#111212" d="M 91.5,73.5 C 98.2381,72.5525 101.905,75.3858 102.5,82C 102.35,87.4834 99.5167,90.3167 94,90.5C 87.582,89.008 85.2486,85.008 87,78.5C 88.025,76.313 89.525,74.6464 91.5,73.5 Z"/></g>
<g><path style="opacity:1" fill="#209ea2" d="M 32.5,77.5 C 31.1667,80.5 31.1667,83.5 32.5,86.5C 27.534,85.2432 26.534,82.5765 29.5,78.5C 30.4168,77.8728 31.4168,77.5394 32.5,77.5 Z"/></g>
<g><path style="opacity:1" fill="#b0dda8" d="M 32.5,77.5 C 37.466,78.7568 38.466,81.4235 35.5,85.5C 34.5832,86.1272 33.5832,86.4606 32.5,86.5C 31.1667,83.5 31.1667,80.5 32.5,77.5 Z"/></g>
<g><path style="opacity:1" fill="#58687c" d="M 50.5,77.5 C 57.4863,77.331 59.153,80.1643 55.5,86C 48.4159,86.475 46.7492,83.6417 50.5,77.5 Z"/></g>
<g><path style="opacity:1" fill="#af377a" d="M 73.5,77.5 C 72.1667,80.5 72.1667,83.5 73.5,86.5C 69.8539,85.5385 68.6872,83.2051 70,79.5C 70.8159,78.1772 71.9826,77.5106 73.5,77.5 Z"/></g>
<g><path style="opacity:1" fill="#dc4c6c" d="M 73.5,77.5 C 76.5849,77.418 78.2515,78.918 78.5,82C 78.2515,85.082 76.5849,86.582 73.5,86.5C 72.1667,83.5 72.1667,80.5 73.5,77.5 Z"/></g>
<g><path style="opacity:1" fill="#617388" d="M 92.5,77.5 C 98.845,77.542 100.512,80.2087 97.5,85.5C 93.5107,87.3368 90.844,86.1702 89.5,82C 89.9567,80.0598 90.9567,78.5598 92.5,77.5 Z"/></g>
<g><path style="opacity:1" fill="#040404" d="M 27.5,97.5 C 28.5,97.5 29.5,97.5 30.5,97.5C 30.5,104.833 30.5,112.167 30.5,119.5C 29.5,119.5 28.5,119.5 27.5,119.5C 27.5,112.167 27.5,104.833 27.5,97.5 Z"/></g>
<g><path style="opacity:1" fill="#000000" d="M 39.5,97.5 C 39.5,104.5 39.5,111.5 39.5,118.5C 38.5,118.5 37.5,118.5 36.5,118.5C 36.5,111.5 36.5,104.5 36.5,97.5C 37.5,97.5 38.5,97.5 39.5,97.5 Z"/></g>
<g><path style="opacity:1" fill="#727272" d="M 39.5,97.5 C 40.4916,104.648 40.825,111.981 40.5,119.5C 38.901,119.768 37.5676,119.434 36.5,118.5C 37.5,118.5 38.5,118.5 39.5,118.5C 39.5,111.5 39.5,104.5 39.5,97.5 Z"/></g>
<g><path style="opacity:1" fill="#000000" d="M 45.5,97.5 C 45.5,104.5 45.5,111.5 45.5,118.5C 44.5,118.5 43.5,118.5 42.5,118.5C 42.5,111.5 42.5,104.5 42.5,97.5C 43.5,97.5 44.5,97.5 45.5,97.5 Z"/></g>
<g><path style="opacity:1" fill="#767676" d="M 45.5,97.5 C 46.4916,104.648 46.825,111.981 46.5,119.5C 44.901,119.768 43.5676,119.434 42.5,118.5C 43.5,118.5 44.5,118.5 45.5,118.5C 45.5,111.5 45.5,104.5 45.5,97.5 Z"/></g>
<g><path style="opacity:1" fill="#040404" d="M 48.5,97.5 C 49.5,97.5 50.5,97.5 51.5,97.5C 51.5,104.833 51.5,112.167 51.5,119.5C 50.5,119.5 49.5,119.5 48.5,119.5C 48.5,112.167 48.5,104.833 48.5,97.5 Z"/></g>
<g><path style="opacity:1" fill="#040404" d="M 54.5,97.5 C 55.5,97.5 56.5,97.5 57.5,97.5C 57.5,104.833 57.5,112.167 57.5,119.5C 56.5,119.5 55.5,119.5 54.5,119.5C 54.5,112.167 54.5,104.833 54.5,97.5 Z"/></g>
<g><path style="opacity:1" fill="#4d4d4d" d="M 64.5,97.5 C 64.5,104.5 64.5,111.5 64.5,118.5C 65.5,118.5 66.5,118.5 67.5,118.5C 66.4324,119.434 65.099,119.768 63.5,119.5C 63.175,111.981 63.5084,104.648 64.5,97.5 Z"/></g>
<g><path style="opacity:1" fill="#000000" d="M 64.5,97.5 C 65.5,97.5 66.5,97.5 67.5,97.5C 67.5,104.5 67.5,111.5 67.5,118.5C 66.5,118.5 65.5,118.5 64.5,118.5C 64.5,111.5 64.5,104.5 64.5,97.5 Z"/></g>
<g><path style="opacity:1" fill="#4a4a4a" d="M 70.5,97.5 C 70.5,104.5 70.5,111.5 70.5,118.5C 71.5,118.5 72.5,118.5 73.5,118.5C 72.4324,119.434 71.099,119.768 69.5,119.5C 69.175,111.981 69.5084,104.648 70.5,97.5 Z"/></g>
<g><path style="opacity:1" fill="#000000" d="M 70.5,97.5 C 71.5,97.5 72.5,97.5 73.5,97.5C 73.5,104.5 73.5,111.5 73.5,118.5C 72.5,118.5 71.5,118.5 70.5,118.5C 70.5,111.5 70.5,104.5 70.5,97.5 Z"/></g>
<g><path style="opacity:1" fill="#464646" d="M 76.5,97.5 C 76.5,104.5 76.5,111.5 76.5,118.5C 77.5,118.5 78.5,118.5 79.5,118.5C 78.4324,119.434 77.099,119.768 75.5,119.5C 75.175,111.981 75.5084,104.648 76.5,97.5 Z"/></g>
<g><path style="opacity:1" fill="#000000" d="M 76.5,97.5 C 77.5,97.5 78.5,97.5 79.5,97.5C 79.5,104.5 79.5,111.5 79.5,118.5C 78.5,118.5 77.5,118.5 76.5,118.5C 76.5,111.5 76.5,104.5 76.5,97.5 Z"/></g>
<g><path style="opacity:1" fill="#434343" d="M 82.5,97.5 C 82.5,104.5 82.5,111.5 82.5,118.5C 83.5,118.5 84.5,118.5 85.5,118.5C 84.4324,119.434 83.099,119.768 81.5,119.5C 81.175,111.981 81.5084,104.648 82.5,97.5 Z"/></g>
<g><path style="opacity:1" fill="#000000" d="M 82.5,97.5 C 83.5,97.5 84.5,97.5 85.5,97.5C 85.5,104.5 85.5,111.5 85.5,118.5C 84.5,118.5 83.5,118.5 82.5,118.5C 82.5,111.5 82.5,104.5 82.5,97.5 Z"/></g>
<g><path style="opacity:1" fill="#040404" d="M 90.5,97.5 C 91.5,97.5 92.5,97.5 93.5,97.5C 93.5,104.833 93.5,112.167 93.5,119.5C 92.5,119.5 91.5,119.5 90.5,119.5C 90.5,112.167 90.5,104.833 90.5,97.5 Z"/></g>
<g><path style="opacity:1" fill="#040404" d="M 96.5,97.5 C 97.5,97.5 98.5,97.5 99.5,97.5C 99.5,104.833 99.5,112.167 99.5,119.5C 98.5,119.5 97.5,119.5 96.5,119.5C 96.5,112.167 96.5,104.833 96.5,97.5 Z"/></g>
</svg>
