<svg xmlns="http://www.w3.org/2000/svg" width="64" height="64" ><path style="opacity:1" fill="#403837" d="M17.5-.5h3l1 2c-10.435 1.075-13.768 6.408-10 16l20 2c-7.027 1.297-14.027 1.297-21 0-2.423 5.42-.756 8.754 5 10-2.616.886-4.95.22-7-2a55.683 55.683 0 0 1-1.5-9c-1.356-.88-2.856-1.213-4.5-1-.628 6.262.205 12.262 2.5 18l7.5 7.5a72.496 72.496 0 0 0 17 0c1.707-5.929 5.374-10.095 11-12.5a88.725 88.725 0 0 0 .5-23c-.833-2.167-2.333-3.667-4.5-4.5-4.188-.176-8.188-.676-12-1.5v-2h9c6.83 1.783 10.496 6.283 11 13.5a83.587 83.587 0 0 0-1 16.5c14.297.465 20.463 7.798 18.5 22-1.187 4.21-3.687 7.376-7.5 9.5a544.417 544.417 0 0 0-9 2.5h-1c-3.678-1.01-7.011-2.843-10-5.5l-21-1-1.5-1.5-1-11c-4.832-3.984-8.665-8.65-11.5-14v-12c1.568-2.954 3.901-3.954 7-3-.16-8.144 3.507-13.478 11-16z"/><path style="opacity:1" fill="#e55361" d="M21.5 1.5h3c3.812.824 7.812 1.324 12 1.5 2.167.833 3.667 2.333 4.5 4.5a88.725 88.725 0 0 1-.5 23c-5.626 2.405-9.293 6.571-11 12.5a72.496 72.496 0 0 1-17 0L5 35.5c-2.295-5.738-3.128-11.738-2.5-18 1.644-.213 3.144.12 4.5 1a55.683 55.683 0 0 0 1.5 9c2.05 2.22 4.384 2.886 7 2-5.756-1.246-7.423-4.58-5-10 6.973 1.297 13.973 1.297 21 0l-20-2c-3.768-9.592-.435-14.925 10-16z"/><path style="opacity:1" fill="#453839" d="M15.5 4.5a81.874 81.874 0 0 1 18 1c-5.638.83-11.304 1.33-17 1.5-1.922 1.42-3.255 3.253-4 5.5-1.114-1.223-1.28-2.556-.5-4a19.567 19.567 0 0 0 3.5-4z"/><path style="opacity:1" fill="#e7b046" d="M41.5 31.5c16.818.308 22.318 8.308 16.5 24-4.922 4.702-10.755 6.202-17.5 4.5-8.857-5.571-11.024-13.071-6.5-22.5 2.114-2.62 4.614-4.62 7.5-6z"/><path style="opacity:1" fill="#413d37" d="M42.5 33.5c12.15-.045 16.983 5.621 14.5 17 .427-10.24-4.406-15.073-14.5-14.5-7.376 4.267-8.876 10.1-4.5 17.5 5.466 3.97 10.966 3.97 16.5 0l1 1c-4.757 4.216-10.09 5.049-16 2.5-8.67-9.14-7.67-16.974 3-23.5z"/><path style="opacity:1" fill="#db515e" d="M13.5 49.5c3.726-.323 7.393.01 11 1l-5.5 1c-2.295-.047-4.129-.713-5.5-2z"/><path style="opacity:1" fill="#4c4538" d="M44.5 41.5h3c-.427 3.288.24 6.288 2 9-2 1.333-4 1.333-6 0 2.667-2.333 2.667-4.667 0-7 .363-.684.696-1.35 1-2z"/><path style="opacity:1" fill="#c9424e" d="M13.5 45.5h16c.192 3.1.858 6.1 2 9l-8.5 1c-3.355.125-6.522-.375-9.5-1.5l11-1c1.054-1.388 1.22-2.888.5-4.5-4.214-.327-8.048-1.327-11.5-3z"/></svg>