<?xml version="1.0" encoding="UTF-8"?>
<!DOCTYPE svg PUBLIC "-//W3C//DTD SVG 1.1//EN" "http://www.w3.org/Graphics/SVG/1.1/DTD/svg11.dtd">
<svg xmlns="http://www.w3.org/2000/svg" version="1.1" width="128px" height="128px" style="shape-rendering:geometricPrecision; text-rendering:geometricPrecision; image-rendering:optimizeQuality; fill-rule:evenodd; clip-rule:evenodd" xmlns:xlink="http://www.w3.org/1999/xlink">
<g><path style="opacity:0.944" fill="#08090a" d="M 75.5,15.5 C 51.7289,17.4747 27.7289,18.1414 3.5,17.5C 3.5,34.8333 3.5,52.1667 3.5,69.5C 6.83333,69.5 10.1667,69.5 13.5,69.5C 13.3334,55.496 13.5001,41.496 14,27.5C 15.0113,26.6634 16.1779,26.33 17.5,26.5C 17.168,37.1874 17.5013,47.8541 18.5,58.5C 23.2276,55.2821 27.561,51.4488 31.5,47C 34.4715,46.2057 37.4715,45.539 40.5,45C 44.8333,40 49.1667,35 53.5,30C 54.5,29.3333 55.5,29.3333 56.5,30C 60.2682,32.3003 64.1016,34.4669 68,36.5C 71.0551,35.3895 73.8884,33.8895 76.5,32C 77.5,31.3333 78.5,31.3333 79.5,32C 80.4888,44.42 80.8221,56.92 80.5,69.5C 81.5,69.5 82.5,69.5 83.5,69.5C 83.1201,67.302 83.7868,65.6354 85.5,64.5C 86.1174,64.6107 86.6174,64.944 87,65.5C 87.4995,71.4908 87.6662,77.4908 87.5,83.5C 97.8333,83.5 108.167,83.5 118.5,83.5C 120.167,83.5 121.833,83.5 123.5,83.5C 123.5,71.8333 123.5,60.1667 123.5,48.5C 120.941,48.1984 118.607,48.5318 116.5,49.5C 115.008,54.9771 111.341,56.9771 105.5,55.5C 99.3322,57.1192 95.6656,54.9525 94.5,49C 92.5,48.3333 90.5,48.3333 88.5,49C 87.7117,52.0757 87.2117,55.2423 87,58.5C 86.6174,59.056 86.1174,59.3893 85.5,59.5C 84.8826,59.3893 84.3826,59.056 84,58.5C 83.0223,54.0998 83.5223,49.9331 85.5,46C 87.3453,44.872 89.3453,44.372 91.5,44.5C 91.5,37.8333 91.5,31.1667 91.5,24.5C 92.8333,24.5 94.1667,24.5 95.5,24.5C 95.176,31.3543 95.5093,38.021 96.5,44.5C 99.1667,44.5 101.833,44.5 104.5,44.5C 104.666,35.8269 104.5,27.1603 104,18.5C 96.5871,17.5192 89.0871,17.1858 81.5,17.5C 80.5,17.1667 79.8333,16.5 79.5,15.5C 83.4451,14.1745 87.7784,13.5079 92.5,13.5C 96.8333,13.6667 101.167,13.8333 105.5,14C 106.333,14.8333 107.167,15.6667 108,16.5C 108.5,25.8274 108.666,35.1607 108.5,44.5C 114.176,44.3339 119.843,44.5006 125.5,45C 126.044,45.7172 126.711,46.2172 127.5,46.5C 127.5,67.8333 127.5,89.1667 127.5,110.5C 126.691,111.469 125.691,112.302 124.5,113C 111.833,113.667 99.1667,113.667 86.5,113C 85.6667,112.167 84.8333,111.333 84,110.5C 83.5003,102.507 83.3336,94.5069 83.5,86.5C 78.5,86.5 73.5,86.5 68.5,86.5C 68.5,91.5 68.5,96.5 68.5,101.5C 75.6647,100.497 78.498,103.497 77,110.5C 76.1667,111.333 75.3333,112.167 74.5,113C 67.6667,113.167 60.8333,113.333 54,113.5C 46.4002,113.634 38.9002,113.134 31.5,112C 28.1782,104.819 30.5115,101.319 38.5,101.5C 38.5,96.5 38.5,91.5 38.5,86.5C 33.0557,87.1083 28.0557,86.4417 23.5,84.5C 23.6107,83.8826 23.944,83.3826 24.5,83C 44.1638,82.5 63.8305,82.3334 83.5,82.5C 83.5,79.5 83.5,76.5 83.5,73.5C 56.8333,73.5 30.1667,73.5 3.5,73.5C 3.5,76.5 3.5,79.5 3.5,82.5C 8.17853,82.3342 12.8452,82.5008 17.5,83C 18.056,83.3826 18.3893,83.8826 18.5,84.5C 16.0849,85.8142 13.2515,86.4809 10,86.5C 6.20262,86.7527 2.70262,86.086 -0.5,84.5C -0.5,61.5 -0.5,38.5 -0.5,15.5C 0.28913,15.2172 0.955796,14.7172 1.5,14C 25.8333,13.3333 50.1667,13.3333 74.5,14C 75.056,14.3826 75.3893,14.8826 75.5,15.5 Z M 51.5,86.5 C 52.8333,86.5 54.1667,86.5 55.5,86.5C 54.5954,92.9632 53.2621,92.9632 51.5,86.5 Z"/></g>
<g><path style="opacity:1" fill="#d2d7ef" d="M 75.5,15.5 C 76.8333,15.5 78.1667,15.5 79.5,15.5C 79.8333,16.5 80.5,17.1667 81.5,17.5C 86.3054,18.4872 91.3054,18.8205 96.5,18.5C 96.5,27.1667 96.5,35.8333 96.5,44.5C 95.5093,38.021 95.176,31.3543 95.5,24.5C 94.1667,24.5 92.8333,24.5 91.5,24.5C 91.5,31.1667 91.5,37.8333 91.5,44.5C 89.3453,44.372 87.3453,44.872 85.5,46C 83.5223,49.9331 83.0223,54.0998 84,58.5C 84.3826,59.056 84.8826,59.3893 85.5,59.5C 85.5,61.1667 85.5,62.8333 85.5,64.5C 83.7868,65.6354 83.1201,67.302 83.5,69.5C 82.5,69.5 81.5,69.5 80.5,69.5C 80.8221,56.92 80.4888,44.42 79.5,32C 78.5,31.3333 77.5,31.3333 76.5,32C 73.8884,33.8895 71.0551,35.3895 68,36.5C 64.1016,34.4669 60.2682,32.3003 56.5,30C 55.5,29.3333 54.5,29.3333 53.5,30C 49.1667,35 44.8333,40 40.5,45C 37.4715,45.539 34.4715,46.2057 31.5,47C 27.561,51.4488 23.2276,55.2821 18.5,58.5C 17.5013,47.8541 17.168,37.1874 17.5,26.5C 16.1779,26.33 15.0113,26.6634 14,27.5C 13.5001,41.496 13.3334,55.496 13.5,69.5C 10.1667,69.5 6.83333,69.5 3.5,69.5C 3.5,52.1667 3.5,34.8333 3.5,17.5C 27.7289,18.1414 51.7289,17.4747 75.5,15.5 Z"/></g>
<g><path style="opacity:1" fill="#b4bcde" d="M 81.5,17.5 C 89.0871,17.1858 96.5871,17.5192 104,18.5C 104.5,27.1603 104.666,35.8269 104.5,44.5C 101.833,44.5 99.1667,44.5 96.5,44.5C 96.5,35.8333 96.5,27.1667 96.5,18.5C 91.3054,18.8205 86.3054,18.4872 81.5,17.5 Z"/></g>
<g><path style="opacity:1" fill="#0c0c0e" d="M 39.5,26.5 C 46.5416,28.2071 47.0416,30.8738 41,34.5C 39.3207,33.3179 37.8207,31.9846 36.5,30.5C 37.8262,29.3578 38.8262,28.0245 39.5,26.5 Z"/></g>
<g><path style="opacity:1" fill="#83262f" d="M 58.5,35.5 C 57.5052,46.6544 57.1719,57.9877 57.5,69.5C 60.5,69.5 63.5,69.5 66.5,69.5C 63.3752,70.4794 60.0419,70.8128 56.5,70.5C 56.1677,58.4815 56.501,46.4815 57.5,34.5C 58.1067,34.6236 58.44,34.9569 58.5,35.5 Z"/></g>
<g><path style="opacity:1" fill="#f64857" d="M 58.5,35.5 C 60.8162,36.8056 63.1495,38.1389 65.5,39.5C 66.4985,49.4778 66.8319,59.4778 66.5,69.5C 63.5,69.5 60.5,69.5 57.5,69.5C 57.1719,57.9877 57.5052,46.6544 58.5,35.5 Z"/></g>
<g><path style="opacity:1" fill="#18885e" d="M 44.5,46.5 C 44.5,54.1667 44.5,61.8333 44.5,69.5C 47.1667,69.5 49.8333,69.5 52.5,69.5C 52.8276,58.9865 52.4942,48.6532 51.5,38.5C 51.7828,37.7109 52.2828,37.0442 53,36.5C 53.4999,47.8284 53.6665,59.1618 53.5,70.5C 50.1667,70.5 46.8333,70.5 43.5,70.5C 43.1743,62.3159 43.5076,54.3159 44.5,46.5 Z"/></g>
<g><path style="opacity:1" fill="#25cf90" d="M 51.5,38.5 C 52.4942,48.6532 52.8276,58.9865 52.5,69.5C 49.8333,69.5 47.1667,69.5 44.5,69.5C 44.5,61.8333 44.5,54.1667 44.5,46.5C 46.8623,43.808 49.1956,41.1413 51.5,38.5 Z"/></g>
<g><path style="opacity:1" fill="#25cd8f" d="M 75.5,36.5 C 76.4946,47.3206 76.8279,58.3206 76.5,69.5C 74.5,69.5 72.5,69.5 70.5,69.5C 70.1681,59.4778 70.5015,49.4778 71.5,39.5C 72.9014,38.4793 74.2347,37.4793 75.5,36.5 Z"/></g>
<g><path style="opacity:1" fill="#22eaa3" d="M 116.5,49.5 C 118.478,60.4507 119.144,71.784 118.5,83.5C 108.167,83.5 97.8333,83.5 87.5,83.5C 87.6662,77.4908 87.4995,71.4908 87,65.5C 86.6174,64.944 86.1174,64.6107 85.5,64.5C 85.5,62.8333 85.5,61.1667 85.5,59.5C 86.1174,59.3893 86.6174,59.056 87,58.5C 87.2117,55.2423 87.7117,52.0757 88.5,49C 90.5,48.3333 92.5,48.3333 94.5,49C 95.6656,54.9525 99.3322,57.1192 105.5,55.5C 111.341,56.9771 115.008,54.9771 116.5,49.5 Z"/></g>
<g><path style="opacity:1" fill="#6579d0" d="M 98.5,48.5 C 103.167,48.5 107.833,48.5 112.5,48.5C 112.5,49.5 112.5,50.5 112.5,51.5C 108.154,51.6657 103.821,51.499 99.5,51C 98.7476,50.3292 98.4142,49.4959 98.5,48.5 Z"/></g>
<g><path style="opacity:1" fill="#25d091" d="M 116.5,49.5 C 118.607,48.5318 120.941,48.1984 123.5,48.5C 123.5,60.1667 123.5,71.8333 123.5,83.5C 121.833,83.5 120.167,83.5 118.5,83.5C 119.144,71.784 118.478,60.4507 116.5,49.5 Z"/></g>
<g><path style="opacity:1" fill="#d73f4c" d="M 34.5,49.5 C 36.5,49.5 38.5,49.5 40.5,49.5C 40.5,56.1667 40.5,62.8333 40.5,69.5C 38.1667,69.5 35.8333,69.5 33.5,69.5C 33.2066,62.7446 33.5399,56.0779 34.5,49.5 Z"/></g>
<g><path style="opacity:1" fill="#25d091" d="M 28.5,55.5 C 29.4861,59.97 29.8195,64.6367 29.5,69.5C 28.5,69.5 27.5,69.5 26.5,69.5C 26.5,65.8333 26.5,62.1667 26.5,58.5C 27.1667,57.5 27.8333,56.5 28.5,55.5 Z"/></g>
<g><path style="opacity:1" fill="#0d1b15" d="M 90.5,56.5 C 91.9778,56.238 93.3112,56.5713 94.5,57.5C 93.6798,59.1112 92.3464,59.7778 90.5,59.5C 90.5,58.5 90.5,57.5 90.5,56.5 Z"/></g>
<g><path style="opacity:1" fill="#178059" d="M 28.5,55.5 C 28.56,54.9569 28.8933,54.6236 29.5,54.5C 30.4948,59.7921 30.8282,65.1254 30.5,70.5C 28.8333,70.5 27.1667,70.5 25.5,70.5C 25.1832,66.2984 25.5166,62.2984 26.5,58.5C 26.5,62.1667 26.5,65.8333 26.5,69.5C 27.5,69.5 28.5,69.5 29.5,69.5C 29.8195,64.6367 29.4861,59.97 28.5,55.5 Z"/></g>
<g><path style="opacity:1" fill="#08140e" d="M 104.5,58.5 C 106.516,59.4564 108.349,60.7898 110,62.5C 110.483,63.448 110.649,64.448 110.5,65.5C 102.658,64.7161 102.658,65.7161 110.5,68.5C 112.938,70.6561 113.105,72.9894 111,75.5C 109.025,76.478 107.358,77.8113 106,79.5C 102.033,77.7131 99.866,74.7131 99.5,70.5C 101.668,71.1786 103.668,72.1786 105.5,73.5C 106.737,73.4435 107.737,72.9435 108.5,72C 106.246,70.744 103.912,69.5773 101.5,68.5C 100.359,66.5787 100.192,64.5787 101,62.5C 102.72,61.6159 103.886,60.2825 104.5,58.5 Z"/></g>
<g><path style="opacity:1" fill="#882830" d="M 17.5,69.5 C 18.8333,69.5 20.1667,69.5 21.5,69.5C 21.5,66.8333 21.5,64.1667 21.5,61.5C 22.5051,63.7043 22.8384,66.7043 22.5,70.5C 20.5853,70.7845 18.9187,70.4511 17.5,69.5 Z"/></g>
<g><path style="opacity:1" fill="#f44856" d="M 21.5,61.5 C 21.5,64.1667 21.5,66.8333 21.5,69.5C 20.1667,69.5 18.8333,69.5 17.5,69.5C 17.1924,67.076 17.5258,64.7427 18.5,62.5C 19.4168,61.8728 20.4168,61.5394 21.5,61.5 Z"/></g>
<g><path style="opacity:1" fill="#4e65c6" d="M 23.5,84.5 C 21.8333,84.5 20.1667,84.5 18.5,84.5C 18.3893,83.8826 18.056,83.3826 17.5,83C 12.8452,82.5008 8.17853,82.3342 3.5,82.5C 3.5,79.5 3.5,76.5 3.5,73.5C 30.1667,73.5 56.8333,73.5 83.5,73.5C 83.5,76.5 83.5,79.5 83.5,82.5C 63.8305,82.3334 44.1638,82.5 24.5,83C 23.944,83.3826 23.6107,83.8826 23.5,84.5 Z"/></g>
<g><path style="opacity:1" fill="#9fabde" d="M 117.5,87.5 C 117.5,91.1667 117.5,94.8333 117.5,98.5C 109.16,98.3336 100.827,98.5003 92.5,99C 91.1667,100 91.1667,101 92.5,102C 100.827,102.5 109.16,102.666 117.5,102.5C 117.5,104.833 117.5,107.167 117.5,109.5C 107.828,109.666 98.1609,109.5 88.5,109C 87.5201,101.921 87.1868,94.7546 87.5,87.5C 97.5,87.5 107.5,87.5 117.5,87.5 Z"/></g>
<g><path style="opacity:1" fill="#8896da" d="M 117.5,87.5 C 119.5,87.5 121.5,87.5 123.5,87.5C 123.666,94.5079 123.5,101.508 123,108.5C 121.301,109.406 119.467,109.739 117.5,109.5C 117.5,107.167 117.5,104.833 117.5,102.5C 121.5,101.167 121.5,99.8333 117.5,98.5C 117.5,94.8333 117.5,91.1667 117.5,87.5 Z"/></g>
<g><path style="opacity:1" fill="#2c48b2" d="M 42.5,85.5 C 44.1667,85.5 45.8333,85.5 47.5,85.5C 47.2851,94.9681 51.1185,97.3015 59,92.5C 59.4966,90.1902 59.6633,87.8568 59.5,85.5C 61.1667,85.5 62.8333,85.5 64.5,85.5C 64.5,90.8333 64.5,96.1667 64.5,101.5C 57.1667,101.5 49.8333,101.5 42.5,101.5C 42.5,96.1667 42.5,90.8333 42.5,85.5 Z M 51.5,86.5 C 53.2621,92.9632 54.5954,92.9632 55.5,86.5C 54.1667,86.5 52.8333,86.5 51.5,86.5 Z"/></g>
<g><path style="opacity:1" fill="#131418" d="M 92.5,92.5 C 96.8333,92.5 101.167,92.5 105.5,92.5C 105.67,93.8221 105.337,94.9887 104.5,96C 100.5,96.6667 96.5,96.6667 92.5,96C 91.3157,94.8545 91.3157,93.6879 92.5,92.5 Z"/></g>
<g><path style="opacity:1" fill="#101115" d="M 117.5,98.5 C 121.5,99.8333 121.5,101.167 117.5,102.5C 109.16,102.666 100.827,102.5 92.5,102C 91.1667,101 91.1667,100 92.5,99C 100.827,98.5003 109.16,98.3336 117.5,98.5 Z"/></g>
<g><path style="opacity:1" fill="#b5bee3" d="M 34.5,105.5 C 47.1711,105.333 59.8377,105.5 72.5,106C 73.8333,107 73.8333,108 72.5,109C 59.8377,109.5 47.1711,109.667 34.5,109.5C 34.5,108.167 34.5,106.833 34.5,105.5 Z"/></g>
</svg>
