<?xml version="1.0" encoding="UTF-8"?>
<!DOCTYPE svg PUBLIC "-//W3C//DTD SVG 1.1//EN" "http://www.w3.org/Graphics/SVG/1.1/DTD/svg11.dtd">
<svg xmlns="http://www.w3.org/2000/svg" version="1.1" width="128px" height="128px" style="shape-rendering:geometricPrecision; text-rendering:geometricPrecision; image-rendering:optimizeQuality; fill-rule:evenodd; clip-rule:evenodd" xmlns:xlink="http://www.w3.org/1999/xlink">
<g><path style="opacity:0.912" fill="#090705" d="M 71.5,21.5 C 69.8863,23.0746 67.8863,23.7413 65.5,23.5C 65.414,29.9054 62.0806,32.5721 55.5,31.5C 55.8503,35.0543 55.1837,38.3876 53.5,41.5C 58.5758,46.2254 61.2424,52.0587 61.5,59C 65.3749,60.5204 69.3749,60.8538 73.5,60C 74.2612,52.7519 78.2612,49.9185 85.5,51.5C 89.9952,40.485 87.1619,31.8184 77,25.5C 76.5172,24.552 76.3505,23.552 76.5,22.5C 77.2506,21.4265 78.2506,21.2599 79.5,22C 86.4516,25.7889 90.4516,31.6222 91.5,39.5C 100.002,38.3379 103.335,42.0046 101.5,50.5C 108.992,48.9948 112.325,51.9948 111.5,59.5C 112.147,66.8396 108.814,69.5063 101.5,67.5C 101.29,72.1977 101.124,76.8644 101,81.5C 103.293,83.4899 105.626,85.4899 108,87.5C 108.954,98.598 108.62,109.598 107,120.5C 104.421,122.347 101.588,122.847 98.5,122C 96.2911,120.127 94.4578,117.96 93,115.5C 90.7692,123.16 86.4359,124.493 80,119.5C 79.5006,113.843 79.3339,108.176 79.5,102.5C 78.5,102.5 77.5,102.5 76.5,102.5C 76.666,107.844 76.4994,113.177 76,118.5C 73.8387,122.124 70.672,123.291 66.5,122C 64.5397,119.894 62.7064,117.727 61,115.5C 57.4131,118.083 53.5798,120.25 49.5,122C 44.3521,123.109 39.6855,122.109 35.5,119C 32.1103,118.754 28.777,118.254 25.5,117.5C 15.267,125.141 6.60036,123.808 -0.5,113.5C -0.5,110.5 -0.5,107.5 -0.5,104.5C 1.17571,102.166 3.50904,101.166 6.5,101.5C 7.35023,97.7991 7.35023,94.1325 6.5,90.5C 9.63235,82.8676 14.9657,77.3676 22.5,74C 18.2417,69.7276 16.2417,64.561 16.5,58.5C 10.2963,58.1358 7.963,54.8024 9.5,48.5C 2.92896,50.0879 -0.0710386,47.5879 0.5,41C -0.244127,34.2447 2.75587,31.4114 9.5,32.5C 9.01913,23.1727 13.3525,20.006 22.5,23C 25.1856,25.5463 26.1856,28.713 25.5,32.5C 29.9893,33.0225 34.3226,34.0225 38.5,35.5C 38.5,34.1667 38.5,32.8333 38.5,31.5C 31.1864,33.5063 27.8531,30.8396 28.5,23.5C 27.6746,15.9948 31.008,12.9948 38.5,14.5C 37.5757,4.09652 42.2423,0.596522 52.5,4C 55.2309,6.89655 56.2309,10.3966 55.5,14.5C 59.8492,13.5769 63.1825,14.9102 65.5,18.5C 67.8839,19.0108 69.8839,20.0108 71.5,21.5 Z"/></g>
<g><path style="opacity:1" fill="#22e6a0" d="M 43.5,7.5 C 46.1194,7.23166 48.6194,7.565 51,8.5C 51.4983,11.8168 51.665,15.1501 51.5,18.5C 54.5184,18.3354 57.5184,18.502 60.5,19C 61.4438,21.7191 61.7771,24.5525 61.5,27.5C 58.2234,27.2161 55.0567,27.5495 52,28.5C 51.5017,31.8168 51.335,35.1501 51.5,38.5C 48.6872,38.4519 46.0205,37.7853 43.5,36.5C 42.792,33.6336 42.1253,30.8003 41.5,28C 38.5184,27.502 35.5184,27.3354 32.5,27.5C 32.2229,24.5525 32.5562,21.7191 33.5,19C 36.4816,18.502 39.4816,18.3354 42.5,18.5C 42.244,14.7307 42.5773,11.0641 43.5,7.5 Z"/></g>
<g><path style="opacity:1" fill="#f3a696" d="M 71.5,21.5 C 73.1172,22.038 74.7839,22.3713 76.5,22.5C 76.3505,23.552 76.5172,24.552 77,25.5C 87.1619,31.8184 89.9952,40.485 85.5,51.5C 78.2612,49.9185 74.2612,52.7519 73.5,60C 69.3749,60.8538 65.3749,60.5204 61.5,59C 61.2424,52.0587 58.5758,46.2254 53.5,41.5C 55.1837,38.3876 55.8503,35.0543 55.5,31.5C 62.0806,32.5721 65.414,29.9054 65.5,23.5C 67.8863,23.7413 69.8863,23.0746 71.5,21.5 Z"/></g>
<g><path style="opacity:1" fill="#eaa746" d="M 14.5,26.5 C 16.7925,26.2436 18.9592,26.5769 21,27.5C 21.498,30.4816 21.6646,33.4816 21.5,36.5C 24.2469,36.1866 26.9135,36.52 29.5,37.5C 22.7799,41.2823 18.7799,46.949 17.5,54.5C 16.1667,54.5 14.8333,54.5 13.5,54.5C 13.5,51.1667 13.5,47.8333 13.5,44.5C 10.5,44.5 7.5,44.5 4.5,44.5C 4.23166,41.8806 4.565,39.3806 5.5,37C 8.14603,36.5026 10.8127,36.3359 13.5,36.5C 13.2529,33.0613 13.5863,29.728 14.5,26.5 Z"/></g>
<g><path style="opacity:1" fill="#201817" d="M 57.5,38.5 C 58.9778,38.238 60.3112,38.5713 61.5,39.5C 60.6798,41.1112 59.3464,41.7778 57.5,41.5C 57.5,40.5 57.5,39.5 57.5,38.5 Z"/></g>
<g><path style="opacity:1" fill="#0f0a09" d="M 77.5,38.5 C 78.5,38.5 79.5,38.5 80.5,38.5C 80.5,39.5 80.5,40.5 80.5,41.5C 79.5,41.5 78.5,41.5 77.5,41.5C 77.5,40.5 77.5,39.5 77.5,38.5 Z"/></g>
<g><path style="opacity:1" fill="#f8ac9c" d="M 48.5,42.5 C 55.4601,55.1206 52.4601,64.6206 39.5,71C 35.7387,71.7383 32.0721,71.4049 28.5,70C 26.5952,68.5787 24.5952,67.412 22.5,66.5C 18.0044,55.3293 21.0044,46.8293 31.5,41C 37.4609,38.6817 43.1275,39.1817 48.5,42.5 Z"/></g>
<g><path style="opacity:1" fill="#2fa0f1" d="M 102.5,55.5 C 102.5,58.1667 102.5,60.8333 102.5,63.5C 100.856,63.2865 99.3561,63.6198 98,64.5C 97.5017,67.8168 97.335,71.1501 97.5,74.5C 94.5,74.5 91.5,74.5 88.5,74.5C 88.665,71.1501 88.4983,67.8168 88,64.5C 84.9433,63.5495 81.7766,63.2161 78.5,63.5C 78.2229,60.5525 78.5562,57.7191 79.5,55C 82.4816,54.502 85.4816,54.3354 88.5,54.5C 88.335,51.1501 88.5017,47.8168 89,44.5C 91.6667,43.1667 94.3333,43.1667 97,44.5C 97.3333,47.8333 97.6667,51.1667 98,54.5C 99.3561,55.3802 100.856,55.7135 102.5,55.5 Z"/></g>
<g><path style="opacity:1" fill="#ee9988" d="M 48.5,42.5 C 56.2666,48.3575 59.2666,56.0242 57.5,65.5C 57.5,65.8333 57.5,66.1667 57.5,66.5C 56.8333,67.8333 56.1667,69.1667 55.5,70.5C 54.1266,70.3433 52.7932,70.51 51.5,71C 44.0559,77.4769 36.0559,78.1435 27.5,73C 25.2345,71.2419 23.5678,69.0752 22.5,66.5C 24.5952,67.412 26.5952,68.5787 28.5,70C 32.0721,71.4049 35.7387,71.7383 39.5,71C 52.4601,64.6206 55.4601,55.1206 48.5,42.5 Z"/></g>
<g><path style="opacity:1" fill="#191312" d="M 62.5,46.5 C 66.8333,47.8333 71.1667,47.8333 75.5,46.5C 74.9219,50.312 72.5886,51.9787 68.5,51.5C 66.192,51.6353 64.192,50.9686 62.5,49.5C 61.4376,48.5754 61.4376,47.5754 62.5,46.5 Z"/></g>
<g><path style="opacity:1" fill="#221a18" d="M 27.5,53.5 C 28.5,53.5 29.5,53.5 30.5,53.5C 30.5,54.8333 30.5,56.1667 30.5,57.5C 29.5,57.5 28.5,57.5 27.5,57.5C 27.5,56.1667 27.5,54.8333 27.5,53.5 Z"/></g>
<g><path style="opacity:1" fill="#221917" d="M 47.5,53.5 C 50.8606,54.2032 51.1939,55.5365 48.5,57.5C 46.3576,56.5629 46.0243,55.2296 47.5,53.5 Z"/></g>
<g><path style="opacity:1" fill="#1785f7" d="M 102.5,55.5 C 104.167,55.5 105.833,55.5 107.5,55.5C 107.5,58.1667 107.5,60.8333 107.5,63.5C 105.833,63.5 104.167,63.5 102.5,63.5C 102.5,60.8333 102.5,58.1667 102.5,55.5 Z"/></g>
<g><path style="opacity:0.877" fill="#0b0201" d="M 127.5,61.5 C 127.5,75.5 127.5,89.5 127.5,103.5C 123.594,107.009 119.428,107.342 115,104.5C 113.406,97.2735 113.072,89.9402 114,82.5C 114.383,81.944 114.883,81.6107 115.5,81.5C 117.237,87.8921 118.071,94.5587 118,101.5C 118.383,102.056 118.883,102.389 119.5,102.5C 120.822,102.67 121.989,102.337 123,101.5C 123.827,88.6599 123.66,75.9933 122.5,63.5C 120.847,62.2006 119.347,62.5339 118,64.5C 118.009,69.1372 117.175,73.4706 115.5,77.5C 114.883,77.3893 114.383,77.056 114,76.5C 113.104,71.0509 113.437,65.7175 115,60.5C 119.499,57.5984 123.665,57.9317 127.5,61.5 Z"/></g>
<g><path style="opacity:1" fill="#171110" d="M 31.5,62.5 C 36.1667,63.8333 40.8333,63.8333 45.5,62.5C 44.4166,65.9783 41.9166,67.645 38,67.5C 34.4704,67.4583 32.3037,65.7916 31.5,62.5 Z"/></g>
<g><path style="opacity:1" fill="#446267" d="M 85.5,84.5 C 85.5307,80.516 84.864,76.6827 83.5,73C 79.7312,73.1887 76.8979,71.6887 75,68.5C 68.8652,70.1703 63.0318,69.5037 57.5,66.5C 57.5,66.1667 57.5,65.8333 57.5,65.5C 59.0936,65.0805 60.5936,64.4138 62,63.5C 66,64.8333 70,64.8333 74,63.5C 76.909,67.1151 80.7423,68.4485 85.5,67.5C 83.5,76.8333 87.1667,80.5 96.5,78.5C 96.6224,83.2318 96.1224,87.8984 95,92.5C 93.1667,90 91.3333,87.5 89.5,85C 88.2068,84.51 86.8734,84.3433 85.5,84.5 Z"/></g>
<g><path style="opacity:1" fill="#f72f40" d="M 122.5,63.5 C 123.66,75.9933 123.827,88.6599 123,101.5C 121.989,102.337 120.822,102.67 119.5,102.5C 119.811,89.2017 120.811,76.2017 122.5,63.5 Z"/></g>
<g><path style="opacity:0.982" fill="#e84452" d="M 122.5,63.5 C 120.811,76.2017 119.811,89.2017 119.5,102.5C 118.883,102.389 118.383,102.056 118,101.5C 118.071,94.5587 117.237,87.8921 115.5,81.5C 115.5,80.1667 115.5,78.8333 115.5,77.5C 117.175,73.4706 118.009,69.1372 118,64.5C 119.347,62.5339 120.847,62.2006 122.5,63.5 Z"/></g>
<g><path style="opacity:1" fill="#537781" d="M 57.5,66.5 C 63.0318,69.5037 68.8652,70.1703 75,68.5C 76.8979,71.6887 79.7312,73.1887 83.5,73C 84.864,76.6827 85.5307,80.516 85.5,84.5C 82.8517,84.7385 81.0183,86.0718 80,88.5C 79.5017,91.8168 79.335,95.1501 79.5,98.5C 78.5,98.5 77.5,98.5 76.5,98.5C 78.7118,89.577 75.3784,84.7437 66.5,84C 63.7183,79.2195 59.7183,75.8861 54.5,74C 55.3366,72.9887 55.67,71.8221 55.5,70.5C 56.1667,69.1667 56.8333,67.8333 57.5,66.5 Z"/></g>
<g><path style="opacity:1" fill="#20e19c" d="M 23.5,78.5 C 28.1952,82.5193 33.5285,84.8527 39.5,85.5C 36.1114,87.7252 33.6114,90.7252 32,94.5C 31.3354,101.195 31.502,107.862 32.5,114.5C 30.5,114.5 28.5,114.5 26.5,114.5C 27.5815,105.535 27.7481,96.5347 27,87.5C 26.1667,86.6667 25.3333,85.8333 24.5,85C 21.5,84.6667 18.5,84.3333 15.5,84C 17.5166,81.1388 20.1833,79.3054 23.5,78.5 Z"/></g>
<g><path style="opacity:1" fill="#23c68a" d="M 23.5,78.5 C 24.2739,77.8529 25.2739,77.5195 26.5,77.5C 30.2446,79.2995 34.2446,80.2995 38.5,80.5C 42.8869,79.8112 47.2202,78.8112 51.5,77.5C 61.8629,80.4057 65.8629,87.239 63.5,98C 63.1667,102.167 62.8333,106.333 62.5,110.5C 61.8333,110.833 61.1667,111.167 60.5,111.5C 59.9247,104.753 59.0914,98.0864 58,91.5C 53.248,85.0365 47.0814,83.0365 39.5,85.5C 33.5285,84.8527 28.1952,82.5193 23.5,78.5 Z"/></g>
<g><path style="opacity:1" fill="#f28523" d="M 22.5,88.5 C 23.6561,96.3225 23.8228,104.323 23,112.5C 21.9455,115.056 20.1122,116.723 17.5,117.5C 17.7553,114.984 18.5886,112.65 20,110.5C 20.8123,103.253 20.6456,96.0862 19.5,89C 20.448,88.5172 21.448,88.3505 22.5,88.5 Z"/></g>
<g><path style="opacity:1" fill="#f09d2c" d="M 48.5,88.5 C 52.3296,95.2874 53.4963,102.621 52,110.5C 50.8822,112.765 50.0488,115.099 49.5,117.5C 38.7416,118.906 34.075,114.073 35.5,103C 34.0995,92.9044 38.4328,88.0711 48.5,88.5 Z"/></g>
<g><path style="opacity:1" fill="#ed8423" d="M 67.5,88.5 C 69.1439,88.2865 70.6439,88.6198 72,89.5C 72.6667,98.8333 72.6667,108.167 72,117.5C 70.6667,118.833 69.3333,118.833 68,117.5C 67.5002,107.839 67.3335,98.1724 67.5,88.5 Z"/></g>
<g><path style="opacity:1" fill="#f5a22d" d="M 98.5,100.5 C 99.4881,105.64 99.8214,110.974 99.5,116.5C 96.5244,112.518 93.5244,108.518 90.5,104.5C 89.914,104.709 89.414,105.043 89,105.5C 88.6667,109.5 88.3333,113.5 88,117.5C 86.6667,118.833 85.3333,118.833 84,117.5C 83.3333,108.167 83.3333,98.8333 84,89.5C 85.4936,88.2528 86.9936,88.2528 88.5,89.5C 90.5836,93.3359 92.917,97.0026 95.5,100.5C 96.6136,101.776 97.6136,101.776 98.5,100.5 Z"/></g>
<g><path style="opacity:1" fill="#e37e21" d="M 99.5,116.5 C 99.8214,110.974 99.4881,105.64 98.5,100.5C 98.3347,96.8183 98.5014,93.1516 99,89.5C 100.667,88.1667 102.333,88.1667 104,89.5C 104.667,98.5 104.667,107.5 104,116.5C 102.479,119.046 100.979,119.046 99.5,116.5 Z"/></g>
<g><path style="opacity:1" fill="#ef8323" d="M 48.5,88.5 C 54.9304,91.1442 57.2637,95.9775 55.5,103C 56.9654,109.522 54.9654,114.356 49.5,117.5C 50.0488,115.099 50.8822,112.765 52,110.5C 53.4963,102.621 52.3296,95.2874 48.5,88.5 Z"/></g>
<g><path style="opacity:1" fill="#0e140e" d="M 42.5,93.5 C 45.3646,93.0548 47.8646,93.7215 50,95.5C 50.6667,100.5 50.6667,105.5 50,110.5C 47,113.167 44,113.167 41,110.5C 39.9901,104.62 40.4901,98.9536 42.5,93.5 Z"/></g>
<g><path style="opacity:1" fill="#22e29e" d="M 14.5,108.5 C 14.44,109.043 14.1067,109.376 13.5,109.5C 11.4781,106.476 10.4781,103.143 10.5,99.5C 11.4674,98.1938 12.8007,97.5271 14.5,97.5C 14.5,101.167 14.5,104.833 14.5,108.5 Z"/></g>
<g><path style="opacity:1" fill="#116e4c" d="M 14.5,108.5 C 14.5,104.833 14.5,101.167 14.5,97.5C 12.8007,97.5271 11.4674,98.1938 10.5,99.5C 10.5,98.5 10.5,97.5 10.5,96.5C 12.1667,96.5 13.8333,96.5 15.5,96.5C 15.8168,100.702 15.4834,104.702 14.5,108.5 Z"/></g>
<g><path style="opacity:1" fill="#22e5a0" d="M 44.5,97.5 C 45.7943,99.0478 46.4609,101.048 46.5,103.5C 46.1667,105.5 45.8333,107.5 45.5,109.5C 44.5091,105.555 44.1758,101.555 44.5,97.5 Z"/></g>
<g><path style="opacity:1" fill="#e4952a" d="M 22.5,88.5 C 21.448,88.3505 20.448,88.5172 19.5,89C 20.6456,96.0862 20.8123,103.253 20,110.5C 18.5886,112.65 17.7553,114.984 17.5,117.5C 10.0071,119.531 5.34042,116.698 3.5,109C 3.70027,105.715 5.20027,104.882 8,106.5C 9.37854,112.729 12.7119,114.063 18,110.5C 18.4994,104.843 18.6661,99.1764 18.5,93.5C 16.4727,93.6621 14.4727,93.4955 12.5,93C 11.4464,91.6124 11.2797,90.1124 12,88.5C 15.6013,87.1802 19.1013,87.1802 22.5,88.5 Z"/></g>
<g><path style="opacity:0.805" fill="#030000" d="M 127.5,112.5 C 127.5,115.167 127.5,117.833 127.5,120.5C 120.852,125.513 116.186,124.18 113.5,116.5C 114.353,109.897 118.02,107.73 124.5,110C 125.691,110.698 126.691,111.531 127.5,112.5 Z"/></g>
<g><path style="opacity:1" fill="#da3643" d="M 118.5,113.5 C 123.159,113.015 124.492,114.848 122.5,119C 118.266,119.267 116.933,117.434 118.5,113.5 Z"/></g>
</svg>
