<?xml version="1.0" encoding="UTF-8"?>
<!DOCTYPE svg PUBLIC "-//W3C//DTD SVG 1.1//EN" "http://www.w3.org/Graphics/SVG/1.1/DTD/svg11.dtd">
<svg xmlns="http://www.w3.org/2000/svg" version="1.1" width="128px" height="128px" style="shape-rendering:geometricPrecision; text-rendering:geometricPrecision; image-rendering:optimizeQuality; fill-rule:evenodd; clip-rule:evenodd" xmlns:xlink="http://www.w3.org/1999/xlink">
<g><path style="opacity:0.924" fill="#050404" d="M 69.5,-0.5 C 73.1667,-0.5 76.8333,-0.5 80.5,-0.5C 93.4372,6.97312 106.437,14.4731 119.5,22C 123.077,24.0738 125.744,26.9072 127.5,30.5C 127.5,34.5 127.5,38.5 127.5,42.5C 124.856,45.7734 122.689,49.4401 121,53.5C 119.989,54.3366 118.822,54.67 117.5,54.5C 116.859,53.5178 116.193,52.5178 115.5,51.5C 118.928,46.6447 121.261,41.3114 122.5,35.5C 122.378,33.2088 121.545,31.2088 120,29.5C 107.749,21.6227 95.2486,14.1227 82.5,7C 75.5206,2.89807 69.6872,4.06474 65,10.5C 58.9194,21.6633 52.586,32.6633 46,43.5C 43.9653,46.5612 42.7986,49.8945 42.5,53.5C 45.5,53.5 48.5,53.5 51.5,53.5C 51.559,43.2534 56.2257,40.0867 65.5,44C 69.0371,47.5294 69.3705,51.3628 66.5,55.5C 72.227,61.2947 74.8936,68.2947 74.5,76.5C 78.3738,78.8676 82.3738,81.0343 86.5,83C 89.9643,83.8166 93.2976,83.4833 96.5,82C 99.9517,78.2664 102.785,74.0997 105,69.5C 106.356,68.6198 107.856,68.2865 109.5,68.5C 108.783,76.7244 104.783,83.2244 97.5,88C 93.9279,89.4049 90.2613,89.7383 86.5,89C 82.2861,86.976 78.1194,84.8093 74,82.5C 73.6667,94.1667 73.3333,105.833 73,117.5C 70.9777,122.02 67.811,125.353 63.5,127.5C 45.5,127.5 27.5,127.5 9.5,127.5C 5.16667,125.167 1.83333,121.833 -0.5,117.5C -0.5,99.5 -0.5,81.5 -0.5,63.5C 1.6467,59.189 4.98004,56.0223 9.5,54C 18.8274,53.5002 28.1607,53.3335 37.5,53.5C 37.3379,51.4727 37.5045,49.4727 38,47.5C 45.4133,33.6716 53.08,20.0049 61,6.5C 63.4639,3.51895 66.2972,1.18562 69.5,-0.5 Z"/></g>
<g><path style="opacity:0.997" fill="#dde4e8" d="M 117.5,54.5 C 116.5,55.8333 115.5,57.1667 114.5,58.5C 110.556,58.8844 109.556,60.8844 111.5,64.5C 110.833,65.8333 110.167,67.1667 109.5,68.5C 107.856,68.2865 106.356,68.6198 105,69.5C 102.785,74.0997 99.9517,78.2664 96.5,82C 93.2976,83.4833 89.9643,83.8166 86.5,83C 82.3738,81.0343 78.3738,78.8676 74.5,76.5C 74.8936,68.2947 72.227,61.2947 66.5,55.5C 69.3705,51.3628 69.0371,47.5294 65.5,44C 56.2257,40.0867 51.559,43.2534 51.5,53.5C 48.5,53.5 45.5,53.5 42.5,53.5C 42.7986,49.8945 43.9653,46.5612 46,43.5C 52.586,32.6633 58.9194,21.6633 65,10.5C 69.6872,4.06474 75.5206,2.89807 82.5,7C 95.2486,14.1227 107.749,21.6227 120,29.5C 121.545,31.2088 122.378,33.2088 122.5,35.5C 121.261,41.3114 118.928,46.6447 115.5,51.5C 116.193,52.5178 116.859,53.5178 117.5,54.5 Z"/></g>
<g><path style="opacity:1" fill="#0b0c0d" d="M 74.5,12.5 C 83.0081,12.8329 86.1748,17.1662 84,25.5C 78.5135,31.0804 73.5135,30.747 69,24.5C 68.3333,22.1667 68.3333,19.8333 69,17.5C 70.7297,15.5981 72.563,13.9314 74.5,12.5 Z"/></g>
<g><path style="opacity:1" fill="#678aa2" d="M 75.5,17.5 C 79.1838,18.372 80.1838,20.5386 78.5,24C 73.1483,24.1754 72.1483,22.0087 75.5,17.5 Z"/></g>
<g><path style="opacity:1" fill="#0c0d0d" d="M 102.5,29.5 C 109.226,28.5174 112.893,31.3508 113.5,38C 113.35,43.4834 110.517,46.3167 105,46.5C 98.582,45.008 96.2486,41.008 98,34.5C 99.1932,32.5029 100.693,30.8362 102.5,29.5 Z"/></g>
<g><path style="opacity:1" fill="#63859d" d="M 103.5,34.5 C 108.328,34.3852 109.661,36.5519 107.5,41C 102.57,41.427 101.237,39.2604 103.5,34.5 Z"/></g>
<g><path style="opacity:1" fill="#0b0c0d" d="M 80.5,35.5 C 88.982,35.7653 92.1487,40.0987 90,48.5C 84.5135,54.0804 79.5135,53.747 75,47.5C 74.3333,45.1667 74.3333,42.8333 75,40.5C 76.7297,38.5981 78.563,36.9314 80.5,35.5 Z"/></g>
<g><path style="opacity:1" fill="#6588a0" d="M 81.5,40.5 C 85.4735,41.0755 86.4735,43.2421 84.5,47C 79.1483,47.1754 78.1483,45.0087 81.5,40.5 Z"/></g>
<g><path style="opacity:1" fill="#62839a" d="M 58.5,46.5 C 63.4928,46.997 64.4928,49.1637 61.5,53C 56.1483,53.1754 55.1483,51.0087 58.5,46.5 Z"/></g>
<g><path style="opacity:1" fill="#f87776" d="M 11.5,58.5 C 27.8367,58.3334 44.1701,58.5001 60.5,59C 64.3333,60.1667 66.8333,62.6667 68,66.5C 68.6667,82.1667 68.6667,97.8333 68,113.5C 67.3936,116.548 65.8936,119.048 63.5,121C 46.233,122.624 28.8997,122.958 11.5,122C 9.37623,120.878 7.5429,119.378 6,117.5C 4.36187,100.258 4.02854,82.9245 5,65.5C 6.69406,62.6424 8.86073,60.309 11.5,58.5 Z"/></g>
<g><path style="opacity:1" fill="#0e0f0f" d="M 86.5,58.5 C 95.3649,58.8474 98.5316,63.1807 96,71.5C 90.5609,77.0909 85.5609,76.7576 81,70.5C 80.3333,68.1667 80.3333,65.8333 81,63.5C 82.7297,61.5981 84.563,59.9314 86.5,58.5 Z"/></g>
<g><path style="opacity:0.722" fill="#0e0f0f" d="M 114.5,58.5 C 116.444,62.1156 115.444,64.1156 111.5,64.5C 109.556,60.8844 110.556,58.8844 114.5,58.5 Z"/></g>
<g><path style="opacity:1" fill="#6588a0" d="M 87.5,63.5 C 92.4928,63.997 93.4928,66.1637 90.5,70C 85.3823,69.8242 84.3823,67.6576 87.5,63.5 Z"/></g>
<g><path style="opacity:1" fill="#100a09" d="M 49.5,65.5 C 58.9086,65.3869 62.4086,69.7202 60,78.5C 54.1857,84.2051 49.1857,83.5384 45,76.5C 44.3333,74.5 44.3333,72.5 45,70.5C 46.7073,68.9625 48.2073,67.2959 49.5,65.5 Z"/></g>
<g><path style="opacity:1" fill="#100a09" d="M 16.5,65.5 C 25.1532,64.9867 28.6532,68.9867 27,77.5C 21.9158,84.0593 16.9158,84.0593 12,77.5C 10.4742,72.2389 11.9742,68.2389 16.5,65.5 Z"/></g>
<g><path style="opacity:1" fill="#ebebeb" d="M 17.5,70.5 C 22.3276,70.3852 23.6609,72.5519 21.5,77C 20.1011,77.5946 18.7678,77.4279 17.5,76.5C 16.3058,74.4844 16.3058,72.4844 17.5,70.5 Z"/></g>
<g><path style="opacity:1" fill="#eeeeee" d="M 51.5,70.5 C 56.4928,70.997 57.4928,73.1637 54.5,77C 49.3823,76.8242 48.3823,74.6576 51.5,70.5 Z"/></g>
<g><path style="opacity:1" fill="#100b0a" d="M 32.5,82.5 C 41.1606,81.3293 44.994,84.9959 44,93.5C 41.5647,98.2238 37.7314,99.7238 32.5,98C 29.7308,96.3113 28.0642,93.8113 27.5,90.5C 28.3656,87.3075 30.0323,84.6408 32.5,82.5 Z"/></g>
<g><path style="opacity:1" fill="#f1f1f1" d="M 34.5,87.5 C 39.1585,87.0146 40.4919,88.848 38.5,93C 33.0014,93.8063 31.668,91.973 34.5,87.5 Z"/></g>
<g><path style="opacity:1" fill="#100b0a" d="M 17.5,98.5 C 26.0081,98.8329 29.1748,103.166 27,111.5C 21.5135,117.08 16.5135,116.747 12,110.5C 11.3333,108.167 11.3333,105.833 12,103.5C 13.7297,101.598 15.563,99.9314 17.5,98.5 Z"/></g>
<g><path style="opacity:1" fill="#0e0606" d="M 48.5,99.5 C 60.4415,98.5917 63.7748,103.425 58.5,114C 50.9254,117.418 46.2587,115.085 44.5,107C 44.9274,103.977 46.2607,101.477 48.5,99.5 Z"/></g>
<g><path style="opacity:1" fill="#f1f1f1" d="M 18.5,103.5 C 22.1838,104.372 23.1838,106.539 21.5,110C 16.1483,110.175 15.1483,108.009 18.5,103.5 Z"/></g>
<g><path style="opacity:1" fill="#e1e1e1" d="M 51.5,103.5 C 55.9764,103.8 57.3097,105.967 55.5,110C 49.3389,110.878 48.0055,108.711 51.5,103.5 Z"/></g>
</svg>
