<?xml version="1.0" encoding="UTF-8"?>
<!DOCTYPE svg PUBLIC "-//W3C//DTD SVG 1.1//EN" "http://www.w3.org/Graphics/SVG/1.1/DTD/svg11.dtd">
<svg xmlns="http://www.w3.org/2000/svg" version="1.1" width="128px" height="128px" style="shape-rendering:geometricPrecision; text-rendering:geometricPrecision; image-rendering:optimizeQuality; fill-rule:evenodd; clip-rule:evenodd" xmlns:xlink="http://www.w3.org/1999/xlink">
<g><path style="opacity:0.865" fill="#060100" d="M 52.5,-0.5 C 59.8333,-0.5 67.1667,-0.5 74.5,-0.5C 103.167,6.16667 120.833,23.8333 127.5,52.5C 127.5,59.8333 127.5,67.1667 127.5,74.5C 120.833,103.167 103.167,120.833 74.5,127.5C 67.1667,127.5 59.8333,127.5 52.5,127.5C 23.8333,120.833 6.16667,103.167 -0.5,74.5C -0.5,67.1667 -0.5,59.8333 -0.5,52.5C 6.16667,23.8333 23.8333,6.16667 52.5,-0.5 Z"/></g>
<g><path style="opacity:1" fill="#f84e21" d="M 72.5,4.5 C 70.8008,4.33982 69.1341,4.50649 67.5,5C 71.2857,6.39262 74.9523,8.05929 78.5,10C 80.0629,10.7589 81.0629,11.9256 81.5,13.5C 75.1443,12.8518 70.811,15.5185 68.5,21.5C 66.1889,22.2135 64.0223,23.2135 62,24.5C 61.5006,29.8229 61.334,35.1563 61.5,40.5C 52.5534,40.1116 44.3867,42.4449 37,47.5C 26.0291,39.3733 17.3624,41.3733 11,53.5C 9.05661,61.3791 11.5566,67.3791 18.5,71.5C 19.7635,93.5958 31.0969,107.429 52.5,113C 67.4136,115.627 81.0802,112.794 93.5,104.5C 86.3551,112.458 77.6884,118.292 67.5,122C 69.1341,122.494 70.8008,122.66 72.5,122.5C 42.7693,125.545 21.2693,113.545 8,86.5C -1.70555,58.8217 4.46112,35.3217 26.5,16C 40.3237,5.54396 55.657,1.71062 72.5,4.5 Z"/></g>
<g><path style="opacity:1" fill="#f83401" d="M 72.5,4.5 C 96.3983,8.88963 112.565,22.5563 121,45.5C 128.228,78.8744 116.728,103.374 86.5,119C 81.8725,120.49 77.2058,121.657 72.5,122.5C 70.8008,122.66 69.1341,122.494 67.5,122C 77.6884,118.292 86.3551,112.458 93.5,104.5C 94.9418,103.18 95.6085,101.514 95.5,99.5C 97.2624,98.7377 98.2624,97.4044 98.5,95.5C 100.39,95.7035 101.89,95.0368 103,93.5C 106.399,86.5714 108.232,79.238 108.5,71.5C 116.784,65.7861 118.617,58.4528 114,49.5C 111.559,46.5464 108.725,44.2131 105.5,42.5C 102.125,33.1374 96.7912,25.1374 89.5,18.5C 87.7041,17.2073 86.0375,15.7073 84.5,14C 83.552,13.5172 82.552,13.3505 81.5,13.5C 81.0629,11.9256 80.0629,10.7589 78.5,10C 74.9523,8.05929 71.2857,6.39262 67.5,5C 69.1341,4.50649 70.8008,4.33982 72.5,4.5 Z"/></g>
<g><path style="opacity:1" fill="#120c0a" d="M 81.5,13.5 C 82.552,13.3505 83.552,13.5172 84.5,14C 86.0375,15.7073 87.7041,17.2073 89.5,18.5C 90.8979,28.5981 86.5646,33.4314 76.5,33C 74.0243,31.6912 72.0243,29.8579 70.5,27.5C 69.277,26.3861 67.9437,26.2195 66.5,27C 65.5333,31.4014 65.2,35.9014 65.5,40.5C 74.4536,40.1296 82.6203,42.463 90,47.5C 94.3075,43.3424 99.4741,41.6757 105.5,42.5C 108.725,44.2131 111.559,46.5464 114,49.5C 118.617,58.4528 116.784,65.7861 108.5,71.5C 108.232,79.238 106.399,86.5714 103,93.5C 101.89,95.0368 100.39,95.7035 98.5,95.5C 108.839,69.014 100.173,52.1807 72.5,45C 55.8271,41.892 41.6605,46.392 30,58.5C 19.3497,76.9135 22.8497,92.0802 40.5,104C 53.3974,110.136 66.7307,111.136 80.5,107C 85.2854,103.941 90.2854,101.441 95.5,99.5C 95.6085,101.514 94.9418,103.18 93.5,104.5C 81.0802,112.794 67.4136,115.627 52.5,113C 31.0969,107.429 19.7635,93.5958 18.5,71.5C 11.5566,67.3791 9.05661,61.3791 11,53.5C 17.3624,41.3733 26.0291,39.3733 37,47.5C 44.3867,42.4449 52.5534,40.1116 61.5,40.5C 61.334,35.1563 61.5006,29.8229 62,24.5C 64.0223,23.2135 66.1889,22.2135 68.5,21.5C 70.811,15.5185 75.1443,12.8518 81.5,13.5 Z"/></g>
<g><path style="opacity:1" fill="#e3dcd4" d="M 76.5,17.5 C 84.9909,16.9903 87.3242,20.4903 83.5,28C 73.9177,28.9487 71.5844,25.4487 76.5,17.5 Z"/></g>
<g><path style="opacity:1" fill="#fa4f22" d="M 89.5,18.5 C 96.7912,25.1374 102.125,33.1374 105.5,42.5C 99.4741,41.6757 94.3075,43.3424 90,47.5C 82.6203,42.463 74.4536,40.1296 65.5,40.5C 65.2,35.9014 65.5333,31.4014 66.5,27C 67.9437,26.2195 69.277,26.3861 70.5,27.5C 72.0243,29.8579 74.0243,31.6912 76.5,33C 86.5646,33.4314 90.8979,28.5981 89.5,18.5 Z"/></g>
<g><path style="opacity:1" fill="#e8e0d8" d="M 98.5,95.5 C 98.2624,97.4044 97.2624,98.7377 95.5,99.5C 90.2854,101.441 85.2854,103.941 80.5,107C 66.7307,111.136 53.3974,110.136 40.5,104C 22.8497,92.0802 19.3497,76.9135 30,58.5C 41.6605,46.392 55.8271,41.892 72.5,45C 100.173,52.1807 108.839,69.014 98.5,95.5 Z"/></g>
<g><path style="opacity:1" fill="#e1dad2" d="M 22.5,46.5 C 26.5991,46.3666 30.2657,47.5333 33.5,50C 27.3633,54.4624 23.3633,60.2957 21.5,67.5C 16.309,66.3708 13.9757,63.0375 14.5,57.5C 14.2948,54.7715 15.1282,52.4382 17,50.5C 19.0153,49.3034 20.8487,47.9701 22.5,46.5 Z"/></g>
<g><path style="opacity:1" fill="#e2dbd3" d="M 99.5,46.5 C 110.657,47.8125 114.49,53.8125 111,64.5C 109.736,66.607 107.903,67.607 105.5,67.5C 103.637,60.2957 99.6367,54.4624 93.5,50C 95.4319,48.5415 97.4319,47.3748 99.5,46.5 Z"/></g>
<g><path style="opacity:1" fill="#14100f" d="M 42.5,58.5 C 52.722,59.5393 56.222,64.8726 53,74.5C 49.604,78.2027 45.4374,79.3694 40.5,78C 34.5333,74.6076 33.0333,69.7742 36,63.5C 37.9651,61.4497 40.1318,59.783 42.5,58.5 Z"/></g>
<g><path style="opacity:1" fill="#14100f" d="M 79.5,58.5 C 88.8724,58.6986 93.0391,63.3653 92,72.5C 89.0812,78.0248 84.5812,79.8581 78.5,78C 73.3652,74.9446 71.5319,70.4446 73,64.5C 75.0627,62.2659 77.2294,60.2659 79.5,58.5 Z"/></g>
<g><path style="opacity:1" fill="#f04b20" d="M 42.5,62.5 C 48.7649,62.3634 51.2649,65.3634 50,71.5C 46.3797,75.4875 42.713,75.4875 39,71.5C 38.3333,69.8333 38.3333,68.1667 39,66.5C 40.3756,65.2949 41.5423,63.9616 42.5,62.5 Z"/></g>
<g><path style="opacity:1" fill="#f04b20" d="M 80.5,62.5 C 86.1327,62.9613 88.6327,65.9613 88,71.5C 84.287,75.4875 80.6203,75.4875 77,71.5C 75.9804,67.5532 77.1471,64.5532 80.5,62.5 Z"/></g>
<g><path style="opacity:1" fill="#180f0c" d="M 40.5,90.5 C 55.4882,101.118 70.4882,101.118 85.5,90.5C 87.5962,91.6197 87.9295,93.1197 86.5,95C 70.8749,105.133 55.3749,104.967 40,94.5C 39.4209,93.0715 39.5876,91.7382 40.5,90.5 Z"/></g>
</svg>
