<?xml version="1.0" encoding="UTF-8"?>
<!DOCTYPE svg PUBLIC "-//W3C//DTD SVG 1.1//EN" "http://www.w3.org/Graphics/SVG/1.1/DTD/svg11.dtd">
<svg xmlns="http://www.w3.org/2000/svg" version="1.1" width="128px" height="128px" style="shape-rendering:geometricPrecision; text-rendering:geometricPrecision; image-rendering:optimizeQuality; fill-rule:evenodd; clip-rule:evenodd" xmlns:xlink="http://www.w3.org/1999/xlink">
<g><path style="opacity:0.931" fill="#090704" d="M 1.5,1.5 C 6.51108,1.33407 11.5111,1.50074 16.5,2C 21.6622,5.74865 26.9956,9.24865 32.5,12.5C 40.6336,9.7907 48.9669,8.95737 57.5,10C 66.1512,12.5633 74.8179,15.0633 83.5,17.5C 92.5,12.3333 101.5,7.16667 110.5,2C 115.489,1.50074 120.489,1.33407 125.5,1.5C 125.666,11.5056 125.5,21.5056 125,31.5C 113.388,34.5259 102.221,38.6926 91.5,44C 90.1667,46.3333 88.8333,48.6667 87.5,51C 86.2068,51.49 84.8734,51.6567 83.5,51.5C 83.8333,55.8333 81.8333,57.8333 77.5,57.5C 77.281,58.675 77.6143,59.675 78.5,60.5C 93.755,69.0154 99.9217,82.0154 97,99.5C 89.2345,121.136 74.0678,129.303 51.5,124C 33.9132,115.662 26.7466,101.829 30,82.5C 32.9157,73.2629 38.4157,66.0962 46.5,61C 44.3291,59.8261 43.3291,57.9928 43.5,55.5C 39.5,55.5 37.5,53.5 37.5,49.5C 33.3577,49.5972 31.0243,47.5972 30.5,43.5C 21.3021,38.8217 11.8021,34.8217 2,31.5C 1.50019,21.5056 1.33352,11.5056 1.5,1.5 Z"/></g>
<g><path style="opacity:1" fill="#fa7f6c" d="M 5.5,5.5 C 8.1873,5.33591 10.854,5.50258 13.5,6C 18.4188,9.04231 23.2522,12.209 28,15.5C 28.6667,17.5 28.6667,19.5 28,21.5C 26.5343,25.0286 25.5343,28.6952 25,32.5C 24.6121,33.428 23.9454,34.0946 23,34.5C 17.4459,32.6392 11.9459,30.6392 6.5,28.5C 5.50251,20.8622 5.16917,13.1955 5.5,5.5 Z"/></g>
<g><path style="opacity:1" fill="#b1da7d" d="M 113.5,5.5 C 116.167,5.5 118.833,5.5 121.5,5.5C 121.5,13.1667 121.5,20.8333 121.5,28.5C 114.134,30.2873 106.8,32.2873 99.5,34.5C 98.5581,34.3918 97.7247,34.0585 97,33.5C 94.1667,29.1667 91.3333,24.8333 88.5,20.5C 96.7311,15.2225 105.064,10.2225 113.5,5.5 Z"/></g>
<g><path style="opacity:1" fill="#e7c8ad" d="M 62.5,17.5 C 70.0272,18.0997 77.3606,19.5997 84.5,22C 88.0285,26.6958 91.3618,31.5291 94.5,36.5C 92.3637,39.0723 89.697,40.239 86.5,40C 81.1988,35.7002 76.1988,31.0336 71.5,26C 69.4874,24.7428 67.3207,23.9095 65,23.5C 60.8443,24.6612 57.011,26.4945 53.5,29C 49.6335,29.3076 48.6335,27.6409 50.5,24C 54.7216,22.0591 58.7216,19.8924 62.5,17.5 Z"/></g>
<g><path style="opacity:1" fill="#e6c7ad" d="M 65.5,50.5 C 64.4168,50.4606 63.4168,50.1272 62.5,49.5C 57.3899,43.1011 51.7232,37.2677 45.5,32C 43.8333,31.3333 42.1667,31.3333 40.5,32C 37.9841,34.6833 35.3174,37.1833 32.5,39.5C 29.1147,37.8541 27.948,35.1874 29,31.5C 30.2731,26.5682 31.7731,21.7349 33.5,17C 41.3942,13.374 49.3942,12.874 57.5,15.5C 57.2907,16.086 56.9574,16.586 56.5,17C 52.5808,18.5403 49.0808,20.7069 46,23.5C 44.6674,28.8339 46.6674,32.1672 52,33.5C 56.1557,32.3388 59.989,30.5055 63.5,28C 64.8333,27.3333 66.1667,27.3333 67.5,28C 73.3164,32.9822 78.9831,38.1488 84.5,43.5C 85.9143,46.5903 84.9143,47.757 81.5,47C 77.9761,43.9754 74.3094,41.1421 70.5,38.5C 69.7132,39.2421 69.0465,40.0754 68.5,41C 72.6475,43.9804 76.3141,47.4804 79.5,51.5C 78.6518,53.2828 77.3185,53.7828 75.5,53C 71.9761,49.9754 68.3094,47.1421 64.5,44.5C 63.7132,45.2421 63.0465,46.0754 62.5,47C 63.7101,48.0391 64.7101,49.2058 65.5,50.5 Z"/></g>
<g><path style="opacity:1" fill="#d7baa1" d="M 41.5,35.5 C 44.6802,35.1762 45.8469,36.5096 45,39.5C 43.1667,41.3333 41.3333,43.1667 39.5,45C 36.3333,45.8333 35.1667,44.6667 36,41.5C 38.0396,39.6298 39.8729,37.6298 41.5,35.5 Z"/></g>
<g><path style="opacity:1" fill="#d7baa1" d="M 47.5,41.5 C 50.6802,41.1762 51.8469,42.5096 51,45.5C 49.1667,47.3333 47.3333,49.1667 45.5,51C 42.3333,51.8333 41.1667,50.6667 42,47.5C 44.0396,45.6298 45.8729,43.6298 47.5,41.5 Z"/></g>
<g><path style="opacity:1" fill="#d7baa1" d="M 53.5,47.5 C 56.6802,47.1762 57.8469,48.5096 57,51.5C 55.1667,53.3333 53.3333,55.1667 51.5,57C 48.3333,57.8333 47.1667,56.6667 48,53.5C 50.0396,51.6298 51.8729,49.6298 53.5,47.5 Z"/></g>
<g><path style="opacity:1" fill="#ddc0a6" d="M 65.5,50.5 C 68.3943,51.8823 70.8943,53.8823 73,56.5C 72.3862,60.0257 70.7195,60.3591 68,57.5C 67.6207,54.9699 66.7874,52.6365 65.5,50.5 Z"/></g>
<g><path style="opacity:1" fill="#d7baa1" d="M 59.5,53.5 C 62.6802,53.1762 63.8469,54.5096 63,57.5C 61.1667,59.3333 59.3333,61.1667 57.5,63C 54.3333,63.8333 53.1667,62.6667 54,59.5C 56.0396,57.6298 57.8729,55.6298 59.5,53.5 Z"/></g>
<g><path style="opacity:0.87" fill="#000000" d="M 16.5,55.5 C 22.1835,61.149 27.1835,67.4823 31.5,74.5C 30.2402,75.3816 29.0736,76.3816 28,77.5C 25.3333,74.1667 22.6667,70.8333 20,67.5C 19.5001,80.8292 19.3334,94.1625 19.5,107.5C 18.1667,107.5 16.8333,107.5 15.5,107.5C 15.6666,94.1625 15.4999,80.8292 15,67.5C 12.3333,70.8333 9.66667,74.1667 7,77.5C 5.92644,76.3816 4.75978,75.3816 3.5,74.5C 8.10036,68.2825 12.4337,61.9492 16.5,55.5 Z"/></g>
<g><path style="opacity:0.87" fill="#000000" d="M 108.5,55.5 C 114.184,61.149 119.184,67.4823 123.5,74.5C 122.24,75.3816 121.074,76.3816 120,77.5C 117.333,74.1667 114.667,70.8333 112,67.5C 111.5,80.8292 111.333,94.1625 111.5,107.5C 110.167,107.5 108.833,107.5 107.5,107.5C 107.667,94.1625 107.5,80.8292 107,67.5C 104.333,70.8333 101.667,74.1667 99,77.5C 97.9264,76.3816 96.7598,75.3816 95.5,74.5C 100.1,68.2825 104.434,61.9492 108.5,55.5 Z"/></g>
<g><path style="opacity:1" fill="#d9bca3" d="M 63.5,61.5 C 66.1662,61.0658 67.3329,62.0658 67,64.5C 63.4034,66.0661 62.2368,65.0661 63.5,61.5 Z"/></g>
<g><path style="opacity:1" fill="#ebb826" d="M 71.5,63.5 C 82.702,66.2001 89.8687,73.2001 93,84.5C 94.1873,109.979 82.0206,122.146 56.5,121C 39.2064,114.919 31.7064,102.752 34,84.5C 36.484,75.521 41.8173,68.8543 50,64.5C 50.9025,65.7014 52.0692,66.5348 53.5,67C 37.3247,76.5294 33.4914,89.6961 42,106.5C 51.5096,118.04 63.0096,120.54 76.5,114C 87.6472,106.229 91.4805,95.7292 88,82.5C 84.745,74.9107 79.245,69.7441 71.5,67C 70.8288,66.0138 70.8288,64.8471 71.5,63.5 Z"/></g>
<g><path style="opacity:1" fill="#f5d16d" d="M 57.5,69.5 C 76.8432,68.3441 86.0099,77.3441 85,96.5C 80.4666,109.523 71.3,115.023 57.5,113C 42.2664,105.966 38.0998,94.7996 45,79.5C 48.4399,75.2234 52.6066,71.8901 57.5,69.5 Z"/></g>
<g><path style="opacity:1" fill="#0f0c06" d="M 61.5,73.5 C 62.8333,73.5 64.1667,73.5 65.5,73.5C 65.238,74.9778 65.5713,76.3112 66.5,77.5C 70.9799,78.312 73.3133,80.9787 73.5,85.5C 70.755,85.627 68.755,84.4603 67.5,82C 64.0074,80.9963 60.8408,81.4963 58,83.5C 57.1751,85.7008 57.6751,87.5341 59.5,89C 63.2498,89.2599 66.9164,89.9266 70.5,91C 73.8481,94.4186 74.3481,98.252 72,102.5C 70.4478,103.966 68.6145,104.966 66.5,105.5C 65.5713,106.689 65.238,108.022 65.5,109.5C 64.1667,109.5 62.8333,109.5 61.5,109.5C 61.5,108.167 61.5,106.833 61.5,105.5C 55.5655,104.89 52.8988,101.557 53.5,95.5C 54.8333,95.5 56.1667,95.5 57.5,95.5C 57.178,97.7224 57.8446,99.5557 59.5,101C 62.1667,101.667 64.8333,101.667 67.5,101C 70.1667,98.6667 70.1667,96.3333 67.5,94C 64.5,93.6667 61.5,93.3333 58.5,93C 54.4893,90.6489 52.9893,87.1489 54,82.5C 55.4103,79.2108 57.9103,77.5441 61.5,77.5C 61.5,76.1667 61.5,74.8333 61.5,73.5 Z"/></g>
<g><path style="opacity:1" fill="#000000" d="M 15.5,111.5 C 16.8333,111.5 18.1667,111.5 19.5,111.5C 19.5,112.833 19.5,114.167 19.5,115.5C 18.1667,115.5 16.8333,115.5 15.5,115.5C 15.5,114.167 15.5,112.833 15.5,111.5 Z"/></g>
<g><path style="opacity:1" fill="#000000" d="M 107.5,111.5 C 108.833,111.5 110.167,111.5 111.5,111.5C 111.5,112.833 111.5,114.167 111.5,115.5C 110.167,115.5 108.833,115.5 107.5,115.5C 107.5,114.167 107.5,112.833 107.5,111.5 Z"/></g>
</svg>
