<?xml version="1.0" encoding="UTF-8"?>
<!DOCTYPE svg PUBLIC "-//W3C//DTD SVG 1.1//EN" "http://www.w3.org/Graphics/SVG/1.1/DTD/svg11.dtd">
<svg xmlns="http://www.w3.org/2000/svg" version="1.1" width="128px" height="128px" style="shape-rendering:geometricPrecision; text-rendering:geometricPrecision; image-rendering:optimizeQuality; fill-rule:evenodd; clip-rule:evenodd" xmlns:xlink="http://www.w3.org/1999/xlink">
<g><path style="opacity:0.975" fill="#110507" d="M -0.5,-0.5 C 32.5,-0.5 65.5,-0.5 98.5,-0.5C 99.1464,12.212 98.4797,24.5453 96.5,36.5C 94.5579,25.7549 93.8912,14.7549 94.5,3.5C 65.1667,3.5 35.8333,3.5 6.5,3.5C 5.5,3.5 4.5,3.5 3.5,3.5C 3.83002,10.1998 3.49669,16.8665 2.5,23.5C 1.81654,23.8627 1.14987,24.1961 0.5,24.5C 0.166667,24.5 -0.166667,24.5 -0.5,24.5C -0.5,16.1667 -0.5,7.83333 -0.5,-0.5 Z"/></g>
<g><path style="opacity:1" fill="#b3387e" d="M 6.5,3.5 C 6.5,43.5 6.5,83.5 6.5,123.5C 5.5,123.5 4.5,123.5 3.5,123.5C 3.83319,91.4931 3.49986,59.4931 2.5,27.5C 1.81654,27.1373 1.14987,26.8039 0.5,26.5C 0.5,25.8333 0.5,25.1667 0.5,24.5C 1.14987,24.1961 1.81654,23.8627 2.5,23.5C 3.49669,16.8665 3.83002,10.1998 3.5,3.5C 4.5,3.5 5.5,3.5 6.5,3.5 Z"/></g>
<g><path style="opacity:0.999" fill="#e44f6f" d="M 6.5,3.5 C 35.8333,3.5 65.1667,3.5 94.5,3.5C 93.8912,14.7549 94.5579,25.7549 96.5,36.5C 96.5,40.1667 96.5,43.8333 96.5,47.5C 94.2649,55.2194 91.2649,62.5528 87.5,69.5C 87.5,65.8333 87.5,62.1667 87.5,58.5C 89.4589,52.2504 90.1255,45.5837 89.5,38.5C 62.5,38.5 35.5,38.5 8.5,38.5C 8.5,65.8333 8.5,93.1667 8.5,120.5C 34.8333,120.5 61.1667,120.5 87.5,120.5C 87.5,119.167 87.5,117.833 87.5,116.5C 87.5,114.833 87.5,113.167 87.5,111.5C 89.1667,111.5 90.8333,111.5 92.5,111.5C 92.6726,108.821 93.6726,106.487 95.5,104.5C 96.2975,104.957 96.6309,105.624 96.5,106.5C 96.5,109.167 96.5,111.833 96.5,114.5C 94.7581,117.145 94.0914,120.145 94.5,123.5C 65.1667,123.5 35.8333,123.5 6.5,123.5C 6.5,83.5 6.5,43.5 6.5,3.5 Z"/></g>
<g><path style="opacity:1" fill="#451722" d="M 20.5,8.5 C 17.1667,8.5 13.8333,8.5 10.5,8.5C 10.5,16.5 10.5,24.5 10.5,32.5C 9.50728,24.3501 9.17395,16.0168 9.5,7.5C 13.3714,7.18503 17.0381,7.51836 20.5,8.5 Z"/></g>
<g><path style="opacity:1" fill="#0a0304" d="M 20.5,8.5 C 24.9248,11.6336 25.5915,15.4669 22.5,20C 24.5037,22.8408 25.0037,26.0074 24,29.5C 23.0975,30.7014 21.9308,31.5348 20.5,32C 17.1832,32.4983 13.8499,32.665 10.5,32.5C 10.5,24.5 10.5,16.5 10.5,8.5C 13.8333,8.5 17.1667,8.5 20.5,8.5 Z"/></g>
<g><path style="opacity:1" fill="#913246" d="M 32.5,32.5 C 32.5,24.5 32.5,16.5 32.5,8.5C 31.5,8.5 30.5,8.5 29.5,8.5C 29.5,16.5 29.5,24.5 29.5,32.5C 28.5073,24.3501 28.1739,16.0168 28.5,7.5C 30.1667,7.5 31.8333,7.5 33.5,7.5C 33.8261,16.0168 33.4927,24.3501 32.5,32.5 Z"/></g>
<g><path style="opacity:1" fill="#000000" d="M 32.5,32.5 C 31.5,32.5 30.5,32.5 29.5,32.5C 29.5,24.5 29.5,16.5 29.5,8.5C 30.5,8.5 31.5,8.5 32.5,8.5C 32.5,16.5 32.5,24.5 32.5,32.5 Z"/></g>
<g><path style="opacity:1" fill="#99354b" d="M 41.5,8.5 C 40.1667,8.5 38.8333,8.5 37.5,8.5C 37.5,16.5 37.5,24.5 37.5,32.5C 36.5073,24.3501 36.1739,16.0168 36.5,7.5C 38.4147,7.21552 40.0813,7.54885 41.5,8.5 Z"/></g>
<g><path style="opacity:1" fill="#030001" d="M 41.5,8.5 C 43.5989,13.2862 45.4322,18.2862 47,23.5C 47.4993,18.5111 47.6659,13.5111 47.5,8.5C 48.5,8.5 49.5,8.5 50.5,8.5C 50.5,16.5 50.5,24.5 50.5,32.5C 48.8561,32.7135 47.3561,32.3802 46,31.5C 44.7262,27.8463 43.5596,24.1796 42.5,20.5C 42.0133,19.5266 41.5133,18.5266 41,17.5C 40.5007,22.4889 40.3341,27.4889 40.5,32.5C 39.5,32.5 38.5,32.5 37.5,32.5C 37.5,24.5 37.5,16.5 37.5,8.5C 38.8333,8.5 40.1667,8.5 41.5,8.5 Z"/></g>
<g><path style="opacity:1" fill="#6d2535" d="M 47.5,8.5 C 48.5676,7.56552 49.901,7.23219 51.5,7.5C 51.8261,16.0168 51.4927,24.3501 50.5,32.5C 50.5,24.5 50.5,16.5 50.5,8.5C 49.5,8.5 48.5,8.5 47.5,8.5 Z"/></g>
<g><path style="opacity:1" fill="#7f2c3e" d="M 69.5,8.5 C 64.8333,8.5 60.1667,8.5 55.5,8.5C 55.5,16.5 55.5,24.5 55.5,32.5C 54.5073,24.3501 54.1739,16.0168 54.5,7.5C 59.6946,7.17949 64.6946,7.51283 69.5,8.5 Z"/></g>
<g><path style="opacity:1" fill="#070202" d="M 69.5,8.5 C 69.5,11.1667 69.5,13.8333 69.5,16.5C 68.1667,16.5 66.8333,16.5 65.5,16.5C 65.5,14.8333 65.5,13.1667 65.5,11.5C 63.1667,11.5 60.8333,11.5 58.5,11.5C 58.5,17.1667 58.5,22.8333 58.5,28.5C 60.8333,28.5 63.1667,28.5 65.5,28.5C 65.5,27.1667 65.5,25.8333 65.5,24.5C 64.5,24.5 63.5,24.5 62.5,24.5C 62.5,23.5 62.5,22.5 62.5,21.5C 64.8333,21.5 67.1667,21.5 69.5,21.5C 69.5,25.1667 69.5,28.8333 69.5,32.5C 64.8333,32.5 60.1667,32.5 55.5,32.5C 55.5,24.5 55.5,16.5 55.5,8.5C 60.1667,8.5 64.8333,8.5 69.5,8.5 Z"/></g>
<g><path style="opacity:1" fill="#0a0203" d="M 73.5,8.5 C 78.1667,8.5 82.8333,8.5 87.5,8.5C 87.5,16.5 87.5,24.5 87.5,32.5C 82.8333,32.5 78.1667,32.5 73.5,32.5C 73.5,24.5 73.5,16.5 73.5,8.5 Z"/></g>
<g><path style="opacity:1" fill="#7a2a3b" d="M 73.5,8.5 C 78.3054,7.51283 83.3054,7.17949 88.5,7.5C 88.8261,16.0168 88.4927,24.3501 87.5,32.5C 87.5,24.5 87.5,16.5 87.5,8.5C 82.8333,8.5 78.1667,8.5 73.5,8.5 Z"/></g>
<g><path style="opacity:1" fill="#db4c6b" d="M 13.5,11.5 C 15.5273,11.3379 17.5273,11.5045 19.5,12C 22.1667,14 22.1667,16 19.5,18C 17.5273,18.4955 15.5273,18.6621 13.5,18.5C 13.5,16.1667 13.5,13.8333 13.5,11.5 Z"/></g>
<g><path style="opacity:1" fill="#e04d6d" d="M 77.5,11.5 C 79.8333,11.5 82.1667,11.5 84.5,11.5C 84.5,17.1667 84.5,22.8333 84.5,28.5C 82.1667,28.5 79.8333,28.5 77.5,28.5C 77.5,22.8333 77.5,17.1667 77.5,11.5 Z"/></g>
<g><path style="opacity:1" fill="#892f43" d="M 42.5,20.5 C 41.8333,24.5 41.1667,28.5 40.5,32.5C 40.3341,27.4889 40.5007,22.4889 41,17.5C 41.5133,18.5266 42.0133,19.5266 42.5,20.5 Z"/></g>
<g><path style="opacity:1" fill="#e04d6d" d="M 13.5,22.5 C 15.5273,22.3379 17.5273,22.5045 19.5,23C 22.1667,24.6667 22.1667,26.3333 19.5,28C 17.5273,28.4955 15.5273,28.6621 13.5,28.5C 13.5,26.5 13.5,24.5 13.5,22.5 Z"/></g>
<g><path style="opacity:0.9" fill="#070808" d="M 127.5,29.5 C 127.5,32.1667 127.5,34.8333 127.5,37.5C 126.167,38.1667 126.167,38.8333 127.5,39.5C 127.5,40.8333 127.5,42.1667 127.5,43.5C 123.538,50.8538 120.038,58.5205 117,66.5C 116.329,67.2524 115.496,67.5858 114.5,67.5C 114.047,66.5416 113.381,65.7083 112.5,65C 115.559,57.5477 118.893,50.2143 122.5,43C 118.396,40.6142 114.062,38.7809 109.5,37.5C 108.48,36.0462 107.313,35.7129 106,36.5C 98.9711,53.3912 91.8045,70.2245 84.5,87C 85.1301,88.3102 86.1301,89.1435 87.5,89.5C 91.4787,91.1541 95.4787,92.8208 99.5,94.5C 103.317,86.1973 107.15,77.864 111,69.5C 111.671,70.2524 112.504,70.5858 113.5,70.5C 114.573,71.2506 114.74,72.2506 114,73.5C 110.194,82.5833 106.194,91.5833 102,100.5C 101.667,100.167 101.333,99.8333 101,99.5C 99.946,102.314 98.446,104.647 96.5,106.5C 96.6309,105.624 96.2975,104.957 95.5,104.5C 93.6726,106.487 92.6726,108.821 92.5,111.5C 90.8333,111.5 89.1667,111.5 87.5,111.5C 84.6946,110.681 81.6946,110.181 78.5,110C 77.572,109.612 76.9054,108.945 76.5,108C 77.4196,104.661 78.753,101.494 80.5,98.5C 78.1945,96.3142 78.1945,93.9809 80.5,91.5C 80.1667,90.8333 79.8333,90.1667 79.5,89.5C 82.3688,82.8891 85.0355,76.2225 87.5,69.5C 91.2649,62.5528 94.2649,55.2194 96.5,47.5C 99.0749,42.3118 101.575,36.9785 104,31.5C 106.597,29.1824 109.097,26.6824 111.5,24C 116.851,25.4951 122.184,27.3284 127.5,29.5 Z"/></g>
<g><path style="opacity:0.98" fill="#0d0305" d="M -0.5,26.5 C -0.166667,26.5 0.166667,26.5 0.5,26.5C 1.14987,26.8039 1.81654,27.1373 2.5,27.5C 3.49986,59.4931 3.83319,91.4931 3.5,123.5C 4.5,123.5 5.5,123.5 6.5,123.5C 35.8333,123.5 65.1667,123.5 94.5,123.5C 94.0914,120.145 94.7581,117.145 96.5,114.5C 98.4302,118.373 99.0969,122.706 98.5,127.5C 65.5,127.5 32.5,127.5 -0.5,127.5C -0.5,93.8333 -0.5,60.1667 -0.5,26.5 Z"/></g>
<g><path style="opacity:1" fill="#66798e" d="M 112.5,28.5 C 115.889,29.6311 119.222,30.9645 122.5,32.5C 123.748,34.5969 123.248,36.2635 121,37.5C 116.967,36.5678 113.467,34.7345 110.5,32C 110.978,30.6974 111.645,29.5307 112.5,28.5 Z"/></g>
<g><path style="opacity:1" fill="#189fa6" d="M 109.5,37.5 C 101.088,54.3301 93.7547,71.6634 87.5,89.5C 86.1301,89.1435 85.1301,88.3102 84.5,87C 91.8045,70.2245 98.9711,53.3912 106,36.5C 107.313,35.7129 108.48,36.0462 109.5,37.5 Z"/></g>
<g><path style="opacity:0.998" fill="#bdeab3" d="M 109.5,37.5 C 114.062,38.7809 118.396,40.6142 122.5,43C 118.893,50.2143 115.559,57.5477 112.5,65C 113.381,65.7083 114.047,66.5416 114.5,67.5C 113.89,68.391 113.557,69.391 113.5,70.5C 112.504,70.5858 111.671,70.2524 111,69.5C 107.15,77.864 103.317,86.1973 99.5,94.5C 95.4787,92.8208 91.4787,91.1541 87.5,89.5C 93.7547,71.6634 101.088,54.3301 109.5,37.5 Z"/></g>
<g><path style="opacity:1" fill="#171515" d="M 87.5,58.5 C 83.1667,58.5 78.8333,58.5 74.5,58.5C 74.5,62.1667 74.5,65.8333 74.5,69.5C 76.2646,70.4614 78.2646,70.7947 80.5,70.5C 80.5,71.5 80.5,72.5 80.5,73.5C 78.5,73.5 76.5,73.5 74.5,73.5C 74.5,87.8333 74.5,102.167 74.5,116.5C 78.8333,116.5 83.1667,116.5 87.5,116.5C 87.5,117.833 87.5,119.167 87.5,120.5C 61.1667,120.5 34.8333,120.5 8.5,120.5C 8.5,93.1667 8.5,65.8333 8.5,38.5C 35.5,38.5 62.5,38.5 89.5,38.5C 90.1255,45.5837 89.4589,52.2504 87.5,58.5 Z"/></g>
<g><path style="opacity:1" fill="#46aea8" d="M 15.5,42.5 C 15.2322,44.099 15.5655,45.4324 16.5,46.5C 16.5,47.8333 16.5,49.1667 16.5,50.5C 15.5655,51.5676 15.2322,52.901 15.5,54.5C 14.5,54.5 13.5,54.5 12.5,54.5C 12.5,50.5 12.5,46.5 12.5,42.5C 13.5,42.5 14.5,42.5 15.5,42.5 Z"/></g>
<g><path style="opacity:1" fill="#b7e3ac" d="M 15.5,42.5 C 18.1667,42.5 20.8333,42.5 23.5,42.5C 23.5,46.5 23.5,50.5 23.5,54.5C 20.8333,54.5 18.1667,54.5 15.5,54.5C 15.2322,52.901 15.5655,51.5676 16.5,50.5C 17.5,50.5 18.5,50.5 19.5,50.5C 19.5,49.1667 19.5,47.8333 19.5,46.5C 18.5,46.5 17.5,46.5 16.5,46.5C 15.5655,45.4324 15.2322,44.099 15.5,42.5 Z"/></g>
<g><path style="opacity:1" fill="#d6dce1" d="M 27.5,42.5 C 31.5,42.5 35.5,42.5 39.5,42.5C 39.5,46.5 39.5,50.5 39.5,54.5C 35.5,54.5 31.5,54.5 27.5,54.5C 27.5,50.5 27.5,46.5 27.5,42.5 Z"/></g>
<g><path style="opacity:1" fill="#fefefe" d="M 30.5,43.5 C 33.1667,43.5 35.8333,43.5 38.5,43.5C 38.5,46.8333 38.5,50.1667 38.5,53.5C 35.8333,53.5 33.1667,53.5 30.5,53.5C 30.5,50.1667 30.5,46.8333 30.5,43.5 Z"/></g>
<g><path style="opacity:1" fill="#f6f8fa" d="M 43.5,42.5 C 47.1667,42.5 50.8333,42.5 54.5,42.5C 54.5,46.5 54.5,50.5 54.5,54.5C 50.8333,54.5 47.1667,54.5 43.5,54.5C 43.5,50.5 43.5,46.5 43.5,42.5 Z"/></g>
<g><path style="opacity:1" fill="#d6dce1" d="M 58.5,42.5 C 62.5,42.5 66.5,42.5 70.5,42.5C 70.5,46.5 70.5,50.5 70.5,54.5C 66.5,54.5 62.5,54.5 58.5,54.5C 58.5,50.5 58.5,46.5 58.5,42.5 Z"/></g>
<g><path style="opacity:1" fill="#fefefe" d="M 61.5,43.5 C 64.1667,43.5 66.8333,43.5 69.5,43.5C 69.5,46.8333 69.5,50.1667 69.5,53.5C 66.8333,53.5 64.1667,53.5 61.5,53.5C 61.5,50.1667 61.5,46.8333 61.5,43.5 Z"/></g>
<g><path style="opacity:1" fill="#1f989c" d="M 77.5,42.5 C 77.5,46.5 77.5,50.5 77.5,54.5C 76.1667,54.5 74.8333,54.5 73.5,54.5C 73.5,50.5 73.5,46.5 73.5,42.5C 74.8333,42.5 76.1667,42.5 77.5,42.5 Z"/></g>
<g><path style="opacity:1" fill="#bbe8af" d="M 77.5,42.5 C 80.1667,42.5 82.8333,42.5 85.5,42.5C 85.5,46.5 85.5,50.5 85.5,54.5C 82.8333,54.5 80.1667,54.5 77.5,54.5C 77.5,50.5 77.5,46.5 77.5,42.5 Z"/></g>
<g><path style="opacity:1" fill="#0a0d0a" d="M 16.5,46.5 C 17.5,46.5 18.5,46.5 19.5,46.5C 19.5,47.8333 19.5,49.1667 19.5,50.5C 18.5,50.5 17.5,50.5 16.5,50.5C 16.5,49.1667 16.5,47.8333 16.5,46.5 Z"/></g>
<g><path style="opacity:1" fill="#f8fdf7" d="M 108.5,46.5 C 112.362,46.8326 113.195,48.4993 111,51.5C 109.108,50.3826 108.275,48.7159 108.5,46.5 Z"/></g>
<g><path style="opacity:1" fill="#f9fbfd" d="M 12.5,58.5 C 16.1667,58.5 19.8333,58.5 23.5,58.5C 23.5,62.1667 23.5,65.8333 23.5,69.5C 19.8333,69.5 16.1667,69.5 12.5,69.5C 12.5,65.8333 12.5,62.1667 12.5,58.5 Z"/></g>
<g><path style="opacity:1" fill="#f4f6f8" d="M 27.5,58.5 C 31.5,58.5 35.5,58.5 39.5,58.5C 39.5,62.1667 39.5,65.8333 39.5,69.5C 35.5,69.5 31.5,69.5 27.5,69.5C 27.5,65.8333 27.5,62.1667 27.5,58.5 Z"/></g>
<g><path style="opacity:1" fill="#eff1f2" d="M 43.5,58.5 C 47.1667,58.5 50.8333,58.5 54.5,58.5C 54.5,62.1667 54.5,65.8333 54.5,69.5C 50.8333,69.5 47.1667,69.5 43.5,69.5C 43.5,65.8333 43.5,62.1667 43.5,58.5 Z"/></g>
<g><path style="opacity:1" fill="#f3f6f7" d="M 58.5,58.5 C 62.5,58.5 66.5,58.5 70.5,58.5C 70.5,62.1667 70.5,65.8333 70.5,69.5C 66.5,69.5 62.5,69.5 58.5,69.5C 58.5,65.8333 58.5,62.1667 58.5,58.5 Z"/></g>
<g><path style="opacity:1" fill="#f2f5f7" d="M 87.5,58.5 C 87.5,62.1667 87.5,65.8333 87.5,69.5C 85.0355,76.2225 82.3688,82.8891 79.5,89.5C 79.8333,90.1667 80.1667,90.8333 80.5,91.5C 78.1945,93.9809 78.1945,96.3142 80.5,98.5C 78.753,101.494 77.4196,104.661 76.5,108C 76.9054,108.945 77.572,109.612 78.5,110C 81.6946,110.181 84.6946,110.681 87.5,111.5C 87.5,113.167 87.5,114.833 87.5,116.5C 83.1667,116.5 78.8333,116.5 74.5,116.5C 74.5,102.167 74.5,87.8333 74.5,73.5C 76.5,73.5 78.5,73.5 80.5,73.5C 81.4345,72.4324 81.7678,71.099 81.5,69.5C 79.1667,69.5 76.8333,69.5 74.5,69.5C 74.5,65.8333 74.5,62.1667 74.5,58.5C 78.8333,58.5 83.1667,58.5 87.5,58.5 Z"/></g>
<g><path style="opacity:1" fill="#000000" d="M 47.5,62.5 C 48.5,62.5 49.5,62.5 50.5,62.5C 50.5,63.5 50.5,64.5 50.5,65.5C 49.5,65.5 48.5,65.5 47.5,65.5C 47.5,64.5 47.5,63.5 47.5,62.5 Z"/></g>
<g><path style="opacity:1" fill="#828282" d="M 74.5,69.5 C 76.8333,69.5 79.1667,69.5 81.5,69.5C 81.7678,71.099 81.4345,72.4324 80.5,73.5C 80.5,72.5 80.5,71.5 80.5,70.5C 78.2646,70.7947 76.2646,70.4614 74.5,69.5 Z"/></g>
<g><path style="opacity:1" fill="#f6f8fa" d="M 12.5,73.5 C 16.1667,73.5 19.8333,73.5 23.5,73.5C 23.5,77.5 23.5,81.5 23.5,85.5C 19.8333,85.5 16.1667,85.5 12.5,85.5C 12.5,81.5 12.5,77.5 12.5,73.5 Z"/></g>
<g><path style="opacity:1" fill="#d6dce1" d="M 27.5,73.5 C 31.5,73.5 35.5,73.5 39.5,73.5C 39.5,77.5 39.5,81.5 39.5,85.5C 35.5,85.5 31.5,85.5 27.5,85.5C 27.5,81.5 27.5,77.5 27.5,73.5 Z"/></g>
<g><path style="opacity:1" fill="#fefefe" d="M 30.5,74.5 C 33.1667,74.5 35.8333,74.5 38.5,74.5C 38.5,77.8333 38.5,81.1667 38.5,84.5C 35.8333,84.5 33.1667,84.5 30.5,84.5C 30.5,81.1667 30.5,77.8333 30.5,74.5 Z"/></g>
<g><path style="opacity:1" fill="#1e979c" d="M 46.5,73.5 C 46.5,77.5 46.5,81.5 46.5,85.5C 45.1667,85.5 43.8333,85.5 42.5,85.5C 42.5,81.5 42.5,77.5 42.5,73.5C 43.8333,73.5 45.1667,73.5 46.5,73.5 Z"/></g>
<g><path style="opacity:1" fill="#bbe8af" d="M 46.5,73.5 C 49.1667,73.5 51.8333,73.5 54.5,73.5C 54.5,77.5 54.5,81.5 54.5,85.5C 51.8333,85.5 49.1667,85.5 46.5,85.5C 46.5,81.5 46.5,77.5 46.5,73.5 Z"/></g>
<g><path style="opacity:1" fill="#d6dce1" d="M 58.5,73.5 C 62.5,73.5 66.5,73.5 70.5,73.5C 70.5,77.5 70.5,81.5 70.5,85.5C 66.5,85.5 62.5,85.5 58.5,85.5C 58.5,81.5 58.5,77.5 58.5,73.5 Z"/></g>
<g><path style="opacity:1" fill="#fefefe" d="M 61.5,74.5 C 64.1667,74.5 66.8333,74.5 69.5,74.5C 69.5,77.8333 69.5,81.1667 69.5,84.5C 66.8333,84.5 64.1667,84.5 61.5,84.5C 61.5,81.1667 61.5,77.8333 61.5,74.5 Z"/></g>
<g><path style="opacity:1" fill="#212121" d="M 31.5,77.5 C 32.8333,77.5 34.1667,77.5 35.5,77.5C 35.5,78.8333 35.5,80.1667 35.5,81.5C 34.1667,81.5 32.8333,81.5 31.5,81.5C 31.5,80.1667 31.5,78.8333 31.5,77.5 Z"/></g>
<g><path style="opacity:1" fill="#24adb2" d="M 15.5,89.5 C 15.5,93.1667 15.5,96.8333 15.5,100.5C 14.5,100.5 13.5,100.5 12.5,100.5C 12.5,96.8333 12.5,93.1667 12.5,89.5C 13.5,89.5 14.5,89.5 15.5,89.5 Z"/></g>
<g><path style="opacity:1" fill="#beedb2" d="M 15.5,89.5 C 18.1667,89.5 20.8333,89.5 23.5,89.5C 23.5,93.1667 23.5,96.8333 23.5,100.5C 20.8333,100.5 18.1667,100.5 15.5,100.5C 15.5,96.8333 15.5,93.1667 15.5,89.5 Z"/></g>
<g><path style="opacity:1" fill="#f4f6f8" d="M 27.5,89.5 C 31.5,89.5 35.5,89.5 39.5,89.5C 39.5,93.1667 39.5,96.8333 39.5,100.5C 35.5,100.5 31.5,100.5 27.5,100.5C 27.5,96.8333 27.5,93.1667 27.5,89.5 Z"/></g>
<g><path style="opacity:1" fill="#f9fbfd" d="M 43.5,89.5 C 47.1667,89.5 50.8333,89.5 54.5,89.5C 54.5,93.1667 54.5,96.8333 54.5,100.5C 50.8333,100.5 47.1667,100.5 43.5,100.5C 43.5,96.8333 43.5,93.1667 43.5,89.5 Z"/></g>
<g><path style="opacity:1" fill="#f0f2f4" d="M 58.5,89.5 C 62.5,89.5 66.5,89.5 70.5,89.5C 70.5,93.1667 70.5,96.8333 70.5,100.5C 66.5,100.5 62.5,100.5 58.5,100.5C 58.5,96.8333 58.5,93.1667 58.5,89.5 Z"/></g>
<g><path style="opacity:1" fill="#666666" d="M 66.5,93.5 C 65.5,93.5 64.5,93.5 63.5,93.5C 63.5,94.5 63.5,95.5 63.5,96.5C 62.5655,95.4324 62.2322,94.099 62.5,92.5C 64.099,92.2322 65.4324,92.5655 66.5,93.5 Z"/></g>
<g><path style="opacity:1" fill="#000000" d="M 66.5,93.5 C 66.5,94.5 66.5,95.5 66.5,96.5C 65.5,96.5 64.5,96.5 63.5,96.5C 63.5,95.5 63.5,94.5 63.5,93.5C 64.5,93.5 65.5,93.5 66.5,93.5 Z"/></g>
<g><path style="opacity:1" fill="#65778c" d="M 83.5,92.5 C 87.6582,93.4983 91.6582,94.9983 95.5,97C 96.7836,98.2975 96.6169,99.4642 95,100.5C 91.5732,98.871 88.0732,97.371 84.5,96C 83.6634,94.9887 83.33,93.8221 83.5,92.5 Z"/></g>
<g><path style="opacity:1" fill="#259ea3" d="M 87.5,101.5 C 85.8184,102.827 84.4851,104.494 83.5,106.5C 82.5028,106.53 81.8361,106.03 81.5,105C 82.1068,100.886 84.1068,99.7194 87.5,101.5 Z"/></g>
<g><path style="opacity:1" fill="#add9a5" d="M 87.5,101.5 C 91.3618,101.833 92.1952,103.499 90,106.5C 87.7265,107.811 85.5598,107.811 83.5,106.5C 84.4851,104.494 85.8184,102.827 87.5,101.5 Z"/></g>
<g><path style="opacity:1" fill="#f0f1f3" d="M 12.5,104.5 C 16.1667,104.5 19.8333,104.5 23.5,104.5C 23.5,108.5 23.5,112.5 23.5,116.5C 19.8333,116.5 16.1667,116.5 12.5,116.5C 12.5,112.5 12.5,108.5 12.5,104.5 Z"/></g>
<g><path style="opacity:1" fill="#d6dbe0" d="M 27.5,104.5 C 31.5,104.5 35.5,104.5 39.5,104.5C 39.5,108.5 39.5,112.5 39.5,116.5C 35.5,116.5 31.5,116.5 27.5,116.5C 27.5,112.5 27.5,108.5 27.5,104.5 Z"/></g>
<g><path style="opacity:1" fill="#fefefe" d="M 30.5,105.5 C 33.1667,105.5 35.8333,105.5 38.5,105.5C 38.5,108.833 38.5,112.167 38.5,115.5C 35.8333,115.5 33.1667,115.5 30.5,115.5C 30.5,112.167 30.5,108.833 30.5,105.5 Z"/></g>
<g><path style="opacity:1" fill="#1e979c" d="M 46.5,104.5 C 46.5,108.5 46.5,112.5 46.5,116.5C 45.1667,116.5 43.8333,116.5 42.5,116.5C 42.5,112.5 42.5,108.5 42.5,104.5C 43.8333,104.5 45.1667,104.5 46.5,104.5 Z"/></g>
<g><path style="opacity:1" fill="#bbe8af" d="M 46.5,104.5 C 49.1667,104.5 51.8333,104.5 54.5,104.5C 54.5,108.5 54.5,112.5 54.5,116.5C 51.8333,116.5 49.1667,116.5 46.5,116.5C 46.5,112.5 46.5,108.5 46.5,104.5 Z"/></g>
<g><path style="opacity:1" fill="#d6dbe0" d="M 58.5,104.5 C 62.5,104.5 66.5,104.5 70.5,104.5C 70.5,108.5 70.5,112.5 70.5,116.5C 66.5,116.5 62.5,116.5 58.5,116.5C 58.5,112.5 58.5,108.5 58.5,104.5 Z"/></g>
<g><path style="opacity:1" fill="#fefefe" d="M 61.5,105.5 C 64.1667,105.5 66.8333,105.5 69.5,105.5C 69.5,108.833 69.5,112.167 69.5,115.5C 66.8333,115.5 64.1667,115.5 61.5,115.5C 61.5,112.167 61.5,108.833 61.5,105.5 Z"/></g>
<g><path style="opacity:1" fill="#0f0f0f" d="M 16.5,108.5 C 17.5,108.5 18.5,108.5 19.5,108.5C 19.5,109.833 19.5,111.167 19.5,112.5C 18.5,112.5 17.5,112.5 16.5,112.5C 16.5,111.167 16.5,109.833 16.5,108.5 Z"/></g>
</svg>
