<svg xmlns="http://www.w3.org/2000/svg" width="64" height="64" ><path style="opacity:1" fill="#414142" d="M13.5-.5h37a84.585 84.585 0 0 1 10 12l-2 48v-47c-2.131-.814-4.464-1.314-7-1.5-.566-.995-1.233-1.828-2-2.5v-6h-36l-2 28c-1.158-9.157-1.324-18.49-.5-28a10.522 10.522 0 0 0 2.5-3z"/><path style="opacity:1" fill="#d0d3db" d="M13.5 2.5h36v6c-.722.418-1.222 1.084-1.5 2-.324-2.069-1.157-2.402-2.5-1a30.958 30.958 0 0 0-2-2h-26c-1.845 1.495-2.178 3.162-1 5-.172.992.162 1.658 1 2 12.18.78 24.514 1.614 37 2.5-12.507.17-24.84.67-37 1.5h-1c-.983 3.798-1.317 7.798-1 12-.617-.11-1.117-.444-1.5-1-.5-8.994-.666-17.994-.5-27z"/><path style="opacity:1" fill="#8b919c" d="M51.5 4.5a31.44 31.44 0 0 1 5 4.5c-3.992 1.177-5.658-.323-5-4.5z"/><path style="opacity:1" fill="#bdc0c7" d="M17.5 7.5c3.945 1.325 8.278 1.992 13 2 4.722-.008 9.055-.675 13-2 .651.59 1.318 1.257 2 2 1.343-1.402 2.176-1.069 2.5 1 .278-.916.778-1.582 1.5-2 .767.672 1.434 1.505 2 2.5 2.536.186 4.869.686 7 1.5-5.219-.593-5.886.407-2 3-1.333 1-1.333 2 0 3-.457.797-1.124 1.13-2 1a342.839 342.839 0 0 0-37-1 677.15 677.15 0 0 1 37-1.5c-12.486-.886-24.82-1.72-37-2.5 9.025.332 18.025-.002 27-1a196.88 196.88 0 0 0-28-1c-1.178-1.838-.845-3.505 1-5z"/><path style="opacity:1" fill="#3d3d3d" d="M17.5 7.5h26c-3.945 1.325-8.278 1.992-13 2-4.722-.008-9.055-.675-13-2z"/><path style="opacity:1" fill="#48494a" d="M16.5 12.5a196.88 196.88 0 0 1 28 1 183.123 183.123 0 0 1-27 1c-.838-.342-1.172-1.008-1-2z"/><path style="opacity:1" fill="#d0d3db" d="M58.5 12.5v47a529.607 529.607 0 0 1-46 1v-4c9.182.327 18.182-.007 27-1a276.286 276.286 0 0 1 2.5-22c-.22 6.558-.386 13.058-.5 19.5-.113 1.7.553 2.866 2 3.5 3.726.323 7.393-.01 11-1-.124-.607-.457-.94-1-1-2.805-.82-5.805-1.32-9-1.5 3.195-.18 6.195-.68 9-1.5 1.333-.667 1.333-1.333 0-2-3.619-.381-6.952-1.381-10-3 4.149.58 7.816-.086 11-2 .79-.283 1.456-.783 2-1.5-.245-2.089-.245-4.089 0-6-.544-.717-1.21-1.217-2-1.5v-2c2.667-1 2.667-2 0-3v-2c2.667-1 2.667-2 0-3v-2a341.07 341.07 0 0 1-37-3 342.839 342.839 0 0 0 37-1c.876.13 1.543-.203 2-1-1.333-1-1.333-2 0-3-3.886-2.593-3.219-3.593 2-3z"/><path style="opacity:1" fill="#656669" d="M16.5 18.5h1a342.839 342.839 0 0 1 37 1 342.839 342.839 0 0 1-37 1c-.838-.342-1.172-1.008-1-2z"/><path style="opacity:1" fill="#515253" d="M54.5 23.5v2c-50.667-.667-50.667-1.333 0-2z"/><path style="opacity:1" fill="#c2c5cc" d="M16.5 18.5c-.172.992.162 1.658 1 2a341.07 341.07 0 0 0 37 3c-50.667.667-50.667 1.333 0 2 2.667 1 2.667 2 0 3-13.044-.647-25.71.02-38 2h-1c-.317-4.202.017-8.202 1-12z"/><path style="opacity:1" fill="#bdbfc6" d="M13.5 2.5c-.166 9.006 0 18.006.5 27 .383.556.883.89 1.5 1h39c2.667 1 2.667 2 0 3-14.667.667-14.667 1.333 0 2 .79.283 1.456.783 2 1.5-.245 1.911-.245 3.911 0 6-.544.717-1.21 1.217-2 1.5-4.149-.58-7.816.086-11 2 3.048 1.619 6.381 2.619 10 3-13.333.667-13.333 1.333 0 2-2.805.82-5.805 1.32-9 1.5 3.195.18 6.195.68 9 1.5-3.83-.569-7.163.098-10 2-1.447-.634-2.113-1.8-2-3.5.114-6.442.28-12.942.5-19.5a276.286 276.286 0 0 0-2.5 22v-22h-28v-3l2-28z"/><path style="opacity:1" fill="#424242" d="M54.5 28.5v2h-38c12.29-1.98 24.956-2.647 38-2z"/><path style="opacity:1" fill="#3b3b3c" d="M54.5 33.5v2c-14.667-.667-14.667-1.333 0-2z"/><path style="opacity:1" fill="#545455" d="M54.5 44.5c-3.184 1.914-6.851 2.58-11 2 3.184-1.914 6.851-2.58 11-2z"/><path style="opacity:1" fill="#424343" d="M53.5 49.5c1.333.667 1.333 1.333 0 2-13.333-.667-13.333-1.333 0-2z"/><path style="opacity:1" fill="#3f3c37" d="M11.5 33.5h28v22c-8.818.993-17.818 1.327-27 1v4h-1c-.934-1.068-1.268-2.401-1-4h-8c-.166-7.34 0-14.674.5-22 2.72-.944 5.552-1.277 8.5-1z"/><path style="opacity:1" fill="#ecc137" d="M32.5 39.5c-1.967-.24-3.8.094-5.5 1a32.437 32.437 0 0 0-.5 8c-.814-2.131-1.314-4.464-1.5-7l-1 9c-.67.752-1.504 1.086-2.5 1 1.987-3.358 2.487-7.025 1.5-11-6.694-1.63-9.027 1.037-7 8 .698 1.19 1.531 2.19 2.5 3-1.333 1.333-2.667 1.333-4 0-1.052-1.756-2.719-2.423-5-2a25.871 25.871 0 0 0-1-10c-1.265 4.046-1.265 8.046 0 12-.79.283-1.456.783-2 1.5 10.328.5 20.661.666 31 .5-11 1.333-22 1.333-33 0 1.856-5.233 2.522-10.566 2-16 6.25.396 12.583.396 19 0 2.58.224 4.914.89 7 2z"/><path style="opacity:1" fill="#f6cb37" d="M37.5 53.5c-10.339.166-20.672 0-31-.5.544-.717 1.21-1.217 2-1.5h6c1.333 1.333 2.667 1.333 4 0h3c.996.086 1.83-.248 2.5-1l1-9c.186 2.536.686 4.869 1.5 7 1.206 2.64 3.206 3.472 6 2.5 1.655-1.444 2.322-3.278 2-5.5-1.478-.262-2.811.071-4 1a4.452 4.452 0 0 0 2 1.5c-1.036 1.617-2.203 1.784-3.5.5a12.5 12.5 0 0 1 0-7 26.078 26.078 0 0 1 5.5 0c-.355-1.022-1.022-1.689-2-2-2.086-1.11-4.42-1.776-7-2-6.417.396-12.75.396-19 0 .522 5.434-.144 10.767-2 16v-18h33v18z"/><path style="opacity:1" fill="#373436" d="M21.5 51.5h-3c-.969-.81-1.802-1.81-2.5-3-2.027-6.963.306-9.63 7-8 .987 3.975.487 7.642-1.5 11z"/><path style="opacity:1" fill="#e2bd38" d="M18.5 40.5c1.322-.17 2.489.163 3.5 1a12.5 12.5 0 0 1 0 7c-1.333 1.333-2.667 1.333-4 0-.722-2.76-.555-5.427.5-8z"/><path style="opacity:1" fill="#423d36" d="M32.5 39.5c.978.311 1.645.978 2 2a26.078 26.078 0 0 0-5.5 0 12.5 12.5 0 0 0 0 7c1.297 1.284 2.464 1.117 3.5-.5a4.452 4.452 0 0 1-2-1.5c1.189-.929 2.522-1.262 4-1 .322 2.222-.345 4.056-2 5.5-2.794.972-4.794.14-6-2.5a32.437 32.437 0 0 1 .5-8c1.7-.906 3.533-1.24 5.5-1z"/><path style="opacity:1" fill="#3f3c36" d="M14.5 51.5h-6c-1.265-3.954-1.265-7.954 0-12a25.871 25.871 0 0 1 1 10c2.281-.423 3.948.244 5 2z"/><path style="opacity:1" fill="#3b3b3b" d="M53.5 54.5c.543.06.876.393 1 1a31.121 31.121 0 0 1-11 1c2.837-1.902 6.17-2.569 10-2z"/><path style="opacity:1" fill="#3a3a3a" d="M60.5 11.5c.167 16.67 0 33.337-.5 50a96.689 96.689 0 0 0-6.5 2h-36c-.667-1.333-1.333-1.333-2 0h-1a10.174 10.174 0 0 1-3-3h1c15.51.33 30.842-.004 46-1l2-48z"/></svg>