<?xml version="1.0" encoding="UTF-8"?>
<!DOCTYPE svg PUBLIC "-//W3C//DTD SVG 1.1//EN" "http://www.w3.org/Graphics/SVG/1.1/DTD/svg11.dtd">
<svg xmlns="http://www.w3.org/2000/svg" version="1.1" width="128px" height="128px" style="shape-rendering:geometricPrecision; text-rendering:geometricPrecision; image-rendering:optimizeQuality; fill-rule:evenodd; clip-rule:evenodd" xmlns:xlink="http://www.w3.org/1999/xlink">
<g><path style="opacity:0.924" fill="#070909" d="M 55.5,-0.5 C 60.8333,-0.5 66.1667,-0.5 71.5,-0.5C 74.567,0.870892 77.567,2.53756 80.5,4.5C 81.3857,5.32496 81.719,6.32496 81.5,7.5C 80.7354,7.92342 79.9021,8.25675 79,8.5C 68.6386,2.03829 58.1386,1.87162 47.5,8C 40.1345,13.9856 38.6345,21.1523 43,29.5C 46.4233,25.5661 50.59,24.5661 55.5,26.5C 56.938,26.2811 58.2713,25.7811 59.5,25C 62.7399,21.1059 65.9066,17.2726 69,13.5C 71.639,17.3285 74.139,21.3285 76.5,25.5C 79.3602,26.1798 81.8602,27.5131 84,29.5C 85.7278,27.148 86.5612,24.4813 86.5,21.5C 85.421,17.4618 84.421,13.4618 83.5,9.5C 87.0045,10.4553 89.1711,12.7886 90,16.5C 90.664,20.6955 90.4974,24.8622 89.5,29C 90.2007,31.3804 91.3674,33.5471 93,35.5C 94.8442,43.8322 91.6776,48.8322 83.5,50.5C 81.5284,54.9715 78.3617,58.3049 74,60.5C 73.5065,62.1341 73.3398,63.8008 73.5,65.5C 75.1439,65.2865 76.6439,65.6198 78,66.5C 78.4966,68.8098 78.6633,71.1432 78.5,73.5C 89.6673,71.0587 95.6673,75.3921 96.5,86.5C 99.2919,86.4521 101.125,87.7854 102,90.5C 102.5,102.829 102.667,115.162 102.5,127.5C 96.8333,127.5 91.1667,127.5 85.5,127.5C 85.5,127.167 85.5,126.833 85.5,126.5C 85.4142,125.504 85.7476,124.671 86.5,124C 90.4862,123.501 94.4862,123.334 98.5,123.5C 98.8101,112.781 98.4768,102.115 97.5,91.5C 74.8407,90.3335 52.174,90.1669 29.5,91C 28.513,101.752 28.1797,112.585 28.5,123.5C 45.8365,123.333 63.1699,123.5 80.5,124C 81.2524,124.671 81.5858,125.504 81.5,126.5C 81.5,126.833 81.5,127.167 81.5,127.5C 62.5,127.5 43.5,127.5 24.5,127.5C 24.3335,115.162 24.5001,102.829 25,90.5C 25.8747,87.7854 27.7081,86.4521 30.5,86.5C 31.3327,75.3921 37.3327,71.0587 48.5,73.5C 48.3367,71.1432 48.5034,68.8098 49,66.5C 50.3561,65.6198 51.8561,65.2865 53.5,65.5C 53.6602,63.8008 53.4935,62.1341 53,60.5C 51.2942,59.6921 50.4609,58.3588 50.5,56.5C 53.1194,55.1972 55.4528,55.6972 57.5,58C 66.8005,60.0174 74.1338,57.184 79.5,49.5C 75.6304,48.9257 71.9638,47.759 68.5,46C 66.736,43.4881 65.0693,40.9881 63.5,38.5C 61.9307,40.9881 60.264,43.4881 58.5,46C 54.9691,47.5887 51.3024,48.7554 47.5,49.5C 48.3094,51.0709 48.6427,52.7376 48.5,54.5C 45.6787,54.6841 44.0121,53.3507 43.5,50.5C 35.3224,48.8322 32.1558,43.8322 34,35.5C 37.7885,31.2813 38.6218,26.448 36.5,21C 38.0389,9.62621 44.3722,2.45954 55.5,-0.5 Z"/></g>
<g><path style="opacity:1" fill="#407a9a" d="M 81.5,7.5 C 81.8333,8.5 82.5,9.16667 83.5,9.5C 84.421,13.4618 85.421,17.4618 86.5,21.5C 86.5612,24.4813 85.7278,27.148 84,29.5C 81.8602,27.5131 79.3602,26.1798 76.5,25.5C 74.139,21.3285 71.639,17.3285 69,13.5C 65.9066,17.2726 62.7399,21.1059 59.5,25C 58.2713,25.7811 56.938,26.2811 55.5,26.5C 50.59,24.5661 46.4233,25.5661 43,29.5C 38.6345,21.1523 40.1345,13.9856 47.5,8C 58.1386,1.87162 68.6386,2.03829 79,8.5C 79.9021,8.25675 80.7354,7.92342 81.5,7.5 Z"/></g>
<g><path style="opacity:1" fill="#ebb794" d="M 67.5,20.5 C 69.6186,21.7912 71.2853,23.6246 72.5,26C 68.6418,28.3581 65.6418,31.5248 63.5,35.5C 62.1667,33.5 60.8333,31.5 59.5,29.5C 62.9257,27.0801 65.5924,24.0801 67.5,20.5 Z"/></g>
<g><path style="opacity:1" fill="#27c8ef" d="M 47.5,29.5 C 55.709,28.8724 59.209,32.5391 58,40.5C 52.8332,46.0923 48.1666,45.759 44,39.5C 43.1822,35.4695 44.3489,32.1361 47.5,29.5 Z"/></g>
<g><path style="opacity:1" fill="#27c8ef" d="M 72.5,29.5 C 80.164,28.6662 83.664,31.9995 83,39.5C 78.8334,45.759 74.1668,46.0923 69,40.5C 67.6624,35.9597 68.8291,32.293 72.5,29.5 Z"/></g>
<g><path style="opacity:1" fill="#d18064" d="M 38.5,35.5 C 39.5644,38.1864 40.5644,41.0198 41.5,44C 39.8359,45.7674 38.6692,45.2674 38,42.5C 37.2967,40.0709 37.4634,37.7375 38.5,35.5 Z"/></g>
<g><path style="opacity:1" fill="#ce7e63" d="M 87.5,35.5 C 88.9931,36.3121 89.6598,37.6455 89.5,39.5C 89.5468,42.0732 88.5468,44.0732 86.5,45.5C 86.1667,45 85.8333,44.5 85.5,44C 86.6868,41.2764 87.3535,38.4431 87.5,35.5 Z"/></g>
<g><path style="opacity:0.995" fill="#f7bc99" d="M 50.5,56.5 C 49.5,56.1667 48.8333,55.5 48.5,54.5C 48.6427,52.7376 48.3094,51.0709 47.5,49.5C 51.3024,48.7554 54.9691,47.5887 58.5,46C 60.264,43.4881 61.9307,40.9881 63.5,38.5C 65.0693,40.9881 66.736,43.4881 68.5,46C 71.9638,47.759 75.6304,48.9257 79.5,49.5C 74.1338,57.184 66.8005,60.0174 57.5,58C 55.4528,55.6972 53.1194,55.1972 50.5,56.5 Z"/></g>
<g><path style="opacity:1" fill="#95735e" d="M 59.5,62.5 C 58.9033,62.7352 58.5699,63.2352 58.5,64C 59.0556,65.0111 59.7222,65.8444 60.5,66.5C 59.5,66.5 58.5,66.5 57.5,66.5C 57.2148,64.712 57.5481,63.0453 58.5,61.5C 59.1067,61.6236 59.44,61.9569 59.5,62.5 Z"/></g>
<g><path style="opacity:1" fill="#f7ae90" d="M 59.5,62.5 C 61.8333,62.5 64.1667,62.5 66.5,62.5C 67.4972,62.4701 68.1639,62.9701 68.5,64C 67.9444,65.0111 67.2778,65.8444 66.5,66.5C 64.5,67.8333 62.5,67.8333 60.5,66.5C 59.7222,65.8444 59.0556,65.0111 58.5,64C 58.5699,63.2352 58.9033,62.7352 59.5,62.5 Z"/></g>
<g><path style="opacity:1" fill="#8e5f50" d="M 66.5,62.5 C 67.209,61.596 68.209,61.2627 69.5,61.5C 69.5,63.1667 69.5,64.8333 69.5,66.5C 68.5,66.5 67.5,66.5 66.5,66.5C 67.2778,65.8444 67.9444,65.0111 68.5,64C 68.1639,62.9701 67.4972,62.4701 66.5,62.5 Z"/></g>
<g><path style="opacity:1" fill="#dedede" d="M 52.5,69.5 C 54.8568,69.3367 57.1902,69.5034 59.5,70C 60.9733,70.7096 61.6399,71.8762 61.5,73.5C 58.5,73.5 55.5,73.5 52.5,73.5C 52.5,72.1667 52.5,70.8333 52.5,69.5 Z"/></g>
<g><path style="opacity:1" fill="#cecece" d="M 66.5,69.5 C 69.1667,69.5 71.8333,69.5 74.5,69.5C 74.5,70.8333 74.5,72.1667 74.5,73.5C 71.5,73.5 68.5,73.5 65.5,73.5C 65.4326,72.0413 65.7659,70.7079 66.5,69.5 Z"/></g>
<g><path style="opacity:1" fill="#e0e0e0" d="M 38.5,77.5 C 39.5,77.5 40.5,77.5 41.5,77.5C 41.5,80.5 41.5,83.5 41.5,86.5C 39.1667,86.5 36.8333,86.5 34.5,86.5C 34.4825,82.8707 35.8158,79.8707 38.5,77.5 Z"/></g>
<g><path style="opacity:1" fill="#71dc8c" d="M 45.5,77.5 C 57.5,77.5 69.5,77.5 81.5,77.5C 81.5,80.5 81.5,83.5 81.5,86.5C 69.5,86.5 57.5,86.5 45.5,86.5C 45.5,83.5 45.5,80.5 45.5,77.5 Z"/></g>
<g><path style="opacity:1" fill="#d4d4d4" d="M 85.5,77.5 C 90.4315,78.4358 92.7648,81.4358 92.5,86.5C 90.1667,86.5 87.8333,86.5 85.5,86.5C 85.5,83.5 85.5,80.5 85.5,77.5 Z"/></g>
<g><path style="opacity:0.999" fill="#417d9c" d="M 85.5,126.5 C 84.1667,126.5 82.8333,126.5 81.5,126.5C 81.5858,125.504 81.2524,124.671 80.5,124C 63.1699,123.5 45.8365,123.333 28.5,123.5C 28.1797,112.585 28.513,101.752 29.5,91C 52.174,90.1669 74.8407,90.3335 97.5,91.5C 98.4768,102.115 98.8101,112.781 98.5,123.5C 94.4862,123.334 90.4862,123.501 86.5,124C 85.7476,124.671 85.4142,125.504 85.5,126.5 Z"/></g>
<g><path style="opacity:1" fill="#070d10" d="M 43.5,93.5 C 44.9953,93.4148 45.9953,94.0815 46.5,95.5C 45.0551,99.8723 43.0551,103.872 40.5,107.5C 39.5,107.167 38.8333,106.5 38.5,105.5C 39.7837,101.309 41.4504,97.3088 43.5,93.5 Z"/></g>
<g><path style="opacity:1" fill="#050b0d" d="M 34.5,95.5 C 35.5,95.5 36.5,95.5 37.5,95.5C 37.6168,97.4835 36.9501,99.1502 35.5,100.5C 36.9501,101.85 37.6168,103.516 37.5,105.5C 30.027,103.772 29.027,100.439 34.5,95.5 Z"/></g>
<g><path style="opacity:1" fill="#030709" d="M 48.5,95.5 C 56.5416,99.4584 56.2083,102.792 47.5,105.5C 47.3832,103.516 48.0499,101.85 49.5,100.5C 47.5764,99.0347 47.2431,97.368 48.5,95.5 Z"/></g>
<g><path style="opacity:1" fill="#020303" d="M 60.5,106.5 C 67.6545,106.153 70.8212,109.486 70,116.5C 65.6667,121.833 61.3333,121.833 57,116.5C 56.3333,114.5 56.3333,112.5 57,110.5C 58.3756,109.295 59.5423,107.962 60.5,106.5 Z"/></g>
<g><path style="opacity:1" fill="#df9b00" d="M 62.5,109.5 C 68.532,111.544 68.8653,114.21 63.5,117.5C 58.6907,115.257 58.3574,112.591 62.5,109.5 Z"/></g>
</svg>
