<svg xmlns="http://www.w3.org/2000/svg" width="64" height="64" ><path style="opacity:1" fill="#ee307b" d="m35.5 3.5 2 1c.548 1.894 1.548 3.56 3 5a3.646 3.646 0 0 1-1 1.5 64.247 64.247 0 0 1-16 0c-.95-.717-1.117-1.55-.5-2.5A34.691 34.691 0 0 1 30.5 2c1.69.134 3.356.634 5 1.5z"/><path style="opacity:1" fill="#110b0c" d="M30.5-.5h2c1.73.736 2.73 2.07 3 4-1.644-.866-3.31-1.366-5-1.5A34.691 34.691 0 0 0 23 8.5c-.617.95-.45 1.783.5 2.5a64.247 64.247 0 0 0 16 0c.457-.414.79-.914 1-1.5-1.452-1.44-2.452-3.106-3-5 2.24 1.068 4.074 2.734 5.5 5a114.5 114.5 0 0 1 6 13c2.415.911 3.915 2.578 4.5 5h-2c-.283-.79-.783-1.456-1.5-2a72.496 72.496 0 0 0 0 17c.67.752 1.504 1.086 2.5 1 3.787 4.585 5.453 3.752 5-2.5-.082-4.408-1.082-8.575-3-12.5 1.636 1.249 2.803 2.916 3.5 5 2.092 5.439 1.925 10.772-.5 16a30.078 30.078 0 0 0-7.5-5 34.077 34.077 0 0 0-1.5 8h-3c.072 4.602-1.928 6.602-6 6l-1.5-3a22.146 22.146 0 0 1-5.5 8h-2a22.146 22.146 0 0 1-5.5-8c-.436 2.784-1.936 3.95-4.5 3.5-1.95-1.734-2.95-3.9-3-6.5h-3a168.19 168.19 0 0 0-1.5-8 30.079 30.079 0 0 0-7.5 5c-1.54-2.986-1.874-5.986-1-9a168.84 168.84 0 0 1 2 6 26.86 26.86 0 0 1 6-3.5c1.14-5.75 1.307-11.584.5-17.5-4.4 3.503-7.232 7.837-8.5 13 .329-6.987 3.495-12.32 9.5-16 2.719-9.853 8.219-17.52 16.5-23z"/><path style="opacity:1" fill="#b1abcb" d="M38.5 13.5c1.1-1.098 2.434-1.265 4-.5 5.248 9.505 7.082 19.671 5.5 30.5-.67.752-1.504 1.086-2.5 1v-3c-4-.667-4-1.333 0-2 .364-8.677-1.136-17.01-4.5-25-.67-.752-1.504-1.086-2.5-1z"/><path style="opacity:1" fill="#ece2f1" d="M38.5 13.5c.996-.086 1.83.248 2.5 1 3.364 7.99 4.864 16.323 4.5 25-4 .667-4 1.333 0 2v3h-6v-4c-3.218.15-3.551.984-1 2.5a72.7 72.7 0 0 1-20 1.5h-4c-.97-10.403.53-20.403 4.5-30 .739-1.074 1.739-1.74 3-2 5.45.93 10.95 1.263 16.5 1z"/><path style="opacity:1" fill="#1e2126" d="M28.5 23.5c6.33-.834 9.163 1.833 8.5 8-3.667 4-7.333 4-11 0-.982-3.275-.148-5.941 2.5-8z"/><path style="opacity:1" fill="#5db8ed" d="M29.5 25.5c4.986-.195 6.652 1.972 5 6.5-6.94 1.574-8.606-.593-5-6.5z"/><path style="opacity:1" fill="#393539" d="M30.5 16.5c1.837.14 2.17.806 1 2-.797-.457-1.13-1.124-1-2z"/><path style="opacity:1" fill="#b41763" d="M51.5 27.5h2c.667 0 1 .333 1 1 1.918 3.925 2.918 8.092 3 12.5.453 6.252-1.213 7.085-5 2.5 1.194-.47 1.86-1.47 2-3a75.499 75.499 0 0 0-3-13z"/><path style="opacity:1" fill="#ea3178" d="M4.5 40.5v-2c1.268-5.163 4.1-9.497 8.5-13 .807 5.916.64 11.75-.5 17.5a26.86 26.86 0 0 0-6 3.5 168.84 168.84 0 0 0-2-6z"/><path style="opacity:1" fill="#e52f77" d="M51.5 27.5a75.499 75.499 0 0 1 3 13c-.14 1.53-.806 2.53-2 3-.996.086-1.83-.248-2.5-1a72.496 72.496 0 0 1 0-17c.717.544 1.217 1.21 1.5 2z"/><path style="opacity:1" fill="#585459" d="M30.5 40.5c1.837.14 2.17.806 1 2-.797-.457-1.13-1.124-1-2z"/><path style="opacity:1" fill="#b8b0bc" d="M39.5 44.5v1a5.728 5.728 0 0 1-3 1l-18-2a72.7 72.7 0 0 0 20-1.5c-2.551-1.516-2.218-2.35 1-2.5v4z"/><path style="opacity:1" fill="#5f575f" d="M39.5 45.5c2.528.666 5.194 1.332 8 2l-1 2a94.768 94.768 0 0 1-29 1.5c-1.607-1.049-2.273-2.549-2-4.5 7.161 1.023 14.161 1.023 21 0a5.728 5.728 0 0 0 3-1z"/><path style="opacity:1" fill="#efdd74" d="M32.5 53.5c-.295 2.235.039 4.235 1 6-1.208 1.282-2.542 1.282-4 0-1.586-1.673-2.253-3.673-2-6h5z"/><path style="opacity:1" fill="#ecc018" d="M32.5 53.5h3c.248 2.358-.42 4.358-2 6-.961-1.765-1.295-3.765-1-6z"/><path style="opacity:1" fill="#040304" d="M11.5 55.5c.886-1.276 1.886-1.276 3 0 1.39 1.67 1.723 3.336 1 5-1.113-1.92-2.446-3.586-4-5z"/><path style="opacity:1" fill="#bca744" d="M19.5 52.5c5.917-.374 6.584 1.293 2 5-1.45-1.35-2.117-3.017-2-5z"/><path style="opacity:1" fill="#ba9e31" d="M38.5 52.5h5c-1.26 6.455-2.927 6.455-5 0z"/><path style="opacity:1" fill="#040303" d="M48.5 54.5c.876-.13 1.543.203 2 1-3.81 6.526-4.476 6.193-2-1z"/></svg>