<?xml version="1.0" encoding="UTF-8" standalone="no"?>
<svg
   height="418.63809"
   viewBox="0 0 116.02364 104.65952"
   width="464.09457"
   version="1.1"
   id="svg79"
   sodipodi:docname="megaphone-02.svg"
   inkscape:version="1.2 (dc2aedaf03, 2022-05-15)"
   xmlns:inkscape="http://www.inkscape.org/namespaces/inkscape"
   xmlns:sodipodi="http://sodipodi.sourceforge.net/DTD/sodipodi-0.dtd"
   xmlns="http://www.w3.org/2000/svg"
   xmlns:svg="http://www.w3.org/2000/svg">
  <defs
     id="defs83" />
  <sodipodi:namedview
     id="namedview81"
     pagecolor="#ffffff"
     bordercolor="#666666"
     borderopacity="1.0"
     inkscape:showpageshadow="2"
     inkscape:pageopacity="0.0"
     inkscape:pagecheckerboard="0"
     inkscape:deskcolor="#d1d1d1"
     showgrid="false"
     inkscape:zoom="1.5097656"
     inkscape:cx="231.82406"
     inkscape:cy="209.63519"
     inkscape:window-width="1920"
     inkscape:window-height="1018"
     inkscape:window-x="-6"
     inkscape:window-y="-5"
     inkscape:window-maximized="1"
     inkscape:current-layer="svg79" />
  <g
     id="g57"
     transform="translate(-5.9984918,-11.673078)">
    <circle
       cx="75.049004"
       cy="50.993"
       fill="#78b5f2"
       r="17.364"
       transform="matrix(0.262,-0.965,0.965,0.262,6.169,110.054)"
       id="circle47" />
    <path
       d="M 28.718,57.527 45.976,87.654 90.14,77.337 59.958,24.649 Z"
       fill="#d8dde5"
       id="path49" />
    <path
       d="m 63,22.909 a 3.5,3.5 0 0 0 -6.074,3.479 L 86.9,78.721 a 3.5001384,3.5001384 0 1 0 6.074,-3.48 z"
       fill="#6598cb"
       id="path51" />
    <path
       d="m 45.976,87.654 -10.413,5.965 21.8,20.159 a 3,3 0 0 0 4.3,-0.232 l 3.58,-4.111 a 3,3 0 0 0 -0.226,-4.173 z"
       fill="#487eb5"
       id="path53" />
    <path
       d="M 12.781,66.651 A 10,10 0 0 0 9.075,80.3 L 16.4,93.078 a 10,10 0 0 0 13.648,3.707 L 45.982,87.657 28.716,57.524 Z"
       fill="#6598cb"
       id="path55" />
  </g>
  <g
     id="g77"
     transform="translate(-5.9984918,-11.673078)">
    <path
       d="M 88.736,64.324 A 19.1,19.1 0 0 0 70.477,32.448 L 64.514,22.039 a 5.24,5.24 0 0 0 -9.22,4.977 l -4.942,5.2 a 1.75,1.75 0 1 0 2.536,2.412 l 4.2,-4.42 L 83.9,77 46.851,85.65 30.887,57.78 46.6,41.256 a 1.75,1.75 0 1 0 -2.536,-2.412 l -16.438,17.287 -15.714,9 A 11.743,11.743 0 0 0 7.556,81.169 l 7.321,12.779 A 11.763,11.763 0 0 0 30.913,98.3 l 4.4,-2.522 0.753,0.7 a 1.75,1.75 0 0 0 2.427,-2.521 l 7.243,-4.149 18.084,16.734 a 1.259,1.259 0 0 1 0.1,1.737 l -3.578,4.121 a 1.252,1.252 0 0 1 -1.794,0.1 l -3.06,-2.83 a 1.7500197,1.7500197 0 1 0 -2.376,2.57 l 3.058,2.828 a 4.752,4.752 0 0 0 6.811,-0.366 l 3.581,-4.12 a 4.727,4.727 0 0 0 -0.364,-6.6 L 49.588,88.605 85.759,80.159 a 5.25,5.25 0 0 0 8.733,-5.788 z M 34.69,92.1 c -0.01,0 -0.018,0.015 -0.029,0.021 l -5.488,3.144 A 8.246,8.246 0 0 1 17.914,92.206 L 10.593,79.429 A 8.246,8.246 0 0 1 13.651,68.17 L 28.067,59.912 43.587,87 Z M 88.6,43.23 a 15.654,15.654 0 0 1 -1.7,17.9 L 72.305,35.64 A 15.65,15.65 0 0 1 88.6,43.23 Z M 90.8,78.5 A 1.756,1.756 0 0 1 88.411,77.851 L 58.44,25.519 a 1.7500692,1.7500692 0 1 1 3.037,-1.74 L 91.455,76.111 A 1.752,1.752 0 0 1 90.806,78.5 Z"
       id="path59" />
    <path
       d="m 45.147,100.1 a 1.7504432,1.7504432 0 0 0 -2.374,2.573 l 3.65,3.37 a 1.7500757,1.7500757 0 0 0 2.374,-2.572 z"
       id="path61" />
    <path
       d="M 24.85,66.549 20,69.327 a 1.75,1.75 0 1 0 1.739,3.037 l 4.852,-2.778 a 1.75,1.75 0 1 0 -1.739,-3.037 z"
       id="path63" />
    <path
       d="m 28.373,72.7 -4.85,2.779 a 1.751,1.751 0 0 0 1.74,3.038 l 4.851,-2.78 A 1.7503178,1.7503178 0 0 0 28.373,72.7 Z"
       id="path65" />
    <path
       d="m 117.779,24.5 -20.5,11.744 a 1.75,1.75 0 1 0 1.739,3.037 l 20.5,-11.744 a 1.7500692,1.7500692 0 0 0 -1.74,-3.037 z"
       id="path67"
       style="fill:#6598cb;fill-opacity:1" />
    <path
       d="m 101.519,12.089 a 1.752,1.752 0 0 0 -2.378,0.684 l -9.06,16.4 a 1.7503103,1.7503103 0 0 0 3.064,1.693 l 9.06,-16.394 a 1.75,1.75 0 0 0 -0.686,-2.383 z"
       id="path69"
       style="fill:#6598cb;fill-opacity:1" />
    <path
       d="M 83.615,11.675 A 1.734,1.734 0 0 0 81.8,13.361 l -0.438,12.305 a 1.75,1.75 0 0 0 1.687,1.811 h 0.063 A 1.749,1.749 0 0 0 84.86,25.79 l 0.438,-12.3 a 1.751,1.751 0 0 0 -1.683,-1.815 z"
       id="path71"
       style="fill:#6598cb;fill-opacity:1" />
    <path
       d="M 120.294,46.046 101.57,45.567 h -0.046 a 1.7501383,1.7501383 0 0 0 -0.044,3.5 l 18.725,0.479 h 0.045 a 1.7501383,1.7501383 0 0 0 0.044,-3.5 z"
       id="path73"
       style="fill:#6598cb;fill-opacity:1" />
    <path
       d="m 112.589,61.122 -10.835,-5.847 a 1.75,1.75 0 0 0 -1.662,3.08 l 10.835,5.845 a 1.75,1.75 0 1 0 1.662,-3.08 z"
       id="path75"
       style="fill:#6598cb;fill-opacity:1" />
  </g>
</svg>
