<?xml version="1.0" encoding="UTF-8" standalone="no"?>
<svg
   width="122.76512mm"
   height="126.9984mm"
   viewBox="0 0 122.76512 126.9984"
   xml:space="preserve"
   version="1.1"
   id="svg41"
   sodipodi:docname="speaker-02.svg"
   inkscape:version="1.2 (dc2aedaf03, 2022-05-15)"
   xmlns:inkscape="http://www.inkscape.org/namespaces/inkscape"
   xmlns:sodipodi="http://sodipodi.sourceforge.net/DTD/sodipodi-0.dtd"
   xmlns="http://www.w3.org/2000/svg"
   xmlns:svg="http://www.w3.org/2000/svg"><defs
     id="defs45" /><sodipodi:namedview
     id="namedview43"
     pagecolor="#ffffff"
     bordercolor="#666666"
     borderopacity="1.0"
     inkscape:showpageshadow="2"
     inkscape:pageopacity="0.0"
     inkscape:pagecheckerboard="0"
     inkscape:deskcolor="#d1d1d1"
     inkscape:document-units="mm"
     showgrid="false"
     inkscape:zoom="0.68862935"
     inkscape:cx="248.31936"
     inkscape:cy="202.57632"
     inkscape:window-width="1920"
     inkscape:window-height="1018"
     inkscape:window-x="-6"
     inkscape:window-y="-5"
     inkscape:window-maximized="1"
     inkscape:current-layer="svg41" /><g
     transform="matrix(0.26458,0,0,0.26458,-2.11664,0)"
     id="g39"><path
       style="fill:#d4d4d4"
       d="m 120,8 h 240 c 17.673,0 32,14.327 32,32 v 368 c 0,17.673 -14.327,32 -32,32 H 120 C 102.327,440 88,425.673 88,408 V 40 C 88,22.327 102.327,8 120,8 Z"
       id="path9" /><path
       style="fill:#c7c7c7"
       d="M 91.08,421.496 A 31.92,31.92 0 0 0 120,440 h 240 c 17.673,0 32,-14.327 32,-32 V 75.2 C 326.768,249.088 167.936,370.72 91.08,421.496 Z"
       id="path11" /><circle
       style="fill:#737373"
       cx="240"
       cy="288"
       r="120"
       id="circle13" /><path
       style="fill:#de4c3c"
       d="m 240,384 c -53.019,0 -96,-42.981 -96,-96 0,-53.019 42.981,-96 96,-96 53.019,0 96,42.981 96,96 -0.057,52.996 -43.004,95.943 -96,96 z m 0,-176 c -44.183,0 -80,35.817 -80,80 0,44.183 35.817,80 80,80 44.183,0 80,-35.817 80,-80 -0.048,-44.163 -35.837,-79.952 -80,-80 z"
       id="path15" /><circle
       style="fill:#666666"
       cx="240"
       cy="88"
       r="48"
       id="circle17" /><circle
       style="fill:#737373"
       cx="240"
       cy="88"
       r="16"
       id="circle19" /><path
       style="fill:#737373"
       d="m 112,32 h 16 v 16 h -16 z m 240,0 h 16 V 48 H 352 Z M 112,400 h 16 v 16 h -16 z m 240,0 h 16 v 16 h -16 z"
       id="path21" /><circle
       style="fill:#dedede"
       cx="240"
       cy="288"
       r="32"
       id="circle23" /><path
       style="fill:#737373"
       d="m 120,440 h 32 v 32 h -32 z m 208,0 h 32 v 32 h -32 z"
       id="path25" /><path
       style="fill:#87ced9"
       d="M 48,296 H 16 a 8,8 0 0 1 0,-16 h 32 a 8,8 0 0 1 0,16 z m 0,-56 a 8,8 0 0 1 -5.656,-2.344 l -24,-24 a 8,8 0 0 1 11.312,-11.312 l 24,24 A 8,8 0 0 1 48,240 Z M 24,376 a 8,8 0 0 1 -5.656,-13.656 l 24,-24 a 8,8 0 0 1 11.312,0.196 8,8 0 0 1 0,11.116 l -24,24 A 8,8 0 0 1 24,376 Z m 440,-80 h -32 a 8,8 0 0 1 0,-16 h 32 a 8,8 0 0 1 0,16 z m -32,-56 a 8,8 0 0 1 -5.656,-13.656 l 24,-24 a 8,8 0 0 1 11.312,11.312 l -24,24 A 8,8 0 0 1 432,240 Z m 24,136 a 8,8 0 0 1 -5.656,-2.344 l -24,-24 a 8,8 0 0 1 0.196,-11.312 8,8 0 0 1 11.116,0 l 24,24 A 8,8 0 0 1 456,376 Z"
       id="path27" /><path
       d="M 112,447.2 V 480 h 48 v -32 h 160 v 32 h 48 v -32.8 c 18.611,-3.827 31.976,-20.199 32,-39.2 V 40 C 399.974,17.92 382.08,0.026 360,0 H 120 C 97.92,0.026 80.026,17.92 80,40 v 368 c 0.024,19.001 13.389,35.373 32,39.2 z m 32,16.8 h -16 v -16 h 16 z m 208,0 h -16 v -16 h 16 z M 96,40 c 0,-13.255 10.745,-24 24,-24 h 240 c 13.255,0 24,10.745 24,24 v 368 c 0,13.255 -10.745,24 -24,24 H 120 c -13.255,0 -24,-10.745 -24,-24 z"
       style="fill:#554400"
       id="path29" /><path
       d="m 240,416 c 70.692,0 128,-57.308 128,-128 0,-70.692 -57.308,-128 -128,-128 -70.692,0 -128,57.308 -128,128 0.084,70.658 57.342,127.916 128,128 z m 0,-240 c 61.856,0 112,50.144 112,112 0,61.856 -50.144,112 -112,112 -61.856,0 -112,-50.144 -112,-112 0.066,-61.828 50.172,-111.934 112,-112 z"
       id="path31" /><path
       d="m 240,384 c 53.019,0 96,-42.981 96,-96 0,-53.019 -42.981,-96 -96,-96 -53.019,0 -96,42.981 -96,96 0.057,52.996 43.004,95.943 96,96 z m 0,-176 c 44.183,0 80,35.817 80,80 0,44.183 -35.817,80 -80,80 -44.183,0 -80,-35.817 -80,-80 0.048,-44.163 35.837,-79.952 80,-80 z m 0,-64 c 30.928,0 56,-25.072 56,-56 0,-30.928 -25.072,-56 -56,-56 -30.928,0 -56,25.072 -56,56 0.035,30.913 25.087,55.965 56,56 z m 0,-96 c 22.091,0 40,17.909 40,40 0,22.091 -17.909,40 -40,40 -22.091,0 -40,-17.909 -40,-40 0.026,-22.08 17.92,-39.974 40,-40 z"
       id="path33" /><path
       d="m 240,112 c 13.255,0 24,-10.745 24,-24 0,-13.255 -10.745,-24 -24,-24 -13.255,0 -24,10.745 -24,24 0,13.255 10.745,24 24,24 z m 0,-32 a 8,8 0 1 1 0,16 8,8 0 0 1 0,-16 z M 112,32 h 16 v 16 h -16 z m 240,0 h 16 V 48 H 352 Z M 112,400 h 16 v 16 h -16 z m 240,0 h 16 v 16 H 352 Z M 240,328 c 22.091,0 40,-17.909 40,-40 0,-22.091 -17.909,-40 -40,-40 -22.091,0 -40,17.909 -40,40 0.026,22.08 17.92,39.974 40,40 z m 0,-64 c 13.255,0 24,10.745 24,24 0,13.255 -10.745,24 -24,24 -13.255,0 -24,-10.745 -24,-24 0,-13.255 10.745,-24 24,-24 z"
       id="path35" /><path
       d="m 16,296 h 32 a 8,8 0 0 0 0,-16 H 16 a 8,8 0 0 0 0,16 z m 26.344,-58.344 a 8,8 0 0 0 11.312,-11.312 l -24,-24 a 8,8 0 0 0 -11.312,11.312 z m -12.688,136 24,-24 A 8,8 0 0 0 42.344,338.344 l -24,24 a 8,8 0 0 0 -0.196,11.312 8,8 0 0 0 11.508,0 z M 432,296 h 32 a 8,8 0 0 0 0,-16 h -32 a 8,8 0 0 0 0,16 z m 0,-56 a 8,8 0 0 0 5.656,-2.344 l 24,-24 a 8,8 0 0 0 -11.312,-11.312 l -24,24 A 8,8 0 0 0 432,240 Z m 18.344,133.656 a 8,8 0 0 0 11.312,-0.196 8,8 0 0 0 0,-11.116 l -24,-24 a 8,8 0 0 0 -11.312,0.196 8,8 0 0 0 0,11.116 z"
       style="fill:#ffd42a"
       id="path37" /></g></svg>
